<?xml version="1.0" standalone="no"?>
<!DOCTYPE svg PUBLIC "-//W3C//DTD SVG 20010904//EN"
 "http://www.w3.org/TR/2001/REC-SVG-20010904/DTD/svg10.dtd">
<svg version="1.0" xmlns="http://www.w3.org/2000/svg"
 width="700.000000pt" height="700.000000pt" viewBox="0 0 700.000000 700.000000"
 preserveAspectRatio="xMidYMid meet">
<metadata>
Created by potrace 1.14, written by Peter Selinger 2001-2017
</metadata>
<g transform="translate(0.000000,700.000000) scale(0.100000,-0.100000)"
fill="#000000" stroke="none">
<path d="M2217 6664 c-1 -1 -29 -5 -62 -8 -217 -23 -423 -122 -591 -283 -103
-99 -133 -142 -329 -483 -238 -413 -374 -648 -448 -777 -42 -72 -85 -147 -96
-165 -84 -148 -408 -707 -449 -778 -174 -293 -223 -450 -217 -685 4 -124 6
-140 31 -240 16 -66 78 -216 104 -255 9 -14 28 -45 42 -70 14 -25 118 -206
232 -404 114 -197 216 -372 226 -390 25 -45 480 -831 595 -1031 54 -93 110
-190 124 -215 40 -72 124 -181 188 -242 149 -141 385 -254 577 -275 84 -9
2646 -9 2723 0 77 9 208 47 288 82 153 68 331 216 421 350 31 46 344 580 431
735 40 71 73 129 233 405 95 165 270 467 387 670 118 204 220 381 229 395 47
79 96 215 119 330 14 71 15 303 2 355 -3 11 -10 40 -16 65 -28 122 -72 216
-216 461 -52 89 -95 163 -95 165 0 2 -25 44 -55 94 -30 50 -55 92 -55 95 0 2
-29 52 -64 112 -56 96 -628 1085 -687 1189 -211 369 -272 455 -393 554 -93 76
-139 106 -243 153 -88 39 -195 71 -283 83 -42 6 -2646 13 -2653 8z m1723 -959
c217 -125 557 -321 755 -435 198 -114 402 -232 453 -261 52 -30 106 -61 120
-70 15 -9 47 -27 72 -41 25 -14 99 -57 165 -95 l120 -69 0 -1224 0 -1224 -120
-69 c-294 -170 -452 -261 -480 -277 -16 -10 -70 -41 -120 -70 -49 -29 -108
-62 -130 -75 -71 -40 -410 -235 -425 -244 -18 -12 -214 -124 -285 -164 -27
-16 -61 -35 -74 -44 -12 -8 -48 -29 -80 -45 -31 -17 -80 -46 -109 -65 -29 -18
-55 -33 -58 -33 -3 0 -44 -23 -92 -51 -164 -98 -141 -91 -203 -54 -30 17 -175
102 -324 187 -148 86 -443 256 -655 378 -212 122 -410 236 -440 253 -30 16
-71 40 -90 52 -19 12 -42 25 -50 28 -8 4 -28 16 -45 26 -27 17 -83 50 -200
116 -22 13 -87 51 -144 84 -57 33 -107 59 -110 57 -3 -2 -6 550 -6 1227 l0
1230 32 18 c18 10 283 163 590 340 307 178 569 329 583 336 14 7 225 130 470
272 392 227 447 257 465 246 11 -7 198 -114 415 -240z"/>
</g>
</svg>
