<svg xmlns="http://www.w3.org/2000/svg" width="256" height="256" viewBox="0 0 256 256">
    <g fill="none" fill-rule="evenodd">
        <g fill="#FFF" fill-rule="nonzero">
            <path d="M125.258 8.921c2.665-2.561 6.986-2.561 9.651 0l119.092 114.442c2.665 2.561 2.665 6.714 0 9.274L134.91 247.08c-2.665 2.561-6.986 2.561-9.65 0l-11.26-10.82c-2.665-2.56-2.665-6.713 0-9.274L201.187 143H5c-2.761 0-5-2.239-5-5v-20c0-2.761 2.239-5 5-5h196.189l-87.19-83.985c-2.603-2.502-2.664-6.522-.182-9.093l.182-.182z"/>
        </g>
    </g>
</svg>
