<svg width="256" height="256" viewBox="0 0 256 256" fill="none" xmlns="http://www.w3.org/2000/svg">
<path fill-rule="evenodd" clip-rule="evenodd" d="M217.6 102C217.6 106.88 216.68 111.56 215.04 115.84C238.4 120.56 256 141.24 256 166C256 194.28 233.08 217.2 204.8 217.2H57.6C25.8 217.2 0 191.4 0 159.6C0 134.48 16.08 113.12 38.48 105.24C38.44 104.16 38.4 103.08 38.4 102C38.4 66.64 67.04 38 102.4 38C126.12 38 146.8 50.88 157.88 70.08C163.96 66 171.32 63.6 179.2 63.6C200.4 63.6 217.6 80.8 217.6 102ZM157.114 101.632C158.254 99.6498 160.977 99.7337 161.929 101.833C165.162 108.954 167 117.687 167 126.118C167 155.072 148.198 178.719 121.484 180.633C107.718 182.078 97.2364 175.041 91.7234 167.668C83.0455 174.839 79.7445 182.279 79.4893 182.884C78.3322 185.605 75.1673 186.931 72.3768 185.789C69.6032 184.664 68.276 181.54 69.3991 178.803C73.4147 169.079 91.5533 143.198 134.33 143.198C135.828 143.198 137.053 141.989 137.053 140.511C137.053 139.033 135.828 137.824 134.33 137.824C112.108 137.824 96.4367 144.34 85.5808 152.015C85.5668 151.881 85.5526 151.748 85.5384 151.614C85.4316 150.609 85.3256 149.61 85.3256 148.572C85.3256 130.77 99.9589 116.327 117.995 116.327H131.608C142.396 116.327 151.839 110.684 157.114 101.632Z" fill="#3C1053"/>
</svg>
