<svg xmlns="http://www.w3.org/2000/svg" width="256" height="256" viewBox="0 0 256 256">
    <g fill="none" fill-rule="evenodd">
        <g fill="#FFF" fill-rule="nonzero">
            <path d="M245.753 227.097c4.088 0 7.775-2.444 9.42-6.22 1.6-3.777.844-8.131-1.955-11.108-.223-.178-10.042-10.752-16.84-24.393 12.219-12.041 19.55-27.148 19.55-43.632 0-35.545-33.99-64.914-78.288-70.157C163.688 45.995 130.764 28 92.42 28 41.368 28 .003 59.813.003 99.09c0 16.44 7.331 31.547 19.55 43.632-6.798 13.64-16.573 24.215-16.751 24.393-2.8 2.977-3.599 7.33-1.955 11.107 1.6 3.777 5.332 6.22 9.42 6.22 23.77 0 42.965-8.974 55.628-17.239 4.043.934 8.175 1.645 12.44 2.133 13.996 25.548 46.876 43.543 85.22 43.543 9.242 0 18.128-1.066 26.57-3.021 12.663 8.22 31.813 17.239 55.628 17.239zm-226.6-57.405c3.91-5.021 8.975-12.263 13.107-20.616l4.621-9.242-7.331-7.242c-7.02-6.887-15.329-18.306-15.329-33.502 0-31.368 35.1-56.872 78.2-56.872 43.098 0 78.198 25.504 78.198 56.872 0 31.369-35.1 56.872-78.199 56.872-7.864 0-15.729-.888-23.37-2.665l-5.866-1.333-5.065 3.288c-8.93 5.82-22.438 12.529-38.966 14.44zm217.58 42.61c-16.484-1.867-29.99-8.62-38.921-14.396l-5.066-3.288-5.865 1.377c-7.642 1.777-15.506 2.666-23.37 2.666-28.925 0-54.207-11.508-67.714-28.57 49.452-1.421 89.04-32.612 89.04-71 0-4.222-.577-8.31-1.466-12.308 33.501 6.442 58.339 28.614 58.339 54.961 0 15.196-8.309 26.615-15.33 33.502l-7.33 7.242 4.576 9.197c4.177 8.398 9.242 15.64 13.107 20.616z"/>
        </g>
    </g>
</svg>
