<svg xmlns="http://www.w3.org/2000/svg" width="256" height="256" viewBox="0 0 256 256">
    <g fill="none" fill-rule="evenodd">
        <g>
            <path fill="#C05701" d="M251.542 135.404L215.2 232.32c-1.96 4.959-6.708 8.256-12.142 8.389H53.093c-5.454-.302-10.25-3.588-12.17-8.443L4.587 135.364c-1.73-5.222-1.723-10.708.01-15.757l36.186-96.932c1.958-4.954 6.706-8.251 12.14-8.384h150.05c5.182.132 9.94 3.424 12.087 8.454l36.339 96.905c1.7 4.982 1.742 10.464.144 15.754zm6.038-18.022L221.2 20.368l-.05-.123c-3.13-7.428-10.202-12.34-18.096-12.537H52.842c-8.152.197-15.252 5.128-18.207 12.606l-36.238 97.073c-2.241 6.526-2.241 13.516-.038 20.117l.04.114 36.38 97.014c2.921 7.394 10.057 12.256 18.063 12.656l.165.004h150.13c8.152-.197 15.252-5.128 18.206-12.606l36.402-97.068.065-.193c2.032-6.641 1.984-13.595-.199-19.955l-3.114 1.068 3.083-1.156z"/>
            <g fill="#FE811B">
                <path d="M43.463 96.928L9.948 63.424c-2.014-2.013-2.014-5.277 0-7.29l7.292-7.29c2.013-2.013 5.278-2.013 7.292 0l22.577 22.57 48.36-48.342c2.013-2.013 5.278-2.013 7.291 0l7.292 7.29c2.014 2.013 2.014 5.276 0 7.29L50.755 96.927c-2.013 2.013-5.278 2.013-7.292 0z" transform="translate(68 68)"/>
            </g>
        </g>
    </g>
</svg>
