<svg xmlns="http://www.w3.org/2000/svg" width="256" height="256" viewBox="0 0 256 256">
    <g fill="none" fill-rule="evenodd">
        <g fill="#FFF" fill-rule="nonzero">
            <path d="M228.571 0H27.43C12.28 0 0 12.28 0 27.429V228.57C0 243.72 12.28 256 27.429 256H228.57C243.72 256 256 243.72 256 228.571V27.43C256 12.28 243.72 0 228.571 0zm8.64 228.061c0 5.045-4.105 9.15-9.15 9.15H26.765c-5.046 0-9.15-4.105-9.15-9.15V26.765c0-5.046 4.104-9.15 9.15-9.15H228.06c5.045 0 9.15 4.104 9.15 9.15V228.06zM57.208 195.55c-2.687-2.688-2.687-7.044 0-9.731L169.106 73.919l-.405-.405-51.582.196c-3.8 0-6.88-3.081-6.88-6.881v-5.733c0-3.8 3.08-6.881 6.88-6.881l77.982-.197c3.8 0 6.88 3.08 6.88 6.881l-.196 77.982c0 3.8-3.08 6.88-6.88 6.88h-5.734c-3.8 0-6.88-3.08-6.88-6.88l.195-51.582-.405-.405L70.182 198.792c-2.686 2.687-7.043 2.687-9.73 0l-3.244-3.243z"/>
        </g>
    </g>
</svg>
