<svg xmlns="http://www.w3.org/2000/svg" width="256" height="256" viewBox="0 0 256 256">
    <g fill="none" fill-rule="evenodd">
        <g fill="#FFF" fill-rule="nonzero">
            <path d="M243.5 191c6.904 0 12.5 5.596 12.5 12.5s-5.596 12.5-12.5 12.5h-231C5.596 216 0 210.404 0 203.5S5.596 191 12.5 191h231zm0-75c6.904 0 12.5 5.596 12.5 12.5s-5.596 12.5-12.5 12.5h-231C5.596 141 0 135.404 0 128.5S5.596 116 12.5 116h231zm0-75c6.904 0 12.5 5.596 12.5 12.5S250.404 66 243.5 66h-231C5.596 66 0 60.404 0 53.5S5.596 41 12.5 41h231z"/>
        </g>
    </g>
</svg>
