<svg xmlns="http://www.w3.org/2000/svg" width="256" height="256" viewBox="0 0 256 256">
    <g fill="none" fill-rule="evenodd">
        <g fill="#FFF">
            <path d="M152.992 240.011l64.008-.165c4.416 0 8-3.584 8-8v-121.54l20.433 16.691c.609.495 1.739.896 2.522.896 1.05 0 2.44-.661 3.104-1.476l5.05-6.206c.492-.607.891-1.734.891-2.516 0-1.059-.67-2.456-1.496-3.119L139.065 19.564C136.625 17.597 132.102 16 128.97 16c-3.134 0-7.657 1.597-10.097 3.564L2.473 114.576C1.66 115.239 1 116.628 1 117.677c0 .783.4 1.912.893 2.52l5.051 6.205c.663.813 2.052 1.473 3.1 1.473.776 0 1.895-.393 2.5-.878l20.433-16.692V231.82c0 4.417 3.584 8.001 8.001 8.001h64.008c4.416 0 8-3.584 8-8v-64.009l32.005.15v64.048c0 4.417 3.584 8.001 8 8.001zm7.996-15.977v-64.093c-.014-4.389-3.587-7.973-7.976-8l-48.006-.135h-.025c-4.417 0-8.001 3.584-8.001 8v64.078H48.979V97.25l80.01-65.293 80.01 65.293-.056 126.635h.05l-48.005.15z"/>
        </g>
    </g>
</svg>
