<?xml version="1.0" encoding="UTF-8"?>
<svg id="Layer_1" xmlns="http://www.w3.org/2000/svg" version="1.1" viewBox="0 0 256 256">
  <!-- Generator: Adobe Illustrator 29.2.1, SVG Export Plug-In . SVG Version: 2.1.0 Build 116)  -->
  <defs>
    <style>
      .st0 {
        fill: #fff;
      }
    </style>
  </defs>
  <path class="st0" d="M145,68V0H45c-6.8,0-12,5.2-12,12v232c0,6.8,5.2,12,12,12h168c6.8,0,12-5.2,12-12V80h-68c-6.8,0-12-5.2-12-12ZM83.4,186.4h-10.4v-19.6h-15.2v19.6h-10.4v-45.6h10.4v18h15.2v-18h10.4v45.6ZM122.2,148.8h-11.2v37.6h-10v-37.6h-11.2v-8h32.4v8ZM186.2,140.8h10.4v37.6h16.8v8h-27.2s0-45.6,0-45.6ZM176.2,140.8v45.6h-9.6v-35.6h0l-9.2,35.6h-9.6l-9.6-36h-.4v4c0,1.6,0,3.6.4,5.6v26.4h-9.2v-45.6h14l9.6,34.8h0l9.6-34.8h14.4-.4Z"/>
  <path class="st0" d="M221.4,53.2L172.6,3.6c-2.4-2.4-5.2-3.6-8.4-3.6h-3.2v64.8h64v-3.2c0-2.8-1.2-6-3.6-8.4Z"/>
</svg>