<svg xmlns="http://www.w3.org/2000/svg" width="256" height="256" viewBox="0 0 256 256">
    <g fill="none" fill-rule="evenodd">
        <g fill="#FFF" fill-rule="nonzero">
            <path d="M206.06 256c4.1 0 8.198-1.55 11.298-4.699l33.943-33.943c6.199-6.299 6.199-16.397-.05-22.646l-62.188-62.238c-7.798-7.798-18.046-11.698-28.294-11.698-7.699 0-15.397 2.2-22.046 6.65L95.981 84.683V47.99L31.994 0 0 31.994 47.99 95.98h36.694l42.742 42.742c-10.299 15.547-8.599 36.643 5.098 50.34l62.238 62.238c3.1 3.1 7.199 4.699 11.298 4.699zm13.248-115.877c5.198-3.1 10.098-6.799 14.497-11.248 18.896-18.896 26.345-45.691 19.846-71.636-1.15-4.75-4.85-8.498-9.548-9.798-4.75-1.3-9.849 0-13.348 3.5l-31.943 31.943-22.096-3.7-3.7-22.095 31.944-31.944c3.45-3.449 4.8-8.548 3.5-13.247-1.3-4.75-5.1-8.399-9.849-9.599-25.845-6.448-52.64.95-71.586 19.847-6.448 6.449-11.447 13.947-15.047 21.995v33.894l11.048 11.048c-4.799-20.196.8-41.092 15.347-55.64 11.348-11.347 26.295-17.446 41.892-17.446 3.45 0 6.899.3 10.348.9L155.97 51.59l6.898 41.492 41.543 6.899 34.643-34.644c3.35 19.097-2.65 38.393-16.547 52.24-4.45 4.45-9.548 7.999-14.997 10.748l11.798 11.798zM79.985 79.984H55.989l-34.843-46.49 12.348-12.348 46.49 34.843v23.995zM37.943 255.95c10.148 0 19.696-3.95 26.844-11.148l50.89-50.84c-3.349-4.599-5.898-9.648-7.748-14.897l-54.44 54.44c-8.297 8.298-22.795 8.298-31.093 0-8.548-8.549-8.548-22.546 0-31.094l73.036-73.036-11.298-11.298-73.036 73.036c-14.797 14.797-14.797 38.892 0 53.74C18.247 252 27.795 255.95 37.943 255.95zm168.067-15.997l-62.188-62.238c-4.55-4.548-7.049-10.547-7.049-16.946 0-6.4 2.5-12.448 7.05-16.947 4.548-4.55 10.547-7.049 16.946-7.049 6.399 0 12.447 2.5 16.947 7.05l62.237 62.187-33.943 33.943zM39.992 223.956c4.4 0 7.999-3.599 7.999-7.998 0-4.4-3.6-7.998-7.999-7.998-4.399 0-7.998 3.599-7.998 7.998s3.6 7.998 7.998 7.998z"/>
        </g>
    </g>
</svg>
