<svg xmlns="http://www.w3.org/2000/svg" width="256" height="256" viewBox="0 0 256 256">
    <g fill="none" fill-rule="evenodd">
        <g fill="#FFF" fill-rule="nonzero">
            <g>
                <path d="M205.333 0H18.667C8.36 0 0 8.35 0 18.643v136.714C0 165.65 8.361 174 18.667 174h186.666C215.64 174 224 165.65 224 155.357V18.643C224 8.35 215.639 0 205.333 0zM68.444 37.286c13.728 0 24.89 11.147 24.89 24.857C93.333 75.853 82.171 87 68.443 87c-13.727 0-24.888-11.147-24.888-24.857 0-13.71 11.16-24.857 24.888-24.857zM112 129.257c0 4.117-3.889 7.457-8.711 7.457H33.6c-4.822 0-8.711-3.34-8.711-7.457V121.8c0-12.35 11.705-22.371 26.133-22.371h1.945c4.783 1.98 9.994 3.107 15.477 3.107 5.484 0 10.734-1.127 15.478-3.107h1.945c14.427 0 26.133 10.02 26.133 22.371v7.457zm87.111-20.507c0 1.709-1.4 3.107-3.111 3.107h-56c-1.711 0-3.111-1.398-3.111-3.107v-6.214c0-1.71 1.4-3.107 3.111-3.107h56c1.711 0 3.111 1.398 3.111 3.107v6.214zm0-24.857c0 1.709-1.4 3.107-3.111 3.107h-56c-1.711 0-3.111-1.398-3.111-3.107v-6.214c0-1.71 1.4-3.108 3.111-3.108h56c1.711 0 3.111 1.399 3.111 3.108v6.214zm0-24.857c0 1.709-1.4 3.107-3.111 3.107h-56c-1.711 0-3.111-1.398-3.111-3.107V52.82c0-1.709 1.4-3.107 3.111-3.107h56c1.711 0 3.111 1.398 3.111 3.107v6.215z" transform="translate(16 41)"/>
            </g>
        </g>
    </g>
</svg>
