<svg xmlns="http://www.w3.org/2000/svg" width="256" height="256" viewBox="0 0 256 256">
    <g fill="none" fill-rule="evenodd">
        <g fill="#FFF" fill-rule="nonzero">
            <path d="M128 0C57.313 0 0 57.333 0 128c0 70.708 57.313 128 128 128s128-57.292 128-128C256 57.333 198.687 0 128 0zm0 56.774c11.972 0 21.677 9.705 21.677 21.678 0 11.972-9.705 21.677-21.677 21.677s-21.677-9.705-21.677-21.677c0-11.973 9.705-21.678 21.677-21.678zm28.903 131.097c0 3.42-2.773 6.194-6.193 6.194h-45.42c-3.42 0-6.193-2.774-6.193-6.194v-12.387c0-3.42 2.773-6.194 6.193-6.194h6.194v-33.032h-6.194c-3.42 0-6.193-2.773-6.193-6.193v-12.388c0-3.42 2.773-6.193 6.193-6.193h33.033c3.42 0 6.193 2.773 6.193 6.193v51.613h6.194c3.42 0 6.193 2.773 6.193 6.194v12.387z"/>
        </g>
    </g>
</svg>
