<svg xmlns="http://www.w3.org/2000/svg" width="256" height="256" viewBox="0 0 256 256">
    <g fill="none" fill-rule="evenodd">
        <g fill="#FFF" fill-rule="nonzero">
            <path d="M33.574 64.967c4.633 0 8.393-3.76 8.393-8.393v-25.18c0-4.634-3.76-8.394-8.393-8.394H8.394C3.76 23 0 26.76 0 31.393v25.18c0 4.634 3.76 8.394 8.393 8.394h25.18zm218.23-12.59c2.316 0 4.196-1.88 4.196-4.197v-8.393c0-2.317-1.88-4.197-4.197-4.197H75.541c-2.317 0-4.197 1.88-4.197 4.197v8.393c0 2.317 1.88 4.197 4.197 4.197h176.262zm-218.23 96.525c4.633 0 8.393-3.76 8.393-8.394v-25.18c0-4.633-3.76-8.394-8.393-8.394H8.394c-4.634 0-8.394 3.76-8.394 8.394v25.18c0 4.633 3.76 8.394 8.393 8.394h25.18zm218.23-12.59c2.316 0 4.196-1.88 4.196-4.197v-8.394c0-2.316-1.88-4.196-4.197-4.196H75.541c-2.317 0-4.197 1.88-4.197 4.196v8.394c0 2.316 1.88 4.196 4.197 4.196h176.262zm-218.23 96.524c4.633 0 8.393-3.76 8.393-8.393v-25.18c0-4.634-3.76-8.394-8.393-8.394H8.394c-4.634 0-8.394 3.76-8.394 8.393v25.18c0 4.634 3.76 8.394 8.393 8.394h25.18zm218.23-12.59c2.316 0 4.196-1.88 4.196-4.197v-8.393c0-2.317-1.88-4.197-4.197-4.197H75.541c-2.317 0-4.197 1.88-4.197 4.197v8.393c0 2.317 1.88 4.197 4.197 4.197h176.262z"/>
        </g>
    </g>
</svg>
