<svg xmlns="http://www.w3.org/2000/svg" width="256" height="256" viewBox="0 0 256 256">
    <g fill="none" fill-rule="evenodd">
        <g fill="#FFF" fill-rule="nonzero">
            <path d="M170.78 227.111c2.489 0 6.43-.625 8.798-1.395l67.48-23.472c4.936-1.973 8.942-7.888 8.942-13.204V35.12c0-4.084-3.347-7.12-7.102-7.12-.872 0-1.77.164-2.65.516l-75.577 27.928h-.004L94.222 29.458C91.805 28.654 87.774 28 85.227 28c-2.974 0-5.943.467-8.805 1.395L8.942 52.867C4.007 54.84 0 60.757 0 66.07v153.92c0 4.085 3.347 7.12 7.107 7.12.87 0 1.764-.164 2.649-.516l75.577-27.928 76.445 26.982c2.419.807 6.451 1.462 9.001 1.462zM14.181 209.8l-.569-143.498 64.61-22.475v142.306L14.182 209.8zm149.374 1.396l-71.112-25.103V43.911l71.112 25.102v142.183zm14.222.088V68.978l64.04-23.671.569 143.497-64.61 22.48z"/>
        </g>
    </g>
</svg>
