<svg xmlns="http://www.w3.org/2000/svg" width="256" height="256" viewBox="0 0 256 256">
    <g fill="none" fill-rule="evenodd">
        <g fill="#FFF" fill-rule="nonzero">
            <path d="M74.484 256c16.56 0 33.12-6.295 45.726-18.886l109.013-108.868c2.346-2.344 2.346-6.143 0-8.486l-2.834-2.83c-2.347-2.344-6.15-2.344-8.497 0L108.88 225.799c-18.965 18.94-49.825 18.94-68.791 0-18.966-18.942-18.966-49.76 0-68.7L171.294 26.063c13.443-13.424 35.316-13.425 48.76 0 13.444 13.427 13.444 35.272 0 48.697l-111.46 111.313c-7.92 7.91-20.809 7.91-28.729 0-7.921-7.91-7.921-20.782-.001-28.693l85.261-85.148c2.346-2.343 2.346-6.143 0-8.485l-2.834-2.83c-2.346-2.344-6.15-2.344-8.496 0l-85.262 85.148c-14.168 14.15-14.168 37.174 0 51.325 14.17 14.151 37.226 14.15 51.392 0l111.46-111.313c19.692-19.665 19.692-51.663 0-71.329-19.691-19.665-51.731-19.665-71.423 0L28.757 145.782c-25.214 25.18-25.214 66.152 0 91.332C41.364 249.705 57.924 256 74.484 256z"/>
        </g>
    </g>
</svg>
