<?xml version="1.0" encoding="UTF-8"?>
<svg id="Layer_1" xmlns="http://www.w3.org/2000/svg" version="1.1" viewBox="0 0 192 256">
  <!-- Generator: Adobe Illustrator 29.2.1, SVG Export Plug-In . SVG Version: 2.1.0 Build 116)  -->
  <defs>
    <style>
      .st0 {
        fill: #fff;
      }
    </style>
  </defs>
  <path class="st0" d="M95.9,144.6h-4v29.6h3.2c4,0,6.8-1.2,8.8-3.6,2-2.4,2.8-6.4,2.8-11.2s-.8-8.8-2.8-11.2-4.4-3.6-8-3.6Z"/>
  <path class="st0" d="M57.5,144.6h-3.6v13.6h2.8c2,0,3.6,0,5.2-1.6,1.2-1.2,2-2.8,2-5.2-.4-4.8-2.4-6.8-6.4-6.8Z"/>
  <path class="st0" d="M188.4,53.2L139.6,3.6c-2.4-2.4-5.2-3.6-8.4-3.6h-3.2v64.8h64v-3.2c0-2.8-1.2-6-3.6-8.4h0Z"/>
  <path class="st0" d="M112,68V0H12C5.2,0,0,5.2,0,12v232c0,6.8,5.2,12,12,12h168c6.8,0,12-5.2,12-12V80h-68c-6.8,0-12-5.2-12-12ZM72.4,158.4c-1.2,2.4-2.8,4-5.2,5.6-2.4,1.6-5.6,2-9.6,2h-3.6v16.4h-10.4v-45.6h14.4c5.6,0,9.6,1.2,12,4,2.8,2.4,4,6,4,10.4s-.4,4.8-1.6,7.2h0ZM111.2,176.4c-4,4-9.6,6-16.8,6h-12.8v-45.6h14c6.8,0,12,2,16,5.6s6,9.2,6,16.8-2,13.6-6.4,17.2ZM126,136.8h25.2v8h-15.2v11.6h13.6v8h-13.6v18h-10v-45.6h0Z"/>
</svg>