<?xml version="1.0" encoding="UTF-8"?>
<svg id="Layer_1" data-name="Layer 1" xmlns="http://www.w3.org/2000/svg" version="1.1" viewBox="0 0 48 64">
  <defs>
    <style>
      .cls-1 {
        fill: #c05701;
        stroke-width: 0px;
      }
    </style>
  </defs>
  <path class="cls-1" d="M24,36.2h-1v7.4h.8c1,0,1.7-.3,2.2-.9.5-.6.7-1.6.7-2.8s-.2-2.2-.7-2.8c-.5-.6-1.1-.9-2-.9Z"/>
  <path class="cls-1" d="M14.4,36.2h-.9v3.4h.7c.5,0,.9,0,1.3-.4.3-.3.5-.7.5-1.3-.1-1.2-.6-1.7-1.6-1.7Z"/>
  <path class="cls-1" d="M47.1,13.3L34.9.9c-.6-.6-1.3-.9-2.1-.9h-.8v16.2h16v-.8c0-.7-.3-1.5-.9-2.1Z"/>
  <path class="cls-1" d="M28,17V0H3C1.3,0,0,1.3,0,3v58c0,1.7,1.3,3,3,3h42c1.7,0,3-1.3,3-3V20h-17c-1.7,0-3-1.3-3-3ZM18.1,39.6c-.3.6-.7,1-1.3,1.4-.6.4-1.4.5-2.4.5h-.9v4.1h-2.6v-11.4h3.6c1.4,0,2.4.3,3,1,.7.6,1,1.5,1,2.6,0,.6-.1,1.2-.4,1.8ZM27.8,44.1c-1,1-2.4,1.5-4.2,1.5h-3.2v-11.4h3.5c1.7,0,3,.5,4,1.4s1.5,2.3,1.5,4.2c0,1.9-.5,3.4-1.6,4.3ZM31.5,34.2h6.3v2h-3.8v2.9h3.4v2h-3.4v4.5h-2.5v-11.4Z"/>
</svg>