<svg xmlns="http://www.w3.org/2000/svg" width="256" height="256" viewBox="0 0 256 256">
    <g fill="none" fill-rule="evenodd">
        <g fill="#FFF" fill-rule="nonzero">
            <path d="M256 128c0 70.693-57.307 128-128 128S0 198.693 0 128 57.307 0 128 0s128 57.307 128 128zm-142.291 67.585l94.875-94.843c3.221-3.22 3.221-8.443 0-11.663l-11.667-11.663c-3.222-3.221-8.446-3.221-11.668 0l-77.374 77.347-36.124-36.112c-3.222-3.22-8.446-3.22-11.668 0l-11.667 11.663c-3.221 3.22-3.221 8.443 0 11.663l53.625 53.607c3.222 3.221 8.446 3.221 11.668 0z"/>
        </g>
    </g>
</svg>
