<?xml version="1.0" encoding="UTF-8"?>
<svg id="Layer_1" xmlns="http://www.w3.org/2000/svg" version="1.1" viewBox="0 0 24 24">
  <!-- Generator: Adobe Illustrator 30.1.0, SVG Export Plug-In . SVG Version: 2.1.1 Build 136)  -->
  <defs>
    <style>
      .st0 {
        fill: #fff;
      }
    </style>
  </defs>
  <path class="st0" d="M18.3,23.4H6.9v-14.9L14.9.6l1.4,1.4c.1,0,.2.3.3.5,0,.2.1.4.1.7v.4l-1.3,5h6.2c.6,0,1.1.2,1.6.7s.7,1,.7,1.6v2.7c0,.2,0,.3-.1.4l-3.4,8.1c-.2.4-.5.7-.9,1s-.8.4-1.3.4h0ZM4.6,8.6v14.9H0v-14.9h4.6Z"/>
</svg>