<svg width="257" height="256" viewBox="0 0 257 256" fill="none" xmlns="http://www.w3.org/2000/svg">
<path d="M256.5 149.459H257V148.959H256.5V149.459ZM0.5 149.459V148.959H0V149.459H0.5ZM0.5 106.875H0V107.375H0.5V106.875ZM256.5 106.875V107.375H257V106.875H256.5ZM199.611 85.5837H200.111V85.0837H199.611V85.5837ZM57.3889 85.5837V85.0837H56.8889V85.5837H57.3889ZM199.611 170.751V171.251H200.111V170.751H199.611ZM57.3889 170.751H56.8889V171.251H57.3889V170.751ZM256.5 148.959C244.993 148.959 235.667 139.65 235.667 128.167H234.667C234.667 140.204 244.443 149.959 256.5 149.959V148.959ZM257 192.043V149.459H256V192.043H257ZM235.167 213.835C247.224 213.835 257 204.079 257 192.043H256C256 203.525 246.674 212.835 235.167 212.835V213.835ZM21.8333 213.835H235.167V212.835H21.8333V213.835ZM0 192.043C0 204.079 9.77589 213.835 21.8333 213.835V212.835C10.3263 212.835 1 203.525 1 192.043H0ZM0 149.459V192.043H1V149.459H0ZM21.3333 128.167C21.3333 139.65 12.007 148.959 0.5 148.959V149.959C12.5574 149.959 22.3333 140.204 22.3333 128.167H21.3333ZM0.5 107.375C12.007 107.375 21.3333 116.685 21.3333 128.167H22.3333C22.3333 116.131 12.5574 106.375 0.5 106.375V107.375ZM0 64.2918V106.875H1V64.2918H0ZM21.8333 42.5C9.77589 42.5 0 52.2555 0 64.2918H1C1 52.8096 10.3263 43.5 21.8333 43.5V42.5ZM235.167 42.5H21.8333V43.5H235.167V42.5ZM257 64.2918C257 52.2555 247.224 42.5 235.167 42.5V43.5C246.674 43.5 256 52.8096 256 64.2918H257ZM257 106.875V64.2918H256V106.875H257ZM235.667 128.167C235.667 116.685 244.993 107.375 256.5 107.375V106.375C244.443 106.375 234.667 116.131 234.667 128.167H235.667ZM199.611 85.0837H57.3889V86.0837H199.611V85.0837ZM200.111 170.751V85.5837H199.111V170.751H200.111ZM57.3889 171.251H199.611V170.251H57.3889V171.251ZM56.8889 85.5837V170.751H57.8889V85.5837H56.8889ZM214.333 82.035C214.333 75.8783 209.333 70.8891 203.167 70.8891V71.8891C208.783 71.8891 213.333 76.4324 213.333 82.035H214.333ZM214.333 174.3V82.035H213.333V174.3H214.333ZM203.167 185.446C209.333 185.446 214.333 180.456 214.333 174.3H213.333C213.333 179.902 208.783 184.446 203.167 184.446V185.446ZM53.8333 185.446H203.167V184.446H53.8333V185.446ZM42.6667 174.3C42.6667 180.456 47.667 185.446 53.8333 185.446V184.446C48.2174 184.446 43.6667 179.902 43.6667 174.3H42.6667ZM42.6667 82.035V174.3H43.6667V82.035H42.6667ZM53.8333 70.8891C47.667 70.8891 42.6667 75.8783 42.6667 82.035H43.6667C43.6667 76.4324 48.2174 71.8891 53.8333 71.8891V70.8891ZM203.167 70.8891H53.8333V71.8891H203.167V70.8891Z" fill="#3C1053"/>
</svg>
