<svg width="256" height="256" viewBox="0 0 256 256" fill="none" xmlns="http://www.w3.org/2000/svg">
<path d="M176.524 128L249.302 55.2218C258.233 46.2909 258.233 31.8109 249.302 22.8727L233.127 6.69818C224.196 -2.23273 209.716 -2.23273 200.778 6.69818L128 79.4764L55.2218 6.69818C46.2909 -2.23273 31.8109 -2.23273 22.8727 6.69818L6.69818 22.8727C-2.23273 31.8036 -2.23273 46.2836 6.69818 55.2218L79.4764 128L6.69818 200.778C-2.23273 209.709 -2.23273 224.189 6.69818 233.127L22.8727 249.302C31.8036 258.233 46.2909 258.233 55.2218 249.302L128 176.524L200.778 249.302C209.709 258.233 224.196 258.233 233.127 249.302L249.302 233.127C258.233 224.196 258.233 209.716 249.302 200.778L176.524 128Z" fill="#3C1053"/>
</svg>
