<svg width="257" height="256" viewBox="0 0 257 256" fill="none" xmlns="http://www.w3.org/2000/svg">
<path d="M235.667 28H22.3333C10.5556 28 1 37.5771 1 49.3813V206.178C1 217.982 10.5556 227.559 22.3333 227.559H235.667C247.444 227.559 257 217.982 257 206.178V49.3813C257 37.5771 247.444 28 235.667 28Z" fill="white"/>
<path fill-rule="evenodd" clip-rule="evenodd" d="M45.6975 170.264C63.7573 188.363 87.7705 198.331 113.312 198.331C138.854 198.331 162.867 188.363 180.928 170.264L220.717 130.39L146.704 56.2205L39.2993 163.853L45.6975 170.264ZM67.1406 164.937L65.2303 163.512L146.704 81.8637L195.127 130.39L168.134 157.441C153.492 172.116 134.021 180.196 113.312 180.196C96.4914 180.196 80.5263 174.92 67.1406 164.937Z" fill="#3C1053"/>
<path fill-rule="evenodd" clip-rule="evenodd" d="M143.8 131.811C141.309 131.811 139.059 131.036 137.051 129.481C135.042 127.927 134.04 125.554 134.04 122.362C134.04 120.6 134.378 118.942 135.062 117.387C135.745 115.833 136.648 114.488 137.774 113.355C138.898 112.222 140.203 111.32 141.692 110.647C143.175 109.975 144.763 109.638 146.451 109.638C148.938 109.638 151.19 110.415 153.198 111.969C155.207 113.524 156.213 115.896 156.213 119.088C156.213 120.85 155.869 122.511 155.187 124.063C154.504 125.619 153.599 126.96 152.476 128.096C151.349 129.229 150.045 130.132 148.56 130.804C147.072 131.477 145.487 131.811 143.8 131.811Z" fill="#3C1053"/>
</svg>
