<svg width="255" height="255" viewBox="0 0 255 255" fill="none" xmlns="http://www.w3.org/2000/svg">
<path fill-rule="evenodd" clip-rule="evenodd" d="M229.126 0H25.4584C11.4568 0 0 11.4568 0 25.4584V229.126C0 243.128 11.4568 254.584 25.4584 254.584H229.126C243.125 254.584 254.584 243.128 254.584 229.126V25.4584C254.584 11.4568 243.125 0 229.126 0Z" fill="#3C1053"/>
<path fill-rule="evenodd" clip-rule="evenodd" d="M177.341 170.478C177.341 176.093 172.725 180.687 167.07 180.687H167.044V192.937C167.044 194.622 165.66 196 163.967 196H154.735C153.042 196 151.657 194.622 151.657 192.937V180.687H69.6193V192.937C69.6193 194.622 68.2216 196 66.5419 196H57.3097C55.6172 196 54.2323 194.622 54.2323 192.937V180.687C48.5904 180.674 44 176.08 44 170.478V134.799C44 129.184 46.2824 122.306 49.0649 119.524C51.8602 116.729 55.053 109.953 56.1685 104.453L62.4772 73.3165C63.5799 67.8038 69.0936 63.2992 74.7226 63.2992H146.541C152.183 63.2992 157.735 67.8038 158.889 73.3037L165.07 104.44C166.134 109.953 169.327 116.742 172.173 119.537C175.02 122.331 177.354 129.197 177.354 134.811V170.491L177.341 170.478ZM136.796 153.493H85.5704C82.7367 153.493 80.4543 155.816 80.4543 158.674C80.4543 161.533 82.7495 163.855 85.5704 163.855H136.796C139.63 163.855 141.912 161.533 141.912 158.674C141.912 155.816 139.617 153.493 136.796 153.493ZM54.9247 136.662C54.9247 132.514 58.3227 129.12 62.4772 129.12C66.6317 129.12 70.0296 132.514 70.0296 136.662C70.0296 140.809 66.6317 144.165 62.4772 144.165C58.3227 144.165 54.9247 140.809 54.9247 136.662ZM154.76 103.509L149.901 77.6552C149.388 74.8861 146.67 72.6146 143.861 72.6146H77.441C74.6329 72.6146 71.9402 74.8861 71.4786 77.668L66.5804 103.522C65.5033 109.047 69.2218 113.577 74.8509 113.577H146.464C152.093 113.577 155.825 109.047 154.773 103.522L154.76 103.509ZM151.811 136.662C151.811 132.514 155.209 129.12 159.364 129.12C163.518 129.12 166.916 132.514 166.916 136.662C166.916 140.809 163.531 144.165 159.364 144.165C155.196 144.165 151.811 140.809 151.811 136.662ZM178.508 54.341C181.316 54.341 184.034 56.5997 184.547 59.3816L189.407 85.2352C190.471 90.7734 186.727 95.2908 181.098 95.2908H172.404L173.879 102.743C174.738 107.184 177.367 112.084 178.469 113.156C183.624 118.209 186.317 127.869 186.317 134.799V174.651C186.317 176.335 187.701 177.714 189.394 177.714H198.626C200.319 177.714 201.704 176.335 201.704 174.651V162.4H201.729C207.371 162.4 212 157.807 212 152.192V116.512C212 110.897 209.666 104.019 206.82 101.237C203.973 98.4427 200.78 91.6539 199.716 86.1412L193.536 55.0046C192.382 49.5046 186.829 45 181.188 45H109.369C103.971 45 98.6878 49.1473 97.2902 54.341H178.508ZM196.587 125.879C192.433 125.879 189.035 122.523 189.035 118.375C189.035 114.228 192.433 110.834 196.587 110.834C200.742 110.834 204.14 114.228 204.14 118.375C204.14 122.523 200.755 125.879 196.587 125.879Z" fill="white"/>
</svg>
