<svg width="255" height="255" viewBox="0 0 255 255" fill="none" xmlns="http://www.w3.org/2000/svg">
<path fill-rule="evenodd" clip-rule="evenodd" d="M229.126 0H25.4584C11.4568 0 0 11.4568 0 25.4584V229.126C0 243.128 11.4568 254.584 25.4584 254.584H229.126C243.125 254.584 254.584 243.128 254.584 229.126V25.4584C254.584 11.4568 243.125 0 229.126 0Z" fill="#3C1053"/>
<path d="M163.236 98.0544C168.95 98.0544 174.586 102.662 175.749 108.297L182.011 140.194C183.084 145.838 186.326 152.795 189.207 155.652C192.088 158.509 194.455 165.544 194.455 171.301V207.841C194.455 213.597 189.773 218.301 184.05 218.301H184.029V230.842C184.029 232.572 182.627 233.98 180.907 233.98H171.554C169.834 233.98 168.436 232.572 168.436 230.842V218.301H85.2608V230.842C85.2608 232.572 83.8503 233.98 82.1391 233.98H72.7772C71.057 233.98 69.6556 232.572 69.6556 230.842V218.301C63.9386 218.283 59.2802 213.585 59.2802 207.841V171.301C59.2802 165.544 61.5958 158.509 64.4197 155.652C67.2497 152.795 70.4916 145.85 71.6224 140.212L78.013 108.319C79.1288 102.671 84.7165 98.0544 90.4305 98.0544H163.236ZM126.381 31C127.52 31.0411 128.652 31.1863 129.765 31.4332C130.87 31.6782 131.957 32.0233 133.014 32.466L207.106 77.7361C213.535 80.7259 217.723 87.6947 217.735 95.4239V217.609C217.735 221.139 215.154 224 211.97 224H204.352C201.168 224 198.587 221.139 198.587 217.609V108.206C198.587 101.18 193.33 95.4239 186.844 95.4239H66.7158C60.2302 95.4239 54.9733 101.18 54.9733 108.206V217.609C54.9733 221.139 52.3922 224 49.2083 224H41.765C38.5811 224 36 221.139 36 217.609V95.4239C36.0123 87.6947 40.2001 80.7259 46.6292 77.7361L119.715 32.466C121.849 31.5732 124.102 31.0779 126.381 31ZM153.36 190.442H101.434C98.5663 190.442 96.2421 192.816 96.2421 195.75C96.2421 198.686 98.5663 201.061 101.434 201.061H153.36C156.228 201.061 158.549 198.686 158.549 195.75C158.549 192.816 156.228 190.442 153.36 190.442ZM78.0266 165.486C73.8126 165.486 70.3687 168.958 70.3687 173.205C70.3687 177.451 73.8126 180.884 78.0266 180.884C82.2377 180.884 85.6815 177.451 85.6815 173.205C85.6815 168.958 82.2377 165.486 78.0266 165.486ZM176.237 165.486C172.026 165.486 168.582 168.958 168.582 173.205C168.582 177.451 172.026 180.884 176.237 180.884C180.46 180.884 183.895 177.451 183.895 173.205C183.895 168.958 180.46 165.486 176.237 165.486ZM160.514 107.612H93.1891C90.3407 107.612 87.6181 109.94 87.1419 112.788L82.173 139.262C81.0828 144.921 84.8566 149.558 90.5563 149.558H163.146C168.849 149.558 172.641 144.921 171.569 139.253L166.642 112.77C166.117 109.931 163.365 107.612 160.514 107.612Z" fill="white"/>
</svg>
