<svg width="255" height="255" viewBox="0 0 255 255" fill="none" xmlns="http://www.w3.org/2000/svg">
<path fill-rule="evenodd" clip-rule="evenodd" d="M229.126 0H25.4584C11.4568 0 0 11.4568 0 25.4584V229.126C0 243.128 11.4568 254.584 25.4584 254.584H229.126C243.125 254.584 254.584 243.128 254.584 229.126V25.4584C254.584 11.4568 243.125 0 229.126 0Z" fill="#3C1053"/>
<path fill-rule="evenodd" clip-rule="evenodd" d="M194 170.423C194 176.05 189.396 180.654 183.755 180.654H183.73V192.931C183.73 194.619 182.349 196 180.66 196H171.452C169.764 196 168.382 194.619 168.382 192.931V180.654H86.5538V192.931C86.5538 194.619 85.1597 196 83.4843 196H74.2757C72.5875 196 71.2062 194.619 71.2062 192.931V180.654C65.5787 180.641 61 176.037 61 170.423V134.667C61 129.04 63.2766 122.147 66.0519 119.359C68.8401 116.558 72.0247 109.767 73.1374 104.256L79.4172 73.0389C80.5171 67.5143 86.0166 63 91.6313 63H163.266C168.894 63 174.432 67.5143 175.583 73.0262L181.747 104.23C182.809 109.755 185.994 116.558 188.833 119.359C191.672 122.159 194 129.04 194 134.667V170.423ZM153.559 153.402H102.464C99.6377 153.402 97.3611 155.729 97.3611 158.594C97.3611 161.458 99.6505 163.786 102.464 163.786H153.559C156.386 163.786 158.662 161.458 158.662 158.594C158.662 155.729 156.373 153.402 153.559 153.402ZM71.8968 136.534C71.8968 132.377 75.2861 128.976 79.4299 128.976C83.5738 128.976 86.9631 132.377 86.9631 136.534C86.9631 140.69 83.5738 144.053 79.4299 144.053C75.2861 144.053 71.8968 140.69 71.8968 136.534ZM171.477 103.309L166.63 77.3998C166.118 74.6247 163.407 72.3484 160.606 72.3484H94.3555C91.5546 72.3484 88.8687 74.6247 88.4083 77.4126L83.5226 103.322C82.4483 108.859 86.1573 113.399 91.772 113.399H163.202C168.817 113.399 172.539 108.859 171.49 103.322L171.477 103.309ZM168.536 136.534C168.536 132.377 171.925 128.976 176.069 128.976C180.213 128.976 183.602 132.377 183.602 136.534C183.602 140.69 180.226 144.053 176.069 144.053C171.912 144.053 168.536 140.69 168.536 136.534ZM160.503 91.5771L155.847 86.9221C155.476 86.5512 154.977 86.3466 154.453 86.3466H135.691V84.3644C135.691 81.3719 133.273 78.9549 130.281 78.9549H104.369C101.376 78.9549 98.9586 81.3719 98.9586 84.3644V101.59C98.9586 104.583 101.376 107 104.369 107H130.281C133.273 107 135.691 104.583 135.691 101.59V99.6083L139.566 99.506C140.09 99.6083 140.589 99.4037 140.96 99.0328L143.288 96.7053L145.615 99.0328C146.383 99.8001 147.636 99.8001 148.404 99.0328L150.731 96.7053L153.059 99.0328C153.826 99.8001 155.08 99.8001 155.847 99.0328L160.503 94.3778C161.27 93.6105 161.283 92.3572 160.503 91.5899V91.5771ZM113.283 89.4926C112.925 91.1423 111.595 92.4723 109.958 92.856C106.671 93.6105 103.755 90.7459 104.497 87.4464C104.867 85.7967 106.198 84.4539 107.86 84.0831C111.134 83.3413 114.012 86.2315 113.296 89.4926H113.283Z" fill="white"/>
</svg>
