<svg width="255" height="255" viewBox="0 0 255 255" fill="none" xmlns="http://www.w3.org/2000/svg">
<path fill-rule="evenodd" clip-rule="evenodd" d="M229.126 0H25.4584C11.4568 0 0 11.4568 0 25.4584V229.126C0 243.128 11.4568 254.584 25.4584 254.584H229.126C243.125 254.584 254.584 243.128 254.584 229.126V25.4584C254.584 11.4568 243.125 0 229.126 0Z" fill="#3C1053"/>
<path d="M128.339 31C142.44 31 153.872 42.3474 153.872 56.3453C153.872 66.5644 150.285 69.4181 130.963 97.2239C130.725 97.565 130.436 97.8421 130.115 98.0553L163.956 98.0544C169.67 98.0544 175.305 102.662 176.469 108.297L182.731 140.194C183.804 145.838 187.046 152.795 189.927 155.652C192.808 158.509 195.175 165.544 195.175 171.301V207.841C195.175 213.597 190.493 218.301 184.77 218.301H184.749V230.842C184.749 232.572 183.347 233.98 181.627 233.98H172.274C170.554 233.98 169.155 232.572 169.155 230.842V218.301H85.9806V230.842C85.9806 232.572 84.5702 233.98 82.859 233.98H73.4971C71.7768 233.98 70.3754 232.572 70.3754 230.842V218.301C64.6584 218.283 60 213.585 60 207.841V171.301C60 165.544 62.3157 158.509 65.1396 155.652C67.9695 152.795 71.2115 145.85 72.3422 140.212L78.7329 108.319C79.8486 102.671 85.4363 98.0544 91.1503 98.0544L126.561 98.0552C126.241 97.8421 125.952 97.565 125.714 97.2239C106.392 69.4181 102.805 66.5644 102.805 56.3453C102.805 42.3474 114.237 31 128.339 31ZM154.08 190.442H102.154C99.2862 190.442 96.9619 192.816 96.9619 195.75C96.9619 198.686 99.2862 201.061 102.154 201.061H154.08C156.948 201.061 159.269 198.686 159.269 195.75C159.269 192.816 156.948 190.442 154.08 190.442ZM78.7465 165.486C74.5324 165.486 71.0886 168.958 71.0886 173.205C71.0886 177.451 74.5324 180.884 78.7465 180.884C82.9576 180.884 86.4014 177.451 86.4014 173.205C86.4014 168.958 82.9576 165.486 78.7465 165.486ZM176.957 165.486C172.746 165.486 169.302 168.958 169.302 173.205C169.302 177.451 172.746 180.884 176.957 180.884C181.18 180.884 184.615 177.451 184.615 173.205C184.615 168.958 181.18 165.486 176.957 165.486ZM161.233 107.612H93.9089C91.0605 107.612 88.338 109.94 87.8617 112.788L82.8928 139.262C81.8026 144.921 85.5765 149.558 91.2762 149.558H163.866C169.569 149.558 173.361 144.921 172.288 139.253L167.361 112.77C166.837 109.931 164.085 107.612 161.233 107.612Z" fill="white"/>
</svg>
