<svg width="255" height="255" viewBox="0 0 255 255" fill="none" xmlns="http://www.w3.org/2000/svg">
<rect x="37" y="24" width="175" height="211" fill="white"/>
<path fill-rule="evenodd" clip-rule="evenodd" d="M194.702 116.914C197.566 116.914 199.891 114.592 199.891 111.724V88.3742C199.891 84.0855 196.4 80.5918 192.108 80.5918H184.353V54.6665C184.353 48.9623 179.682 44.288 173.975 44.288L80.5978 44.2669C74.8875 44.2669 70.2163 48.9352 70.2163 54.6424V80.5918H62.4309C58.1391 80.5918 54.6455 84.0855 54.6455 88.3742V111.724C54.6455 114.592 56.9705 116.914 59.8347 116.914C62.7019 116.914 65.027 114.592 65.027 111.724V90.9704H70.2163V184.374C70.2163 190.082 74.8845 194.753 80.5948 194.753V207.203C80.5948 208.917 81.9923 210.318 83.709 210.318H93.0455C94.7622 210.318 96.1626 208.917 96.1626 207.203V194.753H158.452V207.203C158.452 208.917 159.855 210.318 161.566 210.318H170.885C172.598 210.318 173.999 208.917 173.999 207.203V194.75C179.697 194.738 184.353 190.072 184.353 184.374V90.9704H189.512V111.724C189.512 114.592 191.834 116.914 194.702 116.914ZM25.4584 0H229.126C243.125 0 254.584 11.4568 254.584 25.4584V229.126C254.584 243.128 243.125 254.584 229.126 254.584H25.4584C11.4568 254.584 0 243.128 0 229.126V25.4584C0 11.4568 11.4568 0 25.4584 0ZM173.996 59.8347V127.295C173.996 130.147 171.662 132.482 168.809 132.482H85.7811C82.9289 132.482 80.5918 130.147 80.5918 127.295V59.8347C80.5918 56.9796 82.9289 54.6455 85.7811 54.6455H168.809C171.662 54.6455 173.996 56.9796 173.996 59.8347ZM80.5948 171.412C80.5948 167.117 84.0945 163.614 88.3802 163.614C92.669 163.614 96.1626 167.117 96.1626 171.412C96.1626 175.703 92.669 179.182 88.3802 179.182C84.0945 179.182 80.5948 175.703 80.5948 171.412ZM166.237 163.614C161.952 163.614 158.452 167.117 158.452 171.412C158.452 175.703 161.952 179.182 166.237 179.182C170.532 179.182 174.02 175.703 174.02 171.412C174.02 167.117 170.532 163.614 166.237 163.614Z" fill="#84329B"/>
</svg>
