<svg width="255" height="255" viewBox="0 0 255 255" fill="none" xmlns="http://www.w3.org/2000/svg">
<rect x="73" y="42" width="108" height="173" fill="white"/>
<path fill-rule="evenodd" clip-rule="evenodd" d="M180.376 186.124C180.373 191.944 175.61 196.721 169.785 196.73L169.782 209.435C169.785 211.188 168.362 212.614 166.599 212.608L157.068 212.605C155.318 212.608 153.877 211.18 153.877 209.435V196.721H137.981C132.156 196.718 122.624 196.721 116.787 196.73L100.894 196.721L100.903 209.447C100.9 211.18 99.4679 212.608 97.7146 212.614L88.1771 212.608C86.4208 212.608 85.0069 211.182 85.0069 209.432L84.995 196.718L84.992 196.721C79.1665 196.721 74.4067 191.938 74.4037 186.124L74.4067 53.6532C74.4097 47.8188 79.1606 43.053 85.0069 43.05H116.837C122.672 43.053 132.212 43.05 138.029 43.0441L169.785 43.053C175.61 43.0649 180.382 47.8188 180.379 53.6532L180.376 186.124ZM229.346 0.658203L25.4482 0.664157C11.4575 0.664157 0.011907 12.1097 0.011907 26.1004L0 229.564C0 243.555 11.4456 255 25.4363 255H229.346C243.337 255 254.78 243.555 254.78 229.564V26.0945C254.78 12.1008 243.337 0.658203 229.346 0.658203ZM145.408 106.639L109.366 106.627C107.636 106.639 106.198 105.21 106.207 103.46L106.198 99.2122C106.198 97.4619 107.624 96.039 109.366 96.039H145.417C147.158 96.039 148.581 97.4768 148.578 99.2122L148.581 103.46C148.578 105.21 147.149 106.639 145.408 106.639ZM169.782 122.535V149.022C169.782 151.939 167.391 154.33 164.48 154.327H90.2847C87.3913 154.33 84.998 151.948 85.0099 149.034L84.998 122.532C84.998 119.624 87.3853 117.239 90.2966 117.239H164.486C167.391 117.236 169.785 119.624 169.782 122.535ZM85.0069 172.887C84.998 168.508 88.57 164.93 92.9399 164.93C97.3247 164.93 100.894 168.508 100.903 172.884C100.903 177.271 97.3247 180.823 92.9548 180.811C88.5671 180.811 85.0069 177.274 85.0069 172.887ZM161.828 164.924C157.458 164.924 153.874 168.505 153.88 172.884C153.88 177.271 157.458 180.82 161.822 180.823C166.212 180.82 169.779 177.26 169.788 172.893C169.788 168.508 166.204 164.93 161.828 164.924ZM90.3085 53.6502L164.486 53.6442C167.4 53.6442 169.782 56.0435 169.785 58.9548L169.782 80.1432C169.785 83.0575 167.4 85.4418 164.486 85.4508H90.3025C87.3764 85.4418 85.0069 83.0515 84.998 80.1432V58.9548C85.0099 56.0346 87.3823 53.6442 90.3085 53.6502Z" fill="#EA0029"/>
</svg>
