<svg width="255" height="255" viewBox="0 0 255 255" fill="none" xmlns="http://www.w3.org/2000/svg">
<rect x="15.0005" y="22" width="225" height="211" fill="white"/>
<path fill-rule="evenodd" clip-rule="evenodd" d="M122.947 143.257C121.673 142.746 120.4 142.492 118.868 142.239C116.317 124.154 107.132 85.4413 107.132 85.4413H169.639L169.896 85.9522C152.804 104.287 137.239 123.647 122.947 143.257ZM105.089 151.408C91.3127 150.644 69.6255 150.386 57.6351 151.662L57.1233 150.644C62.7376 142.235 68.8636 133.07 74.4739 124.154L81.3618 113.456C87.23 104.033 92.3324 94.864 96.1612 86.9701H96.673C99.2203 106.069 103.303 125.936 108.663 146.057C107.132 147.586 106.108 149.368 105.089 151.408ZM185.969 142.999C187.501 149.368 192.092 156.244 197.706 161.338C198.983 162.36 200.511 162.867 202.3 162.867C204.852 162.867 206.891 161.849 208.423 160.32C209.442 158.791 210.208 157.009 209.95 155.226C209.95 152.933 208.934 151.151 207.145 149.879C203.062 146.311 200.511 143.257 199.745 139.946L178.57 63.7916C176.273 55.3868 172.702 52.0756 163.77 50.5468C163.77 50.5468 148.463 48 148.209 48C146.678 48 145.912 48.7644 145.658 50.5468L144.892 55.6404C144.638 56.9157 144.892 58.9516 147.697 59.209L159.438 61.2448C161.985 61.7558 163.77 63.2846 164.54 66.0849L166.833 74.2362H105.604L104.327 66.8493H115.043C117.083 66.8493 118.36 65.574 118.36 63.5381V59.716C118.36 57.1692 116.829 55.8978 113.766 55.6404L83.4051 51.5686C82.8933 51.3112 82.1276 51.3112 81.6197 51.3112C77.0252 51.3112 73.966 54.3689 73.966 58.4446C73.966 63.7916 77.2791 66.5919 83.4051 66.5919H91.5706L92.3324 73.4718L42.3278 151.408C40.7963 153.697 40.5424 156.755 41.816 158.791C43.0936 160.831 44.8791 161.849 47.1724 161.849H105.089C107.644 166.942 112.746 170 118.36 170C126.522 170 133.156 163.631 133.156 155.484C133.156 153.19 132.648 151.151 131.624 149.368L173.213 96.8998L185.969 142.999Z" fill="white"/>
<path fill-rule="evenodd" clip-rule="evenodd" d="M52.728 117.548C55.56 117.548 58.132 117.804 60.704 118.308L68.1639 105.897C63.276 104.381 57.872 103.873 52.728 103.873C23.664 103.873 0 127.174 0 155.797C0 184.16 23.664 207.718 52.728 207.718C77.4239 207.718 99.028 190.242 104.172 166.688H89.768C84.88 182.644 69.704 193.787 52.728 193.787C31.38 193.787 14.148 176.562 14.148 155.797C14.148 134.772 31.38 117.548 52.728 117.548Z" fill="white"/>
<path fill-rule="evenodd" clip-rule="evenodd" d="M202.851 207.718C231.587 207.718 254.983 184.161 254.983 155.798C254.983 127.175 231.587 103.873 202.851 103.873C200.055 103.873 197.508 103.873 194.965 104.381L198.529 117.804C200.055 117.804 201.325 117.548 202.851 117.548C223.958 117.548 241.252 134.773 241.252 155.798C241.252 176.563 223.958 193.787 202.851 193.787C181.745 193.787 164.707 176.563 164.707 155.798C164.707 144.651 169.536 134.268 177.928 126.923L173.859 112.483C159.364 122.362 150.719 138.321 150.719 155.798C150.719 184.161 174.116 207.718 202.851 207.718Z" fill="white"/>
<path fill-rule="evenodd" clip-rule="evenodd" d="M145.137 149.124C145.137 171.149 163.232 189.443 185.456 189.443C207.68 189.443 225.774 171.149 225.774 149.124C225.774 126.897 207.68 108.803 185.456 108.803C183.293 108.803 181.324 108.803 179.357 109.197L182.113 119.621C182.703 119.621 183.244 119.571 183.784 119.522C184.325 119.472 184.866 119.422 185.456 119.422C201.78 119.422 215.155 132.797 215.155 149.124C215.155 165.249 201.78 178.624 185.456 178.624C169.132 178.624 155.956 165.249 155.956 149.124C155.956 140.468 159.69 132.406 166.181 126.702L163.033 115.489C151.824 123.16 145.137 135.553 145.137 149.124ZM110.912 154.039C112.881 157.973 116.815 160.334 121.143 160.334C127.434 160.334 132.548 155.416 132.548 149.124C132.548 147.353 132.157 145.778 131.368 144.402L163.428 103.885L173.261 139.484C174.442 144.402 177.981 149.712 182.309 153.645C183.293 154.434 184.471 154.826 185.85 154.826C187.817 154.826 189.389 154.039 190.57 152.859C191.356 151.678 191.946 150.302 191.747 148.925C191.747 147.155 190.964 145.778 189.585 144.796C186.438 142.041 184.471 139.682 183.881 137.125L167.557 78.3176C165.786 71.8273 163.033 69.2703 156.148 68.0897C156.148 68.0897 144.348 66.123 144.153 66.123C142.972 66.123 142.382 66.7133 142.186 68.0897L141.596 72.023C141.4 73.0079 141.596 74.58 143.758 74.7788L152.808 76.351C154.772 76.7455 156.148 77.9261 156.742 80.0886L158.51 86.3831H111.309L110.324 80.6789H118.586C120.158 80.6789 121.143 79.694 121.143 78.1219V75.1703C121.143 73.2037 119.962 72.2218 117.601 72.023L94.1964 68.8788C93.8019 68.68 93.2116 68.68 92.8201 68.68C89.2782 68.68 86.92 71.0412 86.92 74.1885C86.92 78.3176 89.474 80.4801 94.1964 80.4801H100.491L101.078 85.7928L62.5307 145.977C61.3501 147.745 61.1544 150.106 62.1362 151.678C63.1211 153.253 64.4974 154.039 66.2653 154.039H110.912ZM29.0941 149.124C29.0941 171.149 47.1888 189.443 69.4126 189.443C88.2964 189.443 104.816 175.872 108.749 157.581H97.7353C93.9977 169.972 82.3933 178.624 69.4126 178.624C53.0889 178.624 39.9124 165.249 39.9124 149.124C39.9124 132.797 53.0889 119.422 69.4126 119.422C71.5781 119.422 73.5448 119.621 75.5115 120.013L81.2157 110.375C77.4781 109.197 73.346 108.803 69.4126 108.803C47.1888 108.803 29.0941 126.897 29.0941 149.124ZM25.4559 0.571941L229.425 0.565918C243.42 0.565918 254.868 12.0166 254.868 26.0123V229.553C254.868 243.549 243.42 255 229.425 255H25.4439C11.4482 255 0.000488281 243.549 0.000488281 229.553L0.0125353 26.0183C0.0125353 12.0227 11.4633 0.571941 25.4559 0.571941ZM104.03 96.2166C101.078 102.312 97.145 109.393 92.6213 116.669L87.3115 124.931C83.0677 131.687 78.441 138.628 74.18 145.021L74.1793 145.022L73.9363 145.387L74.3308 146.173C83.574 145.188 100.292 145.387 110.912 145.977C111.698 144.402 112.487 143.025 113.668 141.845C109.535 126.307 106.388 110.965 104.424 96.2166H104.03ZM112.487 95.0359H160.672L160.871 95.4305C147.694 109.589 135.696 124.539 124.679 139.682C123.697 139.288 122.715 139.092 121.534 138.896C119.568 124.931 112.487 95.0359 112.487 95.0359Z" fill="#658D1B"/>
</svg>
