<svg width="367" height="255" viewBox="0 0 367 255" fill="none" xmlns="http://www.w3.org/2000/svg">
<rect width="367" height="255" rx="26" fill="#658D1B"/>
<rect x="15" y="22" width="225" height="211" fill="white"/>
<path fill-rule="evenodd" clip-rule="evenodd" d="M145.137 149.124C145.137 171.149 163.232 189.443 185.455 189.443C207.679 189.443 225.774 171.149 225.774 149.124C225.774 126.897 207.679 108.803 185.455 108.803C183.293 108.803 181.323 108.803 179.357 109.197L182.112 119.621C182.703 119.621 183.243 119.571 183.784 119.522C184.325 119.472 184.865 119.422 185.455 119.422C201.779 119.422 215.154 132.797 215.154 149.124C215.154 165.249 201.779 178.624 185.455 178.624C169.132 178.624 155.955 165.249 155.955 149.124C155.955 140.468 159.69 132.406 166.18 126.702L163.033 115.489C151.823 123.16 145.137 135.553 145.137 149.124ZM110.911 154.039C112.881 157.973 116.814 160.334 121.142 160.334C127.434 160.334 132.548 155.416 132.548 149.124C132.548 147.353 132.156 145.778 131.367 144.402L163.427 103.885L173.261 139.484C174.441 144.402 177.98 149.712 182.308 153.645C183.293 154.434 184.471 154.826 185.85 154.826C187.817 154.826 189.389 154.039 190.569 152.859C191.355 151.678 191.946 150.302 191.747 148.925C191.747 147.155 190.964 145.778 189.585 144.796C186.437 142.041 184.471 139.682 183.88 137.125L167.557 78.3176C165.786 71.8273 163.033 69.2703 156.148 68.0897C156.148 68.0897 144.348 66.123 144.152 66.123C142.971 66.123 142.381 66.7133 142.185 68.0897L141.595 72.023C141.399 73.0079 141.595 74.58 143.758 74.7788L152.808 76.351C154.772 76.7455 156.148 77.9261 156.741 80.0886L158.509 86.3831H111.309L110.324 80.6789H118.585C120.157 80.6789 121.142 79.694 121.142 78.1219V75.1703C121.142 73.2037 119.962 72.2218 117.6 72.023L94.196 68.8788C93.8014 68.68 93.2111 68.68 92.8196 68.68C89.2777 68.68 86.9195 71.0412 86.9195 74.1885C86.9195 78.3176 89.4735 80.4801 94.196 80.4801H100.491L101.078 85.7928L62.5303 145.977C61.3496 147.745 61.1539 150.106 62.1357 151.678C63.1206 153.253 64.4969 154.039 66.2648 154.039H110.911ZM29.0936 149.124C29.0936 171.149 47.1883 189.443 69.4121 189.443C88.2959 189.443 104.815 175.872 108.749 157.581H97.7348C93.9972 169.972 82.3928 178.624 69.4121 178.624C53.0884 178.624 39.9119 165.249 39.9119 149.124C39.9119 132.797 53.0884 119.422 69.4121 119.422C71.5776 119.422 73.5443 119.621 75.511 120.013L81.2152 110.375C77.4776 109.197 73.3455 108.803 69.4121 108.803C47.1883 108.803 29.0936 126.897 29.0936 149.124ZM0.0120471 26.0183C0.0120471 12.0227 11.4628 0.571941 25.4554 0.571941L229.424 0.565918C243.42 0.565918 254.868 12.0166 254.868 26.0123V229.553C254.868 243.549 243.42 255 229.424 255H25.4434C11.4477 255 0 243.549 0 229.553L0.0120471 26.0183ZM104.029 96.2166C101.078 102.312 97.1445 109.393 92.6208 116.669L87.3111 124.931C83.0672 131.687 78.4406 138.628 74.1795 145.021L74.1788 145.022L73.9358 145.387L74.3304 146.173C83.5735 145.188 100.292 145.387 110.911 145.977C111.697 144.402 112.486 143.025 113.667 141.845C109.535 126.307 106.388 110.965 104.424 96.2166H104.029ZM112.486 95.0359H160.672L160.87 95.4305C147.694 109.589 135.695 124.539 124.678 139.682C123.696 139.288 122.714 139.092 121.534 138.896C119.567 124.931 112.486 95.0359 112.486 95.0359Z" fill="#658D1B"/>
<path d="M310.689 72.25C316.756 72.2503 320.435 78.2164 319.13 83.5303L319.102 83.6465L319.066 83.7607L312.829 104.125H328.539C335.678 104.125 339.15 111.999 336.126 117.566L303.402 178.13C301.874 180.958 298.985 182.75 295.796 182.75C289.903 182.75 286.132 177.054 287.313 171.706V171.705L294.742 138.125H277.965C272.385 138.125 268.698 133 269.321 127.937V127.932L275.271 80.1191L275.272 80.1143C275.809 75.8415 279.323 72.2501 283.914 72.25H310.689Z" fill="#0072FF" stroke="white" stroke-width="8.5"/>
</svg>
