<svg width="255" height="255" viewBox="0 0 255 255" fill="none" xmlns="http://www.w3.org/2000/svg">
<g clip-path="url(#clip0_136_1720)">
<path d="M229.543 0L25.4687 0.0064897C18.7229 0.0268444 12.2592 2.72039 7.4895 7.49882C2.71978 12.2772 0.031575 18.7522 0.0120533 25.5095L0 229.497C0.0190155 236.254 2.70705 242.73 7.47689 247.508C12.2467 252.287 18.7107 254.98 25.4566 255H229.543C236.289 254.98 242.753 252.287 247.523 247.508C252.293 242.73 254.981 236.254 255 229.497V25.5032C254.981 18.7457 252.293 12.2704 247.523 7.49184C242.753 2.71328 236.289 0.0198638 229.543 0Z" fill="#658D1B"/>
<path d="M103.221 111.232C108.669 104.569 114.111 97.8998 119.546 91.2234C123.266 86.662 126.986 82.0993 130.705 77.5353C131.25 76.8641 131.807 76.2553 132.798 76.5305C133.818 76.814 134.201 77.6896 133.822 78.9738C132.257 84.2312 130.684 89.4874 129.102 94.7423C128.311 97.3856 127.529 100.029 126.692 102.843C130.717 102.843 134.488 102.86 138.255 102.835C138.733 102.748 139.226 102.818 139.661 103.033C140.097 103.249 140.451 103.599 140.673 104.032C140.859 104.48 140.903 104.975 140.799 105.449C140.695 105.924 140.448 106.355 140.091 106.683C130.946 117.874 121.811 129.073 112.686 140.28C112.033 141.089 111.338 141.739 110.243 141.139C109.152 140.543 109.323 139.584 109.623 138.6C111.82 131.287 114.014 123.971 116.204 116.652C116.353 116.156 116.495 115.656 116.678 115.005H106.693C106.118 115.005 105.552 114.985 104.982 115.01C104.521 115.079 104.05 114.997 103.64 114.775C103.23 114.553 102.904 114.204 102.709 113.78C102.523 113.354 102.472 112.881 102.564 112.425C102.655 111.969 102.885 111.553 103.221 111.232ZM54.7225 205.65C48.8221 206.335 42.8772 204.81 38.0317 201.368C34.1883 198.703 31.1411 195.041 29.2163 190.774C27.111 186.196 26.4852 181.074 27.4264 176.123C28.3731 170.829 30.9854 165.977 34.8814 162.276C38.7774 158.575 43.7529 156.22 49.0807 155.554C54.4085 154.888 59.8093 155.946 64.4939 158.574C69.1784 161.202 72.901 165.262 75.1177 170.161H67.0681C65.0782 167.42 62.3824 165.274 59.2687 163.949C56.1551 162.625 52.7407 162.174 49.3907 162.643C45.2949 163.297 41.5456 165.335 38.7653 168.418C35.9851 171.501 34.3411 175.444 34.1063 179.592C33.8716 183.74 35.0602 187.843 37.4748 191.221C39.8894 194.599 43.3847 197.048 47.3805 198.162C51.6326 199.353 56.1738 198.93 60.1336 196.974C62.8851 195.565 65.2546 193.509 67.0391 190.982H75.0221C73.3064 195.057 70.5052 198.58 66.9251 201.167C63.3449 203.754 59.1235 205.305 54.7225 205.65ZM157.535 188.026C131.479 187.971 105.423 188.026 79.3675 187.934C79.0429 187.934 78.7477 187.95 78.4767 187.975H63.006V187.98C60.9742 187.835 58.9512 188.364 57.2494 189.485C55.1219 190.771 52.5929 191.217 50.1547 190.738C47.7165 190.259 45.5436 188.887 44.0592 186.891C42.5361 184.918 41.7796 182.458 41.9302 179.969C42.0809 177.479 43.1285 175.129 44.8785 173.355C46.6284 171.58 48.9618 170.502 51.4452 170.321C53.9286 170.14 56.3933 170.868 58.3814 172.37C59.064 172.936 59.9311 173.23 60.8167 173.195C62.0649 173.17 63.3139 173.166 64.5875 173.166H64.8412C66.0773 173.17 67.3222 173.178 68.6122 173.178L68.6042 173.166H81.0406V173.145C81.5237 173.141 81.9938 173.141 82.4891 173.141C81.5123 168.983 79.6833 165.073 77.1182 161.66C74.5531 158.247 71.3078 155.406 67.5884 153.316C63.7399 151.088 59.423 149.797 54.9853 149.546C52.109 149.367 52.1506 149.305 52.1211 146.39C52.1131 145.377 52.3959 145.048 53.4325 145.094C59.6238 145.271 65.6574 147.089 70.9184 150.364C75.3396 153.097 79.1145 156.76 81.9815 161.1C84.1854 164.426 85.7755 168.122 86.6763 172.011C86.8517 172.77 87.0804 173.199 88.0005 173.195L158.059 172.812C158.475 172.833 158.889 172.745 159.26 172.556C159.631 172.368 159.946 172.085 160.174 171.736C164.982 165.565 172.827 155.542 177.66 149.384C180.561 145.69 183.47 142 186.321 138.268C186.485 138.035 186.6 137.772 186.66 137.493C186.719 137.214 186.722 136.926 186.667 136.647C182.967 122.796 179.236 108.952 175.475 95.1155C171.995 82.2615 168.516 69.4073 165.04 56.5531C164.461 54.41 164.798 53.7097 166.859 53.0925C170.921 51.871 174.993 50.6842 179.075 49.532C182.455 48.5646 182.592 48.6563 183.491 52.0335C183.845 53.3676 183.562 53.9305 182.267 54.3266C179.67 55.1188 177.069 55.8819 174.467 56.6657C172.694 57.1951 172.523 57.5163 173.015 59.2757C174.655 65.1796 176.32 71.0793 177.934 76.9955C184.969 102.82 191.989 128.648 198.996 154.479C199.033 154.595 199.076 154.709 199.125 154.821L201.334 162.651H201.314C201.772 164.268 202.226 165.87 202.691 167.471L202.942 168.359H202.954C203.087 168.788 203.199 169.217 203.341 169.643C203.436 169.955 204.065 170.206 204.489 170.285C206.124 170.581 207.662 171.269 208.974 172.29C210.285 173.311 211.33 174.635 212.02 176.148C212.71 177.662 213.024 179.32 212.935 180.981C212.846 182.642 212.358 184.258 211.511 185.689C210.664 187.12 209.483 188.324 208.071 189.199C206.658 190.074 205.055 190.594 203.399 190.714C201.742 190.833 200.081 190.55 198.558 189.887C197.034 189.225 195.693 188.202 194.65 186.908C193.011 184.903 192.197 182.348 192.372 179.762C192.548 177.177 193.7 174.755 195.595 172.991C195.974 172.709 196.244 172.305 196.361 171.848C196.477 171.39 196.433 170.906 196.236 170.477C196.044 169.893 195.878 169.297 195.703 168.705L192.473 157.247L192.481 157.243C191.907 155.209 191.258 152.928 190.55 150.418C190.063 151.006 189.734 151.398 189.414 151.802C187.366 154.412 185.319 157.022 183.274 159.632C176.582 168.163 169.839 176.66 163.225 185.249C162.59 186.158 161.735 186.889 160.739 187.375C159.744 187.861 158.641 188.085 157.535 188.026ZM224.296 193.873C221.32 198.453 217.023 202.016 211.975 204.088C208.616 205.452 204.989 206.024 201.374 205.76C196.481 205.463 191.782 203.738 187.856 200.799C183.93 197.859 180.947 193.834 179.276 189.218C177.605 184.602 177.319 179.597 178.452 174.82C179.585 170.043 182.088 165.702 185.653 162.332C186.973 161.171 188.367 160.099 189.828 159.122L191.872 166.268C188.539 168.862 186.213 172.538 185.294 176.664C184.375 180.791 184.921 185.109 186.838 188.875C188.755 192.642 191.923 195.621 195.796 197.3C199.669 198.98 204.006 199.254 208.059 198.076C212.117 196.88 215.629 194.301 217.989 190.786C220.35 187.27 221.409 183.038 220.983 178.823C220.558 174.607 218.675 170.674 215.661 167.702C212.646 164.73 208.689 162.907 204.475 162.549L202.452 155.469C206.384 155.328 210.292 156.138 213.844 157.832C217.397 159.525 220.49 162.051 222.86 165.196C225.982 169.263 227.792 174.187 228.049 179.31C228.306 184.434 226.996 189.514 224.296 193.873Z" fill="white"/>
</g>
<defs>
<clipPath id="clip0_136_1720">
<rect width="255" height="255" fill="white"/>
</clipPath>
</defs>
</svg>
