<svg width="254" height="254" viewBox="0 0 254 254" fill="none" xmlns="http://www.w3.org/2000/svg">
<rect x="37" y="24" width="175" height="211" fill="white"/>
<path fill-rule="evenodd" clip-rule="evenodd" d="M92.1273 175.417H160.649C172.464 175.417 181.284 165.775 180.245 154.011L175.077 94.8212C174.038 83.0393 163.539 73.4154 151.731 73.4154H137.091L145.482 64.9496C147.206 63.238 147.206 60.4666 145.471 58.6448L129.557 42.7937C128.688 41.9393 127.553 41.5196 126.419 41.5196C125.264 41.5196 124.127 41.9393 123.261 42.7937L107.282 58.7431C105.537 60.4666 105.537 63.3421 107.282 65.0567L115.685 73.4154H101.043C89.2279 73.4154 78.7379 83.0393 77.699 94.8212L72.5194 154.011C71.4925 165.775 80.3007 175.417 92.1273 175.417ZM161.777 212.983H168.758C170.523 212.983 171.413 211.602 170.749 209.985L163.03 191.47L158.547 180.766H153.183L154.984 191.47L158.02 209.783C158.321 211.602 160.012 212.983 161.777 212.983ZM94.6873 209.783L97.7354 191.47L99.5215 180.766H94.1604L89.6863 191.47L81.9706 209.985C81.2949 211.602 82.1849 212.983 83.9501 212.983H90.9276C92.7047 212.983 94.3866 211.602 94.6873 209.783ZM25.3559 0.00595349L228.489 0C242.429 0 253.827 11.4039 253.827 25.341V228.051C253.827 241.991 242.429 253.395 228.489 253.395H25.341C11.4009 253.395 0 241.991 0 228.051L0.011907 25.347C0.011907 11.4099 11.4158 0.00595349 25.3559 0.00595349ZM137.249 61.8538L126.419 51.0571L115.53 61.8538L126.407 72.7725L137.249 61.8538ZM167.561 127.146L164.733 94.8212C164.221 88.9362 158.979 84.1198 153.07 84.1198H99.7031C93.8061 84.1198 88.5522 88.9362 88.0372 94.8212L85.2093 127.146C84.9563 130.036 87.162 132.498 90.112 132.498H162.646C165.602 132.498 167.817 130.036 167.561 127.146ZM91.4753 143.199C87.043 143.199 83.4262 146.84 83.4262 151.228C83.4262 155.722 87.043 159.256 91.4753 159.256C95.9137 159.256 99.5185 155.722 99.5185 151.228C99.5185 146.84 95.9137 143.199 91.4753 143.199ZM153.252 151.228C153.252 146.84 156.86 143.199 161.301 143.199C165.718 143.199 169.338 146.84 169.338 151.228C169.338 155.722 165.718 159.256 161.301 159.256C156.86 159.256 153.252 155.722 153.252 151.228Z" fill="#0075C9"/>
</svg>
