<svg width="255" height="255" viewBox="0 0 255 255" fill="none" xmlns="http://www.w3.org/2000/svg">
<rect x="23" y="24" width="210" height="211" fill="white"/>
<path fill-rule="evenodd" clip-rule="evenodd" d="M232.727 0H22.27C9.97298 0 0 9.97007 0 22.2672V232.73C0 245.03 9.97298 255 22.27 255H232.727C245.027 255 255 245.03 255 232.73V22.2672C255 9.97007 245.027 0 232.727 0ZM46.6417 167.7V137.961H60.7872C76.3806 137.961 86.7391 127.714 86.7391 113.345C86.7391 99.0882 76.3806 88.7296 60.7872 88.7296H31.2711V167.7H46.6417ZM58.8937 124.706H46.7531V102.096H58.8937C66.579 102.096 71.257 106.439 71.257 113.457C71.257 120.251 66.579 124.706 58.8937 124.706ZM115.964 169.148C124.429 169.148 131.223 165.138 137.127 159.124L145.257 167.7H164.415L146.594 148.988L157.621 137.404V118.914L137.684 139.743L125.766 127.157L128.773 124.929C134.453 120.696 139.911 114.905 139.911 106.885C139.911 95.0784 130.555 86.9475 117.969 86.9475C107.276 86.9475 96.1383 94.2987 96.1383 107.553C96.1383 114.682 101.039 120.696 104.826 124.706L106.051 126.043L105.494 126.377C97.2521 132.503 92.0171 138.184 92.0171 147.985C92.0171 158.567 100.482 169.148 115.964 169.148ZM116.967 118.023L114.85 115.684C112.845 113.679 110.172 110.449 110.172 107.108C110.172 101.761 114.182 99.1996 117.858 99.1996C122.536 99.1996 125.877 102.541 125.877 106.774C125.877 109.67 124.541 112.454 120.865 115.127L116.967 118.023ZM116.187 156.228C110.395 156.228 106.719 151.661 106.719 147.094C106.719 142.416 109.281 139.409 113.068 136.624L114.739 135.399L128.216 149.656C124.429 153.666 120.976 156.228 116.187 156.228ZM187.514 167.7V137.292H195.534L211.016 167.7H228.168L211.238 135.399C221.597 132.392 228.057 124.038 228.057 113.011C228.057 99.311 218.255 88.7296 202.885 88.7296H172.032V167.7H187.514ZM199.989 124.038H187.514V102.096H199.989C207.786 102.096 212.352 106.439 212.352 113.122C212.352 119.583 207.786 124.038 199.989 124.038Z" fill="#3C1053"/>
</svg>
