<svg width="255" height="255" viewBox="0 0 255 255" fill="none" xmlns="http://www.w3.org/2000/svg">
<rect x="37" y="24" width="175" height="211" fill="white"/>
<path fill-rule="evenodd" clip-rule="evenodd" d="M25.4482 0.00595349L229.346 0C243.337 0 254.78 11.4426 254.78 25.4363V228.906C254.78 242.896 243.337 254.342 229.346 254.342H25.4363C11.4456 254.342 0 242.896 0 228.906L0.011907 25.4422C0.011907 11.4515 11.4575 0.00595349 25.4482 0.00595349ZM170.529 103.159L207.437 66.2474C211.914 61.7704 211.914 54.5072 207.437 50.0331C202.963 45.5531 195.7 45.5531 191.22 50.0331L154.225 87.0251L70.0845 63.5237C67.6525 62.848 64.2054 63.75 62.4253 65.533L60.5708 67.3846C58.7907 69.1676 59.0527 71.7633 61.1602 73.1535L102.254 100.281C104.359 101.674 107.547 104.266 109.333 106.044L122.297 118.957L89.4928 151.76L53.8166 141.797C52.605 141.458 50.8785 141.907 49.9885 142.8L47.0772 145.709C46.1842 146.599 46.3092 147.911 47.3511 148.623L84.0067 173.577L108.993 210.268C109.705 211.307 111.018 211.432 111.911 210.539L114.816 207.631C115.709 206.738 116.161 205.014 115.822 203.8L105.793 167.894L138.514 135.171L151.498 148.212C153.281 149.998 155.874 153.183 157.267 155.288L184.463 196.459C185.853 198.567 188.452 198.829 190.235 197.046L192.083 195.194C193.866 193.411 194.768 189.964 194.093 187.532L170.529 103.159Z" fill="#009A96"/>
</svg>
