<svg width="256" height="256" viewBox="0 0 256 256" fill="none" xmlns="http://www.w3.org/2000/svg">
<path fill-rule="evenodd" clip-rule="evenodd" d="M229.126 0H25.4584C11.4568 0 0 11.4568 0 25.4584V229.126C0 243.128 11.4568 254.584 25.4584 254.584H229.126C243.125 254.584 254.584 243.128 254.584 229.126V25.4584C254.584 11.4568 243.125 0 229.126 0Z" fill="#3B383D"/>
<path d="M128.512 70.9146H115.454V119.296H128.512C145.403 119.296 157.443 110.339 157.443 94.4666C157.443 78.8479 145.403 70.9146 128.512 70.9146ZM128.766 148.739H115.454V211.715H79.3604V44.5439H130.814C162.558 44.5439 191.23 59.1386 191.23 95.2319C191.23 132.867 162.304 148.739 128.766 148.739Z" fill="white"/>
</svg>
