<svg width="257" height="256" viewBox="0 0 257 256" fill="none" xmlns="http://www.w3.org/2000/svg">
<rect x="37.0566" y="24" width="175" height="211" fill="white"/>
<path fill-rule="evenodd" clip-rule="evenodd" d="M165.471 182.599C182.972 182.599 193.599 160.313 194.313 138.707L194.314 138.665C194.321 138.266 194.378 135.163 194.378 134.573C194.369 113.503 183.689 65.9736 183.689 65.9736C183.415 63.9613 182.975 62.214 182.29 60.669C180.254 55.9985 175.976 53.0456 166.861 50.2147C166.844 50.2058 166.826 50.1998 166.811 50.1939C166.805 50.1923 166.8 50.1908 166.794 50.1892C166.777 50.1847 166.758 50.1797 166.742 50.173C157.339 47.1308 144.619 45.3715 129.423 45.1066C129.188 45.1036 127.378 45.0917 127.378 45.0917C127.378 45.0917 125.562 45.1036 125.327 45.1066C110.128 45.3715 97.411 47.1308 88.0074 50.173C87.9866 50.182 87.9658 50.1879 87.942 50.1939C87.9251 50.1987 87.9141 50.2035 87.8995 50.2098C87.8961 50.2114 87.8924 50.213 87.8884 50.2147C78.7676 53.0456 74.496 55.9985 72.4599 60.669C71.7753 62.214 71.3377 63.9613 71.0579 65.9736C71.0579 65.9736 60.3803 113.503 60.3743 134.573C60.3715 135.167 60.4295 138.31 60.4362 138.673L60.4368 138.707C61.1483 160.313 71.7782 182.599 89.2785 182.599H165.471ZM173.892 216.749H187.508C188.827 216.749 189.526 215.177 188.636 214.195L168.29 193.813C166.924 192.432 165.063 191.658 163.129 191.658H158.36C157.157 191.658 156.413 192.97 157.035 194L169.049 214.01C170.07 215.71 171.91 216.749 173.892 216.749ZM85.6945 214.01L97.7176 194C98.3338 192.97 97.5926 191.658 96.39 191.658H91.6212C89.6833 191.658 87.8259 192.432 86.4595 193.813L66.1105 214.195C65.2234 215.177 65.923 216.749 67.2447 216.749H80.8573C82.8398 216.749 84.6765 215.71 85.6945 214.01ZM25.603 0.00297674L230.001 0C244.075 0 255.586 11.5111 255.586 25.5851V230.269C255.586 244.34 244.075 255.854 230.001 255.854H25.5881C11.517 255.854 0 244.34 0 230.269L0.00893023 25.5911C0.00893023 11.517 11.526 0.00297674 25.603 0.00297674ZM112.86 68.5127H89.5256C88.4004 68.5127 86.8971 68.9801 86.3494 71.2305C83.4858 83.1256 80.7948 100.813 79.8958 113.277C79.6696 114.864 80.5775 115.769 82.3873 115.769H112.411C114.896 115.769 115.575 114.64 115.575 112.372V71.0043C115.575 69.1944 114.221 68.5127 112.86 68.5127ZM168.061 131.721C163.313 131.751 159.449 135.594 159.449 140.368C159.449 145.128 163.313 149.001 168.061 149.031C172.812 149.001 176.658 145.128 176.658 140.368C176.658 135.594 172.812 131.751 168.061 131.721ZM78.0919 140.368C78.0919 135.594 81.9408 131.751 86.6858 131.721C91.4366 131.751 95.2975 135.594 95.2975 140.368C95.2975 145.128 91.4366 149.001 86.6858 149.031C81.9408 149.001 78.0919 145.128 78.0919 140.368ZM174.854 113.277C173.955 100.813 171.264 83.1256 168.397 71.2305C167.856 68.9801 166.352 68.5127 165.221 68.5127H141.889C140.526 68.5127 139.172 69.1944 139.172 71.0043V112.372C139.172 114.64 139.853 115.769 142.342 115.769H172.365C174.172 115.769 175.08 114.864 174.854 113.277Z" fill="#E07709"/>
</svg>
