<svg width="476" height="256" viewBox="0 0 476 256" fill="none" xmlns="http://www.w3.org/2000/svg">
<rect x="37" y="24" width="400" height="211" fill="white"/>
<path fill-rule="evenodd" clip-rule="evenodd" d="M329.202 151.108H417.961V134.263L329.202 134.266L370.804 114.021L417.934 114.015V97.1666L370.837 97.1547L319.137 72.4359L278.701 72.4507L335.994 97.1666L247.291 97.1726V114.021L335.979 114.036L294.427 134.26H247.285L247.291 151.111L294.439 151.114L346.091 175.842L386.545 175.848L329.202 151.108ZM171.408 176.753C188.907 176.753 199.533 154.457 200.244 132.84L200.245 132.798C200.253 132.399 200.313 129.293 200.313 128.702C200.304 107.624 189.624 60.0705 189.624 60.0705C189.347 58.0552 188.91 56.3079 188.222 54.76C186.187 50.0894 181.912 47.1335 172.797 44.2997L172.743 44.2818C172.723 44.2759 172.699 44.2699 172.678 44.261C163.274 41.2158 150.556 39.4565 135.36 39.1916C135.124 39.1886 133.316 39.1767 133.316 39.1767C133.316 39.1767 131.501 39.1886 131.266 39.1916C116.07 39.4565 103.352 41.2158 93.9475 44.261C93.9267 44.2699 93.9059 44.2759 93.885 44.2818C93.8746 44.2848 93.8657 44.2878 93.8568 44.2908C93.8478 44.2937 93.8389 44.2967 93.8285 44.2997C84.7101 47.1335 80.438 50.0894 78.4031 54.76C77.7159 56.3079 77.2816 58.0552 77.0019 60.0705C77.0019 60.0705 66.3217 107.624 66.3157 128.702C66.3129 129.297 66.3735 132.44 66.3805 132.805L66.3812 132.84C67.0922 154.457 77.7189 176.753 95.2208 176.753H171.408ZM179.827 210.92H193.44C194.761 210.92 195.46 209.348 194.571 208.366L174.228 187.972C172.859 186.591 171 185.817 169.063 185.817H164.294C163.092 185.817 162.349 187.13 162.971 188.16L174.987 208.181C176.007 209.881 177.846 210.92 179.827 210.92ZM91.6359 208.181L103.658 188.16C104.277 187.13 103.533 185.817 102.331 185.817H97.5621C95.6254 185.817 93.769 186.591 92.4005 187.972L72.0545 208.366C71.1679 209.348 71.8641 210.92 73.188 210.92H86.8016C88.7829 210.92 90.6155 209.881 91.6359 208.181ZM25.5999 0.0176252L450.132 0.0146484C464.204 0.0146484 475.714 11.5317 475.714 25.6117V230.403C475.714 244.48 464.204 256 450.132 256H25.585C11.5162 256 0 244.48 0 230.403L0.008925 25.6176C0.008925 11.5376 11.5251 0.0176252 25.5999 0.0176252ZM118.801 62.6096H95.4678C94.3372 62.6096 92.8379 63.077 92.2934 65.3274C89.4285 77.2284 86.7361 94.9252 85.8377 107.395C85.6116 108.984 86.519 109.889 88.3307 109.889H118.351C120.836 109.889 121.517 108.758 121.517 106.49V65.1012C121.517 63.2913 120.163 62.6096 118.801 62.6096ZM173.999 125.848C169.248 125.877 165.386 129.723 165.386 134.501C165.386 139.267 169.248 143.137 173.999 143.166C178.747 143.137 182.594 139.267 182.594 134.501C182.594 129.723 178.747 125.877 173.999 125.848ZM84.0348 134.501C84.0348 129.723 87.8815 125.877 92.6296 125.848C97.3747 125.877 101.239 129.723 101.239 134.501C101.239 139.267 97.3747 143.137 92.6296 143.166C87.8815 143.137 84.0348 139.267 84.0348 134.501ZM180.788 107.395C179.889 94.9252 177.2 77.2284 174.332 65.3274C173.791 63.077 172.288 62.6096 171.158 62.6096H147.828C146.465 62.6096 145.109 63.2913 145.109 65.1012V106.49C145.109 108.758 145.79 109.889 148.277 109.889H178.298C180.106 109.889 181.014 108.984 180.788 107.395Z" fill="#E07709"/>
</svg>
