<svg width="255" height="255" viewBox="0 0 255 255" fill="none" xmlns="http://www.w3.org/2000/svg">
<rect x="37" y="24" width="175" height="211" fill="white"/>
<path fill-rule="evenodd" clip-rule="evenodd" d="M194.364 168.231C194.364 173.899 189.729 178.531 184.064 178.531H184.043V190.878C184.043 192.581 182.656 193.968 180.953 193.968H171.696C169.993 193.968 168.609 192.581 168.609 190.878V178.531H86.2809V190.878C86.2809 192.581 84.8848 193.968 83.1911 193.968H73.9245C72.2218 193.968 70.8346 192.581 70.8346 190.878V178.531C65.1758 178.513 60.5648 173.887 60.5648 168.231V132.254C60.5648 126.586 62.8569 119.66 65.6521 116.846C68.4532 114.033 71.6621 107.196 72.7814 101.644L79.107 70.2426C80.2113 64.682 85.7421 60.1365 91.398 60.1365H163.462C169.118 60.1365 174.696 64.6731 175.848 70.2217L182.046 101.626C183.108 107.184 186.317 114.033 189.169 116.846C192.021 119.66 194.364 126.586 194.364 132.254V168.231ZM229.346 0.658203L25.4482 0.664157C11.4575 0.664157 0.011907 12.1097 0.011907 26.1004L0 229.564C0 243.555 11.4456 255 25.4363 255H229.346C243.337 255 254.78 243.555 254.78 229.564V26.0945C254.78 12.1008 243.337 0.658203 229.346 0.658203ZM166.975 75.4965L171.871 101.46C172.937 107.017 169.168 111.563 163.501 111.563H91.3563C85.6915 111.563 81.9408 107.017 83.0244 101.469L87.9628 75.5144C88.4361 72.7222 91.142 70.439 93.9728 70.439H160.884C163.718 70.439 166.454 72.7133 166.975 75.4965ZM78.5592 127.048C74.3085 127.048 70.8346 130.531 70.8346 134.79C70.8346 139.05 74.3085 142.494 78.5592 142.494C82.8071 142.494 86.2809 139.05 86.2809 134.79C86.2809 130.531 82.8071 127.048 78.5592 127.048ZM153.222 150.424H101.748C98.9053 150.424 96.6013 152.725 96.6013 155.568C96.6013 158.414 98.9053 160.715 101.748 160.715H153.222C156.065 160.715 158.366 158.414 158.366 155.568C158.366 152.725 156.065 150.424 153.222 150.424ZM168.597 134.79C168.597 130.531 172.071 127.048 176.319 127.048C180.578 127.048 184.043 130.531 184.043 134.79C184.043 139.05 180.578 142.494 176.319 142.494C172.071 142.494 168.597 139.05 168.597 134.79Z" fill="#DF1683"/>
</svg>
