<svg width="255" height="255" viewBox="0 0 255 255" fill="none" xmlns="http://www.w3.org/2000/svg">
<path fill-rule="evenodd" clip-rule="evenodd" d="M229.126 0H25.4584C11.4568 0 0 11.4568 0 25.4584V229.126C0 243.128 11.4568 254.584 25.4584 254.584H229.126C243.125 254.584 254.584 243.128 254.584 229.126V25.4584C254.584 11.4568 243.125 0 229.126 0Z" fill="#3C1053"/>
<path d="M192.587 115.191C189.615 112.217 186.006 105.103 184.945 99.2623L178.47 66.3439C177.303 60.5035 171.465 55.8312 165.521 55.8312H149.387V48.1857C149.387 46.3805 147.901 45 146.203 45H109.585C107.78 45 106.4 46.4866 106.4 48.1857V55.725H90.1607C84.2168 55.725 78.3791 60.5035 77.3177 66.3439L70.7369 99.2623C69.5694 105.103 66.1729 112.217 63.3071 115.191C60.3351 118.164 58 125.385 58 131.331V169.028C58 174.975 62.8825 179.859 68.7202 179.859V192.814C68.7202 194.62 70.2062 196 71.9045 196H81.5633C83.3677 196 84.7475 194.513 84.7475 192.814V179.859H171.04V192.814C171.04 194.62 172.526 196 174.331 196H183.989C185.794 196 187.174 194.513 187.174 192.814V179.859C193.118 179.859 198 174.975 198 169.028V131.331C198 125.385 195.559 118.164 192.587 115.191ZM76.4685 142.056C72.0106 142.056 68.4018 138.446 68.4018 133.986C68.4018 129.526 72.0106 125.916 76.4685 125.916C80.9265 125.916 84.5353 129.526 84.5353 133.986C84.5353 138.446 80.9265 142.056 76.4685 142.056ZM154.694 155.542H100.775C97.8029 155.542 95.3616 153.1 95.3616 150.127C95.3616 147.153 97.8029 144.711 100.775 144.711H154.694C157.666 144.711 160.108 147.153 160.108 150.127C160.108 153.1 157.666 155.542 154.694 155.542ZM154.694 139.402H100.775C97.8029 139.402 95.3616 136.959 95.3616 133.986C95.3616 131.013 97.8029 128.57 100.775 128.57H154.694C157.666 128.57 160.108 131.013 160.108 133.986C160.108 136.959 157.666 139.402 154.694 139.402ZM89.8423 109.669C83.8984 109.669 79.9712 104.89 81.1387 99.0499L86.3397 71.8657C86.8704 68.8924 89.7362 66.5563 92.602 66.5563H162.761C165.733 66.5563 168.599 68.9986 169.13 71.8657L174.224 99.0499C175.392 104.89 171.359 109.669 165.415 109.669H89.8423ZM178.895 142.056C174.437 142.056 170.828 138.446 170.828 133.986C170.828 129.526 174.437 125.916 178.895 125.916C183.353 125.916 186.961 129.526 186.961 133.986C186.961 138.446 183.353 142.056 178.895 142.056Z" fill="white"/>
</svg>
