<svg width="255" height="255" viewBox="0 0 255 255" fill="none" xmlns="http://www.w3.org/2000/svg">
<rect x="54" y="24" width="141" height="211" fill="white"/>
<path fill-rule="evenodd" clip-rule="evenodd" d="M179.043 127.06L169.231 127.985C167.563 127.985 165.897 127.614 164.786 126.506L145.715 109.471C145.715 109.471 145.715 109.288 145.531 109.288L142.938 104.842H142.755L139.978 97.8068H139.237L139.978 137.43V137.8L156.085 172.05V172.237L157.009 175.754L166.638 213.525C167.195 215.558 166.451 216.672 164.415 217.41L156.085 220.003C154.046 220.931 152.567 219.819 152.01 217.967L139.978 176.125C139.978 175.938 139.794 175.938 139.794 175.938L126.461 151.314V151.13C126.094 150.019 125.35 149.091 124.241 149.091C123.13 149.091 122.202 149.648 121.832 151.13L113.501 179.456C112.944 180.751 112.577 181.678 111.465 183.16L85.9136 214.263C84.4348 215.931 82.7663 216.672 80.5466 215.004L74.8062 210.377C73.6949 209.45 73.5081 208.339 74.9929 206.116V205.932L98.3191 174.643C98.3191 174.456 98.5028 174.456 98.5028 174.272L107.204 137.613V137.43L107.948 107.99C108.131 103.36 108.318 100.954 108.689 97.2526H108.131L100.725 109.842V110.025L93.1358 139.279C92.5786 141.131 90.1722 141.501 89.0609 140.02L83.6909 131.689C82.7663 130.207 82.5826 128.542 83.1368 126.876L88.6935 105.029C88.8772 103.918 89.2476 102.99 89.9885 101.882L104.243 80.4048C108.131 74.1072 111.092 73.7367 119.426 73.7367H129.608C137.385 73.7367 141.273 73.7367 145.345 80.959L156.642 101.695C156.642 101.882 156.826 101.882 156.826 101.882L180.152 122.988C181.633 124.283 180.896 126.69 179.043 127.06ZM125.536 35.2283C133.496 35.2283 139.794 42.2638 139.794 50.9648C139.794 59.8525 133.496 66.888 125.536 66.888C117.573 66.888 111.279 59.8525 111.279 50.9648C111.279 42.2638 117.573 35.2283 125.536 35.2283ZM229.427 0.565918L25.4554 0.571941C11.4628 0.571941 0.0120471 12.0227 0.0120471 26.0183L0 229.553C0 243.549 11.4477 255 25.4404 255H229.427C243.42 255 254.868 243.549 254.868 229.553V26.0123C254.868 12.0166 243.42 0.565918 229.427 0.565918Z" fill="#658D1B"/>
</svg>
