<?xml version="1.0" encoding="utf-8"?>
<!-- Generator: Adobe Illustrator 27.3.0, SVG Export Plug-In . SVG Version: 6.00 Build 0)  -->
<svg version="1.1" id="Layer_1" xmlns="http://www.w3.org/2000/svg" xmlns:xlink="http://www.w3.org/1999/xlink" x="0px" y="0px"
	 viewBox="0 0 606 605" style="enable-background:new 0 0 606 605;" xml:space="preserve">
<style type="text/css">
	.st0{fill-rule:evenodd;clip-rule:evenodd;fill:#F2E1CC;}
	.st1{fill-rule:evenodd;clip-rule:evenodd;fill:#DF1683;}
	.st2{fill:none;stroke:#F3F2F1;stroke-width:6.0033;stroke-linejoin:round;stroke-miterlimit:17.7777;}
	.st3{fill-rule:evenodd;clip-rule:evenodd;fill:#037FB0;}
	.st4{fill-rule:evenodd;clip-rule:evenodd;fill:#C9510D;}
	.st5{fill-rule:evenodd;clip-rule:evenodd;fill:#843B00;}
	.st6{fill-rule:evenodd;clip-rule:evenodd;fill:#D60037;}
	.st7{fill-rule:evenodd;clip-rule:evenodd;fill:#00A19C;}
	.st8{fill-rule:evenodd;clip-rule:evenodd;fill:#FFDD00;}
	.st9{fill-rule:evenodd;clip-rule:evenodd;fill:#F5F5F5;}
	.st10{fill:#080607;}
	.st11{fill-rule:evenodd;clip-rule:evenodd;fill:#00703C;}
	.st12{fill-rule:evenodd;clip-rule:evenodd;fill:#FE811B;}
	.st13{fill-rule:evenodd;clip-rule:evenodd;fill:#004E2A;}
	.st14{fill-rule:evenodd;clip-rule:evenodd;fill:#F3F2F1;}
	.st15{fill-rule:evenodd;clip-rule:evenodd;}
</style>
<g>
	<path class="st0" d="M0.9,302.4C0.9,135.4,136.1,0.1,303,0.1s302.2,135.3,302.2,302.3S470,604.7,303.1,604.7
		C136.1,604.7,0.9,469.3,0.9,302.4z"/>
	<path class="st1" d="M300.7,143.8c48.2,0,93.9,22,124,59.7l-124,98.8V143.8z"/>
	<path class="st2" d="M300.7,143.8c48.2,0,93.9,22,124,59.7l-124,98.8V143.8z"/>
	<path class="st3" d="M425.3,203.5c30.1,37.7,41.3,87.2,30.6,134.2l-154.5-35.2L425.3,203.5z"/>
	<path class="st2" d="M425.3,203.5c30.1,37.7,41.3,87.2,30.6,134.2l-154.5-35.2L425.3,203.5z"/>
	<path class="st4" d="M455.9,337.7c-10.8,47-42.3,86.6-85.8,107.7l-68.8-142.9L455.9,337.7z"/>
	<path class="st2" d="M455.9,337.7c-10.8,47-42.3,86.6-85.8,107.7l-68.8-142.9L455.9,337.7z"/>
	<path class="st5" d="M370.2,445.3c-43.5,21-94.1,21-137.6,0l68.8-143L370.2,445.3z"/>
	<path class="st2" d="M370.2,445.3c-43.5,21-94.1,21-137.6,0l68.8-143L370.2,445.3z"/>
	<path class="st6" d="M232.6,445.3c-43.5-21-75.1-60.5-85.8-107.7l154.5-35.2L232.6,445.3z"/>
	<path class="st2" d="M232.6,445.3c-43.5-21-75.1-60.5-85.8-107.7l154.5-35.2L232.6,445.3z"/>
	<path class="st7" d="M146.8,337.7c-10.8-47,0.5-96.5,30.6-134.2l124,98.9L146.8,337.7z"/>
	<path class="st2" d="M146.8,337.7c-10.8-47,0.5-96.5,30.6-134.2l124,98.9L146.8,337.7z"/>
	<path class="st8" d="M177.5,203.5c30.1-37.7,75.7-59.7,124-59.7v158.5L177.5,203.5z"/>
	<path class="st2" d="M177.5,203.5c30.1-37.7,75.7-59.7,124-59.7v158.5L177.5,203.5z"/>
	<path class="st9" d="M300.3,161.2c42.8,0,83.2,19.5,109.9,53l-109.9,87.7V161.2z"/>
	<path class="st2" d="M300.3,161.2c42.8,0,83.2,19.5,109.9,53l-109.9,87.7V161.2z"/>
	<path class="st9" d="M410.9,214.2c26.7,33.5,36.7,77.2,27.1,119l-137.1-31.3L410.9,214.2z"/>
	<path class="st2" d="M410.9,214.2c26.7,33.5,36.7,77.2,27.1,119l-137.1-31.3L410.9,214.2z"/>
	<path class="st9" d="M438,333.1c-9.5,41.7-37.5,76.8-76.1,95.3l-61-126.6L438,333.1z"/>
	<path class="st2" d="M438,333.1c-9.5,41.7-37.5,76.8-76.1,95.3l-61-126.6L438,333.1z"/>
	<path class="st9" d="M362,428.6c-38.6,18.6-83.4,18.6-122,0L301,302L362,428.6z"/>
	<path class="st2" d="M362,428.6c-38.6,18.6-83.4,18.6-122,0L301,302L362,428.6z"/>
	<path class="st9" d="M240,428.5c-38.6-18.6-66.5-53.7-76-95.3l136.9-31.3L240,428.5z"/>
	<path class="st2" d="M240,428.5c-38.6-18.6-66.5-53.7-76-95.3l136.9-31.3L240,428.5z"/>
	<path class="st9" d="M164,333.1c-9.5-41.7,0.5-85.5,27.1-119L301,301.8L164,333.1z"/>
	<path class="st2" d="M164,333.1c-9.5-41.7,0.5-85.5,27.1-119L301,301.8L164,333.1z"/>
	<path class="st9" d="M191.2,214.2c26.7-33.5,67.1-53,109.8-53v140.7L191.2,214.2z"/>
	<path class="st2" d="M191.2,214.2c26.7-33.5,67.1-53,109.8-53v140.7L191.2,214.2z"/>
	<path class="st10" d="M326.3,233.9l-8.3-4.5l0.8-1.5l8.3,4.5L326.3,233.9z M328,230.8l-5.9-3.2l0.8-1.4l1,0.5
		c-0.3-0.3-0.5-0.8-0.5-1.3s0.1-1,0.3-1.4c0.5-0.8,1-1.2,1.6-1.4c0.7-0.2,1.5,0,2.4,0.5l3.3,1.8l-0.8,1.5l-3.2-1.7
		c-0.5-0.3-1-0.5-1.4-0.3c-0.5,0.1-0.7,0.3-1,0.8s-0.3,0.8-0.2,1.3c0.2,0.5,0.5,0.8,1,1.1l3,1.7L328,230.8z M333.6,220.7
		c-0.3,0.6-0.8,1.1-1.3,1.4c-0.5,0.3-1.1,0.5-1.7,0.5s-1.2-0.2-1.8-0.5c-0.6-0.3-1.1-0.8-1.4-1.3s-0.5-1.1-0.5-1.7s0.2-1.2,0.5-1.8
		c0.5-0.8,1-1.3,1.6-1.6c0.7-0.3,1.4-0.3,2.1-0.1l-0.8,1.6c-0.3-0.1-0.7,0-1,0.1c-0.3,0.2-0.5,0.5-0.7,0.7c-0.3,0.5-0.3,0.8-0.1,1.4
		c0.2,0.5,0.5,0.8,1.1,1.2c0.6,0.3,1.1,0.5,1.5,0.3c0.5-0.1,0.8-0.5,1-0.8s0.3-0.7,0.2-1c-0.1-0.3-0.2-0.6-0.5-0.8l0.8-1.6
		c0.6,0.5,1,1.1,1.1,1.9C334.2,219.2,334.1,219.9,333.6,220.7z M335.8,216.4l-8.6-4.7l0.8-1.5l8.6,4.7L335.8,216.4z M338.8,211.2
		c-0.5,0.8-1,1.2-1.6,1.4c-0.7,0.2-1.5,0-2.4-0.5l-3.3-1.8l0.8-1.5l3.2,1.7c0.5,0.3,1,0.5,1.4,0.3c0.5-0.1,0.7-0.3,1-0.8
		s0.3-0.8,0.1-1.3c-0.2-0.5-0.5-0.8-1-1.1l-3-1.7l0.8-1.5l5.9,3.2l-0.8,1.4l-1-0.5c0.3,0.3,0.5,0.8,0.5,1.3
		C339.2,210.3,339,210.7,338.8,211.2z M342.9,203.8c-0.3,0.5-0.6,1-1,1.3s-0.8,0.5-1.3,0.6s-0.8,0-1.3-0.2l0.8-1.5
		c0.3,0.1,0.5,0.1,0.8-0.1c0.3-0.2,0.5-0.3,0.7-0.7c0.2-0.3,0.3-0.6,0.2-0.8c-0.1-0.3-0.2-0.5-0.3-0.5c-0.3-0.2-0.5-0.1-0.7,0.1
		c-0.2,0.2-0.5,0.5-0.8,0.8c-0.2,0.3-0.5,0.5-0.6,0.7c-0.3,0.2-0.5,0.5-0.7,0.6c-0.3,0.2-0.5,0.3-0.8,0.3s-0.6,0-0.8-0.2
		c-0.5-0.3-0.8-0.8-1-1.4c-0.2-0.6,0-1.3,0.5-2c0.3-0.7,0.8-1.2,1.4-1.5s1.1-0.3,1.8,0l-0.7,1.3c-0.5-0.2-0.8,0.1-1.2,0.6
		c-0.2,0.3-0.3,0.5-0.2,0.8c0,0.2,0.1,0.3,0.3,0.5c0.2,0.1,0.3,0.1,0.6-0.1c0.3-0.2,0.5-0.5,0.8-0.8s0.6-0.7,1-1
		c0.3-0.3,0.6-0.5,1-0.5c0.3-0.1,0.7,0,1.1,0.2c0.3,0.2,0.7,0.5,0.8,0.8c0.2,0.3,0.3,0.8,0.3,1.3
		C343.3,202.8,343.2,203.3,342.9,203.8z M338.5,195.4c-0.2,0.3-0.3,0.5-0.6,0.5c-0.3,0.1-0.5,0.1-0.8-0.1c-0.3-0.2-0.5-0.3-0.5-0.6
		c-0.1-0.3,0-0.5,0.2-0.8s0.3-0.5,0.6-0.6c0.3-0.1,0.5-0.1,0.8,0.1c0.3,0.2,0.5,0.3,0.5,0.6C338.7,194.8,338.7,195,338.5,195.4z
		 M344.8,199.8l-5.9-3.2l0.8-1.5l5.9,3.2L344.8,199.8z M347.5,195l-7.1-1l0.8-1.6l5.2,1l-3.7-3.9l0.8-1.6l4.7,5.4L347.5,195z
		 M351.9,187.2c-0.3,0.6-0.8,1-1.3,1.4c-0.5,0.3-1,0.5-1.7,0.5c-0.6,0-1.2-0.2-1.8-0.5c-0.6-0.3-1.1-0.8-1.5-1.3
		c-0.3-0.5-0.5-1.1-0.5-1.7c0-0.6,0.2-1.2,0.5-1.9c0.3-0.6,0.7-1,1.2-1.4c0.5-0.3,1-0.5,1.6-0.5s1.1,0.2,1.7,0.5
		c0.1,0.1,0.2,0.1,0.3,0.2c0.1,0.1,0.2,0.1,0.3,0.2l-2.5,4.5c0.5,0.3,1,0.3,1.4,0.1c0.5-0.2,0.8-0.5,1-0.8s0.3-0.6,0.3-0.8
		s-0.1-0.5-0.3-0.8l0.8-1.5c0.3,0.3,0.6,0.7,0.7,1.1c0.2,0.5,0.3,0.8,0.2,1.4C352.3,186.3,352.1,186.8,351.9,187.2z M347,184.5
		c-0.2,0.3-0.3,0.8-0.3,1.2c0.1,0.5,0.3,0.8,0.7,1.1l1.6-3c-0.5-0.2-0.8-0.2-1.2-0.1C347.3,183.8,347.2,184.2,347,184.5z"/>
	<path class="st10" d="M339,244.6l-8.3-4.5l3-5.4l1.2,0.7l-2.1,3.9l2.3,1.3l2-3.6l1.2,0.7l-2,3.6l2.4,1.3l2.1-3.9l1.2,0.7L339,244.6
		z M344.5,234.9c-0.3,0.6-0.8,1-1.3,1.4c-0.5,0.3-1.1,0.5-1.7,0.5s-1.2-0.2-1.9-0.5c-0.6-0.3-1.1-0.8-1.4-1.3s-0.5-1.1-0.5-1.7
		c0-0.6,0.2-1.2,0.5-1.8c0.5-0.8,1-1.3,1.6-1.6c0.7-0.3,1.4-0.3,2.1-0.1l-0.8,1.6c-0.3-0.1-0.7,0-1,0.1c-0.3,0.2-0.5,0.3-0.7,0.7
		c-0.3,0.5-0.3,0.8-0.1,1.4c0.2,0.5,0.5,0.8,1.1,1.2c0.6,0.3,1.1,0.5,1.5,0.3c0.5-0.2,0.8-0.5,1-0.8s0.3-0.7,0.2-1
		c0-0.3-0.2-0.6-0.5-0.8l0.8-1.6c0.6,0.5,1,1.1,1.1,1.9C345,233.4,344.8,234.2,344.5,234.9z M348.3,227.8c-0.3,0.6-0.7,1-1.3,1.4
		c-0.5,0.3-1.1,0.5-1.7,0.5s-1.2-0.2-1.9-0.5c-0.6-0.3-1.1-0.8-1.4-1.3s-0.5-1.1-0.5-1.7s0.2-1.2,0.5-1.8s0.7-1,1.2-1.3
		s1.1-0.5,1.7-0.5s1.2,0.2,1.9,0.5c0.6,0.3,1.1,0.8,1.4,1.3s0.5,1.1,0.5,1.7C348.8,226.7,348.6,227.2,348.3,227.8z M347,227.2
		c0.2-0.5,0.3-0.8,0.1-1.3c-0.2-0.5-0.5-0.8-1.1-1.2c-0.6-0.3-1.1-0.5-1.5-0.3c-0.5,0.2-0.8,0.5-1,0.8c-0.3,0.5-0.3,0.8-0.2,1.3
		c0.2,0.5,0.5,0.8,1.1,1.2c0.6,0.3,1.1,0.5,1.5,0.3C346.4,227.7,346.8,227.5,347,227.2z M350.6,223.3l-5.9-3.2l0.8-1.4l1.1,0.5
		c-0.3-0.3-0.5-0.8-0.5-1.3s0.1-1,0.3-1.4c0.5-0.8,1-1.2,1.6-1.4c0.7-0.2,1.5,0,2.4,0.5l3.3,1.8l-0.8,1.5l-3.2-1.7
		c-0.5-0.3-1-0.5-1.4-0.3c-0.5,0.1-0.7,0.3-1,0.8s-0.3,0.8-0.1,1.3c0.2,0.5,0.5,0.8,1,1.1l3,1.7L350.6,223.3z M356.2,213.3
		c-0.3,0.6-0.7,1-1.3,1.4c-0.5,0.3-1.1,0.5-1.7,0.5s-1.2-0.2-1.9-0.5c-0.6-0.3-1.1-0.8-1.4-1.3s-0.5-1.1-0.5-1.7
		c0-0.6,0.2-1.2,0.5-1.8s0.7-1,1.3-1.3c0.5-0.3,1.1-0.5,1.7-0.5s1.2,0.2,1.9,0.5c0.7,0.3,1.1,0.8,1.4,1.3s0.5,1.1,0.5,1.7
		C356.6,212.2,356.5,212.8,356.2,213.3z M354.9,212.6c0.2-0.5,0.3-0.8,0.1-1.3c-0.2-0.5-0.5-0.8-1.1-1.2s-1.1-0.5-1.5-0.3
		c-0.5,0.2-0.8,0.5-1,0.8c-0.3,0.5-0.3,0.8-0.1,1.3c0.2,0.5,0.5,0.8,1.1,1.2c0.6,0.3,1.1,0.5,1.5,0.3
		C354.3,213.3,354.6,213.1,354.9,212.6z M358.5,208.9l-5.9-3.2l0.8-1.4l0.8,0.3c-0.2-0.3-0.3-0.7-0.3-1.1c0-0.5,0.1-0.8,0.3-1.3
		c0.5-1,1.2-1.4,2.1-1.4c-0.2-0.5-0.3-0.8-0.3-1.3s0.2-1,0.3-1.4c0.5-0.8,1-1.3,1.7-1.5c0.8-0.2,1.5,0,2.4,0.5l3.3,1.8l-0.8,1.5
		l-3.2-1.7c-0.5-0.3-1-0.5-1.4-0.3c-0.5,0.1-0.7,0.3-0.8,0.7c-0.3,0.5-0.3,0.8-0.1,1.3c0.2,0.5,0.5,0.8,1,1l3,1.7l-0.8,1.5l-3.2-1.7
		c-0.5-0.3-1-0.5-1.4-0.3c-0.3,0.1-0.7,0.3-1,0.7s-0.3,0.8-0.1,1.2c0.2,0.5,0.5,0.8,1,1l3,1.7L358.5,208.9z M367.6,198.4l-2.3-3
		l-0.2,0.3l-6.8-0.7l1-1.7l5.1,0.6l-3.2-4l0.8-1.6l6.4,8.4L367.6,198.4z"/>
	<path class="st10" d="M364.3,282.5l-1.5-9.3l3.5-0.5c0.8-0.1,1.4-0.1,2,0.1c0.5,0.2,1,0.5,1.3,0.8c0.3,0.5,0.5,0.8,0.6,1.5
		c0.1,0.5,0,1-0.2,1.5s-0.5,0.8-1,1.2c-0.5,0.3-1,0.6-1.9,0.7l-1.8,0.3l0.6,3.7L364.3,282.5z M365.2,277.3l1.6-0.3
		c0.6-0.1,1-0.3,1.3-0.6c0.3-0.3,0.3-0.7,0.3-1.1c-0.1-0.5-0.3-0.8-0.6-1c-0.3-0.3-0.8-0.3-1.4-0.2l-1.6,0.3L365.2,277.3z
		 M375.6,280.9c-0.7,0.1-1.3,0-1.8-0.2c-0.6-0.3-1-0.6-1.5-1c-0.5-0.5-0.6-1-0.8-1.8c-0.1-0.7-0.1-1.3,0.2-1.9c0.3-0.6,0.6-1,1-1.5
		c0.5-0.3,1-0.6,1.7-0.7c0.6-0.1,1.2,0,1.8,0.2c0.6,0.2,1,0.6,1.5,1c0.5,0.5,0.6,1,0.8,1.8c0.1,0.7,0.1,1.3-0.2,1.9
		c-0.3,0.6-0.6,1-1,1.5C376.8,280.5,376.3,280.8,375.6,280.9z M375.4,279.5c0.5-0.1,0.8-0.3,1.1-0.7c0.3-0.5,0.3-1,0.3-1.6
		c-0.1-0.7-0.3-1.1-0.7-1.5c-0.5-0.3-0.8-0.5-1.3-0.3c-0.5,0.1-0.8,0.3-1.1,0.7c-0.3,0.5-0.3,1-0.3,1.6c0.1,0.7,0.3,1.1,0.7,1.5
		C374.6,279.3,375,279.5,375.4,279.5z M381.8,279.8l-3-6.4l1.7-0.3l1.9,4.6l0.6-5l1.9-0.3l2.1,4.6l0.5-4.9l1.7-0.3l-1,6.9l-1.8,0.3
		l-2.2-4.7l-0.7,5.2L381.8,279.8z M394.5,278c-0.7,0.1-1.3,0.1-1.9-0.2c-0.6-0.3-1-0.5-1.5-1c-0.3-0.5-0.6-1-0.7-1.7
		s-0.1-1.4,0.2-1.9c0.2-0.6,0.5-1,1-1.5c0.5-0.3,1-0.6,1.8-0.8c0.7-0.1,1.3,0,1.8,0.2s1,0.5,1.4,1c0.3,0.5,0.6,1,0.7,1.6
		c0,0.1,0,0.2,0,0.3c0,0.1,0,0.3,0,0.3l-5.1,0.8c0.1,0.5,0.3,0.8,0.8,1.1c0.3,0.3,0.8,0.3,1.3,0.3c0.3-0.1,0.6-0.2,0.8-0.3
		c0.2-0.2,0.3-0.5,0.5-0.7l1.7-0.3c-0.1,0.5-0.2,0.8-0.5,1.3s-0.6,0.7-1,1C395.6,277.6,395.1,277.9,394.5,278z M393.7,272.4
		c-0.5,0.1-0.8,0.3-1,0.5c-0.3,0.3-0.5,0.7-0.5,1.2l3.3-0.5c-0.1-0.5-0.3-0.8-0.7-1C394.5,272.4,394.2,272.3,393.7,272.4z
		 M399.3,277.1l-1-6.6l1.5-0.3l0.3,1.2c0.2-0.5,0.5-0.8,0.8-1.2c0.3-0.3,0.8-0.5,1.5-0.6l0.3,1.8l-0.5,0.1c-0.3,0.1-0.7,0.2-1,0.3
		c-0.3,0.2-0.5,0.5-0.6,0.7c-0.1,0.3-0.2,0.8-0.1,1.2l0.5,3L399.3,277.1z M410.2,275.6c-0.6,0.1-1,0.1-1.5-0.1
		c-0.5-0.1-0.7-0.3-1-0.6c-0.3-0.3-0.3-0.6-0.5-1c-0.1-0.6,0.1-1.2,0.5-1.6c0.5-0.5,1.1-0.8,2.1-1l1.7-0.3v-0.2
		c-0.1-0.5-0.3-0.8-0.5-1c-0.3-0.2-0.6-0.3-1-0.2c-0.3,0.1-0.7,0.2-0.8,0.5c-0.3,0.2-0.3,0.5-0.3,0.8l-1.7,0.3c0-0.5,0.1-1,0.3-1.4
		c0.3-0.5,0.5-0.8,1-1c0.5-0.3,1-0.5,1.5-0.5c1-0.2,1.7,0,2.4,0.3c0.6,0.5,1,1,1.1,1.9l0.6,4.1l-1.5,0.3l-0.4-0.9
		c-0.2,0.5-0.3,0.8-0.7,1C411.1,275.3,410.8,275.4,410.2,275.6z M410.4,274.1c0.5-0.1,0.8-0.3,1.1-0.7c0.3-0.3,0.3-0.8,0.3-1.3
		l-1.5,0.3c-0.5,0.1-0.8,0.2-1,0.5s-0.3,0.5-0.2,0.7c0,0.3,0.2,0.5,0.5,0.6C409.8,274.2,410.1,274.2,410.4,274.1z M415.7,274.5
		l-1-6.6l1.5-0.3l0.3,1.1c0.2-0.5,0.5-0.8,0.8-1.1c0.3-0.3,0.8-0.5,1.3-0.6c0.8-0.1,1.5,0,2,0.5s0.8,1.2,1,2.2l0.6,3.7l-1.7,0.3
		l-0.6-3.6c-0.1-0.6-0.3-1-0.6-1.3c-0.3-0.3-0.7-0.3-1.2-0.3c-0.5,0.1-0.8,0.3-1.1,0.7c-0.3,0.5-0.3,0.8-0.3,1.5l0.5,3.4
		L415.7,274.5z M426.8,272.9c-0.6,0.1-1.2,0-1.8-0.2c-0.5-0.3-1-0.6-1.4-1c-0.3-0.5-0.6-1-0.7-1.7s-0.1-1.3,0.2-1.9
		c0.3-0.6,0.5-1,1-1.5c0.5-0.3,1-0.6,1.6-0.7c0.5-0.1,1-0.1,1.4,0.1c0.5,0.2,0.8,0.3,1,0.7l-0.6-3.9l1.7-0.3l1.5,9.7l-1.5,0.3
		l-0.3-1c-0.2,0.3-0.5,0.6-0.8,1C427.9,272.7,427.4,272.8,426.8,272.9z M427,271.4c0.6-0.1,1-0.3,1.3-0.8s0.5-1,0.3-1.5
		c-0.1-0.6-0.3-1-0.8-1.4c-0.5-0.3-0.8-0.5-1.5-0.3c-0.5,0.1-1,0.3-1.3,0.8s-0.5,1-0.3,1.5c0.1,0.6,0.3,1,0.8,1.4
		C425.9,271.4,426.4,271.5,427,271.4z"/>
	<path class="st10" d="M350.9,301.1l-1.5-9.3l3.5-0.5c0.8-0.1,1.4-0.1,2,0.1c0.5,0.2,1,0.5,1.3,0.8c0.3,0.5,0.5,0.8,0.6,1.5
		c0.1,0.5,0,1-0.2,1.5s-0.5,0.8-1,1.2c-0.5,0.3-1,0.6-1.9,0.7l-1.8,0.3l0.6,3.7L350.9,301.1z M351.9,295.8l1.6-0.3
		c0.6-0.1,1-0.3,1.3-0.6c0.3-0.3,0.3-0.7,0.3-1.1c-0.1-0.5-0.3-0.8-0.6-1c-0.3-0.3-0.8-0.3-1.4-0.2l-1.6,0.3L351.9,295.8z
		 M361.4,299.6c-0.6,0.1-1,0.1-1.5-0.1c-0.5-0.1-0.7-0.3-1-0.6c-0.3-0.3-0.3-0.6-0.5-1c-0.1-0.6,0.1-1.2,0.5-1.6
		c0.5-0.5,1.1-0.8,2.1-1l1.7-0.3v-0.2c-0.1-0.5-0.3-0.8-0.6-1c-0.3-0.2-0.6-0.3-1-0.2c-0.3,0.1-0.7,0.2-0.8,0.5
		c-0.3,0.2-0.3,0.5-0.3,0.8l-1.7,0.3c0-0.5,0.1-1,0.3-1.4c0.3-0.5,0.6-0.8,1-1c0.5-0.3,1-0.5,1.5-0.5c1-0.2,1.7,0,2.4,0.3
		c0.6,0.5,1,1,1.1,1.9l0.7,4.1l-1.5,0.3l-0.3-1c-0.2,0.5-0.3,0.8-0.7,1C362.4,299.4,362,299.6,361.4,299.6z M361.5,298.2
		c0.5-0.1,0.8-0.3,1.1-0.7c0.3-0.3,0.3-0.8,0.3-1.3l-1.5,0.3c-0.5,0.1-0.8,0.2-1,0.5s-0.3,0.5-0.2,0.7c0,0.3,0.2,0.5,0.5,0.6
		C361.1,298.4,361.2,298.3,361.5,298.2z M366.8,298.6l-1-6.6l1.5-0.3l0.3,1.2c0.2-0.5,0.5-0.8,0.8-1.2c0.3-0.3,0.8-0.5,1.5-0.6
		l0.3,1.8l-0.5,0.1c-0.3,0.1-0.7,0.2-1,0.3c-0.3,0.2-0.5,0.5-0.6,0.7c-0.2,0.3-0.2,0.8-0.1,1.3l0.5,3.1L366.8,298.6z M375.1,297.4
		c-0.7,0.1-1.3,0-1.8-0.3s-0.8-0.8-1-1.7l-0.5-2.9l-1.1,0.2l-0.3-1.5l1.1-0.2l0.1-1.8l1.5-0.3l0.3,1.8l1.8-0.3l0.3,1.5l-1.8,0.3
		l0.5,2.9c0.1,0.3,0.2,0.5,0.3,0.7c0.2,0.1,0.5,0.1,0.8,0.1l0.8-0.1l0.3,1.5L375.1,297.4z M377.4,289.1c-0.3,0.1-0.6,0-0.8-0.2
		c-0.3-0.2-0.3-0.3-0.5-0.7c0-0.3,0-0.5,0.2-0.8c0.2-0.2,0.5-0.3,0.7-0.5c0.3-0.1,0.6,0,0.8,0.2c0.3,0.2,0.3,0.3,0.5,0.7
		c0,0.3,0,0.5-0.2,0.8C378.1,288.9,377.8,289.1,377.4,289.1z M377.8,296.9l-1-6.6l1.7-0.3l1,6.6L377.8,296.9z M384.7,296
		c-0.7,0.1-1.3,0.1-1.9-0.2c-0.6-0.3-1-0.6-1.5-1c-0.5-0.5-0.6-1-0.8-1.7c-0.2-0.7-0.1-1.3,0.2-1.9c0.2-0.6,0.6-1,1-1.5
		c0.5-0.3,1-0.6,1.7-0.8c0.8-0.2,1.6,0,2.2,0.3c0.7,0.3,1.1,1,1.5,1.7l-1.8,0.3c-0.2-0.3-0.3-0.5-0.7-0.7c-0.3-0.2-0.6-0.2-1-0.1
		c-0.5,0.1-0.8,0.3-1.1,0.8c-0.3,0.5-0.3,1-0.3,1.5c0.1,0.7,0.3,1.1,0.7,1.5c0.5,0.3,0.8,0.5,1.3,0.3c0.3-0.1,0.7-0.2,0.8-0.5
		c0.3-0.3,0.3-0.5,0.5-0.8l1.8-0.3c0,0.8-0.3,1.5-0.8,2C386.2,295.5,385.5,295.8,384.7,296z M389.1,287.2c-0.3,0-0.6,0-0.8-0.2
		c-0.3-0.2-0.3-0.3-0.5-0.7c-0.1-0.3,0-0.5,0.2-0.8c0.2-0.2,0.5-0.3,0.8-0.5c0.3-0.1,0.6,0,0.8,0.2c0.3,0.2,0.3,0.3,0.5,0.7
		c0,0.3,0,0.5-0.2,0.8C389.6,287.1,389.4,287.2,389.1,287.2z M389.5,295l-1-6.6l1.7-0.3l1,6.6L389.5,295z M393.5,297.4l-1.5-9.6
		l1.5-0.3l0.3,1c0.2-0.3,0.5-0.6,0.8-1c0.3-0.3,0.8-0.5,1.4-0.5c0.6-0.1,1.2,0,1.7,0.2c0.5,0.3,1,0.6,1.4,1.1c0.3,0.5,0.6,1,0.7,1.7
		s0.1,1.3-0.2,1.9c-0.2,0.6-0.5,1-1,1.5s-1,0.6-1.6,0.7c-0.5,0.1-1,0.1-1.4-0.1c-0.5-0.1-0.8-0.3-1-0.7l0.6,3.8L393.5,297.4z
		 M396.4,292.6c0.5-0.1,1-0.3,1.3-0.8s0.5-1,0.3-1.5c-0.1-0.6-0.3-1-0.8-1.4c-0.5-0.3-0.8-0.5-1.5-0.3c-0.6,0.1-1,0.3-1.3,0.8
		s-0.5,1-0.3,1.5c0.1,0.6,0.3,1,0.8,1.4C395.3,292.6,395.8,292.7,396.4,292.6z M404,293c-0.6,0.1-1,0.1-1.5-0.1
		c-0.5-0.1-0.7-0.3-1-0.6c-0.3-0.3-0.3-0.6-0.5-1c-0.1-0.6,0.1-1.2,0.5-1.6c0.5-0.5,1.1-0.8,2.1-1l1.7-0.3v-0.2
		c-0.1-0.5-0.3-0.8-0.5-1c-0.3-0.2-0.6-0.3-1-0.2c-0.3,0.1-0.7,0.2-0.8,0.5c-0.3,0.2-0.3,0.5-0.3,0.8l-1.7,0.3c0-0.5,0.1-1,0.3-1.4
		c0.3-0.5,0.5-0.8,1-1c0.5-0.3,1-0.5,1.5-0.5c1-0.2,1.7,0,2.4,0.3c0.6,0.5,1,1,1.1,1.9l0.7,4.1l-1.5,0.3l-0.3-1
		c-0.2,0.5-0.3,0.8-0.7,1C405,292.7,404.7,292.8,404,293z M404.2,291.6c0.5-0.1,0.8-0.3,1.1-0.7c0.3-0.3,0.3-0.8,0.3-1.3l-1.5,0.3
		c-0.5,0.1-0.8,0.2-1,0.5s-0.3,0.5-0.2,0.7c0,0.3,0.2,0.5,0.5,0.6C403.6,291.6,403.9,291.6,404.2,291.6z M412.4,291.5
		c-0.7,0.1-1.3,0-1.8-0.3s-0.8-0.8-1-1.7l-0.5-2.9l-1.1,0.2l-0.3-1.5l1.1-0.2l-0.1-1.8l1.5-0.3l0.3,1.8l1.8-0.3l0.3,1.5l-1.8,0.3
		l0.5,2.9c0.1,0.3,0.2,0.5,0.3,0.6c0.2,0.1,0.5,0.1,0.8,0.1l0.8-0.1l0.3,1.5L412.4,291.5z M414.8,283.2c-0.3,0-0.6,0-0.8-0.2
		c-0.3-0.2-0.3-0.5-0.5-0.7c0-0.3,0-0.5,0.2-0.8c0.2-0.2,0.5-0.3,0.7-0.5c0.3-0.1,0.6,0,0.8,0.2c0.3,0.2,0.3,0.3,0.5,0.7
		c0,0.3,0,0.5-0.2,0.8C415.4,283.1,415.2,283.2,414.8,283.2z M415.2,291.1l-1-6.6l1.7-0.3l1,6.6L415.2,291.1z M421.9,290.2
		c-0.7,0.1-1.3,0-1.8-0.2s-1-0.6-1.5-1c-0.5-0.5-0.6-1-0.8-1.7c-0.2-0.7-0.1-1.3,0.2-1.9c0.3-0.6,0.6-1,1-1.5c0.5-0.5,1-0.6,1.7-0.7
		s1.3,0,1.8,0.2c0.6,0.2,1,0.6,1.5,1c0.5,0.5,0.6,1,0.8,1.7c0.1,0.7,0.1,1.3-0.2,1.9c-0.3,0.6-0.6,1-1,1.5
		C423.1,289.9,422.6,290.1,421.9,290.2z M421.7,288.7c0.5-0.1,0.8-0.3,1.1-0.7c0.3-0.5,0.3-1,0.3-1.6c-0.1-0.7-0.3-1.1-0.8-1.5
		c-0.5-0.3-0.8-0.5-1.2-0.3c-0.5,0.1-0.8,0.3-1.1,0.7c-0.3,0.5-0.3,1-0.3,1.6c0.1,0.7,0.3,1.1,0.7,1.5
		C420.9,288.7,421.3,288.8,421.7,288.7z M426.8,289.3l-1-6.6l1.5-0.3l0.3,1.1c0.2-0.5,0.5-0.8,0.8-1.1c0.3-0.3,0.8-0.5,1.3-0.6
		c0.8-0.1,1.5,0,2,0.5s0.8,1.2,1,2.2l0.6,3.7l-1.7,0.3l-0.6-3.6c-0.1-0.6-0.3-1-0.6-1.3c-0.3-0.3-0.7-0.3-1.2-0.3
		c-0.5,0.1-0.8,0.3-1.1,0.7c-0.3,0.5-0.3,0.8-0.3,1.5l0.5,3.4L426.8,289.3z"/>
	<path class="st10" d="M329.2,323.9l8.3-5.7l1.6,1.1l-2.7,9.8l-1.5-1l0.7-2.2l-3-2.1l-1.9,1.4L329.2,323.9z M333.8,322.8l2.2,1.6
		l1.2-4L333.8,322.8z M337.6,329.8l3-4.3l-0.8-0.5l0.8-1.2l0.8,0.5l0.5-0.7c0.5-0.7,1-1,1.5-1s1.1,0.2,1.7,0.5l0.6,0.5l-0.8,1.2
		l-0.5-0.3c-0.3-0.2-0.5-0.3-0.6-0.3s-0.3,0.2-0.5,0.5l-0.5,0.7l1.2,0.8l-0.8,1.2l-1.2-0.8l-3,4.3L337.6,329.8z M341.6,332.7l3-4.3
		l-0.8-0.5l0.8-1.2l0.8,0.5l0.5-0.7c0.5-0.7,1-1,1.5-1s1.1,0.2,1.7,0.5l0.6,0.5l-0.8,1.2l-0.5-0.3c-0.3-0.2-0.5-0.3-0.6-0.3
		c-0.2,0-0.3,0.2-0.5,0.3l-0.5,0.7l1.2,0.8l-0.8,1.2l-1.2-0.8l-3,4.3L341.6,332.7z M347.9,337.3c-0.5-0.3-1-0.8-1.2-1.4
		c-0.3-0.5-0.3-1.1-0.3-1.7c0.1-0.6,0.3-1.2,0.7-1.8c0.5-0.6,0.8-1,1.5-1.3c0.6-0.3,1.1-0.3,1.7-0.3c0.6,0.1,1.2,0.3,1.7,0.7
		c0.5,0.3,1,0.8,1.2,1.4c0.3,0.5,0.3,1.1,0.3,1.7c-0.1,0.6-0.3,1.2-0.7,1.8c-0.5,0.6-0.8,1-1.5,1.3c-0.6,0.3-1.1,0.3-1.7,0.3
		C349,337.9,348.4,337.7,347.9,337.3z M348.8,336c0.3,0.3,0.8,0.3,1.3,0.3c0.5-0.1,1-0.5,1.3-1c0.5-0.5,0.5-1,0.5-1.5
		c-0.1-0.5-0.3-0.8-0.7-1.1c-0.5-0.3-0.8-0.3-1.3-0.3c-0.5,0.1-0.8,0.5-1.3,1s-0.5,1-0.5,1.5C348.2,335.5,348.4,335.8,348.8,336z
		 M352.1,340.1l3.9-5.5l1.3,0.8l-0.6,1.1c0.5-0.2,1-0.3,1.5-0.3s1,0.2,1.5,0.5l-1,1.5l-0.5-0.3c-0.3-0.3-0.6-0.3-1-0.5
		c-0.3-0.1-0.6,0-1,0.1c-0.3,0.2-0.6,0.5-1,0.8l-1.8,2.5L352.1,340.1z M358.9,345.1c-0.5-0.3-0.8-0.8-1.1-1.4
		c-0.3-0.5-0.3-1.1-0.3-1.7c0.1-0.6,0.3-1.2,0.7-1.7c0.5-0.5,0.8-1,1.5-1.2c0.6-0.3,1.1-0.5,1.7-0.3c0.6,0,1.1,0.3,1.6,0.6
		c0.5,0.3,0.7,0.6,1,1c0.2,0.3,0.3,0.8,0.3,1.2l2.3-3.2l1.5,1l-5.8,8l-1.3-0.8l0.5-1c-0.3,0.1-0.8,0.2-1.2,0.2
		C359.8,345.7,359.4,345.5,358.9,345.1z M360.1,344.1c0.5,0.3,1,0.5,1.5,0.3c0.5-0.1,1-0.5,1.3-0.8c0.3-0.5,0.5-1,0.5-1.5
		c-0.1-0.5-0.3-1-0.8-1.3s-1-0.5-1.5-0.3c-0.5,0.1-1,0.5-1.3,0.8c-0.3,0.5-0.5,1-0.5,1.5C359.4,343.4,359.7,343.8,360.1,344.1z
		 M365.5,349.8c-0.5-0.3-0.8-0.7-1-1s-0.3-0.8-0.3-1.1c0-0.3,0.2-0.7,0.3-1c0.3-0.5,0.8-0.8,1.5-0.8c0.6,0,1.4,0.3,2.1,0.8l1.4,1
		l0.1-0.2c0.3-0.3,0.3-0.8,0.3-1c-0.1-0.3-0.3-0.6-0.6-0.8c-0.3-0.2-0.6-0.3-1-0.3c-0.3,0-0.6,0.1-0.8,0.3l-1.4-1
		c0.3-0.3,0.7-0.6,1.1-0.8c0.5-0.1,1-0.2,1.4,0c0.5,0.1,1,0.3,1.5,0.7c0.8,0.5,1.3,1.2,1.5,1.9c0.2,0.7,0,1.5-0.5,2.1l-2.4,3.4
		l-1.2-0.8l0.5-1c-0.3,0.2-0.8,0.3-1.2,0.3C366.4,350.3,365.9,350.2,365.5,349.8z M366.6,349c0.5,0.3,0.8,0.5,1.3,0.3
		c0.5-0.1,0.8-0.3,1.1-0.7l-1.2-0.8c-0.3-0.3-0.7-0.5-1-0.3c-0.3,0-0.5,0.2-0.6,0.3c-0.2,0.2-0.2,0.5-0.1,0.7
		C366.2,348.5,366.4,348.7,366.6,349z M373.2,355.3c-0.5-0.3-0.7-0.6-1-1c-0.2-0.3-0.3-0.8-0.3-1.2l-0.7,0.7l-1.3-0.8l5.7-8l1.5,1
		l-2.3,3.2c0.3-0.1,0.8-0.2,1.2-0.2c0.5,0,0.8,0.2,1.4,0.5c0.5,0.3,0.8,0.8,1.1,1.4s0.3,1.1,0.3,1.7c-0.1,0.6-0.3,1.2-0.7,1.7
		c-0.3,0.5-0.8,1-1.5,1.3c-0.6,0.3-1.1,0.3-1.7,0.3C374.4,355.9,373.7,355.6,373.2,355.3z M373.8,353.9c0.5,0.3,1,0.5,1.5,0.3
		c0.5-0.1,1-0.3,1.3-0.8s0.5-1,0.5-1.5c-0.1-0.5-0.3-1-0.8-1.3s-1-0.5-1.5-0.3c-0.5,0.1-1,0.5-1.3,0.8c-0.3,0.5-0.5,1-0.5,1.5
		C373.1,353.1,373.4,353.6,373.8,353.9z M377.3,358l5.7-8l1.5,1l-5.7,8L377.3,358z M382.7,362c-0.6-0.5-1-0.8-1.2-1.4
		c-0.3-0.5-0.3-1.1-0.3-1.7c0.1-0.6,0.3-1.2,0.7-1.7c0.5-0.6,0.8-1,1.5-1.3c0.6-0.3,1.1-0.5,1.7-0.3c0.6,0.1,1.2,0.3,1.8,0.7
		c0.5,0.5,1,0.8,1.2,1.4c0.3,0.5,0.3,1.1,0.3,1.6c-0.1,0.6-0.3,1.1-0.6,1.6c-0.1,0.1-0.1,0.2-0.2,0.3c-0.1,0.1-0.2,0.2-0.2,0.3
		l-4.2-3c-0.3,0.5-0.3,0.8-0.3,1.4c0.1,0.5,0.3,0.8,0.7,1c0.3,0.2,0.6,0.3,0.8,0.3c0.3,0,0.5-0.1,0.8-0.2l1.5,1
		c-0.3,0.3-0.8,0.5-1.2,0.6c-0.5,0.1-1,0.1-1.4,0C383.5,362.5,383.1,362.4,382.7,362z M385.9,357.5c-0.3-0.3-0.7-0.3-1.1-0.3
		s-0.8,0.2-1.1,0.5l2.7,2c0.3-0.3,0.3-0.8,0.2-1.1C386.5,358,386.4,357.7,385.9,357.5z M391.2,368c-0.5-0.3-0.8-0.7-1-1
		s-0.3-0.8-0.3-1.1c0-0.3,0.2-0.7,0.3-1c0.3-0.5,0.8-0.8,1.5-0.8c0.6,0,1.4,0.3,2.1,0.8l1.4,1l0.1-0.2c0.3-0.3,0.3-0.8,0.3-1
		c-0.1-0.3-0.3-0.6-0.6-0.8c-0.3-0.2-0.6-0.3-1-0.3c-0.3,0-0.6,0.1-0.8,0.3l-1.4-1c0.3-0.3,0.7-0.6,1.1-0.8c0.5-0.1,1-0.2,1.4,0
		c0.5,0.1,1,0.3,1.5,0.7c0.8,0.5,1.3,1.2,1.5,1.9c0.2,0.7,0,1.5-0.5,2.1l-2.4,3.4l-1.2-0.8l0.5-1c-0.3,0.2-0.8,0.3-1.2,0.3
		C392.1,368.5,391.7,368.4,391.2,368z M392.3,367.2c0.5,0.3,0.8,0.3,1.3,0.3c0.5-0.1,0.8-0.3,1.1-0.7l-1.2-0.8
		c-0.3-0.3-0.7-0.5-1-0.3c-0.3,0-0.5,0.2-0.6,0.3c-0.2,0.2-0.2,0.5-0.1,0.7C391.8,366.8,392,367,392.3,367.2z M395.7,371.1l3.9-5.5
		l1.3,0.8l-0.6,1c0.5-0.2,0.8-0.3,1.3-0.3s1,0.2,1.4,0.5c0.7,0.5,1,1.1,1.1,1.8c0.1,0.7-0.2,1.5-0.8,2.3l-2.2,3l-1.5-1l2.1-3
		c0.3-0.5,0.5-1,0.5-1.3c0-0.5-0.3-0.8-0.6-1c-0.5-0.3-0.8-0.5-1.3-0.3c-0.5,0.1-0.8,0.5-1.2,1l-2,2.8L395.7,371.1z M404.9,377.8
		c-0.5-0.3-0.8-0.8-1.1-1.4c-0.3-0.5-0.3-1.1-0.3-1.7c0.1-0.6,0.3-1.2,0.7-1.7c0.3-0.5,0.8-1,1.5-1.2c0.6-0.3,1.1-0.3,1.7-0.3
		s1.1,0.3,1.6,0.6c0.5,0.3,0.7,0.6,1,1c0.2,0.3,0.3,0.8,0.3,1.2l2.3-3.2l1.5,1l-5.7,8l-1.3-0.8l0.5-1c-0.3,0.1-0.8,0.2-1.2,0.2
		C405.8,378.3,405.4,378.1,404.9,377.8z M406.1,376.8c0.5,0.3,1,0.5,1.5,0.3c0.5-0.1,1-0.5,1.3-0.8c0.3-0.5,0.5-1,0.5-1.5
		c-0.1-0.5-0.3-1-0.8-1.3s-1-0.5-1.5-0.3c-0.5,0.1-1,0.5-1.3,0.8c-0.3,0.5-0.5,1-0.5,1.5C405.4,376,405.7,376.4,406.1,376.8z"/>
	<path class="st10" d="M341.7,352.9c-0.6-0.5-1-0.8-1.3-1.4c-0.3-0.5-0.5-1-0.5-1.5s0.2-1.1,0.6-1.6l1.5,1c-0.3,0.3-0.3,0.8-0.3,1.2
		c0.1,0.5,0.3,0.8,0.8,1.1c0.3,0.3,0.8,0.5,1.1,0.3c0.3,0,0.6-0.2,0.8-0.5c0.3-0.3,0.3-0.7,0.3-1c-0.1-0.3-0.3-0.7-0.5-1
		c-0.3-0.3-0.5-0.7-0.8-1.1c-0.5-0.6-0.7-1.2-0.8-1.8c-0.1-0.5,0.1-1.1,0.5-1.6c0.3-0.5,0.7-0.8,1.2-1s1-0.2,1.5-0.1s1,0.3,1.5,0.7
		c0.5,0.3,1,0.8,1.2,1.3c0.3,0.5,0.5,1,0.5,1.5s-0.2,1-0.5,1.5l-1.5-1.1c0.2-0.3,0.3-0.6,0.2-1c-0.1-0.3-0.3-0.7-0.6-1
		c-0.3-0.3-0.6-0.3-1-0.3c-0.3,0-0.6,0.2-0.8,0.5c-0.2,0.3-0.3,0.5-0.2,0.8c0.1,0.3,0.2,0.5,0.5,0.8c0.2,0.3,0.5,0.7,0.8,1
		c0.3,0.5,0.5,0.8,0.7,1.2c0.2,0.5,0.3,0.8,0.3,1.3s-0.2,0.8-0.5,1.4c-0.3,0.5-0.7,0.7-1.1,1c-0.5,0.2-1,0.3-1.5,0.2
		C343.1,353.4,342.3,353.3,341.7,352.9z M347.5,356.9c-0.5-0.3-0.8-0.7-1-1s-0.3-0.8-0.3-1.1s0.2-0.7,0.3-1c0.3-0.5,0.8-0.8,1.5-0.8
		c0.6,0,1.4,0.3,2.1,0.8l1.4,1l0.1-0.2c0.3-0.3,0.3-0.8,0.3-1c-0.1-0.3-0.3-0.6-0.6-0.8c-0.3-0.2-0.6-0.3-1-0.3s-0.6,0.1-0.8,0.3
		l-1.4-1c0.3-0.3,0.7-0.6,1.1-0.8c0.5-0.1,1-0.2,1.4,0c0.5,0.1,1,0.3,1.5,0.7c0.8,0.5,1.3,1.2,1.5,1.9c0.2,0.7,0,1.5-0.5,2.1
		l-2.4,3.4l-1.2-0.8l0.5-1c-0.3,0.2-0.8,0.3-1.2,0.3C348.4,357.5,347.9,357.3,347.5,356.9z M348.5,356.1c0.5,0.3,0.8,0.5,1.2,0.3
		c0.5-0.1,0.8-0.3,1.1-0.7l-1.2-0.8c-0.3-0.3-0.7-0.5-1-0.3c-0.3,0-0.5,0.2-0.6,0.3c-0.2,0.2-0.2,0.5-0.1,0.7
		C348.1,355.6,348.3,355.9,348.5,356.1z M352.3,360.2l3-4.3l-0.8-0.5l0.8-1.2l0.8,0.5l0.5-0.7c0.5-0.7,1-1,1.5-1
		c0.6,0,1.1,0.2,1.7,0.5l0.6,0.5l-0.8,1.2l-0.5-0.3c-0.3-0.2-0.5-0.3-0.6-0.3c-0.2,0-0.3,0.2-0.5,0.5l-0.5,0.7l1.2,0.8l-0.8,1.2
		l-1.2-0.8l-3,4.3L352.3,360.2z M358.5,364.9c-0.6-0.5-1-0.8-1.2-1.4c-0.3-0.5-0.3-1.1-0.3-1.7c0.1-0.6,0.3-1.2,0.7-1.7
		c0.5-0.6,0.8-1,1.5-1.3c0.6-0.3,1.1-0.5,1.7-0.3c0.6,0.1,1.2,0.3,1.8,0.7c0.5,0.5,1,0.8,1.2,1.4c0.3,0.5,0.3,1.1,0.3,1.6
		c-0.1,0.6-0.3,1.1-0.6,1.6c-0.1,0.1-0.1,0.2-0.2,0.3c-0.1,0.1-0.2,0.2-0.2,0.3l-4.2-3c-0.3,0.5-0.3,0.8-0.3,1.3
		c0.1,0.5,0.3,0.8,0.7,1c0.3,0.2,0.6,0.3,0.8,0.3c0.3,0,0.6-0.1,0.8-0.2l1.5,1c-0.3,0.3-0.8,0.5-1.2,0.6c-0.5,0.1-0.8,0.1-1.4,0
		C359.5,365.4,359,365.1,358.5,364.9z M361.9,360.2c-0.3-0.3-0.7-0.3-1.1-0.3c-0.5,0-0.8,0.2-1.1,0.5l2.7,2c0.3-0.5,0.3-0.8,0.3-1.2
		C362.5,360.8,362.2,360.5,361.9,360.2z M365.4,369.5l5.5-7.7l2.9,2c0.6,0.5,1,1,1.3,1.4c0.3,0.5,0.3,1,0.3,1.5
		c-0.1,0.5-0.3,1-0.6,1.5c-0.3,0.5-0.7,0.8-1.1,1c-0.5,0.3-1,0.3-1.5,0.3c-0.6-0.1-1.2-0.3-1.8-0.8l-1.5-1l-2.1,3L365.4,369.5z
		 M369.6,366.3l1.4,1c0.5,0.3,1,0.5,1.3,0.5c0.3-0.1,0.7-0.3,1-0.7c0.3-0.4,0.3-0.8,0.3-1.1c-0.1-0.3-0.3-0.8-0.8-1.1l-1.4-1
		L369.6,366.3z M372,374.2l5.7-8l1.5,1l-5.7,8L372,374.2z M376.6,377.7c-0.5-0.3-0.8-0.7-1-1s-0.3-0.8-0.3-1.1c0-0.3,0.2-0.7,0.3-1
		c0.3-0.5,0.8-0.8,1.5-0.8c0.6,0,1.4,0.3,2.1,0.8l1.4,1l0.1-0.2c0.3-0.3,0.3-0.8,0.3-1c-0.1-0.3-0.3-0.6-0.6-0.8
		c-0.3-0.2-0.6-0.3-1-0.3c-0.3,0-0.6,0.1-0.8,0.3l-1.4-1c0.3-0.3,0.7-0.6,1.1-0.8c0.5-0.1,1-0.2,1.4,0c0.5,0.1,1,0.3,1.5,0.7
		c0.8,0.5,1.3,1.2,1.5,1.9c0.2,0.7,0,1.5-0.5,2.1l-2.4,3.4l-1.2-0.8l0.5-1c-0.3,0.2-0.8,0.3-1.2,0.3
		C377.6,378.2,377.1,378,376.6,377.7z M377.7,376.8c0.5,0.3,0.8,0.3,1.3,0.3c0.5-0.1,0.8-0.3,1.1-0.7l-1.2-0.8
		c-0.3-0.3-0.7-0.5-1-0.3c-0.3,0-0.5,0.2-0.6,0.3c-0.2,0.2-0.2,0.5-0.1,0.7C377.3,376.4,377.4,376.6,377.7,376.8z M383.8,382.8
		c-0.6-0.5-1-0.8-1.2-1.5c-0.3-0.5-0.3-1.1-0.3-1.7c0.1-0.6,0.3-1.2,0.7-1.8c0.5-0.6,0.8-1,1.5-1.3c0.6-0.3,1.1-0.3,1.7-0.3
		c0.6,0.1,1.2,0.3,1.7,0.7c0.7,0.5,1.2,1.1,1.4,1.8c0.2,0.7,0.2,1.5-0.2,2.1l-1.5-1c0.1-0.3,0.1-0.6,0-1c-0.1-0.3-0.3-0.6-0.6-0.8
		c-0.5-0.3-0.8-0.3-1.3-0.3c-0.5,0.1-1,0.5-1.3,1s-0.5,1-0.5,1.5c0.1,0.5,0.3,0.8,0.7,1.2c0.3,0.2,0.6,0.3,1,0.3
		c0.3,0,0.6-0.1,0.8-0.3l1.5,1c-0.6,0.5-1.3,0.8-2,0.8C385.2,383.4,384.5,383.3,383.8,382.8z M390.4,387.4c-0.6-0.5-1-0.8-1.2-1.4
		c-0.3-0.5-0.3-1.1-0.3-1.7c0.1-0.6,0.3-1.2,0.7-1.7c0.5-0.6,0.8-1,1.5-1.3c0.6-0.3,1.1-0.5,1.7-0.3c0.6,0.1,1.2,0.3,1.8,0.7
		c0.5,0.5,1,0.8,1.2,1.4c0.3,0.5,0.3,1.1,0.3,1.7c-0.1,0.6-0.3,1.1-0.6,1.6c-0.1,0.1-0.2,0.2-0.2,0.3c-0.1,0.1-0.2,0.2-0.2,0.3
		l-4.2-3c-0.3,0.5-0.3,0.8-0.3,1.4c0.1,0.5,0.3,0.8,0.7,1c0.3,0.2,0.6,0.3,0.8,0.3c0.3,0,0.6-0.1,0.8-0.2l1.5,1
		c-0.3,0.3-0.8,0.5-1.2,0.6c-0.4,0.2-0.8,0.1-1.4,0C391.4,388.1,390.8,387.8,390.4,387.4z M393.7,382.9c-0.3-0.3-0.7-0.3-1.1-0.3
		c-0.5,0-0.8,0.2-1.1,0.5l2.7,2c0.3-0.3,0.3-0.8,0.2-1.2C394.3,383.4,394,383.1,393.7,382.9z M396.7,392c-0.5-0.3-0.8-0.8-1.1-1.2
		c-0.3-0.5-0.5-0.8-0.5-1.3s0.1-0.8,0.3-1.3l1.5,1c-0.1,0.3-0.1,0.5,0,0.8s0.3,0.5,0.6,0.8c0.3,0.3,0.6,0.3,0.8,0.3
		c0.3,0,0.5-0.1,0.5-0.3c0.2-0.3,0.2-0.5,0-0.7c-0.2-0.3-0.3-0.5-0.7-0.8c-0.2-0.3-0.5-0.5-0.6-0.7c-0.2-0.3-0.3-0.5-0.5-0.8
		c-0.1-0.3-0.2-0.5-0.2-0.8s0.1-0.5,0.3-0.8c0.3-0.5,0.8-0.8,1.5-0.8c0.6-0.1,1.3,0.2,2,0.7s1,1,1.3,1.5c0.2,0.6,0.1,1.2-0.2,1.7
		l-1.4-1c0.2-0.5,0-0.8-0.5-1.3c-0.3-0.2-0.5-0.3-0.7-0.3c-0.3,0-0.5,0.1-0.5,0.3c-0.1,0.2-0.1,0.3,0,0.6c0.2,0.3,0.3,0.5,0.7,0.8
		c0.3,0.3,0.6,0.7,0.8,1c0.3,0.3,0.5,0.7,0.5,1s-0.1,0.7-0.3,1.1c-0.3,0.3-0.5,0.6-1,0.8c-0.5,0.2-0.8,0.2-1.3,0.1
		C397.6,392.5,397.1,392.2,396.7,392z"/>
	<path class="st10" d="M307,366.2c0-1,0.2-1.8,0.6-2.5c0.5-0.7,1-1.2,1.7-1.6c0.8-0.3,1.6-0.6,2.5-0.6s1.8,0.2,2.5,0.6
		c0.8,0.3,1.4,1,1.7,1.6c0.3,0.7,0.6,1.5,0.6,2.5c0,1.1-0.3,2-0.8,2.8c-0.6,0.8-1.4,1.2-2.4,1.4v-1.9c0.5-0.1,1-0.3,1.2-0.8
		c0.3-0.3,0.5-0.8,0.5-1.5c0-0.8-0.3-1.5-1-2c-0.6-0.5-1.5-0.8-2.5-0.8s-1.9,0.3-2.5,0.8s-0.8,1.2-0.8,2c0,0.6,0.2,1.1,0.5,1.5
		s0.7,0.7,1.2,0.8v1.9c-1-0.2-1.7-0.7-2.3-1.4C307.2,368.3,307,367.3,307,366.2z"/>
	<path class="st10" d="M307,375.1c0-0.7,0.2-1.3,0.5-1.8s0.7-1,1.3-1.3c0.5-0.3,1.2-0.5,1.9-0.5c0.7,0,1.3,0.2,1.9,0.5
		c0.5,0.3,1,0.7,1.3,1.3c0.3,0.5,0.5,1.1,0.5,1.8c0,0.7-0.2,1.2-0.5,1.7s-0.7,1-1.3,1.3c-0.5,0.3-1.1,0.5-1.9,0.5s-1.3-0.2-1.9-0.5
		c-0.5-0.3-1-0.7-1.3-1.3C307.2,376.3,307,375.8,307,375.1z M308.5,375.1c0,0.5,0.2,0.8,0.5,1.2c0.3,0.3,0.8,0.5,1.5,0.5
		s1.2-0.2,1.5-0.5s0.5-0.8,0.5-1.2c0-0.5-0.2-0.8-0.5-1.2c-0.3-0.3-0.8-0.5-1.5-0.5s-1.2,0.2-1.5,0.5
		C308.7,374.2,308.5,374.6,308.5,375.1z"/>
	<path class="st10" d="M307.2,380.1h6.7v1.5l-1.1,0.2c0.5,0.2,0.7,0.5,1,1s0.3,0.8,0.3,1.4c0,0.8-0.3,1.5-0.8,2s-1.3,0.7-2.3,0.7
		h-3.8V385h3.7c0.6,0,1-0.1,1.4-0.3c0.3-0.3,0.5-0.6,0.5-1.1s-0.2-0.8-0.5-1.2c-0.3-0.3-0.8-0.5-1.5-0.5h-3.5L307.2,380.1z"/>
	<path class="st10" d="M307.2,388.3h6.7v1.5l-1.1,0.2c0.5,0.2,0.7,0.5,1,1s0.3,0.8,0.3,1.4c0,0.8-0.3,1.5-0.8,2s-1.3,0.7-2.3,0.7
		h-3.8v-1.7h3.7c0.6,0,1-0.1,1.4-0.3c0.3-0.3,0.5-0.6,0.5-1.1s-0.2-0.8-0.5-1.2c-0.3-0.3-0.8-0.5-1.5-0.5h-3.5L307.2,388.3z"/>
	<path class="st10" d="M307,399.8c0-0.7,0.2-1.3,0.5-1.8s0.7-1,1.2-1.3s1.1-0.5,1.8-0.5c0.7,0,1.3,0.2,1.9,0.5
		c0.5,0.3,1,0.7,1.3,1.2s0.5,1.1,0.5,1.9c0,0.7-0.2,1.3-0.5,1.8s-0.7,1-1.2,1.2s-1,0.5-1.7,0.5c-0.1,0-0.2,0-0.3,0
		c-0.1,0-0.3,0-0.3,0v-5.1c-0.5,0-1,0.3-1.3,0.5c-0.3,0.3-0.5,0.8-0.5,1.2c0,0.3,0.1,0.7,0.3,0.8c0.2,0.3,0.3,0.5,0.6,0.5v1.8
		c-0.5-0.1-0.8-0.3-1.2-0.7c-0.3-0.3-0.6-0.7-0.8-1.1S307,400.3,307,399.8z M312.7,399.8c0-0.5-0.1-0.8-0.3-1.1
		c-0.3-0.3-0.6-0.5-1.1-0.6v3.3c0.5,0,0.8-0.2,1-0.5C312.5,400.6,312.7,400.2,312.7,399.8z"/>
	<path class="st10" d="M307,408c0-0.7,0.2-1.3,0.5-1.8s0.7-1,1.3-1.3c0.5-0.3,1.1-0.5,1.9-0.5c0.7,0,1.3,0.2,1.9,0.5
		c0.5,0.3,1,0.8,1.3,1.3s0.5,1.1,0.5,1.8c0,0.8-0.3,1.6-0.7,2.2c-0.5,0.6-1,1-1.9,1.1v-1.9c0.3-0.1,0.6-0.3,0.8-0.5
		c0.2-0.3,0.3-0.6,0.3-1c0-0.5-0.2-0.8-0.5-1.2c-0.3-0.3-0.8-0.5-1.5-0.5s-1.1,0.2-1.5,0.5c-0.5,0.3-0.5,0.8-0.5,1.2
		c0,0.3,0.1,0.7,0.3,1c0.2,0.3,0.5,0.5,0.8,0.5v1.9c-0.8-0.2-1.4-0.5-1.9-1.1C307.4,409.5,307,408.8,307,408z"/>
	<path class="st10" d="M307.2,415.8c0-0.7,0.2-1.3,0.5-1.7c0.3-0.5,1-0.7,1.9-0.7h2.9v-1.2h1.5v1.2l1.8,0.2v1.5H314v1.8h-1.5v-1.8
		h-3c-0.3,0-0.5,0.1-0.7,0.2c-0.1,0.2-0.2,0.5-0.2,0.8v0.8h-1.5L307.2,415.8L307.2,415.8z"/>
	<path class="st10" d="M307,421.8c0-0.7,0.2-1.3,0.5-1.8s0.7-1,1.2-1.3s1.1-0.5,1.8-0.5c0.7,0,1.3,0.2,1.9,0.5
		c0.5,0.3,1,0.7,1.3,1.2s0.5,1.1,0.5,1.9c0,0.7-0.2,1.3-0.5,1.8s-0.7,1-1.2,1.2c-0.5,0.3-1,0.5-1.7,0.5c-0.1,0-0.2,0-0.3,0
		c-0.1,0-0.3,0-0.3,0v-5.1c-0.5,0-1,0.3-1.3,0.5c-0.3,0.3-0.5,0.8-0.5,1.2c0,0.3,0.1,0.7,0.3,0.8c0.2,0.3,0.3,0.5,0.6,0.5v1.8
		c-0.5-0.1-0.8-0.3-1.2-0.7c-0.3-0.3-0.6-0.7-0.8-1.1S307,422.3,307,421.8z M312.7,421.8c0-0.5-0.1-0.8-0.3-1.1
		c-0.2-0.3-0.6-0.5-1.1-0.6v3.3c0.5,0,0.8-0.2,1-0.5C312.5,422.5,312.7,422.2,312.7,421.8z"/>
	<path class="st10" d="M307,429.8c0-0.6,0.2-1.2,0.5-1.7s0.8-0.8,1.3-1.2c0.5-0.3,1.1-0.5,1.8-0.5c0.7,0,1.3,0.2,1.8,0.5
		s1,0.7,1.3,1.2s0.5,1.1,0.5,1.7c0,0.5-0.1,1-0.3,1.4c-0.2,0.3-0.5,0.7-0.8,1h4v1.7h-9.8v-1.5l1-0.2c-0.3-0.3-0.6-0.5-0.8-0.8
		C307.2,430.8,307,430.3,307,429.8z M308.5,430.1c0,0.6,0.2,1,0.6,1.4c0.3,0.3,0.8,0.5,1.5,0.5s1.1-0.2,1.5-0.5
		c0.3-0.3,0.6-0.8,0.6-1.4c0-0.5-0.2-1-0.6-1.4c-0.3-0.3-0.8-0.5-1.5-0.5s-1.1,0.2-1.5,0.5C308.7,429.1,308.5,429.6,308.5,430.1z"/>
	<path class="st10" d="M290.8,351.4c0-1,0.2-1.8,0.6-2.5c0.5-0.7,1-1.2,1.7-1.6c0.8-0.3,1.6-0.6,2.5-0.6s1.8,0.2,2.5,0.6
		c0.8,0.3,1.4,1,1.7,1.6c0.3,0.7,0.6,1.5,0.6,2.5c0,1.1-0.3,2-0.8,2.8c-0.6,0.8-1.4,1.2-2.4,1.4v-1.9c0.5-0.1,1-0.3,1.2-0.8
		c0.3-0.3,0.5-0.8,0.5-1.5c0-0.8-0.3-1.5-1-2c-0.6-0.5-1.5-0.8-2.5-0.8s-1.9,0.3-2.5,0.8s-0.8,1.2-0.8,2c0,0.6,0.2,1.1,0.5,1.5
		c0.3,0.5,0.7,0.7,1.2,0.8v1.9c-1-0.2-1.7-0.7-2.3-1.4C291,353.5,290.8,352.6,290.8,351.4z"/>
	<path class="st10" d="M290.8,360.3c0-0.7,0.2-1.3,0.5-1.8s0.7-1,1.3-1.3c0.5-0.3,1.2-0.5,1.9-0.5c0.7,0,1.3,0.2,1.9,0.5
		c0.5,0.3,1,0.7,1.3,1.3c0.3,0.5,0.5,1.1,0.5,1.8c0,0.7-0.2,1.2-0.5,1.7s-0.7,1-1.3,1.3c-0.5,0.3-1.1,0.5-1.9,0.5
		c-0.7,0-1.3-0.2-1.9-0.5c-0.5-0.3-1-0.7-1.3-1.3C290.9,361.5,290.8,361,290.8,360.3z M292.3,360.3c0,0.5,0.2,0.8,0.5,1.2
		c0.3,0.3,0.8,0.5,1.5,0.5s1.2-0.2,1.5-0.5s0.5-0.8,0.5-1.2c0-0.5-0.2-0.8-0.5-1.2c-0.3-0.3-0.8-0.5-1.5-0.5s-1.2,0.2-1.5,0.5
		C292.5,359.4,292.3,359.9,292.3,360.3z"/>
	<path class="st10" d="M290.9,365.3h6.7v1.5l-1,0.2c0.3,0.3,0.6,0.5,0.8,0.8c0.2,0.3,0.3,0.8,0.3,1.3c0,1-0.5,1.8-1.2,2.2
		c0.3,0.3,0.7,0.6,0.8,1c0.3,0.5,0.3,0.8,0.3,1.4c0,0.8-0.3,1.5-0.8,2s-1.3,0.7-2.3,0.7h-3.8v-1.7h3.7c0.6,0,1-0.1,1.4-0.3
		c0.3-0.3,0.5-0.6,0.5-1c0-0.5-0.2-0.8-0.5-1.1c-0.3-0.3-0.8-0.5-1.5-0.5h-3.5v-1.7h3.7c0.6,0,1-0.1,1.4-0.3c0.3-0.3,0.5-0.6,0.5-1
		c0-0.5-0.2-0.8-0.5-1.1s-0.8-0.5-1.5-0.5h-3.5V365.3z"/>
	<path class="st10" d="M290.9,378h6.7v1.5l-1,0.2c0.3,0.3,0.6,0.5,0.8,0.8c0.2,0.3,0.3,0.8,0.3,1.3c0,1-0.5,1.8-1.2,2.2
		c0.3,0.3,0.7,0.6,0.8,1c0.3,0.5,0.3,0.8,0.3,1.4c0,0.8-0.3,1.5-0.8,2s-1.3,0.7-2.3,0.7h-3.8v-1.7h3.7c0.6,0,1-0.1,1.4-0.3
		c0.3-0.3,0.5-0.6,0.5-1c0-0.5-0.2-0.8-0.5-1.1c-0.3-0.3-0.8-0.5-1.5-0.5h-3.5v-1.7h3.7c0.6,0,1-0.1,1.4-0.3c0.3-0.3,0.5-0.6,0.5-1
		c0-0.5-0.2-0.8-0.5-1.1c-0.3-0.3-0.8-0.5-1.5-0.5h-3.5V378z"/>
	<path class="st10" d="M290.8,393.2c0-0.8,0.3-1.5,0.8-2s1.3-0.7,2.3-0.7h3.8v1.7H294c-0.6,0-1,0.1-1.4,0.3
		c-0.3,0.3-0.5,0.6-0.5,1.1s0.2,0.8,0.5,1.2c0.3,0.3,0.8,0.5,1.5,0.5h3.5v1.7h-6.8v-1.5l1.1-0.2c-0.5-0.2-0.7-0.5-1-1
		C290.9,394.2,290.8,393.7,290.8,393.2z"/>
	<path class="st10" d="M290.9,399h6.7v1.5l-1.1,0.2c0.5,0.2,0.7,0.5,1,1s0.3,0.8,0.3,1.4c0,0.8-0.3,1.5-0.8,2s-1.3,0.7-2.3,0.7h-3.8
		v-1.7h3.7c0.6,0,1-0.1,1.4-0.3c0.3-0.3,0.5-0.6,0.5-1.1s-0.2-0.8-0.5-1.2c-0.3-0.3-0.8-0.5-1.5-0.5H291L290.9,399z"/>
	<path class="st10" d="M298.7,408.1c0-0.3,0.1-0.6,0.3-0.8c0.2-0.2,0.5-0.3,0.7-0.3s0.5,0.1,0.7,0.3c0.2,0.2,0.3,0.5,0.3,0.8
		s-0.1,0.6-0.3,0.8c-0.2,0.2-0.5,0.3-0.7,0.3s-0.5-0.1-0.7-0.3S298.7,408.5,298.7,408.1z M290.9,407.3h6.7v1.7h-6.7V407.3z"/>
	<path class="st10" d="M290.9,413.9c0-0.7,0.2-1.3,0.5-1.7c0.3-0.5,1-0.7,1.9-0.7h2.9v-1.2h1.5v1.2l1.8,0.2v1.5h-1.8v1.8h-1.5v-1.8
		h-3c-0.3,0-0.5,0.1-0.7,0.2c-0.1,0.2-0.2,0.5-0.2,0.8v0.8h-1.5L290.9,413.9L290.9,413.9z"/>
	<path class="st10" d="M298.7,417.6c0-0.3,0.1-0.6,0.3-0.8c0.2-0.2,0.5-0.3,0.7-0.3s0.5,0.1,0.7,0.3c0.2,0.2,0.3,0.5,0.3,0.8
		s-0.1,0.6-0.3,0.8c-0.2,0.2-0.5,0.3-0.7,0.3s-0.5-0.1-0.7-0.3C298.8,418.1,298.7,417.8,298.7,417.6z M290.9,416.6h6.7v1.7h-6.7
		V416.6z"/>
	<path class="st10" d="M290.8,423.5c0-0.7,0.2-1.3,0.5-1.8s0.7-1,1.2-1.3s1.1-0.5,1.8-0.5c0.7,0,1.3,0.2,1.9,0.5
		c0.5,0.3,1,0.7,1.3,1.2s0.5,1.1,0.5,1.9c0,0.7-0.2,1.3-0.5,1.8s-0.7,1-1.2,1.2s-1,0.5-1.7,0.5c-0.1,0-0.2,0-0.3,0
		c-0.1,0-0.3,0-0.3,0v-5.1c-0.5,0-1,0.3-1.3,0.5c-0.3,0.3-0.5,0.8-0.5,1.2c0,0.3,0.1,0.7,0.3,0.8c0.2,0.3,0.3,0.5,0.6,0.5v1.8
		c-0.5-0.1-0.8-0.3-1.2-0.7c-0.3-0.3-0.6-0.7-0.8-1.1C290.8,424.5,290.8,424.1,290.8,423.5z M296.4,423.5c0-0.5-0.1-0.8-0.3-1.1
		c-0.2-0.3-0.6-0.5-1.1-0.6v3.3c0.5,0,0.8-0.2,1-0.5C296.2,424.2,296.4,424,296.4,423.5z"/>
	<path class="st10" d="M290.8,431.1c0-0.6,0.1-1.1,0.3-1.6c0.2-0.5,0.5-0.8,0.8-1.1c0.3-0.3,0.8-0.5,1.2-0.5v1.8
		c-0.3,0.1-0.5,0.2-0.7,0.5s-0.3,0.6-0.3,1c0,0.3,0.1,0.7,0.3,0.8c0.2,0.2,0.3,0.3,0.5,0.3c0.3,0,0.5-0.1,0.6-0.3
		c0.1-0.3,0.3-0.6,0.3-1c0.1-0.3,0.2-0.6,0.3-0.8c0.1-0.3,0.2-0.6,0.3-0.8c0.2-0.3,0.3-0.5,0.5-0.6c0.3-0.2,0.5-0.3,0.8-0.3
		c0.6,0,1.1,0.3,1.5,0.7c0.5,0.5,0.6,1.2,0.6,2s-0.2,1.5-0.6,1.9c-0.3,0.5-0.8,0.8-1.5,0.8V432c0.5-0.1,0.8-0.5,0.8-1.1
		c0-0.3-0.1-0.6-0.2-0.8c-0.1-0.2-0.3-0.3-0.5-0.3s-0.3,0.2-0.5,0.5c-0.1,0.3-0.3,0.6-0.3,1c-0.1,0.5-0.3,1-0.3,1.3
		c-0.1,0.5-0.3,0.7-0.6,1c-0.3,0.3-0.6,0.3-1.1,0.3s-0.8-0.1-1.1-0.3c-0.3-0.3-0.6-0.5-0.8-1C290.8,432.2,290.8,431.7,290.8,431.1z"
		/>
	<path class="st10" d="M196.4,382.9l-6.2-7.1l4.7-4.1l1,1l-3.4,3l1.7,2l3-2.7l0.8,1l-3,2.7l1.8,2l3.4-3l1,1L196.4,382.9z
		 M204.7,375.8c-0.5,0.5-1,0.7-1.6,0.8s-1.1,0-1.7-0.2c-0.6-0.2-1.1-0.6-1.5-1.1c-0.5-0.5-0.8-1-0.8-1.6c-0.2-0.6-0.1-1.2,0.1-1.7
		c0.2-0.6,0.5-1,1-1.5c0.5-0.3,0.8-0.5,1.2-0.7c0.5-0.1,0.8-0.1,1.2,0l-2.7-3l1.3-1.1l6.4,7.4l-1.2,1l-0.8-0.6c0,0.3,0,0.8-0.2,1.2
		C205.4,375.1,205.2,375.5,204.7,375.8z M204.1,374.5c0.5-0.3,0.7-0.8,0.7-1.4c0-0.5-0.2-1-0.5-1.5c-0.5-0.5-0.8-0.7-1.4-0.8
		c-0.5,0-1,0.1-1.5,0.5c-0.5,0.3-0.7,0.8-0.7,1.3s0.2,1,0.5,1.5c0.5,0.5,0.8,0.7,1.4,0.8C203.2,375,203.7,374.8,204.1,374.5z
		 M211.1,370.4c-0.6,0.5-1.3,0.8-2,0.7c-0.7-0.1-1.4-0.5-2-1.3l-2.5-2.9l1.3-1.1l2.4,2.7c0.5,0.5,0.8,0.7,1.1,0.8
		c0.3,0.1,0.8-0.1,1.1-0.5c0.3-0.3,0.6-0.7,0.6-1.2s-0.2-1-0.6-1.4l-2.3-2.7l1.3-1.1l4.4,5.1l-1.2,1l-0.8-0.8
		c0.1,0.5,0.1,0.8-0.1,1.3C211.7,369.7,211.5,370.1,211.1,370.4z M217.8,364.5c-0.5,0.5-1.1,0.8-1.7,0.8c-0.6,0.1-1.2,0.1-1.8-0.1
		s-1.1-0.6-1.5-1.1c-0.5-0.5-0.8-1.1-0.8-1.7c-0.1-0.6-0.1-1.2,0.1-1.8c0.2-0.6,0.6-1.1,1.1-1.5c0.7-0.6,1.4-0.8,2.1-1
		c0.8-0.1,1.5,0.2,2,0.7l-1.4,1.2c-0.3-0.2-0.6-0.3-1-0.3c-0.3,0-0.6,0.2-1,0.5c-0.3,0.3-0.5,0.8-0.6,1.2c0,0.5,0.2,1,0.6,1.5
		c0.5,0.5,0.8,0.8,1.4,0.8c0.5,0.1,1-0.1,1.3-0.5c0.3-0.3,0.5-0.5,0.5-0.8c0.1-0.3,0-0.6-0.1-1l1.4-1.2c0.3,0.7,0.5,1.4,0.3,2.1
		C218.8,363.3,218.5,363.9,217.8,364.5z M223.3,359.7c-0.5,0.5-0.8,0.6-1.3,0.8c-0.5,0.2-0.8,0.1-1.1,0s-0.6-0.3-0.8-0.6
		c-0.5-0.5-0.6-1-0.5-1.6s0.5-1.3,1.3-1.9l1.3-1.1l-0.1-0.1c-0.3-0.3-0.6-0.5-1-0.5c-0.3,0-0.7,0.2-1,0.5s-0.5,0.5-0.5,0.8
		c-0.1,0.3,0,0.6,0.1,0.8l-1.3,1.1c-0.3-0.5-0.5-0.8-0.5-1.3s0.1-1,0.3-1.4c0.2-0.5,0.5-0.8,1-1.2c0.7-0.6,1.5-1,2.2-1s1.4,0.3,2,1
		l2.7,3.2l-1.1,1l-0.8-0.7c0.1,0.5,0.1,0.8,0,1.2C223.9,359,223.6,359.4,223.3,359.7z M222.6,358.5c0.3-0.3,0.6-0.7,0.6-1.1
		s-0.2-0.8-0.5-1.3l-1.1,1c-0.3,0.3-0.5,0.6-0.6,0.8c0,0.3,0,0.5,0.2,0.7s0.3,0.3,0.6,0.3S222.4,358.7,222.6,358.5z M229.5,354.1
		c-0.5,0.5-1.1,0.7-1.6,0.8c-0.6,0-1.1-0.3-1.7-1l-2-2.2l-0.8,0.8l-1-1.1l0.8-0.8l-1-1.5l1.2-1l1.2,1.4l1.4-1.2l1,1.1l-1.4,1.2
		l2,2.2c0.2,0.3,0.5,0.3,0.6,0.3c0.2,0,0.5-0.1,0.7-0.3l0.6-0.5l1,1.1L229.5,354.1z M227.1,345.8c-0.3,0.2-0.5,0.3-0.8,0.3
		s-0.5-0.1-0.7-0.3c-0.2-0.2-0.3-0.5-0.3-0.8s0.2-0.5,0.5-0.7s0.5-0.3,0.8-0.3s0.5,0.1,0.7,0.3c0.2,0.3,0.3,0.5,0.3,0.8
		C227.5,345.3,227.4,345.6,227.1,345.8z M231.6,352.2l-4.4-5.1l1.3-1.1l4.4,5.1L231.6,352.2z M236.9,347.9c-0.5,0.5-1,0.7-1.6,0.8
		c-0.6,0.1-1.2,0.1-1.7-0.1c-0.6-0.2-1.1-0.6-1.5-1.1c-0.5-0.5-0.8-1.1-0.8-1.7c-0.1-0.6-0.1-1.2,0.1-1.8c0.2-0.6,0.5-1,1-1.5
		s1-0.7,1.6-0.8c0.6-0.1,1.2-0.1,1.7,0.1c0.6,0.2,1.1,0.6,1.5,1.1c0.5,0.5,0.8,1.1,0.8,1.7c0.1,0.6,0.1,1.2-0.1,1.8
		C237.6,347,237.3,347.5,236.9,347.9z M235.8,346.8c0.3-0.3,0.5-0.7,0.6-1.2c0-0.5-0.2-1-0.6-1.5c-0.5-0.5-0.8-0.8-1.4-0.8
		c-0.5,0-0.8,0.1-1.2,0.5c-0.3,0.3-0.5,0.7-0.6,1.2c0,0.5,0.2,1,0.6,1.5c0.5,0.5,0.8,0.8,1.4,0.8C235.1,347.2,235.5,347,235.8,346.8
		z M240.5,344.5l-4.4-5.1l1.2-1l0.8,0.8c-0.1-0.5-0.1-0.8,0.1-1.3c0.2-0.5,0.5-0.8,0.8-1.2c0.6-0.5,1.3-0.8,2-0.7
		c0.7,0.1,1.4,0.5,2,1.3l2.5,2.9l-1.3,1.2l-2.4-2.7c-0.5-0.5-0.8-0.7-1.1-0.8c-0.5-0.1-0.8,0.1-1.1,0.3c-0.3,0.3-0.6,0.7-0.6,1.2
		s0.2,1,0.6,1.4l2.3,2.7L240.5,344.5z"/>
	<path class="st10" d="M209,393.7c-0.5,0.5-0.8,0.6-1.3,0.8c-0.5,0.1-0.8,0.1-1.1,0s-0.6-0.3-0.8-0.6c-0.5-0.5-0.6-1-0.5-1.6
		s0.5-1.3,1.3-1.9l1.3-1.1l-0.1-0.1c-0.3-0.3-0.6-0.5-1-0.5s-0.7,0.2-1,0.5s-0.5,0.5-0.5,0.8c-0.1,0.3-0.1,0.6,0.1,0.8l-1.3,1.1
		c-0.3-0.5-0.5-0.8-0.5-1.3s0.1-1,0.3-1.4c0.3-0.5,0.5-0.8,1-1.2c0.7-0.6,1.5-1,2.2-1c0.8,0,1.4,0.3,2,1l2.7,3.2l-1.1,1l-0.8-0.7
		c0.1,0.5,0.1,0.8,0,1.2C209.7,393,209.4,393.4,209,393.7z M208.4,392.5c0.3-0.3,0.6-0.7,0.6-1.1s-0.2-0.8-0.5-1.3l-1.1,1
		c-0.3,0.3-0.5,0.6-0.6,0.8c0,0.3,0,0.5,0.2,0.7s0.5,0.3,0.6,0.3C207.9,392.8,208.2,392.7,208.4,392.5z M213.1,390l-4.4-5.1l1.2-1
		l0.8,0.8c-0.1-0.5-0.1-0.8,0.1-1.3c0.2-0.5,0.5-0.8,0.8-1.2c0.6-0.5,1.3-0.8,2-0.7c0.7,0.1,1.4,0.5,2,1.3l2.5,2.9l-1.3,1.1
		l-2.4-2.7c-0.5-0.5-0.8-0.7-1.1-0.8c-0.5-0.1-0.8,0-1.1,0.3s-0.6,0.7-0.6,1.2s0.2,1,0.6,1.4l2.3,2.7L213.1,390z M221.7,382.7
		c-0.5,0.5-1,0.7-1.6,0.8s-1.2,0-1.7-0.2c-0.6-0.2-1.1-0.6-1.5-1.1c-0.5-0.5-0.8-1-0.8-1.6c-0.2-0.6-0.1-1.2,0.1-1.7
		c0.2-0.6,0.5-1,1-1.5c0.5-0.3,0.8-0.5,1.2-0.7c0.5-0.1,0.8-0.1,1.2,0l-2.7-3l1.3-1.1l6.4,7.4l-1.2,1l-0.8-0.6c0,0.3,0,0.8-0.2,1.2
		C222.4,381.9,222.1,382.3,221.7,382.7z M220.9,381.2c0.5-0.3,0.7-0.8,0.7-1.4s-0.2-1-0.5-1.5c-0.5-0.5-0.8-0.7-1.4-0.8
		c-0.5,0-1,0.1-1.5,0.5c-0.5,0.3-0.7,0.8-0.7,1.3s0.2,1,0.5,1.5c0.5,0.5,0.8,0.7,1.4,0.8C220.1,381.9,220.5,381.7,220.9,381.2z
		 M228.3,376.7l-6.2-7.1l1.3-1.1l5.4,6.1l3.2-2.7l0.8,1L228.3,376.7z M236.5,369.8c-0.5,0.5-1,0.8-1.6,0.8c-0.6,0.1-1.2,0.1-1.7-0.1
		c-0.6-0.2-1.1-0.6-1.5-1.1c-0.5-0.5-0.8-1.1-0.8-1.7c-0.2-0.6-0.1-1.2,0.1-1.8c0.2-0.6,0.6-1.1,1.1-1.5c0.5-0.5,1-0.7,1.6-0.8
		c0.6-0.1,1.1-0.1,1.7,0.1c0.5,0.2,1,0.5,1.5,1c0.1,0.1,0.2,0.2,0.2,0.3c0.1,0.1,0.2,0.2,0.2,0.3l-3.8,3.4c0.3,0.3,0.8,0.6,1.2,0.6
		c0.5,0,0.8-0.2,1.2-0.5c0.3-0.3,0.5-0.5,0.5-0.8c0.1-0.3,0.1-0.5,0-0.8l1.4-1.2c0.2,0.5,0.3,0.8,0.3,1.3s-0.1,1-0.3,1.4
		C237.1,369,236.9,369.5,236.5,369.8z M232.7,365.6c-0.3,0.3-0.5,0.6-0.6,1c-0.1,0.5,0,0.8,0.3,1.3l2.5-2.2c-0.3-0.3-0.7-0.5-1-0.5
		C233.5,365.1,233.1,365.3,232.7,365.6z M241.9,365.1c-0.5,0.3-0.8,0.6-1.3,0.8c-0.5,0.2-0.8,0.1-1.1,0s-0.6-0.3-0.8-0.6
		c-0.5-0.5-0.6-1-0.5-1.6s0.5-1.3,1.3-1.9l1.3-1.1l-0.1-0.1c-0.3-0.3-0.6-0.5-1-0.5c-0.3,0-0.7,0.2-1,0.5s-0.5,0.5-0.5,0.8
		c-0.1,0.3-0.1,0.6,0.1,0.8l-1.3,1.1c-0.3-0.5-0.5-0.8-0.5-1.3s0.1-1,0.3-1.4c0.2-0.5,0.5-0.8,1-1.2c0.7-0.6,1.5-1,2.2-1
		c0.8,0,1.4,0.3,2,1l2.7,3.2l-1.1,1l-0.8-0.7c0.1,0.5,0.1,0.8,0,1.2C242.6,364.3,242.3,364.7,241.9,365.1z M241.3,363.8
		c0.3-0.3,0.6-0.7,0.6-1.1c0-0.5-0.2-0.8-0.5-1.3l-1.1,1c-0.3,0.3-0.5,0.6-0.6,0.8c0,0.3,0,0.5,0.2,0.7s0.5,0.3,0.6,0.3
		C240.8,364.1,241,364.1,241.3,363.8z M245.9,361.4l-4.4-5.1l1.2-1l1,0.8c-0.1-0.5-0.1-1,0.1-1.5c0.2-0.5,0.5-0.8,0.8-1.3l1.2,1.4
		l-0.3,0.3c-0.3,0.3-0.5,0.5-0.7,0.8s-0.2,0.6-0.2,1c0.1,0.3,0.3,0.7,0.6,1.1l2,2.3L245.9,361.4z M250,357.8l-4.4-5.1l1.2-1l0.8,0.8
		c-0.1-0.5-0.1-0.8,0.1-1.3c0.2-0.5,0.5-0.8,0.8-1.2c0.6-0.5,1.3-0.8,2-0.7c0.7,0.1,1.4,0.5,2,1.3l2.5,2.9l-1.3,1.1l-2.4-2.7
		c-0.5-0.5-0.8-0.7-1.1-0.8c-0.5-0.1-0.8,0.1-1.1,0.3c-0.3,0.3-0.6,0.7-0.6,1.2s0.2,1,0.6,1.4l2.3,2.7L250,357.8z M251.8,345.9
		c-0.3,0.2-0.5,0.3-0.8,0.3s-0.5-0.1-0.7-0.3c-0.2-0.2-0.3-0.5-0.3-0.8s0.2-0.5,0.5-0.8c0.3-0.2,0.5-0.3,0.8-0.3s0.5,0.1,0.7,0.3
		c0.2,0.3,0.3,0.5,0.3,0.8C252.2,345.5,252,345.8,251.8,345.9z M256.3,352.4l-4.4-5.1l1.3-1.1l4.4,5.1L256.3,352.4z M259,350
		l-4.4-5.1l1.2-1l0.8,0.8c-0.1-0.5-0.1-0.8,0.1-1.3s0.5-0.8,0.8-1.2c0.6-0.5,1.3-0.8,2-0.7c0.7,0.1,1.4,0.5,2,1.3l2.5,2.9l-1.3,1.1
		l-2.4-2.7c-0.5-0.5-0.8-0.7-1.1-0.8c-0.3-0.1-0.8,0.1-1.1,0.3c-0.3,0.3-0.6,0.7-0.6,1.2s0.2,1,0.6,1.4l2.3,2.7L259,350z M266,341.2
		c-0.3,0.2-0.5,0.5-0.8,0.5l-0.1,0.7c0.2,0,0.3-0.1,0.6-0.3c0.3-0.1,0.6-0.3,1.1-0.7c0.8-0.5,1.4-0.8,1.9-0.8s1,0.2,1.5,0.7
		c0.3,0.3,0.5,0.7,0.5,1.1c0.1,0.5,0,0.8-0.2,1.3s-0.6,1-1.1,1.4c-0.7,0.6-1.5,1-2.1,1.1c-0.7,0.1-1.3-0.1-1.7-0.7
		c-0.5-0.5-0.5-1-0.3-1.8c-0.2,0.1-0.3,0.1-0.5,0.1s-0.3,0-0.5,0l-0.2-0.3l0.1-1.7c-0.7,0-1.3-0.3-1.8-0.8c-0.3-0.3-0.5-0.8-0.6-1.2
		c-0.1-0.5,0-0.8,0.2-1.3s0.5-0.8,1-1.2c0.3-0.3,0.6-0.5,1-0.6l2-1.7l0.7,0.8l-0.8,0.8c0.3,0.2,0.7,0.3,1,0.7
		c0.3,0.3,0.5,0.8,0.6,1.2c0.1,0.5,0,0.8-0.2,1.3C266.9,340.2,266.4,340.9,266,341.2z M265.1,340.2c0.3-0.3,0.5-0.5,0.5-0.8
		s0-0.6-0.3-0.8c-0.3-0.3-0.5-0.5-0.8-0.5s-0.6,0.2-0.8,0.3c-0.3,0.3-0.5,0.5-0.5,0.8c-0.1,0.3,0,0.6,0.3,0.8
		c0.3,0.3,0.5,0.5,0.8,0.5C264.6,340.6,264.9,340.4,265.1,340.2z M266.6,344.4c0.3,0.3,0.5,0.3,0.8,0.3c0.3-0.1,0.7-0.3,1-0.6
		c0.3-0.3,0.5-0.6,0.6-0.8c0.1-0.3,0-0.6-0.2-0.8c-0.2-0.2-0.3-0.3-0.6-0.3c-0.3,0-0.6,0.2-1,0.5c-0.3,0.3-0.6,0.5-0.8,0.6
		c-0.1,0.3-0.2,0.5-0.1,0.8C266.4,344.1,266.6,344.2,266.6,344.4z"/>
	<path class="st10" d="M172.6,267.6l2.2-9.3l1.7,0.5l-1,3.8l4.2,1l1-3.8l1.7,0.5l-2.2,9.3l-1.7-0.5l1-4l-4.2-1l-1,4L172.6,267.6z
		 M185,270.7c-0.7-0.2-1.2-0.5-1.6-0.8c-0.5-0.5-0.8-0.8-1-1.5c-0.2-0.6-0.2-1.2,0-1.9c0.2-0.7,0.5-1.3,0.8-1.7c0.5-0.5,1-0.8,1.5-1
		c0.6-0.2,1.2-0.2,1.9,0s1.2,0.5,1.6,0.8c0.5,0.5,0.7,0.8,0.8,1.5c0.2,0.6,0.2,1.1,0,1.7c0,0.1-0.1,0.2-0.1,0.3
		c0,0.1-0.1,0.2-0.1,0.3l-4.9-1.2c-0.1,0.5,0,1,0.3,1.4c0.3,0.3,0.6,0.6,1,0.8c0.3,0.1,0.7,0.1,1,0s0.5-0.3,0.7-0.5l1.7,0.5
		c-0.3,0.5-0.5,0.7-0.8,1s-0.8,0.5-1.3,0.5C186,270.9,185.5,270.9,185,270.7z M186.3,265.3c-0.5-0.1-0.8-0.1-1.2,0.1
		c-0.3,0.2-0.7,0.5-0.8,1l3.2,0.8c0.1-0.5,0-0.8-0.3-1.2C186.9,265.6,186.7,265.4,186.3,265.3z M192,272.4c-0.6-0.2-1-0.3-1.3-0.6
		c-0.3-0.3-0.5-0.6-0.6-1c-0.1-0.3-0.1-0.7,0-1c0.2-0.6,0.5-1,1.1-1.3s1.4-0.3,2.3,0l1.7,0.5v-0.2c0.1-0.5,0.1-0.8-0.2-1.1
		c-0.2-0.3-0.5-0.5-0.8-0.5c-0.3-0.1-0.7-0.1-1,0s-0.5,0.3-0.7,0.6l-1.6-0.5c0.2-0.5,0.5-0.8,0.8-1.1c0.3-0.3,0.8-0.5,1.3-0.5
		c0.5-0.1,1-0.1,1.5,0.1c1,0.3,1.6,0.7,2,1.3c0.5,0.6,0.5,1.3,0.3,2.2l-1,4l-1.5-0.3l0.1-1.1c-0.3,0.3-0.6,0.5-1,0.7
		C193,272.6,192.5,272.6,192,272.4z M192.7,271.2c0.5,0.1,0.8,0.1,1.3-0.2c0.3-0.3,0.6-0.6,0.8-1l-1.5-0.3c-0.5-0.1-0.8-0.1-1,0
		c-0.3,0.1-0.5,0.3-0.5,0.5c-0.1,0.3,0,0.5,0.2,0.7C192.1,271,192.4,271.2,192.7,271.2z M197.4,273.6l2.3-9.5l1.7,0.5l-2.3,9.5
		L197.4,273.6z M203.7,275.1c-0.7-0.2-1.2-0.5-1.5-1s-0.5-1.1-0.2-2l0.7-2.9l-1.2-0.2l0.3-1.5l1.1,0.3l0.6-1.7l1.5,0.3l-0.5,1.8
		l1.8,0.5l-0.3,1.5l-1.8-0.5l-0.7,2.9c-0.1,0.3-0.1,0.5,0,0.7s0.3,0.3,0.7,0.3l0.8,0.2l-0.3,1.5L203.7,275.1z M206.3,275.7l2.3-9.5
		l1.7,0.5l-1,3.9c0.3-0.3,0.7-0.5,1.1-0.6c0.5-0.1,0.8-0.1,1.4,0c0.8,0.2,1.4,0.6,1.7,1.2s0.3,1.5,0.1,2.4l-1,3.7l-1.7-0.5l0.8-3.6
		c0.2-0.6,0.2-1,0-1.4c-0.2-0.3-0.5-0.6-1-0.7s-1,0-1.3,0.3c-0.5,0.3-0.7,0.7-0.8,1.3l-0.8,3.4L206.3,275.7z M219.6,279.2
		c-0.6-0.2-1-0.3-1.3-0.6c-0.3-0.3-0.5-0.6-0.6-1c-0.1-0.3-0.1-0.7,0-1c0.2-0.6,0.5-1,1.1-1.3s1.4-0.3,2.3,0l1.7,0.5v-0.2
		c0.1-0.5,0.1-0.8-0.2-1.1c-0.2-0.3-0.5-0.5-0.8-0.5c-0.3-0.1-0.7-0.1-1,0s-0.5,0.3-0.7,0.6l-1.6-0.5c0.2-0.5,0.5-0.8,0.8-1.1
		c0.3-0.3,0.8-0.5,1.3-0.5c0.5-0.1,1-0.1,1.5,0.1c1,0.3,1.6,0.7,2,1.3c0.5,0.6,0.5,1.4,0.3,2.2l-1,4l-1.5-0.3l0.1-1.1
		c-0.3,0.3-0.6,0.5-1,0.7C220.6,279.3,220.2,279.3,219.6,279.2z M220.4,277.9c0.5,0.1,0.8,0.1,1.3-0.2c0.3-0.3,0.6-0.6,0.8-1
		l-1.5-0.3c-0.5-0.1-0.8-0.1-1,0c-0.3,0.1-0.5,0.3-0.5,0.5c-0.1,0.3,0,0.5,0.2,0.7C219.9,277.8,220,277.8,220.4,277.9z M225,280.3
		l1.6-6.6l1.5,0.3l-0.2,1.1c0.3-0.3,0.7-0.6,1.1-0.7c0.5-0.1,1-0.2,1.5,0c0.8,0.2,1.4,0.6,1.7,1.2s0.3,1.5,0.2,2.4l-1,3.7l-1.7-0.5
		l0.8-3.6c0.2-0.6,0.2-1,0-1.4c-0.2-0.3-0.5-0.6-1-0.7s-1,0-1.3,0.2c-0.5,0.3-0.7,0.7-0.8,1.3l-0.8,3.4L225,280.3z M236,283.2
		c-0.6-0.2-1.1-0.5-1.5-0.8c-0.4-0.4-0.7-1-0.8-1.5c-0.2-0.6-0.2-1.2,0-1.9c0.2-0.7,0.5-1.2,0.8-1.7c0.5-0.5,0.8-0.8,1.5-1
		c0.6-0.2,1.1-0.2,1.8,0c0.5,0.1,1,0.3,1.2,0.6c0.3,0.3,0.6,0.6,0.7,1l1-3.8l1.7,0.5L240,284l-1.5-0.3v-1c-0.3,0.3-0.6,0.5-1,0.6
		C237,283.2,236.5,283.2,236,283.2z M236.7,281.7c0.5,0.2,1,0.1,1.5-0.3c0.5-0.3,0.7-0.7,0.8-1.3c0.2-0.6,0.1-1.1-0.2-1.5
		c-0.3-0.5-0.7-0.8-1.2-0.8c-0.5-0.1-1-0.1-1.5,0.3c-0.5,0.3-0.7,0.7-0.8,1.3c-0.2,0.6-0.1,1.1,0.2,1.5
		C235.8,281.3,236.2,281.7,236.7,281.7z"/>
	<path class="st10" d="M170.6,283.9l-0.2-9.8l1.8,0.5l-0.1,7.7l3.7-6.9l1.9,0.5l0.1,7.8l3.5-6.9l1.8,0.5l-4.7,8.6l-2-0.5l-0.2-7.3
		l-3.6,6.4L170.6,283.9z M185.1,287.5c-0.7-0.2-1.2-0.5-1.6-0.8c-0.5-0.5-0.8-0.8-1-1.5c-0.2-0.6-0.2-1.2,0-1.9
		c0.2-0.7,0.5-1.3,0.8-1.7c0.5-0.5,1-0.8,1.5-1c0.6-0.2,1.2-0.2,1.9,0s1.2,0.5,1.6,0.8c0.5,0.5,0.7,0.8,0.8,1.5
		c0.2,0.5,0.2,1.1,0,1.7c0,0.1,0,0.2-0.1,0.3c0,0.1-0.1,0.2-0.1,0.3l-4.8-1.2c-0.1,0.5,0,1,0.3,1.4c0.3,0.3,0.6,0.6,1,0.8
		c0.3,0.1,0.7,0.1,1,0s0.5-0.3,0.7-0.5l1.7,0.5c-0.3,0.5-0.5,0.7-0.8,1s-0.8,0.5-1.3,0.5C186.1,287.7,185.6,287.7,185.1,287.5z
		 M186.4,282.1c-0.5-0.1-0.8-0.1-1.2,0.1c-0.3,0.2-0.7,0.5-0.8,1l3.2,0.8c0.1-0.5,0-0.8-0.3-1.2
		C187.2,282.3,186.9,282.2,186.4,282.1z M189.8,288.5l2.3-9.5l1.7,0.5l-2.3,9.5L189.8,288.5z M193.2,289.4l2.3-9.5l1.7,0.5l-2.3,9.5
		L193.2,289.4z M200.4,291.3c-0.5-0.1-1-0.3-1.2-0.6c-0.3-0.3-0.6-0.6-0.7-1l-0.5,0.8l-1.5-0.3l2.3-9.5l1.7,0.5l-1,3.9
		c0.3-0.3,0.6-0.5,1-0.6c0.5-0.2,0.8-0.2,1.5,0c0.6,0.2,1.1,0.5,1.5,0.8c0.4,0.4,0.7,1,0.8,1.5c0.2,0.6,0.2,1.2,0,1.9
		c-0.2,0.7-0.5,1.2-0.8,1.7c-0.5,0.5-0.8,0.8-1.5,1C201.6,291.4,201,291.4,200.4,291.3z M200.4,289.7c0.5,0.2,1,0.1,1.5-0.2
		c0.5-0.3,0.8-0.7,0.8-1.3c0.2-0.6,0.1-1.1-0.2-1.5c-0.3-0.5-0.7-0.8-1.2-0.8c-0.5-0.1-1-0.1-1.5,0.3c-0.5,0.3-0.7,0.7-0.8,1.3
		c-0.2,0.6-0.1,1.1,0.2,1.5C199.5,289.3,199.8,289.6,200.4,289.7z M208.3,293.2c-0.7-0.2-1.2-0.5-1.6-0.8c-0.5-0.5-0.8-1-1-1.5
		c-0.2-0.6-0.2-1.2,0-1.9c0.2-0.7,0.5-1.3,0.8-1.7c0.5-0.5,1-0.8,1.5-1c0.6-0.2,1.2-0.2,1.9,0s1.2,0.5,1.6,0.8
		c0.5,0.5,0.7,0.8,0.8,1.5c0.2,0.5,0.2,1.1,0,1.7c0,0.1-0.1,0.2-0.1,0.3c0,0.1-0.1,0.2-0.1,0.3l-4.9-1.2c-0.1,0.5,0,1,0.3,1.4
		c0.3,0.3,0.6,0.6,1,0.8c0.3,0.1,0.7,0.1,1,0s0.5-0.3,0.7-0.5l1.7,0.5c-0.3,0.5-0.5,0.7-0.8,1s-0.8,0.5-1.3,0.5
		C209.4,293.3,208.9,293.3,208.3,293.2z M209.7,287.7c-0.5-0.1-0.8-0.1-1.2,0.1c-0.5,0.2-0.7,0.5-0.8,1l3.2,0.8
		c0.1-0.5,0-0.8-0.3-1.1C210.4,288.1,210.1,287.8,209.7,287.7z M215.9,286.9c-0.3-0.1-0.5-0.3-0.7-0.5c-0.2-0.3-0.2-0.5-0.1-0.8
		c0.1-0.3,0.3-0.5,0.5-0.6c0.3-0.2,0.5-0.2,0.8-0.1s0.5,0.3,0.7,0.5c0.2,0.3,0.2,0.5,0.2,0.8c-0.1,0.3-0.3,0.5-0.5,0.6
		C216.4,286.9,216.1,286.9,215.9,286.9z M213.1,294.2l1.6-6.6l1.7,0.5l-1.6,6.6L213.1,294.2z M216.6,295l1.6-6.6l1.5,0.3l-0.2,1.1
		c0.3-0.3,0.7-0.6,1.1-0.7c0.5-0.2,1-0.2,1.5,0c0.8,0.2,1.4,0.6,1.7,1.2s0.3,1.5,0.2,2.4l-1,3.7l-1.7-0.5l0.8-3.6
		c0.2-0.6,0.2-1,0-1.4c-0.2-0.3-0.5-0.6-1-0.7s-1,0-1.3,0.3c-0.5,0.3-0.7,0.7-0.8,1.3l-0.8,3.4L216.6,295z M227.9,295.7
		c-0.3-0.1-0.6-0.2-0.8-0.3l-0.6,0.3c0.2,0.1,0.3,0.3,0.6,0.3c0.3,0.1,0.7,0.3,1.2,0.5c0.8,0.3,1.5,0.7,1.8,1.1
		c0.3,0.5,0.5,1,0.3,1.5c-0.1,0.5-0.3,0.8-0.6,1c-0.3,0.3-0.7,0.5-1.2,0.6s-1.1,0.1-1.8-0.1c-1-0.3-1.6-0.6-2.1-1.1
		s-0.7-1.1-0.5-1.8c0.2-0.6,0.6-1,1.3-1.3c-0.2-0.1-0.3-0.3-0.5-0.3c-0.1-0.1-0.2-0.3-0.3-0.3l0.1-0.3l1.5-1
		c-0.5-0.6-0.5-1.2-0.3-1.9c0.1-0.5,0.3-0.8,0.6-1.1c0.3-0.3,0.7-0.5,1.1-0.7c0.5-0.1,1-0.1,1.5,0c0.3,0.1,0.7,0.3,1,0.5l2.5,0.6
		l-0.3,1l-1.1-0.2c0.1,0.3,0.1,0.8,0,1.2c-0.1,0.5-0.3,0.8-0.6,1.1c-0.3,0.3-0.7,0.5-1.1,0.6C228.9,295.8,228.4,295.8,227.9,295.7z
		 M228.2,294.4c0.3,0.1,0.7,0.1,1-0.1c0.3-0.1,0.5-0.3,0.5-0.7c0.1-0.3,0-0.6-0.2-0.8c-0.2-0.3-0.5-0.5-0.8-0.5
		c-0.3-0.1-0.7-0.1-1,0.1c-0.3,0.1-0.5,0.3-0.5,0.7c-0.1,0.3,0,0.7,0.2,0.8C227.5,294.1,227.8,294.3,228.2,294.4z M225.6,298
		c-0.1,0.3,0,0.6,0.3,0.8c0.3,0.3,0.6,0.5,1,0.5c0.4,0.1,0.8,0.1,1.1,0s0.5-0.3,0.6-0.6c0.1-0.3,0-0.5-0.1-0.7
		c-0.2-0.2-0.5-0.5-1-0.5c-0.3-0.1-0.7-0.3-1-0.3c-0.3,0.1-0.5,0.2-0.7,0.3C225.8,297.8,225.7,297.9,225.6,298z"/>
	<path class="st10" d="M232.2,188l8.2-4.7l3,5.4l-1.2,0.7l-2.2-3.9l-2.3,1.3l2,3.5l-1.2,0.7l-2-3.5l-2.4,1.4l2.2,3.9l-1.2,0.7
		L232.2,188z M236.1,200.9l3.4-2c-0.3,0-0.8-0.2-1.1-0.3c-0.3-0.2-0.7-0.5-1-1c-0.3-0.6-0.5-1.1-0.5-1.7c0-0.6,0.2-1.1,0.5-1.6
		s0.8-1,1.4-1.3c0.6-0.3,1.2-0.5,1.8-0.5s1.2,0.2,1.7,0.5s1,0.7,1.3,1.3c0.3,0.5,0.5,0.8,0.5,1.3s-0.1,0.8-0.3,1.2l0.8-0.3l0.8,1.4
		l-8.4,4.9L236.1,200.9z M238.9,197.2c0.3,0.5,0.7,0.8,1.2,1s1,0,1.5-0.3s0.8-0.7,1-1.2s0.1-1-0.2-1.5s-0.7-0.8-1.2-1
		s-1-0.1-1.5,0.3c-0.5,0.3-0.8,0.7-1,1.2C238.6,196.1,238.7,196.7,238.9,197.2z M241.5,204.8c-0.5-0.8-0.5-1.5-0.3-2
		c0.3-0.7,0.8-1.3,1.7-1.7l3.3-1.9l0.8,1.5l-3.2,1.8c-0.5,0.3-0.8,0.6-1,1c-0.2,0.3-0.1,0.8,0.2,1.2c0.3,0.5,0.6,0.7,1,0.8
		c0.5,0.1,1,0,1.5-0.3l3-1.7l0.8,1.5l-5.9,3.3l-0.8-1.4l1-0.7c-0.5,0-0.8-0.1-1.3-0.3C242.1,205.5,241.8,205.2,241.5,204.8z
		 M245.5,211.7c-0.3-0.5-0.5-1-0.5-1.4c0-0.5,0.1-0.8,0.3-1.1s0.5-0.6,0.8-0.8c0.5-0.3,1.1-0.3,1.7-0.1c0.6,0.3,1.1,0.8,1.6,1.6
		l0.8,1.5l0.2-0.1c0.5-0.3,0.6-0.5,0.7-0.8c0.1-0.3,0-0.7-0.2-1s-0.5-0.5-0.7-0.7s-0.6-0.2-0.8-0.1l-0.9-1.4c0.5-0.2,1-0.3,1.4-0.2
		c0.5,0.1,0.8,0.3,1.3,0.6s0.8,0.7,1,1.2c0.5,0.8,0.7,1.6,0.5,2.3s-0.6,1.3-1.4,1.7l-3.6,2l-0.8-1.3l0.8-0.7c-0.5,0-0.8-0.1-1.2-0.3
		C246.1,212.6,245.8,212.2,245.5,211.7z M246.9,211.4c0.3,0.5,0.6,0.7,1,0.8c0.5,0.1,0.8,0,1.3-0.2l-0.8-1.3
		c-0.3-0.5-0.5-0.7-0.7-0.8c-0.3-0.1-0.5-0.1-0.7,0c-0.3,0.2-0.3,0.3-0.5,0.6C246.6,210.9,246.7,211.1,246.9,211.4z M248.4,216.5
		l8.5-4.9l0.8,1.5l-8.5,4.9L248.4,216.5z M257.3,216.4c-0.2-0.3-0.2-0.5-0.2-0.8c0.1-0.3,0.3-0.5,0.5-0.6c0.3-0.2,0.5-0.2,0.8-0.1
		c0.3,0.1,0.5,0.3,0.6,0.5c0.1,0.3,0.2,0.5,0.2,0.8c-0.1,0.3-0.2,0.5-0.5,0.6c-0.3,0.2-0.5,0.2-0.8,0.1
		C257.6,216.9,257.5,216.7,257.3,216.4z M250.1,219.5l5.9-3.3l0.8,1.5l-5.9,3.3L250.1,219.5z M253.4,225.2c-0.3-0.6-0.5-1.2-0.5-1.7
		c0.1-0.5,0.5-1,1.3-1.5l2.5-1.5l-0.6-1l1.3-0.7l0.6,1l1.7-0.7l0.8,1.4l-1.5,0.8l0.8,1.6l-1.3,0.7l-1-1.6l-2.5,1.5
		c-0.3,0.2-0.5,0.3-0.5,0.5s0,0.5,0.2,0.7l0.5,0.8l-1.3,0.8L253.4,225.2z M252.6,229.8l3.7-0.3l-0.2-0.3l4.2-5.4l1,1.6l-3.2,4
		l5.1-0.7l1,1.6l-10.5,1.1L252.6,229.8z"/>
	<path class="st11" d="M80.9,302.3c0-121.7,98.5-220.2,220.1-220.2s220.2,98.6,220.2,220.2c0,121.7-98.6,220.2-220.2,220.2
		S80.9,423.9,80.9,302.3z M121.4,302.3c0,99.2,80.4,179.7,179.6,179.7s179.6-80.5,179.6-179.7S400.2,122.6,301,122.6
		S121.4,203,121.4,302.3z"/>
	<path class="st12" d="M61.9,302.3C61.9,170.1,169,63.1,301,63.1s239.2,107,239.2,239.2S433.2,541.5,301,541.5
		C168.9,541.5,61.9,434.4,61.9,302.3z M84,302.3c0,120,97.2,217.1,217,217.1s217-97.3,217-217.1c0-119.9-97.1-217.1-217-217.1
		C181.1,85.2,84,182.3,84,302.3z"/>
	<path class="st13" d="M120.9,302.3c0-99.5,80.7-180.2,180.2-180.2s180.1,80.7,180.1,180.2S400.5,482.5,301,482.5
		S120.9,401.8,120.9,302.3z M143.1,302.3c0,87.3,70.7,158.1,158,158.1S459,389.6,459,302.3s-70.7-158.1-158-158.1
		C213.7,144.2,143.1,215,143.1,302.3z"/>
	<path class="st14" d="M111.3,235.7l4.1,1.6l1-2.5c0.3-0.8,0.3-1.5,0.2-2c-0.2-0.5-0.6-1-1.3-1.2c-0.7-0.3-1.2-0.3-1.8,0.1
		c-0.6,0.3-1,0.8-1.3,1.5L111.3,235.7z M106.6,233.9l3.7,1.5l1-2.5c0.3-0.7,0.3-1.3,0.2-1.8c-0.2-0.5-0.6-0.8-1.2-1.1
		c-0.6-0.2-1.1-0.2-1.6,0c-0.5,0.3-0.8,0.8-1.2,1.5L106.6,233.9z M104.9,234.8l1.5-3.9c0.3-0.8,0.7-1.4,1.1-1.8
		c0.5-0.5,1-0.7,1.5-0.8s1,0,1.6,0.2c0.8,0.3,1.2,0.7,1.5,1.3c0.3,0.5,0.3,1.1,0.3,1.7c0.3-0.5,0.5-0.7,1-1s0.8-0.5,1.3-0.5
		c0.5-0.1,1,0,1.4,0.2c0.6,0.2,1,0.5,1.4,1c0.3,0.5,0.5,1,0.6,1.6c0.1,0.7-0.1,1.4-0.3,2.1l-1.6,4.1L104.9,234.8z"/>
	<path class="st14" d="M111.8,226.6l0.6-1.3l4.3,2c1.6,0.7,2.7,0.5,3.3-1c0.3-0.7,0.3-1.4,0-2s-0.8-1.2-1.8-1.6l-4-1.8l0.6-1.3
		l7.7,3.4l-0.6,1.3l-1.5-0.5c0.5,0.5,0.6,1,0.7,1.6s0,1.2-0.3,1.8c-0.5,1-1,1.5-1.8,1.8s-1.8,0.2-2.9-0.3L111.8,226.6z"/>
	<path class="st14" d="M116,217.4l0.6-1.3l7.6,3.7l-0.6,1.3L116,217.4z M112.9,215.1c0.1-0.3,0.3-0.5,0.5-0.5c0.3-0.1,0.5-0.1,0.8,0
		s0.5,0.3,0.5,0.6c0.1,0.3,0.1,0.5-0.1,0.8c-0.1,0.3-0.3,0.5-0.6,0.5c-0.3,0.1-0.5,0.1-0.8-0.1c-0.3-0.1-0.5-0.3-0.5-0.5
		C112.8,215.6,112.8,215.3,112.9,215.1z"/>
	<path class="st14" d="M114.3,212.1l0.7-1.3l11,5.5l-0.7,1.3L114.3,212.1z"/>
	<path class="st14" d="M122.2,207.4c-0.3,0.5-0.5,1-0.3,1.5c0,0.5,0.2,1,0.5,1.5s0.8,0.8,1.3,1.1c0.6,0.3,1.1,0.5,1.6,0.5
		s1-0.1,1.5-0.3c0.5-0.3,0.8-0.6,1-1.1c0.3-0.5,0.5-1,0.3-1.5c0-0.5-0.2-1-0.5-1.5s-0.8-0.8-1.3-1.1c-0.6-0.3-1.1-0.5-1.6-0.5
		s-1,0.1-1.5,0.3C122.9,206.5,122.6,207,122.2,207.4z M119.4,202.6l0.7-1.3l10.8,5.9l-0.6,1.1l-1.3-0.5c0.3,0.5,0.3,1,0.5,1.5
		c0.1,0.6-0.1,1.3-0.5,2c-0.5,0.8-1,1.3-1.5,1.7c-0.7,0.3-1.4,0.5-2.1,0.5c-0.8,0-1.5-0.3-2.2-0.7c-0.7-0.5-1.4-1-1.7-1.5
		c-0.5-0.6-0.7-1.3-0.7-2s0.2-1.5,0.6-2.2c0.3-0.6,0.8-1.1,1.3-1.5c0.5-0.3,1-0.5,1.6-0.5L119.4,202.6z"/>
	<path class="st14" d="M124.8,200.9l0.7-1.3l7.3,4.3l-0.7,1.3L124.8,200.9z M121.9,198.3c0.2-0.3,0.3-0.5,0.6-0.5
		c0.3-0.1,0.5,0,0.8,0.1s0.5,0.3,0.5,0.6c0.1,0.3,0,0.5-0.1,0.8c-0.2,0.3-0.3,0.5-0.6,0.5c-0.3,0.1-0.5,0-0.8-0.1
		c-0.3-0.2-0.5-0.3-0.5-0.6C121.6,198.9,121.7,198.6,121.9,198.3z"/>
	<path class="st14" d="M128.9,193.8c0.5-0.8,1.2-1.4,2-1.5c0.8-0.2,1.8,0.1,2.8,0.8l4.2,2.7l-0.8,1.2l-4.1-2.5
		c-1.5-1-2.7-0.8-3.4,0.5c-0.5,0.6-0.5,1.3-0.3,2s0.7,1.3,1.5,1.8l3.7,2.4l-0.8,1.2l-7.1-4.5l0.7-1.1l1.4,0.8
		c-0.3-0.5-0.5-1.1-0.5-1.7C128.3,195,128.6,194.3,128.9,193.8z"/>
	<path class="st14" d="M139.8,192.1c-0.1,0.5,0,1,0.2,1.2c0.2,0.3,0.3,0.5,0.5,0.6c0.5,0.3,1,0.3,1.5,0.2c0.5-0.2,1-0.7,1.4-1.2
		c0.5-0.6,0.6-1.1,0.6-1.7c0-0.5-0.3-1-0.7-1.2c-0.3-0.2-0.7-0.3-1-0.2c-0.5,0.1-0.8,0.5-1.3,1.1C140.4,191.4,140,191.8,139.8,192.1
		z M134.8,187.1c-0.3,0.5-0.5,1-0.5,1.5c0.1,0.5,0.3,0.8,0.8,1.2c0.5,0.3,1,0.5,1.5,0.3c0.5-0.1,0.8-0.5,1.2-1
		c0.3-0.5,0.5-1,0.5-1.5c-0.1-0.5-0.3-0.8-0.8-1.2c-0.5-0.3-1-0.5-1.5-0.3S135.2,186.5,134.8,187.1z M133.8,186.4
		c0.3-0.5,0.6-0.8,1-1l1.8-2.5l0.8,0.6l-0.8,1.4c0.6,0,1.1,0.2,1.6,0.5s0.8,0.7,1,1.2c0.3,0.5,0.3,1,0.3,1.5
		c-0.1,0.6-0.3,1.1-0.7,1.7c-0.3,0.5-0.6,0.7-1,1l0.2,1.2c0.2,0,0.3-0.2,0.5-0.3s0.3-0.3,0.6-0.6s0.6-0.6,1-1.1
		c0.7-0.8,1.4-1.5,2-1.5c0.7-0.2,1.3,0,1.9,0.5c0.5,0.3,0.7,0.7,1,1.1c0.2,0.5,0.3,1,0.2,1.6s-0.3,1.3-0.8,2c-0.5,0.6-1,1.1-1.5,1.5
		c-0.5,0.3-1,0.6-1.5,0.6s-1-0.1-1.5-0.5c-0.3-0.2-0.5-0.5-0.7-0.8s-0.3-0.8-0.3-1.4c-0.3,0.2-0.5,0.3-0.7,0.3
		c-0.2,0.1-0.5,0.2-0.6,0.2l-0.3-0.3l-0.3-2c-0.8,0.3-1.7,0.1-2.4-0.5c-0.5-0.3-0.8-0.7-1-1.2c-0.3-0.5-0.3-1-0.3-1.5
		S133.4,187,133.8,186.4z"/>
	<path class="st14" d="M145.7,178.2c-0.5,0.7-0.8,1.2-0.8,1.7s0.2,0.8,0.5,1.1s0.8,0.3,1.1,0.3c0.5-0.1,0.8-0.3,1.2-0.8
		c0.3-0.5,0.5-0.8,0.5-1.4c0-0.5-0.1-1-0.3-1.4c-0.3-0.5-0.5-0.8-1-1.1L145.7,178.2z M142.1,175.2c0.8-1,1.5-1.5,2.4-1.5
		c0.8-0.1,1.7,0.2,2.5,0.8l4.1,3.2l-0.8,1L149,178c0.3,0.5,0.3,1,0.3,1.6c-0.1,0.6-0.3,1.2-0.8,1.8s-0.8,1-1.4,1.1
		c-0.5,0.2-1,0.3-1.4,0.3c-0.5-0.1-0.8-0.3-1.2-0.5c-0.7-0.5-1-1.2-1-2s0.5-1.6,1.1-2.5l1.5-1.8l-0.1-0.1c-0.6-0.5-1.1-0.7-1.7-0.6
		c-0.5,0.1-1,0.3-1.5,0.8c-0.3,0.5-0.5,0.8-0.6,1.4c0,0.5,0.2,1,0.5,1.4l-1,1.1c-0.5-0.5-0.7-1-0.8-1.5s-0.1-1.1,0.1-1.6
		C141.4,176.3,141.7,175.8,142.1,175.2z"/>
	<path class="st14" d="M147.9,162.9l0.6-0.7l1,0.8l-0.5,0.5c-0.3,0.3-0.5,0.6-0.5,0.8s0.2,0.5,0.5,0.8l1.1,1l1.4-1.5l1,0.8l-1.4,1.5
		l5.4,4.9l-1,1.1l-5.4-4.9l-0.8,1l-1-0.8l0.8-1l-1.1-1c-0.6-0.5-1-1.1-1-1.6C147.1,164.1,147.4,163.5,147.9,162.9z"/>
	<path class="st14" d="M158.3,163.8c-0.6,0.6-0.8,1.1-1,1.6c0,0.5,0.1,0.8,0.5,1.1c0.3,0.3,0.7,0.5,1.1,0.5c0.5-0.1,0.8-0.3,1.3-0.7
		c0.5-0.5,0.6-0.8,0.7-1.3c0.1-0.5,0-1-0.2-1.5s-0.5-0.8-0.8-1.2L158.3,163.8z M154.9,160.6c0.8-0.8,1.7-1.3,2.5-1.3
		s1.7,0.3,2.5,1.1l3.7,3.6l-0.8,1l-1.1-1c0.2,0.5,0.3,1,0.2,1.6s-0.5,1.1-1,1.7c-0.5,0.5-1,0.8-1.5,1s-1,0.2-1.5,0.1
		c-0.5-0.1-0.8-0.3-1.2-0.7c-0.6-0.6-0.8-1.3-0.8-2.1c0.1-0.8,0.6-1.6,1.4-2.5l1.5-1.6l-0.1-0.1c-0.5-0.5-1.1-0.8-1.6-0.8
		s-1,0.3-1.5,0.7c-0.5,0.5-0.6,0.8-0.7,1.4c-0.1,0.5,0,1,0.3,1.4l-1,1c-0.5-0.5-0.6-1-0.7-1.5c-0.1-0.5,0-1.1,0.3-1.6
		C154.3,161.5,154.5,161,154.9,160.6z"/>
	<path class="st14" d="M159.3,156.6l1-1l5.9,6l-1,1L159.3,156.6z M157.1,153.3c0.2-0.2,0.5-0.3,0.7-0.3s0.5,0.1,0.7,0.3
		s0.3,0.5,0.3,0.7s-0.1,0.5-0.3,0.7s-0.5,0.3-0.7,0.3s-0.5-0.1-0.7-0.3s-0.3-0.5-0.3-0.7C156.7,153.7,156.9,153.6,157.1,153.3z"/>
	<path class="st14" d="M165.3,150.5l1,1.1l-0.3,0.3c-0.3,0.3-0.7,0.7-0.8,1.1c-0.2,0.5-0.3,0.8-0.2,1.4c0.1,0.5,0.5,1,1,1.5l2.9,3.2
		l-1,1l-5.8-6.2l1-0.8l1.2,1.1c-0.2-0.6-0.2-1.2,0-1.8C164.4,151.6,164.7,151.1,165.3,150.5z"/>
	<path class="st14" d="M170.2,147.8c-0.5,0.5-0.8,1-1,1.7s0,1.3,0.5,2l4-3.5c-0.5-0.6-1.1-0.8-1.8-0.8
		C171.3,147.1,170.7,147.4,170.2,147.8z M169.4,146.9c0.6-0.5,1.3-0.8,2-1c0.7-0.1,1.4,0,2,0.2c0.7,0.3,1.2,0.6,1.6,1.2
		c0.1,0.1,0.2,0.2,0.3,0.3s0.2,0.2,0.3,0.3l-5.1,4.4c0.5,0.5,1,0.8,1.4,1c0.5,0.2,1,0.2,1.4,0.1c0.5-0.1,0.8-0.3,1.2-0.6
		c0.5-0.5,0.8-0.8,0.8-1.3c0.1-0.5,0.1-1-0.1-1.5l1.1-1c0.3,0.8,0.5,1.5,0.3,2.3s-0.6,1.5-1.4,2.2c-0.6,0.5-1.3,0.8-2,1
		s-1.5,0.1-2.1-0.2c-0.7-0.3-1.4-0.8-2-1.5s-1-1.4-1.1-2.1c-0.2-0.8-0.2-1.5,0.1-2.1C168.3,148.1,168.8,147.4,169.4,146.9z"/>
	<path class="st14" d="M177.5,140.2l1,1.2l-0.3,0.3c-0.5,0.3-0.7,0.7-1,1.1c-0.3,0.5-0.3,0.8-0.3,1.4c0.1,0.5,0.3,1,0.8,1.6l2.7,3.3
		l-1.1,0.8l-5.3-6.6l1-0.8l1.1,1.2c-0.2-0.6-0.1-1.2,0.1-1.8C176.4,141.3,176.9,140.7,177.5,140.2z"/>
	<path class="st14" d="M182.9,144.7l1.2-1l1.1,3.9l-0.8,0.6L182.9,144.7z"/>
	<path class="st14" d="M191,140.5c-0.3,0.5-0.3,0.8-0.3,1.2c0,0.3,0.2,0.6,0.3,0.8c0.3,0.5,0.8,0.7,1.3,0.7c0.6,0,1.1-0.3,1.7-0.7
		c0.6-0.5,1-0.8,1.1-1.4c0.2-0.5,0.1-1-0.2-1.4c-0.2-0.3-0.5-0.5-1-0.5c-0.5-0.1-1,0.2-1.6,0.5C191.9,139.9,191.4,140.2,191,140.5z
		 M188.1,133.9c-0.5,0.3-0.8,0.8-1,1.2c-0.1,0.5,0,1,0.3,1.5s0.8,0.8,1.2,0.8c0.5,0.1,1-0.1,1.5-0.5s0.8-0.8,1-1.2
		c0.2-0.5,0-1-0.3-1.5s-0.7-0.8-1.2-0.8C189.2,133.4,188.6,133.6,188.1,133.9z M187.5,133c0.5-0.3,0.8-0.5,1.2-0.6l2.5-1.8l0.6,0.8
		l-1.3,1c0.5,0.2,1,0.6,1.4,1.1c0.3,0.5,0.5,1,0.5,1.5s-0.1,1-0.3,1.5c-0.3,0.5-0.7,1-1.3,1.4c-0.5,0.3-0.8,0.5-1.2,0.6l-0.3,1.1
		c0.2,0,0.3,0,0.5-0.1s0.5-0.2,0.8-0.3c0.3-0.2,0.8-0.5,1.3-0.7c1-0.6,1.8-0.8,2.5-0.8c0.7,0.1,1.2,0.5,1.6,1
		c0.3,0.5,0.5,0.8,0.5,1.4c0,0.5-0.1,1-0.5,1.6c-0.3,0.5-0.8,1-1.5,1.5c-0.6,0.5-1.3,0.7-1.9,1c-0.6,0.2-1.1,0.2-1.6,0s-1-0.5-1.3-1
		c-0.2-0.3-0.3-0.6-0.3-1c0-0.5,0-0.8,0.2-1.5c-0.3,0.1-0.5,0.1-0.7,0.1c-0.3,0-0.5,0-0.6-0.1l-0.3-0.3l0.5-2
		c-0.8-0.1-1.5-0.5-2.1-1.3c-0.3-0.5-0.5-1-0.5-1.5s0.1-1,0.3-1.5C186.4,133.8,186.9,133.3,187.5,133z"/>
	<path class="st14" d="M196.4,127.1l0.8,1.3l-0.3,0.2c-0.5,0.3-0.8,0.6-1,1c-0.3,0.3-0.5,0.8-0.3,1.3c0,0.5,0.3,1,0.6,1.7l2.3,3.6
		l-1.2,0.8l-4.5-7.1l1.1-0.7l1,1.3c-0.1-0.6,0-1.2,0.3-1.8C195.2,128,195.8,127.5,196.4,127.1z"/>
	<path class="st14" d="M201.8,125.3c-0.6,0.3-1,0.8-1.3,1.5c-0.3,0.6-0.2,1.3,0.1,2l4.6-2.7c-0.5-0.7-1-1-1.6-1.2
		C203,124.8,202.4,125,201.8,125.3z M201.2,124.2c0.7-0.5,1.5-0.6,2.1-0.6c0.7,0,1.4,0.2,2,0.6c0.6,0.3,1,0.8,1.4,1.5
		c0.1,0.1,0.1,0.3,0.2,0.3c0.1,0.1,0.2,0.3,0.2,0.3l-5.8,3.4c0.3,0.5,0.8,1,1.2,1.2c0.5,0.3,1,0.3,1.4,0.3c0.5,0,0.8-0.2,1.3-0.3
		c0.5-0.3,0.8-0.7,1.1-1.1c0.2-0.5,0.3-0.8,0.2-1.4l1.2-0.7c0.2,0.8,0.2,1.5-0.2,2.4c-0.3,0.8-0.8,1.5-1.7,1.9
		c-0.7,0.5-1.5,0.6-2.1,0.6c-0.7,0-1.5-0.2-2-0.6c-0.7-0.5-1.2-1-1.6-1.8c-0.5-0.8-0.7-1.5-0.7-2.3s0.2-1.5,0.5-2
		C199.9,125.1,200.4,124.6,201.2,124.2z"/>
	<path class="st14" d="M210.3,120.7c-0.6,0.3-1,0.8-1.4,1.4c-0.3,0.6-0.3,1.3,0,2l4.7-2.5c-0.3-0.7-0.8-1.1-1.5-1.3
		C211.6,120.2,210.9,120.3,210.3,120.7z M209.8,119.6c0.7-0.3,1.5-0.5,2.1-0.5c0.7,0,1.4,0.3,1.9,0.7c0.6,0.5,1,0.8,1.3,1.5
		c0.1,0.1,0.1,0.3,0.2,0.3c0.1,0.1,0.1,0.3,0.2,0.5l-5.9,3.1c0.3,0.6,0.7,1,1.1,1.2c0.5,0.3,0.8,0.5,1.4,0.5c0.5,0,0.8-0.1,1.3-0.3
		c0.5-0.3,1-0.6,1.1-1c0.3-0.5,0.3-0.8,0.3-1.4l1.3-0.7c0.2,0.8,0.1,1.5-0.3,2.3c-0.3,0.8-1,1.4-1.9,1.8c-0.7,0.3-1.5,0.5-2.1,0.5
		c-0.7,0-1.4-0.3-2-0.7c-0.6-0.5-1.1-1-1.5-1.9c-0.5-0.8-0.6-1.5-0.6-2.3s0.2-1.5,0.6-2C208.5,120.5,209,120,209.8,119.6z"/>
	<path class="st14" d="M219,115.2c1-0.5,1.8-0.5,2.5-0.2c0.8,0.3,1.5,1,2,2.2l2,4.5l-1.3,0.6l-2-4.3c-0.8-1.6-1.8-2.1-3-1.5
		c-0.7,0.3-1.1,0.8-1.4,1.5c-0.3,0.7-0.2,1.5,0.3,2.4l1.8,4l-1.3,0.6l-3.5-7.6l1.2-0.5l0.7,1.4c0-0.6,0.2-1.1,0.5-1.6
		C217.9,115.8,218.4,115.4,219,115.2z"/>
	<path class="st14" d="M228.1,112.6c-0.6,0.3-1.1,0.7-1.5,1.3c-0.3,0.6-0.5,1.3-0.2,2l4.9-2c-0.3-0.7-0.8-1.1-1.4-1.4
		C229.4,112.3,228.7,112.4,228.1,112.6z M227.7,111.4c0.8-0.3,1.5-0.5,2.1-0.3c0.7,0.1,1.3,0.5,1.8,0.8c0.5,0.5,1,1,1.2,1.6
		c0.1,0.1,0.1,0.3,0.2,0.3c0,0.1,0.1,0.3,0.2,0.5l-6.2,2.5c0.3,0.6,0.6,1,1,1.4c0.5,0.3,0.8,0.5,1.3,0.5c0.5,0.1,0.8,0,1.3-0.2
		c0.6-0.2,1-0.5,1.3-1s0.5-0.8,0.5-1.4l1.3-0.5c0.1,0.8-0.1,1.5-0.5,2.3c-0.5,0.7-1.1,1.3-2,1.6c-0.8,0.3-1.5,0.5-2.2,0.3
		c-0.7-0.1-1.4-0.5-2-0.8c-0.6-0.5-1-1.1-1.4-2c-0.3-0.8-0.5-1.6-0.3-2.4c0.1-0.8,0.3-1.5,0.8-2
		C226.3,112.2,226.9,111.8,227.7,111.4z"/>
	<path class="st14" d="M237.5,107.9l0.5,1.5l-0.3,0.2c-0.5,0.2-0.8,0.5-1.2,0.7c-0.3,0.3-0.6,0.7-0.7,1.2c-0.1,0.5,0,1.1,0.3,1.8
		l1.5,4l-1.4,0.5l-2.8-8l1.2-0.5l0.7,1.5c0.1-0.6,0.3-1.2,0.7-1.6C236.2,108.5,236.8,108.1,237.5,107.9z"/>
	<path class="st14" d="M241.1,113.9l1.5-0.5l-0.3,4.1l-1,0.3L241.1,113.9z"/>
	<path class="st14" d="M250.7,108.7c-0.8,0.3-1.4,0.5-1.6,0.8c-0.3,0.3-0.3,0.8-0.3,1.2c0.1,0.4,0.3,0.8,0.8,1s0.8,0.2,1.5,0
		c0.5-0.2,1-0.5,1.3-0.8s0.5-0.8,0.6-1.3s0.1-1-0.1-1.5L250.7,108.7z M249.5,104.2c1.1-0.3,2-0.3,2.8,0.3c0.8,0.5,1.3,1.2,1.5,2.2
		l1.4,5l-1.3,0.3l-0.5-1.5c-0.1,0.5-0.3,1-0.7,1.5c-0.3,0.5-1,0.8-1.6,1c-0.7,0.2-1.3,0.3-1.8,0.1c-0.5-0.2-1-0.3-1.3-0.7
		c-0.3-0.3-0.5-0.7-0.7-1.2c-0.3-0.8-0.1-1.5,0.5-2.2c0.5-0.6,1.3-1.1,2.4-1.4l2.2-0.6l0,0c-0.2-0.7-0.5-1.2-1-1.5s-1-0.3-1.6-0.2
		c-0.5,0.2-1,0.5-1.3,0.8s-0.5,0.8-0.5,1.4l-1.5,0.3c-0.1-0.6,0-1.2,0.2-1.7c0.3-0.5,0.6-1,1-1.3
		C248.2,104.5,248.9,104.4,249.5,104.2z"/>
	<path class="st14" d="M259.3,101.9c1-0.2,1.8-0.1,2.5,0.5c0.7,0.5,1.2,1.3,1.5,2.5l1,4.9l-1.4,0.3l-1-4.7c-0.3-1.7-1.3-2.5-2.7-2.1
		c-0.7,0.2-1.3,0.5-1.6,1.2c-0.3,0.6-0.5,1.5-0.3,2.4l1,4.2l-1.4,0.3l-1.8-8.2l1.3-0.3l0.5,1.5c0.2-0.6,0.5-1.1,0.8-1.5
		C258.1,102.3,258.7,102,259.3,101.9z"/>
	<path class="st14" d="M268.9,101.4c-0.5,0.1-1,0.3-1.5,0.7c-0.5,0.3-0.7,0.8-0.8,1.3c-0.2,0.5-0.2,1.1-0.1,1.7s0.3,1.2,0.6,1.6
		c0.3,0.5,0.7,0.8,1.2,1s1,0.3,1.5,0.2c0.6-0.1,1-0.3,1.5-0.7c0.5-0.3,0.7-0.8,0.8-1.3c0.2-0.5,0.2-1.1,0.1-1.7s-0.3-1.2-0.6-1.6
		c-0.3-0.5-0.7-0.8-1.2-1S269.4,101.3,268.9,101.4z M271,96.1l1.5-0.3l2,12l-1.3,0.2l-0.3-1.4c-0.2,0.5-0.5,0.8-1,1.3
		s-1,0.7-1.8,0.8c-0.8,0.2-1.6,0.1-2.3-0.3c-0.7-0.3-1.3-0.7-1.7-1.4c-0.5-0.7-0.8-1.4-0.8-2.1c-0.2-0.8-0.1-1.6,0.2-2.3
		c0.3-0.7,0.7-1.3,1.2-1.8c0.6-0.5,1.3-0.8,2.1-1c0.7-0.1,1.3-0.1,1.9,0.2c0.6,0.2,1,0.5,1.5,1L271,96.1z"/>
	<path class="st14" d="M284.2,99.4c-0.6,0.1-1,0.3-1.5,0.5s-0.7,0.7-1,1.2c-0.2,0.5-0.3,1-0.3,1.7s0.3,1.2,0.5,1.6
		c0.3,0.5,0.7,0.8,1.1,1c0.5,0.3,1,0.3,1.5,0.3c0.6-0.1,1-0.3,1.5-0.5c0.5-0.3,0.7-0.7,1-1.2c0.2-0.5,0.3-1,0.3-1.7
		c-0.1-0.7-0.3-1.2-0.5-1.6c-0.3-0.5-0.7-0.8-1.1-1C285.4,99.5,284.8,99.4,284.2,99.4z M279.6,95l1.5-0.1l0.5,5.2
		c0.3-0.5,0.6-0.8,1.1-1.2c0.5-0.3,1.1-0.6,1.9-0.7s1.6,0.1,2.2,0.5c0.6,0.3,1.2,0.8,1.6,1.5c0.5,0.6,0.7,1.4,0.7,2.2
		c0.1,0.8,0,1.6-0.3,2.3c-0.3,0.7-0.8,1.3-1.4,1.7c-0.6,0.5-1.3,0.7-2.1,0.8c-0.7,0.1-1.3,0-1.9-0.3s-1-0.6-1.4-1.1v1.5l-1.3,0.1
		L279.6,95z"/>
	<path class="st14" d="M294.4,98.8c-0.7,0-1.3,0.3-1.8,0.7c-0.5,0.5-0.8,1-0.8,1.9l5.2-0.2c-0.1-0.8-0.3-1.4-0.8-1.8
		C295.7,99,295.2,98.8,294.4,98.8z M294.4,97.6c0.8,0,1.5,0.2,2.1,0.5s1.1,0.8,1.5,1.5c0.3,0.6,0.5,1.3,0.5,2c0,0.2,0,0.3,0,0.5
		c0,0.1,0,0.3,0,0.5l-6.7,0.3c0.1,0.7,0.3,1.2,0.5,1.6c0.3,0.5,0.6,0.8,1,1c0.5,0.2,0.8,0.3,1.3,0.3c0.6,0,1.1-0.2,1.5-0.5
		c0.5-0.3,0.7-0.7,0.8-1.1h1.5c-0.2,0.8-0.6,1.5-1.3,2c-0.6,0.5-1.5,0.8-2.5,0.8c-0.8,0-1.5-0.2-2.1-0.5c-0.7-0.3-1.1-0.8-1.5-1.5
		c-0.3-0.7-0.6-1.5-0.6-2.3s0.1-1.7,0.5-2.4c0.3-0.7,0.8-1.2,1.5-1.6C292.9,97.9,293.7,97.6,294.4,97.6z"/>
	<path class="st14" d="M301.4,95.7h1.3v2h2.5v1.2h-2.5v4.7c0,0.5,0.1,1,0.3,1.1c0.2,0.2,0.6,0.3,1.1,0.3h0.8v1.2h-1.3
		c-0.8,0-1.4-0.2-1.8-0.6c-0.5-0.3-0.7-1-0.7-2v-4.7h-1.5v-1.2h1.5L301.4,95.7z"/>
	<path class="st14" d="M308.3,95.8l1.3,0.1l-0.1,2L312,98v1.2l-2.5-0.1l-0.2,4.7c0,0.5,0.1,1,0.3,1.1c0.2,0.2,0.6,0.3,1.1,0.3h0.8
		l-0.1,1.2l-1.3-0.1c-0.8,0-1.4-0.3-1.8-0.7c-0.5-0.5-0.6-1.1-0.6-2l0.2-4.7l-1.5-0.1l0.1-1.2l1.5,0.1L308.3,95.8z"/>
	<path class="st14" d="M317.5,99.4c-0.7-0.1-1.3,0.1-1.9,0.5c-0.6,0.3-1,1-1,1.7l5.2,0.5c0-0.8-0.2-1.4-0.6-1.9
		C318.8,99.7,318.2,99.5,317.5,99.4z M317.7,98.2c0.8,0.1,1.5,0.3,2,0.7c0.6,0.5,1,1,1.3,1.5c0.3,0.6,0.3,1.3,0.3,2
		c0,0.1,0,0.3,0,0.3c0,0.1,0,0.3,0,0.5l-6.7-0.6c0,0.7,0.1,1.2,0.3,1.6c0.3,0.5,0.5,0.8,1,1s0.8,0.5,1.3,0.5c0.6,0.1,1.1,0,1.5-0.3
		c0.5-0.3,0.8-0.6,1-1l1.5,0.1c-0.3,0.8-0.8,1.4-1.5,1.9s-1.5,0.7-2.5,0.6c-0.8-0.1-1.5-0.3-2.1-0.8s-1-1-1.4-1.7
		c-0.3-0.7-0.5-1.5-0.3-2.4c0.1-0.8,0.3-1.6,0.7-2.3c0.5-0.6,1-1.1,1.6-1.5C316.1,98.2,316.9,98.2,317.7,98.2z"/>
	<path class="st14" d="M328.2,99.3l-0.2,1.5l-0.5-0.1c-0.5-0.1-1,0-1.5,0.1c-0.5,0.2-0.8,0.5-1.1,0.8c-0.3,0.5-0.5,1-0.6,1.7
		l-0.5,4.2l-1.5-0.2l1-8.4l1.3,0.2l-0.1,1.6c0.3-0.5,0.8-1,1.4-1.2C326.7,99.3,327.4,99.2,328.2,99.3z"/>
	<path class="st14" d="M337.8,100.9c1,0.2,1.8,0.6,2.4,1.3c0.6,0.7,0.8,1.5,0.8,2.3l-1.5-0.3c0-0.5-0.2-1-0.6-1.4
		c-0.5-0.3-0.8-0.6-1.5-0.7c-0.5-0.1-1-0.1-1.4,0.1c-0.5,0.2-0.8,0.5-1.2,0.8c-0.3,0.5-0.6,1-0.7,1.7c-0.2,0.7-0.1,1.3,0.1,1.8
		s0.5,1,0.8,1.3s0.8,0.5,1.3,0.6c0.6,0.1,1.1,0.1,1.6-0.2c0.5-0.2,0.8-0.6,1-1l1.5,0.3c-0.3,0.8-0.8,1.5-1.7,1.8
		c-0.8,0.5-1.7,0.5-2.7,0.3c-0.8-0.2-1.5-0.5-2-1c-0.6-0.5-1-1.1-1.2-1.8c-0.3-0.7-0.3-1.5-0.1-2.4c0.2-0.8,0.5-1.6,1-2.2
		s1.1-1,1.8-1.3C336.3,100.9,337,100.7,337.8,100.9z"/>
	<path class="st14" d="M347.1,104.1c-0.5-0.1-1-0.1-1.5,0c-0.5,0.2-0.8,0.5-1.3,0.8c-0.3,0.5-0.7,1-0.8,1.6c-0.2,0.7-0.2,1.3,0,1.8
		s0.5,1,0.8,1.3s0.8,0.5,1.2,0.7c0.5,0.1,1,0.1,1.5,0c0.5-0.2,0.8-0.5,1.3-0.8c0.3-0.5,0.6-1,0.8-1.6c0.2-0.7,0.2-1.3,0-1.8
		s-0.5-1-0.8-1.3C348,104.5,347.5,104.3,347.1,104.1z M347.3,103c0.8,0.2,1.5,0.5,2,1s1,1.1,1.1,1.9c0.2,0.8,0.2,1.5,0,2.4
		c-0.2,0.8-0.6,1.6-1.1,2.1c-0.5,0.6-1.1,1-1.9,1.1c-0.7,0.2-1.5,0.2-2.2,0c-0.8-0.2-1.5-0.5-2-1s-1-1.1-1.1-1.9
		c-0.2-0.8-0.2-1.5,0-2.4s0.6-1.6,1.1-2.1c0.5-0.6,1.1-1,1.9-1.1C345.8,102.8,346.6,102.8,347.3,103z"/>
	<path class="st14" d="M357.6,105.8c1,0.3,1.6,0.8,2,1.5c0.5,0.8,0.5,1.7,0.1,3l-1.4,4.7l-1.4-0.5l1.4-4.6c0.5-1.7,0-2.7-1.4-3.2
		c-0.7-0.2-1.4-0.2-2,0.3c-0.6,0.3-1,1-1.4,2l-1.3,4.2l-1.4-0.5l2.4-8.1l1.3,0.3l-0.3,1.5c0.5-0.5,1-0.7,1.5-0.8
		C356.3,105.5,356.9,105.6,357.6,105.8z"/>
	<path class="st14" d="M367.1,108.8c1,0.3,1.6,0.8,2,1.6c0.3,0.8,0.3,1.8-0.1,3l-1.6,4.7l-1.4-0.5l1.6-4.5c0.6-1.7,0.2-2.7-1.2-3.2
		c-0.7-0.3-1.4-0.2-2,0.2c-0.6,0.3-1.1,1-1.5,1.9l-1.5,4.2l-1.4-0.5l2.8-8l1.2,0.5l-0.5,1.5c0.5-0.5,1-0.7,1.5-0.8
		C365.8,108.5,366.4,108.5,367.1,108.8z"/>
	<path class="st14" d="M375.4,113.2c-0.6-0.3-1.3-0.3-1.9-0.1c-0.7,0.2-1.2,0.6-1.5,1.4l4.9,2c0.3-0.7,0.3-1.4-0.1-2
		C376.4,114,376,113.5,375.4,113.2z M375.7,112.1c0.8,0.3,1.4,0.8,1.8,1.3c0.5,0.6,0.7,1.2,0.7,1.9c0.1,0.7,0,1.4-0.3,2
		c-0.1,0.1-0.1,0.3-0.2,0.3c-0.1,0.1-0.1,0.3-0.2,0.5l-6.2-2.5c-0.2,0.6-0.3,1.2-0.2,1.7c0.1,0.5,0.3,1,0.6,1.3
		c0.3,0.3,0.7,0.6,1.1,0.8c0.5,0.3,1,0.3,1.5,0.2c0.5-0.1,0.8-0.3,1.2-0.7l1.3,0.5c-0.5,0.7-1.1,1.1-2,1.3c-0.8,0.3-1.6,0.2-2.5-0.2
		c-0.8-0.3-1.4-0.8-1.8-1.3c-0.5-0.5-0.7-1.3-0.8-2c-0.1-0.8,0-1.5,0.3-2.4c0.3-0.8,0.8-1.5,1.4-2s1.2-0.8,2-0.8
		C374.3,111.7,375,111.9,375.7,112.1z"/>
	<path class="st14" d="M384.8,116.1c1,0.5,1.5,1,2,1.8s0.5,1.6,0.3,2.5l-1.4-0.6c0.1-0.5,0-1-0.3-1.5s-0.7-0.8-1.2-1
		s-0.8-0.3-1.4-0.3s-1,0.3-1.4,0.5c-0.5,0.3-0.8,0.8-1.1,1.5c-0.3,0.7-0.5,1.3-0.5,1.8s0.2,1,0.5,1.5s0.7,0.7,1,1
		c0.5,0.3,1.1,0.3,1.6,0.3c0.5-0.1,1-0.3,1.3-0.8l1.4,0.6c-0.5,0.7-1.2,1.1-2,1.4c-0.8,0.2-1.7,0.1-2.7-0.3
		c-0.8-0.3-1.3-0.8-1.7-1.5c-0.5-0.6-0.7-1.3-0.7-2c-0.1-0.8,0.1-1.5,0.5-2.4c0.3-0.8,0.8-1.5,1.5-1.9c0.6-0.5,1.3-0.7,2-0.8
		C383.4,115.6,384,115.8,384.8,116.1z"/>
	<path class="st14" d="M391.8,117.5l1.1,0.6l-1,1.8l2.2,1.1l-0.6,1.1l-2.2-1.1l-2.1,4.2c-0.3,0.5-0.3,0.8-0.2,1.1
		c0.1,0.3,0.5,0.5,0.8,0.8l0.8,0.5l-0.6,1.1l-1.2-0.6c-0.7-0.3-1.1-0.8-1.4-1.4c-0.3-0.5-0.1-1.3,0.3-2.1l2.1-4.2l-1.3-0.7l0.6-1.1
		l1.3,0.7L391.8,117.5z"/>
	<path class="st14" d="M398.7,124.6c-0.6-0.3-1.2-0.5-1.9-0.3c-0.7,0.1-1.2,0.5-1.7,1.1l4.6,2.7c0.3-0.7,0.5-1.4,0.2-2
		C399.8,125.4,399.4,125,398.7,124.6z M399.4,123.6c0.7,0.5,1.3,1,1.5,1.5c0.3,0.6,0.5,1.3,0.5,2s-0.2,1.4-0.5,2
		c-0.1,0.1-0.1,0.2-0.2,0.3s-0.2,0.3-0.3,0.3l-5.9-3.3c-0.3,0.6-0.5,1.1-0.5,1.6c0,0.5,0.2,1,0.5,1.4c0.3,0.5,0.6,0.7,1,1
		c0.5,0.3,1,0.5,1.5,0.3c0.5,0,1-0.3,1.3-0.5l1.2,0.7c-0.6,0.6-1.3,1-2.1,1c-0.8,0.1-1.7,0-2.5-0.5c-0.7-0.5-1.3-1-1.6-1.5
		c-0.3-0.6-0.5-1.4-0.5-2s0.3-1.5,0.7-2.3c0.5-0.8,1-1.4,1.6-1.8c0.7-0.5,1.3-0.6,2-0.6C397.9,122.9,398.6,123.1,399.4,123.6z"/>
	<path class="st14" d="M407.2,129.8c-0.5-0.3-1-0.5-1.5-0.5s-1,0.2-1.5,0.5s-0.8,0.7-1.2,1.2c-0.3,0.5-0.5,1.1-0.6,1.6
		c0,0.5,0,1,0.3,1.5s0.6,0.8,1,1.1c0.5,0.3,1,0.5,1.5,0.5s1-0.2,1.5-0.5s0.8-0.7,1.2-1.2c0.3-0.5,0.5-1.1,0.6-1.6s0-1-0.3-1.5
		C408,130.5,407.7,130,407.2,129.8z M412.3,127.2l1.2,0.8l-6.5,10.3l-1.1-0.7l0.7-1.3c-0.5,0.2-1,0.3-1.6,0.3s-1.3-0.2-1.9-0.6
		c-0.7-0.5-1.2-1-1.5-1.7s-0.5-1.4-0.5-2.1c0.1-0.8,0.3-1.5,0.8-2.2s1-1.3,1.7-1.6s1.4-0.6,2-0.5c0.8,0,1.5,0.3,2.2,0.7
		c0.6,0.3,1,0.8,1.4,1.4c0.3,0.5,0.5,1.1,0.5,1.7L412.3,127.2z"/>
	<path class="st14" d="M418.7,131.8l1.2,1l-4.2,9.7l8.6-6.4l1.3,1l-4,9.8l8.3-6.6l1.2,1l-9.8,7.4l-1.3-1l3.7-9.5l-8.3,6l-1.3-1
		L418.7,131.8z"/>
	<path class="st14" d="M432.3,148.4c-0.5-0.5-1.1-0.7-1.8-0.7c-0.7,0-1.3,0.3-1.9,0.8l4,3.5c0.5-0.6,0.7-1.2,0.6-1.9
		C433.2,149.5,432.8,148.9,432.3,148.4z M433.1,147.6c0.6,0.5,1,1.1,1.3,1.8c0.2,0.7,0.3,1.4,0.1,2c-0.2,0.7-0.5,1.3-1,1.8
		c-0.1,0.1-0.2,0.2-0.3,0.3c-0.1,0.1-0.2,0.2-0.3,0.3l-5.1-4.4c-0.5,0.5-0.7,1-0.7,1.5c-0.1,0.5,0,1,0.1,1.4
		c0.2,0.5,0.5,0.8,0.8,1.1c0.5,0.5,1,0.6,1.4,0.7c0.5,0.1,1,0,1.4-0.3l1.1,1c-0.7,0.5-1.5,0.7-2.3,0.6c-0.8,0-1.6-0.3-2.4-1
		c-0.6-0.5-1-1.1-1.3-1.8s-0.3-1.5-0.1-2.1c0.2-0.7,0.5-1.5,1.1-2.1c0.6-0.7,1.2-1.1,2-1.5c0.7-0.3,1.5-0.3,2.1-0.2
		C431.9,146.6,432.4,147,433.1,147.6z"/>
	<path class="st14" d="M439.7,153.5c0.7,0.6,1,1.3,1.1,2s-0.1,1.5-0.6,2l-1-1c0.3-0.3,0.3-0.7,0.3-1.1c-0.1-0.5-0.3-0.8-0.7-1.1
		c-0.3-0.3-0.8-0.5-1.1-0.6c-0.3,0-0.7,0.1-0.8,0.3c-0.3,0.3-0.3,0.6-0.2,1c0.2,0.5,0.3,0.8,0.7,1.4c0.3,0.5,0.6,0.8,0.8,1.4
		c0.3,0.5,0.3,0.8,0.3,1.4c0,0.5-0.3,0.8-0.7,1.4c-0.5,0.6-1.2,0.8-2,0.8s-1.5-0.5-2.2-1.1c-0.8-0.7-1.2-1.5-1.3-2.3
		c-0.2-0.8,0.1-1.6,0.6-2.3l1,1c-0.3,0.5-0.3,0.8-0.3,1.3c0.1,0.5,0.3,1,0.8,1.5s0.8,0.6,1.3,0.7c0.5,0.1,0.7-0.1,1-0.3
		c0.3-0.3,0.5-0.8,0.3-1.1c-0.2-0.5-0.5-0.8-0.8-1.5c-0.3-0.3-0.5-0.8-0.7-1.2c-0.2-0.5-0.3-0.8-0.3-1.3s0.2-0.8,0.5-1.2
		c0.5-0.5,1.1-0.8,1.9-0.8C438.2,152.7,439,152.9,439.7,153.5z"/>
	<path class="st14" d="M445.8,156.9l0.8,0.8l-1.5,1.5l1.7,1.8l-0.8,0.8l-1.7-1.8l-3.3,3.2c-0.5,0.3-0.6,0.7-0.5,1
		c0,0.3,0.2,0.6,0.6,1l0.6,0.6l-0.8,0.8l-1-1c-0.5-0.6-0.8-1.1-0.8-1.7s0.3-1.2,1-1.9l3.3-3.2l-1-1l0.8-0.8l1,1L445.8,156.9z"/>
	<path class="st14" d="M453.9,163.4l1.1,1.3l-3.6,8.6l9.1-2.1l1.1,1.3l-9.1,7.7l-1-1.1l7.1-6l-8.4,2l-0.7-0.8l3.2-8l-7.1,6l-1-1.1
		L453.9,163.4z"/>
	<path class="st14" d="M460.5,176.8l0.8,1.1l-6.6,5.2l-0.8-1.1L460.5,176.8z M464,175c0.2,0.2,0.3,0.5,0.2,0.7
		c-0.1,0.3-0.2,0.5-0.3,0.7c-0.3,0.2-0.5,0.3-0.8,0.2c-0.3,0-0.5-0.2-0.7-0.5s-0.3-0.5-0.2-0.7c0-0.3,0.2-0.5,0.5-0.7
		c0.2-0.2,0.5-0.3,0.7-0.2C463.6,174.7,463.9,174.9,464,175z"/>
	<path class="st14" d="M464.6,183.8c-0.3-0.5-0.8-0.8-1.2-1c-0.5-0.2-1-0.3-1.5-0.2s-1,0.3-1.5,0.7c-0.5,0.3-0.8,0.8-1.1,1.3
		c-0.3,0.5-0.3,1-0.3,1.5s0.3,1,0.6,1.5c0.3,0.5,0.8,0.8,1.2,1c0.5,0.2,1,0.3,1.5,0.2s1-0.3,1.5-0.7c0.5-0.3,0.8-0.8,1.1-1.3
		c0.3-0.5,0.3-1,0.3-1.5S464.9,184.3,464.6,183.8z M470.3,183.3l0.8,1.2l-9.9,7.2l-0.8-1l1-1c-0.5,0-1-0.1-1.6-0.3s-1.1-0.7-1.5-1.3
		c-0.5-0.7-0.8-1.4-0.8-2.1c-0.1-0.8,0.1-1.5,0.5-2.1c0.3-0.7,0.8-1.3,1.5-1.8s1.5-0.8,2.1-1c0.8-0.1,1.5,0,2.1,0.3
		c0.7,0.3,1.3,0.8,1.8,1.5c0.5,0.6,0.7,1.1,0.8,1.7c0.1,0.6,0,1.2-0.3,1.7L470.3,183.3z"/>
	<path class="st14" d="M472.5,186.5l0.8,1.2l-10.2,6.9l-0.8-1.2L472.5,186.5z"/>
	<path class="st14" d="M469.6,197.2c-0.5-0.7-0.8-1.1-1.3-1.3s-0.8-0.1-1.2,0.2c-0.3,0.3-0.6,0.6-0.7,1c-0.1,0.5,0.1,0.8,0.5,1.4
		c0.3,0.5,0.7,0.8,1.1,1c0.5,0.2,1,0.3,1.5,0.2s1-0.3,1.4-0.5L469.6,197.2z M473.5,194.7c0.7,1,0.8,2,0.6,2.7
		c-0.3,0.8-0.8,1.5-1.6,2.1l-4.4,2.8l-0.7-1.1l1.3-0.8c-0.5,0.1-1,0-1.6-0.3c-0.5-0.2-1-0.7-1.5-1.3s-0.6-1.1-0.7-1.7
		c-0.1-0.5,0-1,0.3-1.4c0.3-0.5,0.5-0.8,1-1c0.8-0.5,1.5-0.5,2.2-0.3c0.8,0.3,1.5,1,2,1.9l1.2,2l0.1-0.1c0.6-0.5,1-0.8,1.1-1.4
		c0.1-0.5,0-1-0.3-1.6c-0.3-0.5-0.7-0.8-1.1-1c-0.5-0.2-1-0.2-1.5,0l-0.8-1.3c0.6-0.3,1.1-0.5,1.6-0.3c0.5,0.1,1,0.3,1.5,0.6
		C472.8,193.8,473.1,194.2,473.5,194.7z"/>
	<path class="st14" d="M478.6,203.3c0.5,0.8,0.6,1.7,0.5,2.5c-0.3,0.8-0.8,1.5-2,2.1l-4.2,2.5l-0.7-1.3l4.2-2.4c1.5-0.8,2-2,1.2-3.2
		c-0.3-0.6-0.8-1-1.6-1.2c-0.7-0.2-1.5,0-2.3,0.5l-3.8,2.2l-0.7-1.3l7.3-4.2l0.7,1.1l-1.3,0.8c0.6,0,1.2,0.1,1.7,0.5
		C477.9,202.4,478.3,202.8,478.6,203.3z"/>
	<path class="st14" d="M482.1,212.2c-0.3-0.5-0.6-0.8-1-1.2c-0.5-0.3-1-0.5-1.5-0.5s-1.1,0.2-1.6,0.5c-0.6,0.3-1,0.7-1.4,1.1
		c-0.3,0.5-0.5,1-0.5,1.5s0.1,1,0.3,1.5c0.3,0.5,0.6,0.8,1,1.2c0.5,0.3,1,0.5,1.5,0.5s1.1-0.2,1.7-0.5s1-0.7,1.3-1.1
		c0.3-0.5,0.5-1,0.5-1.5C482.5,213.3,482.3,212.8,482.1,212.2z M487.7,212.6l0.7,1.3l-10.8,5.6l-0.7-1.2l1.2-0.8
		c-0.5-0.1-1-0.3-1.5-0.5c-0.5-0.3-1-0.8-1.3-1.5c-0.5-0.8-0.6-1.5-0.5-2.2c0.1-0.8,0.3-1.5,0.8-2c0.5-0.6,1-1.1,1.8-1.5
		c0.8-0.5,1.5-0.6,2.3-0.6s1.5,0.2,2,0.6c0.6,0.5,1.1,1,1.5,1.7c0.3,0.6,0.5,1.2,0.5,1.8s-0.2,1.2-0.5,1.7L487.7,212.6z"/>
	<path class="st14" d="M487.4,220.5c0.3,0.8,0.5,1.6,0.3,2.3s-0.6,1.3-1.4,1.7l-0.6-1.3c0.3-0.3,0.6-0.5,0.7-1s0-0.8-0.2-1.3
		s-0.5-0.8-0.8-1s-0.6-0.2-1,0c-0.3,0.2-0.5,0.5-0.5,0.8c0,0.4,0,1,0.2,1.5c0.1,0.5,0.2,1,0.3,1.5c0.1,0.5,0,1-0.2,1.4
		c-0.2,0.5-0.5,0.8-1.1,1c-0.7,0.3-1.4,0.3-2,0c-0.7-0.3-1.3-1-1.7-1.9c-0.4-0.9-0.5-1.8-0.3-2.7c0.2-0.8,0.7-1.5,1.5-2l0.6,1.4
		c-0.3,0.3-0.6,0.7-0.8,1.1c-0.2,0.5-0.1,1,0.2,1.6c0.3,0.5,0.6,1,1,1c0.3,0.2,0.7,0.2,1,0c0.5-0.2,0.7-0.5,0.7-1s-0.1-1-0.3-1.6
		c-0.1-0.5-0.2-1-0.2-1.4c0-0.5,0-1,0.2-1.4c0.2-0.5,0.5-0.8,1-1c0.7-0.3,1.4-0.3,2,0C486.5,219.1,487,219.7,487.4,220.5z"/>
	<path class="st15" d="M231.4,78c1-0.3,2-0.3,2.7,0c0.8,0.3,1.5,0.8,1.9,1.7l-1.2,0.3c-0.3-0.5-0.8-0.8-1.3-1.1
		c-0.5-0.2-1.2-0.2-1.9,0s-1.2,0.5-1.5,1c-0.5,0.5-0.7,1-0.8,1.6c-0.1,0.7,0,1.4,0.3,2.1c0.3,0.8,0.6,1.5,1,1.9c0.5,0.5,1,0.8,1.5,1
		c0.6,0.2,1.2,0.2,1.9-0.1c0.7-0.3,1.3-0.6,1.5-1c0.3-0.5,0.5-1,0.5-1.6l1.2-0.3c0.1,1-0.1,1.7-0.6,2.5c-0.5,0.7-1.3,1.2-2.3,1.5
		c-0.8,0.3-1.7,0.3-2.5,0.1c-0.8-0.2-1.5-0.6-2-1.2c-0.6-0.6-1-1.4-1.3-2.3c-0.3-1-0.3-1.8-0.3-2.7c0.1-0.8,0.5-1.5,1-2.1
		C229.7,78.8,230.4,78.3,231.4,78z"/>
	<path class="st15" d="M236.9,76.6l1.1-0.3l2.2,8.3l4.2-1.1l0.3,0.8l-5.4,1.5L236.9,76.6z"/>
	<path class="st15" d="M243.8,74.8l1.1-0.3l2.2,9.3l-1.1,0.3L243.8,74.8z"/>
	<path class="st15" d="M247,74l1.3-0.3l4.7,5.8l2-7.1l1.3-0.3l2,9.3l-1.1,0.3l-1.5-7.3l-1.9,6.6l-0.8,0.2l-4.3-5.3l1.5,7.3l-1.1,0.3
		L247,74z"/>
	<path class="st15" d="M262,72.5l-1,4.9l3.3-0.5L262,72.5z M261.2,71.2l1.2-0.2l4.9,8.8l-1.2,0.2l-1.3-2.3l-4,0.7l-0.5,2.5l-1.2,0.2
		L261.2,71.2z"/>
	<path class="st15" d="M266.7,70.3l6.8-0.8l0.1,1l-2.8,0.3l1,8.5l-1.1,0.2l-1-8.5l-2.8,0.3L266.7,70.3z"/>
	<path class="st15" d="M274.9,69.4l5.9-0.5l0.1,1l-4.7,0.5l0.3,3.3l4.3-0.5l0.1,1l-4.3,0.5l0.3,3.4l4.7-0.5l0.1,1l-5.9,0.5
		L274.9,69.4z"/>
	<path class="st15" d="M287.4,69.4l0.2,3.7l1.9-0.1c0.8,0,1.3-0.3,1.5-0.6c0.3-0.3,0.5-0.8,0.5-1.4s-0.2-1-0.6-1.3
		c-0.5-0.3-0.8-0.5-1.6-0.5L287.4,69.4z M286.3,68.4l3-0.2c0.8,0,1.4,0.1,1.9,0.3c0.5,0.3,0.8,0.6,1.1,1c0.3,0.5,0.3,0.8,0.5,1.5
		c0,0.6-0.1,1.1-0.5,1.6c-0.3,0.5-0.8,0.8-1.5,1.1l2.2,4l-1.4,0.1l-2.1-3.8h-0.1l-1.9,0.1l0.2,3.9h-1.1L286.3,68.4z"/>
	<path class="st15" d="M294.5,68.1h5.9v1h-4.7v3.3h4.3v1h-4.3v3.4h4.7v1h-5.9V68.1z"/>
	<path class="st15" d="M305.2,68c0.6,0,1.1,0.2,1.5,0.5s0.8,0.6,1,1c0.3,0.5,0.3,0.8,0.3,1.4h-1.2c0-0.3-0.1-0.5-0.2-0.8
		c-0.2-0.3-0.3-0.5-0.6-0.7c-0.3-0.2-0.6-0.3-1-0.3c-0.5,0-1,0.1-1.3,0.3c-0.3,0.3-0.5,0.7-0.5,1.1c0,0.5,0.1,0.7,0.3,1
		c0.3,0.3,0.5,0.5,1,0.6c0.5,0.2,0.8,0.3,1.5,0.5c0.5,0.2,0.8,0.3,1.2,0.6c0.3,0.3,0.6,0.5,0.8,0.8c0.2,0.3,0.3,0.8,0.3,1.4
		c0,0.5-0.2,0.8-0.5,1.3s-0.6,0.7-1.1,1s-1.1,0.3-1.8,0.3c-0.7,0-1.3-0.2-1.8-0.5s-0.8-0.6-1.2-1.1c-0.3-0.5-0.5-1-0.3-1.6h1.2
		c0,0.3,0.1,0.7,0.3,1c0.2,0.3,0.5,0.6,0.8,0.8c0.3,0.2,0.8,0.3,1.2,0.3c0.7,0,1.1-0.1,1.5-0.5c0.3-0.3,0.5-0.7,0.6-1.1
		c0-0.5-0.1-0.7-0.3-1c-0.2-0.3-0.3-0.5-0.7-0.6c-0.3-0.2-0.6-0.3-1-0.5c-0.3-0.1-0.7-0.3-1.1-0.5c-0.7-0.3-1.3-0.6-1.6-1
		c-0.3-0.5-0.5-0.8-0.5-1.5c0-0.5,0.2-1,0.5-1.4c0.3-0.5,0.6-0.7,1-1C304,68.1,304.5,68,305.2,68z"/>
	<path class="st15" d="M310.2,68.4l1.1,0.1l-0.5,9.5l-1.1-0.1L310.2,68.4z"/>
	<path class="st15" d="M313.4,68.6l1.1,0.1l-0.6,8.6l4.4,0.3l-0.1,1l-5.5-0.5L313.4,68.6z"/>
	<path class="st15" d="M320.5,69.1l1.1,0.1l-1,9.4l-1.1-0.1L320.5,69.1z"/>
	<path class="st15" d="M323.7,69.5l5.9,0.7l-0.1,1l-4.7-0.6l-0.5,3.3l4.3,0.5l-0.1,1l-4.3-0.5l-0.5,3.4l4.7,0.6l-0.1,1l-5.9-0.7
		L323.7,69.5z"/>
	<path class="st15" d="M331.4,70.4l1.1,0.2l3.8,8.3l1.2-7.5l1.1,0.2l-1.5,9.3l-1.1-0.2l-3.8-8.3l-1.2,7.5l-1.1-0.2L331.4,70.4z"/>
	<path class="st15" d="M344.9,72.5c1,0.2,1.9,0.7,2.5,1.3c0.6,0.6,0.8,1.5,0.8,2.4l-1.3-0.3c0-0.6-0.3-1.1-0.6-1.5
		c-0.3-0.5-1-0.8-1.7-0.8c-0.7-0.2-1.3-0.1-1.9,0.1s-1,0.6-1.5,1.1s-0.7,1.2-0.8,2c-0.2,0.8-0.2,1.5,0,2.1s0.5,1.1,0.8,1.5
		c0.5,0.5,1,0.7,1.6,0.8c0.8,0.2,1.4,0.1,1.9-0.2c0.5-0.3,0.8-0.7,1.1-1.2l1.3,0.3c-0.3,0.8-1,1.5-1.7,1.9c-0.8,0.3-1.7,0.5-2.7,0.3
		s-1.7-0.5-2.2-1.1c-0.6-0.5-1-1.2-1.2-2c-0.3-0.8-0.3-1.7,0-2.7c0.2-1,0.5-1.8,1-2.4c0.5-0.7,1.1-1.1,1.9-1.4
		C343.1,72.5,344,72.3,344.9,72.5z"/>
	<path class="st15" d="M350.4,73.9l5.7,1.4l-0.3,1l-4.6-1.1l-0.8,3.2l4.2,1l-0.2,1l-4.2-1l-0.8,3.3l4.6,1.1l-0.2,1l-5.7-1.4
		L350.4,73.9z"/>
	<path class="st14" d="M229.5,143.8c0.6-0.3,1.1-0.3,1.6-0.3s1,0.2,1.4,0.5c0.5,0.3,0.7,0.6,1,1.1l-1.1,0.5
		c-0.1-0.3-0.3-0.5-0.5-0.6c-0.3-0.2-0.5-0.3-0.8-0.3s-0.7,0-1,0.2c-0.5,0.2-0.8,0.5-1,0.8c-0.2,0.5-0.2,0.8,0,1.3
		c0.2,0.3,0.5,0.6,0.7,0.7c0.3,0.1,0.7,0.2,1.1,0.1c0.5,0,1-0.1,1.5-0.2c0.5,0,1,0,1.4,0c0.5,0.1,0.8,0.2,1.1,0.5s0.6,0.6,0.8,1.1
		s0.3,0.8,0.2,1.3s-0.3,1-0.6,1.4c-0.3,0.5-0.8,0.8-1.5,1.1s-1.3,0.5-1.8,0.5c-0.6,0-1.1-0.2-1.5-0.5c-0.5-0.3-0.8-0.7-1-1.3
		l1.1-0.5c0.2,0.3,0.3,0.6,0.7,0.8c0.3,0.2,0.6,0.3,1,0.3c0.5,0,0.8-0.1,1.3-0.3c0.6-0.3,1-0.6,1.2-1c0.2-0.5,0.2-0.8,0-1.3
		c-0.2-0.3-0.3-0.6-0.6-0.8s-0.5-0.3-0.8-0.3s-0.7,0-1,0s-0.8,0.1-1.2,0.1c-0.8,0.1-1.4,0-1.9-0.2s-0.8-0.6-1.1-1.1
		c-0.2-0.5-0.3-1-0.3-1.4c0-0.5,0.3-0.8,0.6-1.3C228.5,144.4,229,144.1,229.5,143.8z"/>
	<path class="st14" d="M238.7,141.1c-0.7,0.3-1.2,0.6-1.5,1.1c-0.5,0.5-0.6,1-0.7,1.7c-0.1,0.7,0,1.4,0.3,2.1
		c0.3,0.8,0.7,1.4,1.2,1.8c0.5,0.5,1,0.7,1.6,0.8s1.3,0,1.9-0.3c0.7-0.3,1.2-0.6,1.5-1.1s0.6-1,0.7-1.7c0.1-0.7-0.1-1.4-0.3-2.1
		s-0.7-1.4-1.2-1.8s-1-0.7-1.6-0.8C239.9,140.9,239.3,141,238.7,141.1z M238.3,140.2c0.8-0.3,1.7-0.5,2.5-0.3s1.5,0.5,2.1,1
		c0.6,0.6,1.1,1.3,1.5,2.2c0.3,1,0.5,1.8,0.3,2.7c-0.1,0.8-0.5,1.5-1,2.2c-0.5,0.6-1.2,1.1-2.1,1.5c-0.8,0.3-1.7,0.5-2.5,0.3
		s-1.5-0.5-2.1-1c-0.7-0.6-1.1-1.3-1.5-2.2c-0.3-1-0.5-1.8-0.3-2.7s0.5-1.5,1-2.2S237.4,140.5,238.3,140.2z"/>
	<path class="st14" d="M248.4,136.7c1-0.3,2-0.3,2.7-0.1c0.8,0.3,1.5,0.8,1.9,1.7l-1.2,0.5c-0.3-0.5-0.8-0.8-1.3-1.1
		c-0.5-0.2-1.2-0.2-1.9,0s-1.2,0.5-1.5,1c-0.5,0.5-0.6,1-0.7,1.6c-0.1,0.7,0,1.4,0.3,2.1s0.6,1.5,1,1.9c0.5,0.5,1,0.8,1.5,1
		c0.6,0.2,1.2,0.1,1.9-0.1c0.7-0.3,1.3-0.6,1.5-1c0.3-0.5,0.5-1,0.5-1.6l1.2-0.5c0.1,1-0.1,1.7-0.6,2.5c-0.5,0.7-1.3,1.2-2.3,1.5
		c-0.8,0.3-1.7,0.3-2.5,0.2c-0.8-0.2-1.5-0.6-2-1.2c-0.6-0.6-1-1.4-1.3-2.3c-0.3-1-0.3-1.8-0.3-2.7c0.2-0.8,0.5-1.5,1-2.1
		C246.8,137.4,247.5,137,248.4,136.7z"/>
	<path class="st14" d="M254,135.2l1.1-0.3l2.5,9.2l-1.1,0.3L254,135.2z"/>
	<path class="st14" d="M261,134.9l-0.6,4.9l3.2-0.8L261,134.9z M260,133.7l1.2-0.3l5.5,8.5l-1.2,0.3l-1.4-2.2l-3.9,1l-0.3,2.5
		l-1.2,0.3L260,133.7z"/>
	<path class="st14" d="M266.1,132.4l1.1-0.2l1.5,8.4l4.3-0.8l0.2,1l-5.4,1L266.1,132.4z"/>
	<path class="st14" d="M277.1,130.6l5.8-0.7l0.1,1l-4.6,0.5l0.3,3.3l3.9-0.5l0.1,1l-3.9,0.5l0.5,4.2l-1.1,0.2L277.1,130.6z"/>
	<path class="st14" d="M288.7,130.3c-0.7,0-1.3,0.3-1.8,0.6s-0.8,0.8-1.2,1.5c-0.3,0.6-0.3,1.3-0.3,2.1c0.1,0.8,0.3,1.5,0.6,2
		c0.3,0.6,0.8,1,1.3,1.3c0.6,0.3,1.2,0.5,1.9,0.3c0.7,0,1.3-0.3,1.8-0.6s0.8-0.8,1.2-1.5c0.3-0.6,0.3-1.3,0.3-2.1
		c-0.1-0.8-0.3-1.5-0.6-2c-0.3-0.6-0.8-1-1.3-1.3C290.1,130.5,289.4,130.3,288.7,130.3z M288.7,129.3c1-0.1,1.8,0.1,2.5,0.5
		c0.7,0.5,1.3,1,1.7,1.6c0.5,0.7,0.7,1.5,0.8,2.5c0.1,1-0.1,1.9-0.5,2.7c-0.3,0.8-0.8,1.4-1.5,1.8c-0.7,0.5-1.5,0.7-2.4,0.8
		c-1,0.1-1.8-0.1-2.5-0.5c-0.8-0.3-1.3-1-1.7-1.6c-0.5-0.7-0.7-1.5-0.8-2.5c-0.1-1,0.1-1.9,0.5-2.5c0.3-0.8,0.8-1.4,1.5-1.9
		C286.9,129.7,287.8,129.3,288.7,129.3z"/>
	<path class="st14" d="M295.2,129.2h1.1v6c0,1,0.3,1.6,0.7,2c0.5,0.5,1,0.6,1.7,0.6s1.3-0.2,1.7-0.6c0.5-0.5,0.7-1.1,0.7-2v-6h1.1v6
		c0,0.8-0.2,1.5-0.5,2s-0.8,1-1.3,1.2c-0.5,0.3-1.1,0.5-1.8,0.5c-0.7,0-1.3-0.2-1.8-0.5s-1-0.7-1.3-1.2s-0.5-1.3-0.5-2L295.2,129.2z
		"/>
	<path class="st14" d="M304.4,129.2l1.1,0.1l4.7,7.9l0.5-7.6l1.1,0.1l-0.5,9.5l-1.1-0.1l-4.7-7.9l-0.5,7.6l-1.1-0.1L304.4,129.2z"/>
	<path class="st14" d="M315,130.9l-0.8,7.6l1.7,0.2c1,0.1,1.7,0,2.2-0.2c0.6-0.3,1-0.6,1.3-1.2c0.3-0.5,0.5-1.2,0.6-2s0-1.5-0.2-2.1
		s-0.5-1.1-1-1.5s-1.2-0.6-2.1-0.7L315,130.9z M314,129.8l2.9,0.3c1.7,0.2,2.8,0.8,3.6,1.7c0.7,1,1,2.1,0.8,3.6
		c-0.2,1.4-0.7,2.5-1.5,3.3s-2.1,1-3.8,0.8l-2.9-0.3L314,129.8z"/>
	<path class="st14" d="M326.8,132.9l-2.5,4.3l3.3,0.6L326.8,132.9z M326.5,131.4l1.2,0.2l1.9,9.9l-1.2-0.2l-0.5-2.5l-4-0.7l-1.3,2.3
		l-1.2-0.2L326.5,131.4z"/>
	<path class="st14" d="M332,132.4l6.6,1.5l-0.2,1l-2.8-0.6l-1.9,8.3l-1.1-0.3l1.9-8.3l-2.8-0.6L332,132.4z"/>
	<path class="st14" d="M340.1,134.2l1.1,0.3l-2.4,9.2l-1.1-0.3L340.1,134.2z"/>
	<path class="st14" d="M347.2,137.1c-0.7-0.2-1.3-0.3-1.9-0.1s-1.1,0.5-1.5,1c-0.5,0.5-0.8,1.1-1,1.9c-0.3,0.8-0.3,1.5-0.2,2.1
		c0.1,0.7,0.5,1.2,0.8,1.6c0.5,0.5,1,0.8,1.6,1c0.7,0.2,1.3,0.3,1.9,0.1s1.1-0.5,1.5-1c0.5-0.5,0.8-1.1,1-1.9
		c0.3-0.8,0.3-1.5,0.2-2.1c-0.1-0.7-0.5-1.2-0.8-1.6C348.4,137.6,347.9,137.2,347.2,137.1z M347.5,136.1c1,0.3,1.6,0.7,2.2,1.3
		s1,1.3,1,2.1c0.2,0.8,0.1,1.7-0.2,2.7c-0.3,1-0.7,1.7-1.3,2.3s-1.3,1-2,1.2c-0.8,0.2-1.6,0.2-2.5-0.1c-0.8-0.3-1.6-0.7-2.1-1.3
		c-0.6-0.6-1-1.3-1.1-2.1c-0.2-0.8-0.1-1.7,0.2-2.7c0.3-1,0.7-1.7,1.3-2.3c0.6-0.6,1.3-1,2-1.2C345.8,135.8,346.6,135.8,347.5,136.1
		z"/>
	<path class="st14" d="M353.7,138.1l1.1,0.5l2.1,8.9l2.7-7.1l1.1,0.5l-3.2,8.9l-1.1-0.5l-2.1-8.9l-2.7,7.1l-1.1-0.5L353.7,138.1z"/>
	<path class="st10" d="M468.2,522.7l-6.7-6.7l2.7-2.7c0.7-0.7,1.4-1.1,2.1-1.1c0.8,0,1.3,0.2,1.8,0.7s0.7,0.8,0.7,1.4
		c0,0.5-0.1,1-0.3,1.4c0.5-0.3,1-0.5,1.5-0.3c0.6,0.1,1,0.3,1.5,0.7c0.5,0.5,0.8,1.2,0.8,1.9c0,0.8-0.5,1.5-1.1,2.1L468.2,522.7z
		 M465.6,517.6l1.3-1.3c0.3-0.3,0.5-0.7,0.6-1c0-0.3-0.1-0.7-0.5-1c-0.3-0.3-0.6-0.5-1-0.5c-0.3,0-0.7,0.2-1,0.6l-1.3,1.3
		L465.6,517.6z M468.5,520.5l1.4-1.4c0.3-0.3,0.6-0.8,0.6-1.1s-0.1-0.7-0.5-1c-0.3-0.3-0.7-0.5-1-0.5c-0.5,0-0.8,0.3-1.1,0.6
		l-1.4,1.4L468.5,520.5z M469.5,510.5c-0.3,0.3-0.5,0.3-0.8,0.3s-0.5-0.1-0.7-0.3c-0.2-0.2-0.3-0.5-0.3-0.8s0.2-0.5,0.3-0.8
		c0.3-0.3,0.5-0.3,0.8-0.3s0.5,0.1,0.7,0.3c0.2,0.2,0.3,0.5,0.3,0.8C469.8,510.1,469.6,510.4,469.5,510.5z M474.3,516.6l-4.7-4.7
		l1.3-1.2l4.7,4.7L474.3,516.6z M479.2,512c-0.5,0.5-1,0.8-1.5,1c-0.6,0.2-1.2,0.2-1.8,0c-0.6-0.2-1.1-0.5-1.6-1s-0.8-1-1-1.6
		s-0.2-1.2,0-1.8c0.2-0.6,0.5-1.1,1-1.5c0.5-0.5,1-0.8,1.5-1c0.6-0.2,1.2-0.2,1.7,0c0.6,0.2,1.1,0.5,1.6,1s0.8,1,1,1.6
		s0.2,1.2,0,1.8C480,511,479.6,511.5,479.2,512z M478.2,510.9c0.3-0.3,0.5-0.8,0.5-1.2c0-0.5-0.3-1-0.7-1.5c-0.5-0.5-1-0.7-1.5-0.8
		c-0.5,0-0.8,0.2-1.2,0.5c-0.3,0.3-0.5,0.8-0.5,1.2c0,0.5,0.3,1,0.7,1.5c0.5,0.5,1,0.7,1.5,0.8C477.4,511.4,477.9,511.2,478.2,510.9
		z M485,506.2c-0.5,0.5-1,0.8-1.5,0.8c-0.6,0.1-1.1,0.1-1.7-0.1s-1.1-0.5-1.6-1s-0.8-1-1-1.6s-0.2-1.2-0.1-1.7s0.5-1.1,0.8-1.5
		c0.3-0.3,0.8-0.6,1.1-0.8c0.5-0.2,0.8-0.2,1.2-0.1l-2.8-2.8l1.3-1.2l6.9,6.9l-1.1,1.1l-0.8-0.5c0.1,0.3,0,0.8-0.1,1.2
		C485.6,505.4,485.3,505.8,485,506.2z M484.1,504.9c0.5-0.5,0.6-0.8,0.6-1.4c0-0.5-0.3-1-0.7-1.4c-0.5-0.5-0.8-0.6-1.5-0.7
		c-0.5,0-1,0.2-1.4,0.6c-0.5,0.5-0.6,0.8-0.6,1.4c0,0.5,0.3,1,0.7,1.4c0.5,0.5,0.8,0.6,1.5,0.7C483.3,505.4,483.8,505.3,484.1,504.9
		z M484.1,495.9c-0.3,0.3-0.5,0.3-0.8,0.3s-0.5-0.1-0.7-0.3c-0.2-0.2-0.3-0.5-0.3-0.8s0.2-0.5,0.3-0.8c0.3-0.3,0.5-0.3,0.8-0.3
		s0.5,0.1,0.7,0.3c0.2,0.2,0.3,0.5,0.3,0.8C484.5,495.4,484.3,495.7,484.1,495.9z M488.9,502l-4.7-4.7l1.3-1.2l4.7,4.7L488.9,502z
		 M492.8,498.2l-6.5-3.1l1.3-1.3l4.9,2.4l-2.4-4.7l1.3-1.3l3,6.6L492.8,498.2z M499.2,491.9c-0.5,0.5-1,0.8-1.6,1s-1.2,0.2-1.7,0
		c-0.6-0.2-1.1-0.5-1.6-1s-0.8-1-1-1.6s-0.2-1.2,0-1.8c0.2-0.6,0.5-1.1,1-1.6s1-0.8,1.5-1c0.6-0.2,1.1-0.2,1.7,0s1,0.5,1.5,0.8
		c0.1,0.1,0.2,0.2,0.2,0.3c0.1,0.1,0.2,0.2,0.3,0.3l-3.7,3.7c0.5,0.3,0.8,0.5,1.3,0.5s0.8-0.2,1.2-0.5c0.3-0.3,0.5-0.5,0.5-0.8
		c0.1-0.3,0-0.6-0.1-0.8l1.3-1.3c0.2,0.5,0.3,0.8,0.3,1.3s0,1-0.2,1.4C499.9,491.1,499.6,491.5,499.2,491.9z M495.3,487.9
		c-0.3,0.3-0.5,0.7-0.5,1s0.1,0.8,0.3,1.2l2.4-2.4c-0.3-0.3-0.7-0.5-1.1-0.5C495.9,487.5,495.6,487.6,495.3,487.9z M502.6,488.3
		l-4.7-4.7l1.1-1.1l1,0.8c-0.2-0.5-0.2-1,0-1.5c0.1-0.5,0.3-1,0.8-1.4l1.3,1.3l-0.3,0.3c-0.3,0.3-0.5,0.5-0.6,0.8
		c-0.2,0.3-0.2,0.6-0.1,1c0.1,0.3,0.3,0.7,0.7,1l2.1,2.2L502.6,488.3z M508.4,482.7c-0.5,0.5-0.8,0.8-1.3,1s-1,0.3-1.4,0.2
		c-0.5-0.1-0.8-0.2-1.2-0.5l1.3-1.3c0.3,0.2,0.5,0.2,0.8,0.2s0.6-0.2,0.8-0.5c0.3-0.3,0.5-0.5,0.5-0.8s0-0.5-0.2-0.6
		c-0.2-0.2-0.5-0.3-0.7-0.2c-0.3,0.1-0.6,0.3-1,0.5c-0.3,0.2-0.5,0.3-0.8,0.5s-0.6,0.3-0.8,0.3c-0.3,0.1-0.5,0.1-0.8,0.1
		c-0.3-0.1-0.5-0.2-0.8-0.5c-0.5-0.5-0.6-1-0.6-1.5c0-0.6,0.3-1.3,1-1.9c0.6-0.6,1.1-0.8,1.7-1c0.6-0.1,1.2,0.1,1.7,0.5l-1.1,1.2
		c-0.5-0.3-0.8-0.2-1.4,0.3c-0.3,0.3-0.3,0.5-0.5,0.7s0,0.5,0.2,0.5c0.2,0.2,0.3,0.2,0.6,0.1c0.3-0.1,0.6-0.3,1-0.5
		c0.5-0.3,0.8-0.5,1.2-0.7c0.3-0.2,0.8-0.3,1.1-0.3c0.3,0,0.7,0.2,1,0.5s0.5,0.6,0.6,1c0.1,0.5,0,0.8-0.2,1.3
		C509.1,481.9,508.9,482.3,508.4,482.7z M506.6,473.4c-0.3,0.3-0.5,0.3-0.8,0.3s-0.5-0.1-0.7-0.3c-0.2-0.2-0.3-0.5-0.3-0.8
		s0.2-0.5,0.3-0.8c0.3-0.3,0.5-0.3,0.8-0.3s0.5,0.1,0.7,0.3c0.2,0.2,0.3,0.5,0.3,0.8S506.8,473.1,506.6,473.4z M511.5,479.5
		l-4.7-4.7l1.3-1.2l4.7,4.7L511.5,479.5z M516.2,474.8c-0.5,0.5-1,0.8-1.5,0.8c-0.5,0.1-1.1-0.3-1.7-0.8l-2-2l-0.8,0.8l-1-1l0.8-0.8
		l-1.1-1.5l1.1-1.1l1.3,1.3l1.3-1.3l1,1l-1.3,1.3l2.1,2c0.3,0.3,0.5,0.3,0.6,0.3c0.2,0,0.5-0.2,0.7-0.5l0.6-0.6l1,1L516.2,474.8z
		 M520.7,474.4l-1.4-3.5l-0.3,0.3l-6.3-2.7l1.4-1.4l4.7,2l-2-4.7l1.3-1.3l3.8,9.8L520.7,474.4z"/>
	<path class="st10" d="M79.5,466.2l6.9-6.6l4.2,4.5l-1,1l-3-3.2l-1.9,1.8l2.8,3l-1,1l-2.8-3l-2,1.9l3,3.2l-1,1L79.5,466.2z
		 M84.8,471.9l4.9-4.6l1,1.1l-0.6,0.8c0.5-0.1,0.8,0,1.2,0.1c0.5,0.1,0.8,0.3,1,0.7c0.7,0.8,1,1.5,0.7,2.5c0.5-0.1,0.8-0.1,1.3,0.1
		s0.8,0.5,1.2,0.8c0.6,0.7,0.8,1.3,0.8,2c-0.1,0.7-0.5,1.4-1.2,2.1l-2.7,2.7l-1.2-1.3l2.7-2.5c0.5-0.5,0.7-0.8,0.8-1.2
		c0.1-0.3-0.1-0.8-0.3-1c-0.3-0.3-0.7-0.5-1.2-0.5s-0.8,0.3-1.4,0.7l-2.5,2.4l-1.2-1.3l2.7-2.5c0.5-0.5,0.7-0.8,0.8-1.2
		c0.1-0.5-0.1-0.8-0.5-1.1c-0.3-0.3-0.7-0.5-1.1-0.5c-0.5,0-0.8,0.3-1.4,0.7l-2.5,2.4L84.8,471.9z M99.8,476.5
		c-0.2-0.3-0.3-0.5-0.3-0.8s0.1-0.5,0.3-0.8c0.2-0.2,0.5-0.3,0.8-0.3s0.5,0.2,0.8,0.3c0.2,0.3,0.3,0.5,0.3,0.8s-0.1,0.5-0.3,0.7
		c-0.2,0.2-0.5,0.3-0.8,0.3C100.3,476.8,100,476.7,99.8,476.5z M93.6,481.2l4.9-4.6l1.2,1.3l-4.9,4.6L93.6,481.2z M97.8,486
		c-0.5-0.5-0.7-0.8-0.8-1.4c-0.2-0.5-0.3-1-0.2-1.4c0.1-0.5,0.3-0.8,0.5-1.2l1.2,1.3c-0.2,0.2-0.3,0.5-0.2,0.8
		c0,0.3,0.2,0.6,0.5,0.8c0.3,0.3,0.5,0.5,0.8,0.5s0.5,0,0.6-0.2c0.2-0.2,0.3-0.5,0.2-0.7c-0.1-0.2-0.3-0.6-0.5-1
		c-0.2-0.3-0.3-0.5-0.5-0.8s-0.3-0.6-0.3-0.8c-0.1-0.3-0.1-0.5,0-0.8s0.2-0.5,0.5-0.8c0.5-0.5,1-0.6,1.6-0.5s1.2,0.5,1.8,1
		c0.5,0.6,0.8,1.2,1,1.8c0.1,0.6-0.1,1.2-0.5,1.7l-1.1-1.2c0.3-0.5,0.2-0.8-0.3-1.4c-0.3-0.3-0.5-0.3-0.7-0.5c-0.2,0-0.5,0-0.5,0.2
		c-0.2,0.2-0.2,0.3-0.1,0.6c0.1,0.3,0.3,0.6,0.5,1s0.5,0.8,0.6,1.2c0.2,0.3,0.3,0.8,0.3,1.1s-0.2,0.7-0.6,1c-0.3,0.3-0.7,0.5-1,0.5
		s-0.8,0-1.3-0.2C98.6,486.6,98.3,486.3,97.8,486z M102.8,491.1c-0.5-0.5-0.7-0.8-0.8-1.4c-0.2-0.5-0.3-1-0.2-1.4
		c0.1-0.5,0.3-0.8,0.5-1.2l1.2,1.3c-0.2,0.3-0.3,0.5-0.2,0.8c0,0.3,0.2,0.6,0.5,0.8c0.3,0.3,0.5,0.5,0.8,0.5s0.5,0,0.6-0.2
		c0.2-0.2,0.3-0.5,0.2-0.7c-0.1-0.3-0.3-0.6-0.5-1c-0.2-0.3-0.3-0.5-0.5-0.8s-0.3-0.5-0.3-0.8c-0.1-0.3-0.1-0.5,0-0.8
		s0.2-0.5,0.5-0.8c0.5-0.5,1-0.6,1.6-0.5s1.3,0.5,1.8,1c0.5,0.6,0.8,1.2,1,1.8c0.1,0.6-0.1,1.2-0.5,1.7l-1.1-1.2
		c0.3-0.5,0.2-0.8-0.3-1.4c-0.3-0.3-0.5-0.3-0.7-0.5c-0.3-0.1-0.5,0-0.5,0.2c-0.2,0.2-0.2,0.3-0.1,0.6c0.1,0.3,0.3,0.6,0.5,1
		c0.3,0.5,0.5,0.8,0.6,1.2c0.2,0.3,0.3,0.8,0.3,1.1c0,0.3-0.2,0.7-0.6,1c-0.3,0.3-0.7,0.5-1,0.5c-0.5,0.1-0.8,0-1.3-0.2
		C103.5,491.8,103.1,491.5,102.8,491.1z M112.1,489.5c-0.3-0.3-0.3-0.5-0.3-0.8s0.1-0.5,0.3-0.7c0.2-0.2,0.5-0.3,0.8-0.3
		s0.5,0.2,0.8,0.3c0.3,0.3,0.3,0.5,0.3,0.8s-0.1,0.5-0.3,0.7c-0.2,0.2-0.5,0.3-0.8,0.3S112.3,489.7,112.1,489.5z M105.9,494.2
		l4.9-4.6l1.2,1.3l-4.9,4.6L105.9,494.2z M110.4,499.3c-0.5-0.5-0.8-1-0.8-1.6c-0.2-0.6-0.1-1.2,0.1-1.8c0.2-0.6,0.5-1.1,1-1.6
		s1-0.8,1.7-1c0.6-0.2,1.2-0.1,1.8,0.1c0.6,0.2,1.1,0.5,1.5,1c0.5,0.5,0.8,1,0.8,1.6c0.2,0.6,0.1,1.2-0.1,1.8
		c-0.2,0.6-0.5,1.1-1,1.6s-1,0.8-1.6,1s-1.2,0.1-1.8-0.1C111.4,500,110.9,499.7,110.4,499.3z M111.6,498.3c0.3,0.3,0.7,0.5,1.2,0.5
		s1-0.2,1.5-0.7s0.8-1,0.8-1.4c0-0.5-0.1-0.8-0.5-1.2c-0.3-0.3-0.7-0.5-1.2-0.5s-1,0.3-1.5,0.7c-0.5,0.5-0.8,1-0.8,1.4
		C111.1,497.5,111.2,497.9,111.6,498.3z M114,502.8l4.9-4.6l1,1.1l-0.8,0.8c0.5-0.1,0.8-0.1,1.3,0s0.8,0.3,1.2,0.8
		c0.6,0.6,0.8,1.3,0.8,2c-0.1,0.7-0.5,1.4-1.2,2.1l-2.7,2.7l-1.2-1.3l2.7-2.5c0.5-0.5,0.7-0.8,0.8-1.2c0.1-0.3-0.1-0.8-0.5-1.1
		c-0.3-0.3-0.8-0.5-1.2-0.5c-0.4,0-1,0.3-1.4,0.7l-2.5,2.4L114,502.8z M121.5,510.9c-0.5-0.5-0.7-0.8-0.8-1.4
		c-0.2-0.5-0.3-1-0.2-1.4c0.1-0.5,0.3-0.8,0.5-1.2l1.2,1.3c-0.2,0.3-0.2,0.5-0.2,0.8s0.2,0.6,0.5,0.8c0.3,0.3,0.5,0.5,0.8,0.5
		s0.5,0,0.6-0.2c0.2-0.2,0.3-0.5,0.2-0.7c-0.1-0.3-0.3-0.6-0.5-1c-0.2-0.3-0.3-0.5-0.5-0.8s-0.3-0.6-0.3-0.8c-0.1-0.3-0.1-0.5,0-0.8
		s0.2-0.5,0.5-0.8c0.5-0.5,1-0.6,1.6-0.5s1.2,0.5,1.8,1c0.5,0.6,0.8,1.2,1,1.8c0.1,0.6-0.1,1.2-0.5,1.7l-1.1-1.2
		c0.3-0.5,0.3-0.8-0.3-1.4c-0.3-0.3-0.5-0.3-0.7-0.5c-0.2-0.1-0.5,0-0.5,0.1c-0.2,0.2-0.2,0.3-0.1,0.6c0.1,0.3,0.3,0.6,0.5,1
		c0.3,0.5,0.5,0.8,0.6,1.2c0.2,0.3,0.3,0.8,0.3,1.1c0,0.3-0.2,0.7-0.6,1c-0.3,0.3-0.7,0.5-1,0.5c-0.5,0.1-0.8,0-1.3-0.2
		C122.2,511.7,121.8,511.3,121.5,510.9z"/>
	<path class="st10" d="M480.6,107.3l4.9-8.5l1.3,1.3l-4.2,6.6l6.8-3.9l1.4,1.4l-4,6.7l6.5-4.2l1.3,1.4l-8.5,4.9l-1.5-1.5l3.7-6.3
		l-6.4,3.6L480.6,107.3z M490.3,117.3c-0.5-0.5-0.7-0.8-0.8-1.2c-0.2-0.5-0.2-0.8-0.1-1.1c0.1-0.3,0.3-0.7,0.5-1
		c0.5-0.5,1-0.6,1.6-0.6c0.6,0.1,1.3,0.5,2,1.1l1.2,1.2l0.1-0.1c0.3-0.3,0.5-0.7,0.5-1s-0.2-0.7-0.5-1s-0.5-0.5-0.8-0.5
		c-0.3-0.1-0.6,0-0.8,0.2l-1.2-1.2c0.5-0.3,0.8-0.5,1.3-0.6s1,0,1.4,0.2c0.5,0.2,0.8,0.5,1.3,0.8c0.7,0.7,1,1.4,1.1,2.1
		s-0.3,1.5-0.8,2l-2.9,2.9l-1-1l0.7-0.8c-0.5,0.1-0.8,0.2-1.2,0C491.1,118,490.8,117.7,490.3,117.3z M491.6,116.6
		c0.3,0.3,0.8,0.5,1.2,0.5c0.5,0,0.8-0.2,1.2-0.5l-1-1c-0.3-0.3-0.6-0.5-0.8-0.5c-0.3,0-0.5,0.1-0.7,0.3c-0.2,0.2-0.3,0.5-0.3,0.7
		C491.1,116.2,491.3,116.5,491.6,116.6z M496.2,123.2c-0.5-0.5-0.7-0.8-1-1.3c-0.2-0.5-0.3-1-0.2-1.4c0.1-0.5,0.2-0.8,0.5-1.2
		l1.3,1.3c-0.2,0.3-0.2,0.5-0.2,0.8s0.2,0.6,0.5,0.8c0.3,0.3,0.5,0.5,0.8,0.5s0.5,0,0.6-0.2c0.2-0.2,0.3-0.5,0.2-0.7
		c-0.1-0.3-0.3-0.6-0.5-1c-0.2-0.3-0.3-0.5-0.5-0.8s-0.3-0.5-0.3-0.8c-0.1-0.3-0.1-0.5,0-0.8c0-0.3,0.2-0.5,0.5-0.8
		c0.5-0.5,1-0.6,1.5-0.6c0.6,0.1,1.3,0.5,1.9,1c0.6,0.6,0.8,1.1,1,1.7c0.1,0.6-0.1,1.2-0.5,1.7l-1.2-1.2c0.3-0.5,0.2-0.8-0.3-1.3
		c-0.3-0.3-0.5-0.3-0.7-0.5c-0.3-0.1-0.5,0-0.5,0.2c-0.2,0.2-0.2,0.3-0.1,0.6c0.1,0.3,0.3,0.6,0.5,1c0.3,0.5,0.5,0.8,0.7,1.2
		c0.2,0.3,0.3,0.8,0.3,1.1c0,0.3-0.2,0.7-0.5,1s-0.6,0.5-1,0.6c-0.5,0.1-0.8,0-1.3-0.2C497,123.9,496.6,123.6,496.2,123.2z
		 M501.5,128.2c-0.5-0.5-0.8-1-0.8-1.5c-0.1-0.5,0.3-1.1,0.8-1.7l2-2l-0.8-0.8l1-1l0.8,0.8l1.5-1.1l1.1,1.1l-1.3,1.3l1.3,1.3l-1,1
		l-1.3-1.3l-2.1,2c-0.3,0.3-0.3,0.5-0.3,0.6c0,0.2,0.2,0.5,0.5,0.7l0.6,0.6l-1,1L501.5,128.2z M505.5,132.7c-0.5-0.5-0.8-1-1-1.6
		s-0.2-1.1,0-1.7c0.2-0.6,0.5-1.1,1-1.6c0.5-0.5,1-0.8,1.6-1s1.2-0.2,1.8,0c0.6,0.2,1.1,0.5,1.6,1c0.5,0.5,0.8,1,1,1.5
		c0.2,0.6,0.2,1.1,0,1.7c-0.2,0.6-0.5,1-0.8,1.5c-0.1,0.1-0.2,0.2-0.3,0.2c-0.1,0.1-0.2,0.2-0.3,0.3l-3.6-3.7
		c-0.3,0.5-0.5,0.8-0.5,1.3s0.2,0.8,0.5,1.2c0.3,0.3,0.5,0.5,0.8,0.5s0.6,0,0.8-0.1l1.3,1.3c-0.5,0.2-0.8,0.3-1.3,0.3s-1,0-1.4-0.2
		C506.4,133.2,506,133,505.5,132.7z M509.6,128.7c-0.3-0.3-0.7-0.5-1-0.5c-0.5-0.1-0.8,0.1-1.2,0.3l2.4,2.4c0.3-0.3,0.5-0.7,0.5-1.1
		C510.1,129.3,509.9,128.9,509.6,128.7z"/>
	<path class="st10" d="M87.8,139l-6.7-6.7l4.4-4.4l1,1l-3.2,3.2l1.9,1.9l2.9-2.9l1,1l-2.9,2.9l2,2l3.2-3.2l1,1L87.8,139z
		 M93.3,133.5l-4.7-4.7l1.1-1.1l1,0.7c-0.2-0.5-0.2-0.8,0-1.3c0.1-0.5,0.3-0.8,0.8-1.3c0.6-0.6,1.3-0.8,2-0.8s1.4,0.5,2.1,1.1
		l2.7,2.7l-1.2,1.3l-2.5-2.5c-0.5-0.5-0.8-0.7-1.2-0.7c-0.5-0.1-0.8,0.1-1.1,0.5c-0.3,0.3-0.5,0.8-0.5,1.2c0,0.5,0.3,1,0.7,1.4
		l2.5,2.5L93.3,133.5z M101.6,125.5c-0.5,0.5-1,0.8-1.6,1s-1.2,0.2-1.7,0c-0.6-0.2-1.1-0.5-1.6-1s-0.8-1-1-1.6s-0.2-1.2,0-1.8
		s0.5-1.1,1-1.6s1-0.8,1.5-1c0.6-0.2,1.1-0.2,1.7,0s1,0.5,1.5,0.8c0.1,0.1,0.2,0.2,0.2,0.3c0.1,0.1,0.2,0.2,0.3,0.3l-3.6,3.6
		c0.5,0.3,0.8,0.5,1.3,0.5s0.8-0.2,1.2-0.5c0.3-0.3,0.5-0.5,0.5-0.8s0-0.6-0.1-0.8l1.3-1.3c0.2,0.5,0.3,0.8,0.3,1.3s0,1-0.2,1.4
		C102.4,124.5,102,125.1,101.6,125.5z M97.6,121.5c-0.3,0.3-0.5,0.7-0.5,1c-0.1,0.5,0,0.8,0.3,1.2l2.4-2.4c-0.3-0.3-0.7-0.5-1.1-0.5
		C98.3,121,97.9,121.2,97.6,121.5z M105,121.9l-4.7-4.7l1.1-1.1l1,0.8c-0.1-0.5-0.2-1,0-1.5c0.1-0.5,0.3-1,0.8-1.4l1.3,1.3l-0.3,0.5
		c-0.3,0.3-0.5,0.5-0.6,0.8s-0.2,0.6-0.1,1c0.1,0.3,0.3,0.7,0.7,1l2.1,2.1L105,121.9z M109.4,114.6c-0.3,0.3-0.5,0.5-0.8,0.6v0.7
		c0.2-0.1,0.3-0.2,0.6-0.3c0.3-0.1,0.6-0.5,1-0.8c0.7-0.6,1.3-0.8,1.9-1c0.6-0.1,1,0.2,1.5,0.6c0.3,0.3,0.5,0.6,0.6,1
		c0.1,0.5,0.1,0.8-0.1,1.4c-0.2,0.5-0.5,1-1,1.5c-0.7,0.7-1.4,1.1-2,1.3c-0.7,0.2-1.3,0-1.8-0.5s-0.6-1-0.5-1.7
		c-0.2,0.1-0.3,0.1-0.5,0.2c-0.2,0-0.3,0-0.5,0l-0.3-0.3v-1.7c-0.7,0.1-1.3-0.2-1.8-0.7c-0.3-0.3-0.5-0.7-0.7-1.1
		c-0.1-0.5-0.1-0.8,0-1.3c0.2-0.5,0.5-0.8,0.8-1.3c0.3-0.3,0.6-0.5,0.8-0.7l1.8-1.8l0.8,0.8l-0.8,0.8c0.3,0.1,0.7,0.3,1,0.6
		c0.3,0.3,0.5,0.7,0.7,1.1c0.2,0.5,0.1,0.8,0,1.3C110.1,113.9,109.8,114.3,109.4,114.6z M108.4,113.7c0.3-0.3,0.5-0.5,0.5-0.8
		s-0.1-0.6-0.3-0.8c-0.3-0.3-0.5-0.3-0.8-0.3s-0.6,0.2-0.8,0.5c-0.3,0.3-0.5,0.5-0.5,0.8s0.1,0.6,0.3,0.8c0.3,0.3,0.5,0.3,0.8,0.3
		C107.9,114.1,108.2,114,108.4,113.7z M110.2,117.9c0.3,0.3,0.5,0.3,0.8,0.2s0.7-0.3,1-0.6c0.3-0.3,0.5-0.6,0.6-1
		c0.1-0.3,0-0.6-0.2-0.8c-0.2-0.2-0.5-0.3-0.6-0.3c-0.3,0-0.6,0.2-1,0.5c-0.3,0.3-0.5,0.5-0.8,0.7c-0.1,0.3-0.1,0.5-0.1,0.8
		C109.9,117.5,110.1,117.7,110.2,117.9z M116.9,114.1l-1.4-3.6l-0.3,0.3l-6.3-2.5l1.4-1.4l4.7,2l-2-4.7l1.3-1.3l3.8,9.8L116.9,114.1
		z M125,102.2c-0.5,0.5-1,0.8-1.6,1s-1.2,0.3-1.9,0.1c-0.7-0.2-1.3-0.6-1.9-1.2l-4.2-4.2l1.3-1.2l4.2,4.2c0.5,0.5,1,0.8,1.5,0.8
		s1-0.3,1.5-0.7c0.5-0.5,0.7-1,0.7-1.5s-0.3-1-0.8-1.5l-4.2-4.2l1.3-1.3l4.2,4.2c0.6,0.6,1,1.3,1.1,1.9c0.2,0.7,0.2,1.3-0.1,1.9
		C125.8,101.1,125.5,101.7,125,102.2z M130.8,96.3c-0.5,0.5-0.8,0.8-1.4,1c-0.5,0.2-1,0.3-1.4,0.2c-0.5-0.1-0.8-0.2-1.2-0.5l1.3-1.3
		c0.3,0.2,0.5,0.2,0.8,0.2s0.6-0.2,0.8-0.5s0.5-0.5,0.5-0.8s-0.1-0.5-0.2-0.6c-0.2-0.2-0.5-0.3-0.7-0.2c-0.3,0.1-0.6,0.3-1,0.5
		c-0.3,0.2-0.5,0.3-0.8,0.5s-0.6,0.3-0.8,0.3c-0.3,0.1-0.5,0.1-0.8,0c-0.3,0-0.5-0.2-0.8-0.5c-0.5-0.5-0.6-1-0.6-1.5
		c0.1-0.6,0.3-1.3,1-1.9c0.6-0.6,1.1-0.8,1.8-1c0.6-0.1,1.2,0.1,1.7,0.5l-1.2,1.2c-0.5-0.3-0.8-0.2-1.4,0.3
		c-0.3,0.3-0.3,0.5-0.5,0.7c0,0.2,0,0.5,0.2,0.5c0.2,0.2,0.3,0.2,0.6,0.1c0.3-0.1,0.6-0.3,1-0.5c0.5-0.3,0.8-0.5,1.2-0.7
		c0.3-0.2,0.8-0.3,1.1-0.3s0.7,0.2,1,0.5s0.5,0.6,0.6,1c0.1,0.5,0,0.8-0.2,1.3C131.6,95.4,131.2,95.8,130.8,96.3z M136.2,90.9
		c-0.5,0.5-1,0.8-1.6,1s-1.2,0.2-1.7,0c-0.6-0.2-1.1-0.5-1.6-1s-0.8-1-1-1.6s-0.2-1.2,0-1.8c0.2-0.6,0.5-1.1,1-1.6s1-0.8,1.5-1
		c0.6-0.2,1.1-0.2,1.7,0c0.6,0.2,1,0.5,1.5,0.8c0.1,0.1,0.2,0.2,0.2,0.3c0.1,0.1,0.2,0.2,0.3,0.3l-3.6,3.6c0.5,0.3,0.8,0.5,1.3,0.5
		s0.8-0.2,1.2-0.5c0.3-0.3,0.5-0.5,0.5-0.8c0.1-0.3,0-0.6-0.1-0.8l1.3-1.3c0.2,0.5,0.3,0.8,0.3,1.3s0,1-0.2,1.4
		C136.8,90.1,136.5,90.5,136.2,90.9z M132.2,87c-0.3,0.3-0.5,0.7-0.5,1s0.1,0.8,0.3,1.2l2.4-2.4c-0.3-0.3-0.7-0.5-1.1-0.5
		C132.9,86.3,132.6,86.6,132.2,87z"/>
</g>
</svg>
