<svg width="198" height="45" viewBox="0 0 198 45" fill="none" xmlns="http://www.w3.org/2000/svg">
<path fill-rule="evenodd" clip-rule="evenodd" d="M156.993 7.98097V0H153.43V17.9572H156.993V12.2107C156.993 10.7142 157.303 9.26362 159.131 9.26362C160.958 9.26362 160.983 10.9738 160.983 12.3023V17.9572H164.546V11.5897C164.546 8.50523 163.88 6.12824 160.271 6.12824C158.535 6.12824 157.37 7.08005 157.039 7.98097H156.993ZM86.5181 2.77904C86.5181 1.6389 85.5918 0.712537 84.4516 0.712537C83.3115 0.712537 82.3851 1.6389 82.3851 2.77904C82.3851 3.91917 83.3115 4.84554 84.4516 4.84554C85.5918 4.84554 86.5181 3.91917 86.5181 2.77904ZM86.2331 17.9571V6.41323H82.6702V17.9571H86.2331ZM73.9512 1.14026H67.6855V17.9522H74.5721C77.565 17.9522 80.8887 16.7917 80.8887 13.2746C80.8887 11.091 79.4177 9.45207 77.2087 9.16703V9.12122C78.9393 8.5766 80.1049 7.29395 80.1049 5.41577C80.1049 1.75614 76.8982 1.14026 73.9512 1.14026ZM74.0682 7.86402H71.3858L71.3808 7.86911V4.28073H73.9003C75.0658 4.28073 76.3943 4.68283 76.3943 6.03674C76.3943 7.39066 75.2084 7.86402 74.0682 7.86402ZM74.7096 14.8219H71.3858H71.3808V10.9994H74.1853C75.3967 10.9994 77.1782 11.259 77.1782 12.8521C77.1782 14.3231 75.8751 14.8219 74.7096 14.8219ZM88.7984 6.4133H92.3614V8.26602H92.4072C93.1656 6.8663 94.1632 6.12826 95.7309 6.12826C96.133 6.12826 96.586 6.15371 96.9168 6.24533V9.49778C96.418 9.35526 95.9192 9.25855 95.3949 9.25855C92.6871 9.25855 92.3563 10.8262 92.3563 13.132V17.9521H88.7933V6.4133H88.7984ZM101.885 6.4133H98.4641V17.9572H102.027V12.2107C102.027 10.7143 102.312 9.26364 104.165 9.26364C105.761 9.26364 105.759 10.9108 105.758 11.7864L105.758 11.8544V17.9572H109.321V11.8544C109.321 10.4292 109.845 9.26364 111.484 9.26364C112.65 9.26364 113.052 10.1646 113.052 11.2334V17.9572H116.615V11.1418C116.615 8.33728 115.663 6.12826 112.528 6.12826C110.817 6.12826 109.698 6.72378 108.868 8.19476C108.252 6.79504 106.918 6.12826 105.305 6.12826C103.569 6.12826 102.404 7.08007 101.93 7.98099H101.885V6.4133ZM120.961 0.712537C122.102 0.712537 123.028 1.6389 123.028 2.77904C123.028 3.91917 122.102 4.84554 120.961 4.84554C119.821 4.84554 118.895 3.91917 118.895 2.77904C118.895 1.6389 119.821 0.712537 120.961 0.712537ZM122.743 6.41323V17.9571H119.18V6.41323H122.743ZM128.729 6.4133H125.308V17.9572H128.871V12.2107C128.871 10.7143 129.182 9.26364 131.009 9.26364C132.836 9.26364 132.862 10.9738 132.862 12.3023V17.9572H136.425V11.5897C136.425 8.50525 135.758 6.12826 132.149 6.12826C130.413 6.12826 129.248 7.08007 128.775 7.98099H128.729V6.4133ZM150.58 16.9849C150.58 21.3317 148.371 23.6578 143.907 23.6578C141.866 23.6578 139.774 23.3015 138.109 21.973L140.079 19.026C141.174 19.9523 142.385 20.5224 143.83 20.5224C145.994 20.5224 147.012 19.3364 147.012 17.6975V16.5828H146.966C146.157 17.6975 144.782 18.1047 143.713 18.1047C140.293 18.1047 138.038 15.6361 138.038 12.1444C138.038 9.08029 140.033 6.13323 143.311 6.13323C145.332 6.13323 146.706 7.1054 147.256 7.94015H147.302V6.41827H150.58V16.9849ZM144.451 14.9642C146.065 14.9642 147.302 13.6103 147.302 12.1139C147.302 10.6174 146.065 9.26352 144.451 9.26352C142.838 9.26352 141.601 10.6174 141.601 12.1139C141.601 13.6103 142.838 14.9642 144.451 14.9642ZM174.309 16.5066H174.263C173.479 17.7434 172.054 18.2422 170.603 18.2422C168.44 18.2422 166.496 17.0054 166.496 14.6793C166.496 10.6888 171.341 10.6176 174.309 10.6176C174.309 9.36035 173.265 8.55105 172.028 8.55105C170.863 8.55105 169.891 9.07531 169.132 9.93042L167.234 7.98099C168.542 6.74414 170.44 6.12826 172.319 6.12826C176.477 6.12826 177.592 8.24057 177.592 12.0885V17.9572H174.314V16.5066H174.309ZM173.433 12.8978C172.339 12.8978 169.916 12.9945 169.916 14.5622C169.916 15.4173 170.817 15.8194 171.601 15.8194C173.001 15.8194 174.309 15.0814 174.309 13.6562V12.8978H173.433ZM183.272 6.4133H179.852V17.9572H183.415V12.2107C183.415 10.7143 183.7 9.26364 185.552 9.26364C187.149 9.26364 187.147 10.9108 187.146 11.7864L187.145 11.8544V17.9572H190.708V11.8544C190.708 10.4292 191.233 9.26364 192.872 9.26364C194.037 9.26364 194.439 10.1646 194.439 11.2334V17.9572H198.002V11.1418C198.002 8.33728 197.05 6.12826 193.915 6.12826C192.205 6.12826 191.085 6.72378 190.255 8.19476C189.64 6.79504 188.306 6.12826 186.692 6.12826C184.957 6.12826 183.791 7.08007 183.318 7.98099H183.272V6.4133ZM82.7312 36.6424C81.6165 38.378 79.2854 39.7319 76.5063 39.7319C71.4927 39.7319 67.7415 36.001 67.7415 30.8959C67.7415 25.7907 71.4927 22.0598 76.5063 22.0598C78.5982 22.0598 80.8531 22.8436 82.3241 24.7218L80.8276 25.8365C80.1608 24.7422 78.2878 23.6275 76.5063 23.6275C72.185 23.6275 69.5942 27.0225 69.5942 30.8959C69.5942 34.7693 72.185 38.1643 76.5063 38.1643C78.2623 38.1643 80.0692 37.5942 81.3264 35.6447L82.7262 36.6424H82.7312ZM84.5382 23.9073C84.5382 24.574 85.1082 25.0474 85.6783 25.0474C86.2484 25.0474 86.8184 24.574 86.8184 23.9073C86.8184 23.2405 86.2484 22.7671 85.6783 22.7671C85.1082 22.7671 84.5382 23.2405 84.5382 23.9073ZM84.8944 39.2991H86.4621V28.1828H84.8944V39.2991ZM95.0132 29.6079H91.8065V36.1637C91.8065 37.8281 92.4479 38.159 93.42 38.159C93.9647 38.159 94.5602 37.991 95.0335 37.7314L95.1048 39.182C94.5347 39.4416 93.7763 39.5841 92.9925 39.5841C91.8065 39.5841 90.2389 39.0599 90.2389 36.6167V29.6079H87.8873V28.1828H90.2389V25.0474H91.8065V28.1828H95.0132V29.6079ZM105.132 28.183L101.737 37.3753L101.732 37.3702L98.2402 28.1779H96.2704L100.831 39.4367L100.022 41.5745C99.5483 42.8317 98.9782 43.5697 97.8839 43.5697C97.4563 43.5697 97.0542 43.4985 96.6979 43.3102L96.53 44.832C97.0084 44.9745 97.5072 45 97.9806 45C99.9046 45 100.805 43.9057 101.472 42.1955L107.03 28.183H105.132ZM127.65 36.6424C126.535 38.378 124.204 39.7319 121.425 39.7319C116.411 39.7319 112.66 36.001 112.66 30.8959C112.66 25.7907 116.411 22.0598 121.425 22.0598C123.517 22.0598 125.771 22.8436 127.242 24.7218L125.746 25.8365C125.079 24.7422 123.206 23.6275 121.425 23.6275C117.103 23.6275 114.513 27.0225 114.513 30.8959C114.513 34.7693 117.103 38.1643 121.425 38.1643C123.181 38.1643 124.988 37.5942 126.245 35.6447L127.645 36.6424H127.65ZM129.365 33.741C129.365 37.0901 131.808 39.5842 135.254 39.5842C138.72 39.5842 141.168 37.0901 141.168 33.741C141.168 30.3918 138.695 27.8978 135.254 27.8978C131.813 27.8978 129.365 30.3918 129.365 33.741ZM131.075 33.741C131.075 31.2469 132.689 29.323 135.254 29.323C137.845 29.323 139.458 31.2469 139.458 33.741C139.458 36.235 137.819 38.159 135.254 38.159C132.689 38.159 131.075 36.235 131.075 33.741ZM151.547 39.2992C151.475 38.7038 151.475 38.1135 151.475 37.5181V37.5177H151.43C150.743 38.7291 149.175 39.5842 147.699 39.5842C144.874 39.5842 143.52 37.9911 143.52 35.2374V28.1828H145.088V34.3365C145.088 36.8051 145.775 38.1591 148.106 38.1591C148.437 38.1591 151.481 37.9453 151.481 33.8835V28.1828H153.048V36.8509C153.048 37.3235 153.093 38.078 153.135 38.7739L153.135 38.7745L153.135 38.7753L153.135 38.7769L153.135 38.7848C153.146 38.9621 153.156 39.1354 153.165 39.2992H151.552H151.547ZM158.27 29.9643C158.27 29.3688 158.27 28.7783 158.199 28.1828H158.194H156.581C156.59 28.3488 156.601 28.5246 156.611 28.7043L156.611 28.7063L156.611 28.7069C156.653 29.403 156.698 30.1582 156.698 30.6311V39.2992H158.265V33.5985C158.265 29.5367 161.309 29.323 161.64 29.323C163.971 29.323 164.658 30.6769 164.658 33.1455V39.2992H166.226V32.2446C166.226 29.4909 164.872 27.8978 162.047 27.8978C160.571 27.8978 159.003 28.7529 158.316 29.9643H158.27ZM177.984 30.799C177.459 29.9897 176.441 29.328 175.205 29.328C172.614 29.2822 171.026 31.2062 171.026 33.7461C171.026 36.2859 172.619 38.2099 175.205 38.1641C176.441 38.1641 177.459 37.4973 177.984 36.6931L179.266 37.6653C178.172 38.948 176.701 39.5638 175.205 39.5893C171.57 39.6351 169.316 37.0952 169.316 33.7461C169.316 30.3969 171.57 27.8571 175.205 27.9029C176.701 27.9283 178.172 28.5442 179.266 29.8268L177.984 30.799ZM181.312 23.9073C181.312 24.574 181.883 25.0474 182.453 25.0474C183.023 25.0474 183.593 24.574 183.593 23.9073C183.593 23.2405 183.023 22.7671 182.453 22.7671C181.883 22.7671 181.312 23.2405 181.312 23.9073ZM181.669 28.1828V39.2991H183.236V28.1828H181.669ZM188.698 39.2992H187.13V21.342H188.698V39.2992ZM58.259 39.3602H59.8267V1.12485H58.259V39.3602ZM50.6038 5.69049C50.6038 3.28297 48.7358 1.2979 46.3741 1.12485H37.7823C36.459 1.12485 35.273 1.70001 34.4383 2.60092L10.4699 26.5387L22.0749 38.1335C22.8995 38.9632 24.0447 39.4722 25.307 39.4722C26.5693 39.4722 27.6534 38.9784 28.478 38.1844L49.2244 17.4533L49.2245 17.4532C49.255 17.4227 49.2855 17.3922 49.311 17.3616L49.3212 17.3515C50.1152 16.5269 50.6089 15.4122 50.6089 14.1804V14.0583V5.80247V5.69049H50.6038ZM16.1706 2.59595L22.7162 9.11102L22.7111 9.11611L7.87917 23.9481L1.28774 17.3516C0.49372 16.5321 0 15.4174 0 14.1806V5.69061C0 3.28309 1.87308 1.29802 4.2348 1.11988H12.8266C14.1499 1.11988 15.3359 1.69504 16.1706 2.59595Z" fill="white"/>
</svg>
