<?xml version="1.0" encoding="UTF-8"?><svg id="Safer_Travel" xmlns="http://www.w3.org/2000/svg" xmlns:xlink="http://www.w3.org/1999/xlink" viewBox="0 0 200.0081 36.0041"><defs><clipPath id="clippath"><rect x=".6997" y=".0071" width="125.835" height="35.9529" fill="none" stroke-width="0"/></clipPath></defs><g clip-path="url(#clippath)"><path d="M5.8929,27.9024c-.0512.1348-.1428.2496-.2606.3311-.1166.0817-.2594.129-.4128.129s-.2963-.0473-.4128-.129c-.1166-.0816-.2082-.1976-.2594-.3324L.8436,18.0693c-.0964-.2543-.144-.5902-.144-.9249s.0476-.6707.144-.925l3.7037-9.8319c.0512-.136.1428-.2508.2594-.3324.1166-.0816.2594-.1289.4128-.1289s.2962.0473.4128.1289c.1178.0816.2094.1975.2606.3312l3.7049,9.8331c.0952.2543.144.5902.144.925s-.0476.6706-.144.9249l-3.7049,9.8331Z" fill="#fff" stroke-width="0"/><path d="M12.1081,11.2857c-.0512.136-.1428.2507-.2593.3324-.1178.0816-.2618.1289-.4153.1289s-.2986-.0473-.4153-.1289c-.1166-.0817-.2081-.1976-.2593-.3324L7.0552,1.4537c-.0167-.0438-.0297-.0911-.0428-.1396-.0178-.0651-.025-.1325-.025-.2023,0-.4211.3438-.7641.7686-.7641h7.3563c.4235,0,.7685.3418.7685.7641,0,.0698-.0071.1384-.025.2023-.0143.0485-.0273.0958-.0429.1396l-3.7036,9.8319h-.0012Z" fill="#fff" stroke-width="0"/><path d="M24.5459,11.2857c-.0511.136-.1428.2507-.2593.3324-.1178.0816-.2617.1289-.4153.1289-.1535,0-.2986-.0473-.4164-.1289-.1166-.0817-.207-.1976-.2593-.3324l-3.7037-9.8319c-.0167-.0438-.0286-.0911-.0429-.1396-.0178-.0651-.025-.1325-.025-.2023,0-.4211.3438-.7641.7686-.7641h7.3561c.4236,0,.7686.3418.7686.7641,0,.0698-.0072.1384-.025.2023-.0143.0485-.0273.0958-.0429.1396l-3.7037,9.8319Z" fill="#fff" stroke-width="0"/><path d="M18.3377,27.9024c-.0512.1348-.1428.2496-.2606.3311-.1166.0817-.2593.129-.4128.129s-.2975-.0473-.414-.129c-.1167-.0816-.2082-.1976-.2594-.3324l-3.7036-9.8319c-.0952-.2543-.144-.5902-.144-.9249s.0476-.6707.144-.925l3.7036-9.8319c.0512-.136.1428-.2508.2594-.3324.1166-.0816.2593-.1289.414-.1289.1546,0,.2962.0473.4128.1289.1178.0816.2094.1975.2606.3312l3.7048,9.8331c.0952.2543.144.5902.144.925s-.0488.6706-.144.9249l-3.7048,9.8331Z" fill="#fff" stroke-width="0"/><path d="M30.7824,27.9024c-.0512.1348-.1428.2496-.2593.3311-.1178.0817-.2594.129-.4129.129s-.2962-.0473-.414-.129c-.1166-.0816-.2082-.1976-.2593-.3324l-3.7037-9.8319c-.0964-.2543-.144-.5902-.144-.9249s.0476-.6707.144-.925l3.7037-9.8319c.0511-.136.1428-.2508.2593-.3324.1178-.0816.2593-.1289.414-.1289s.2962.0473.4129.1289c.1166.0816.2081.1975.2593.3312l3.7048,9.8331c.0952.2543.144.5902.144.925s-.0488.6706-.144.9249l-3.7048,9.8331Z" fill="#fff" stroke-width="0"/><path d="M12.1081,22.828c-.0512-.1361-.1428-.2508-.2593-.3324-.1178-.0817-.2618-.129-.4153-.129s-.2986.0473-.4153.129c-.1166.0816-.2081.1975-.2593.3324l-3.7037,9.833c-.0167.0438-.0297.0911-.0428.1397-.0178.0639-.025.1325-.025.2022,0,.4211.3438.7642.7686.7642h7.3563c.4235,0,.7685-.3418.7685-.7642,0-.0697-.0071-.1383-.025-.2022-.0143-.0485-.0273-.0958-.0429-.1397l-3.7036-9.833h-.0012Z" fill="#fff" stroke-width="0"/><path d="M24.5459,22.828c-.0511-.1361-.1428-.2508-.2593-.3324-.1178-.0817-.2617-.129-.4153-.129-.1535,0-.2986.0473-.4164.129-.1166.0816-.207.1975-.2593.3324l-3.7037,9.833c-.0167.0438-.0286.0911-.0429.1397-.0178.0639-.025.1325-.025.2022,0,.4211.3438.7642.7686.7642h7.3561c.4236,0,.7686-.3418.7686-.7642,0-.0697-.0072-.1383-.025-.2022-.0143-.0485-.0273-.0958-.0429-.1397l-3.7037-9.833Z" fill="#fff" stroke-width="0"/><path d="M43.871,9.399l2.0785-6.4442,2.0797,6.4442h1.8227L52.367.3513h-1.8096l-1.643,6.2526-2.0274-6.2526h-1.8358l-2.0142,6.2265-1.6681-6.2265h-1.8738l2.5282,9.0465h1.8488l-.0011.0012ZM58.3491,7.5998l-1.4241-.4211c-.2059.5618-.6425.9569-1.4384.9569-.8472,0-1.5527-.5997-1.5907-1.4289h4.5175c0-.0248.0262-.2803.0262-.524,0-2.0156-1.1684-3.254-3.1183-3.254-1.6181,0-3.1064,1.3011-3.1064,3.3049,0,2.1185,1.5276,3.3557,3.2599,3.3557,1.5526,0,2.5544-.906,2.8744-1.9907v.0012ZM55.3462,4.3079c.9756,0,1.3861.6127,1.4122,1.2373h-2.8232c.038-.5737.5259-1.2373,1.4122-1.2373h-.0011ZM68.8224,9.3351v-1.404c-.0905.026-.3212.0509-.5259.0509-.4878,0-.7448-.1786-.7448-.7275v-2.6283h1.2707v-1.5058h-1.2707v-1.876h-1.5408v.8801c0,.5618-.3069.996-.9743.996h-.3213v1.5058h1.1422v2.9217c0,1.2124.7698,1.9399,2.0024,1.9399.5009,0,.8078-.0887.9625-.1537v.0012ZM61.7387,8.2894c-.7448,0-1.1172-.4589-1.1552-.9569l-1.4635.3182c.0774.7144.7317,1.9399,2.6317,1.9399,1.655,0,2.4509-1.0468,2.4509-2.0676,0-.9191-.6282-1.6714-1.8739-1.9269l-.8983-.1916c-.3462-.0639-.5782-.2555-.5782-.5619,0-.3572.3592-.6257.809-.6257.7186,0,.9886.472,1.0398.8422l1.4241-.3182c-.0762-.6766-.6805-1.8121-2.4771-1.8121-1.3611,0-2.3616.9309-2.3616,2.0546,0,.8801.5521,1.6075,1.7715,1.876l.834.1916c.4878.1029.6806.3324.6806.6127,0,.3324-.2689.6257-.834.6257ZM80.2785.3442l-2.0797,6.4442-2.0785-6.4442h-1.8227l-2.5152,9.0465h1.8097l1.6418-6.2526,2.0286,6.2526h1.8345l2.0154-6.2265,1.668,6.2265h1.8739l-2.5282-9.0465h-1.8477ZM86.439,2.0984c.5901,0,1.0517-.472,1.0517-1.0338S87.0291.0059,86.439.0059s-1.0529.472-1.0529,1.0587.4748,1.0338,1.0529,1.0338ZM85.592,9.3978h1.7073V3.1204h-1.7073v6.2786-.0012ZM93.3693,8.6703c0,.2934.038.5997.0642.7275h1.63c-.025-.2555-.0512-.7144-.0512-1.1355V.1609h-1.6811v3.5852c-.1797-.3312-.6925-.7783-1.7834-.7783-1.7835,0-3.0291,1.4419-3.0291,3.2801s1.2837,3.3049,3.0803,3.3049c.8471,0,1.4884-.3833,1.7714-.8801l-.0011-.0024ZM91.8036,8.0328c-.8982,0-1.5657-.6636-1.5657-1.7861s.6924-1.7613,1.5657-1.7613,1.5538.6257,1.5538,1.7483-.6805,1.7991-1.5538,1.7991ZM96.7317,9.3978h1.7068V.1609h-1.7068v9.2381-.0012ZM126.5347,7.5229c0-.9191-.6292-1.6714-1.8733-1.9269l-.8988-.1916c-.3463-.0639-.5771-.2555-.5771-.5619,0-.3572.3595-.6257.8089-.6257.7191,0,.9887.472,1.0398.8422l1.4249-.3182c-.0766-.6766-.6793-1.8121-2.4779-1.8121-1.3605,0-2.3615.9309-2.3615,2.0546,0,.8801.5525,1.6075,1.7712,1.876l.8335.1916c.4882.1029.6803.3324.6803.6127,0,.3324-.2687.6257-.8335.6257-.7446,0-1.1164-.4589-1.1552-.9569l-1.4637.3182c.0776.7144.7314,1.9399,2.6302,1.9399,1.6567,0,2.4524-1.0468,2.4524-2.0676ZM108.5924,5.7877c0-.7263.4362-1.3011,1.1798-1.3011.8212,0,1.1685.5488,1.1685,1.2503v3.6621h1.7078v-3.9555c0-1.378-.7191-2.4887-2.2849-2.4887-.6803,0-1.4372.2933-1.8222.9451v-.7783h-1.6567v6.2786h1.7078v-3.6124ZM103.7406,8.6467c0,.2425.0246.5867.0643.7535h1.5658c-.0388-.2165-.0766-.6636-.0766-.996v-3.0884c0-1.2633-.7446-2.3858-2.7476-2.3858-1.6936,0-2.6047,1.0847-2.7078,2.0676l1.5148.3194c.0511-.5488.4617-1.0208,1.2063-1.0208.7455,0,1.0653.3702,1.0653.8162,0,.2165-.1154.3951-.475.4471l-1.5526.2295c-1.053.1538-1.8866.7783-1.8866,1.9008,0,.983.8203,1.889,2.1685,1.889.9376,0,1.5403-.4341,1.861-.9309v-.0012ZM101.4169,7.588c0-.485.3472-.7275.7824-.7913l1.4249-.2165v.2803c0,1.1095-.668,1.4549-1.3861,1.4549-.5525,0-.8222-.3572-.8222-.7274h.001ZM118.6279,8.6727c0,.2933.0378.5997.0643.7274h1.6292c-.0246-.2555-.0511-.7144-.0511-1.1355V.1609h-1.6803v3.5852c-.1798-.3312-.6926-.7783-1.7834-.7783-1.7835,0-3.0295,1.4419-3.0295,3.2801s1.2839,3.3049,3.0806,3.3049c.8468,0,1.4883-.3833,1.7711-.8801h-.0009ZM117.0621,8.0351c-.8988,0-1.5658-.6636-1.5658-1.7861s.6926-1.7613,1.5658-1.7613,1.5535.6257,1.5535,1.7483-.6803,1.7991-1.5535,1.7991Z" fill="#fff" stroke-width="0"/><path d="M45.345,14.8495c-.1059-.6695-.6734-1.5885-1.9809-1.5885-1.0564,0-1.8096.6825-1.8096,1.5496,0,.6695.4092,1.1816,1.2016,1.352l1.4004.3016c1.5586.3418,2.4295,1.3129,2.4295,2.6129,0,1.4443-1.2409,2.7572-3.2349,2.7572-2.2581,0-3.3277-1.4443-3.4991-2.7703l1.2409-.3939c.0927,1.0373.8316,1.9955,2.245,1.9955,1.2945,0,1.9286-.6695,1.9286-1.4833,0-.6695-.4616-1.2467-1.4003-1.4443l-1.3338-.2886c-1.3337-.2887-2.2843-1.1557-2.2843-2.5467s1.36-2.7703,3.0898-2.7703c2.1131,0,2.9578,1.3,3.1695,2.3102l-1.1624.4068Z" fill="#fff" stroke-width="0"/><path d="M49.7032,18.0267l1.7168-.2496c.3831-.052.489-.2496.489-.4731,0-.6175-.4093-1.1284-1.373-1.1284-.872,0-1.3599.5382-1.4395,1.2739l-1.1886-.2756c.1321-1.2076,1.2279-2.0475,2.602-2.0475,1.9011,0,2.6412,1.0764,2.6412,2.3102v3.1641c0,.5512.0523.88.0798,1.0373h-1.2147c-.0262-.1573-.0667-.3939-.0667-.8528-.2772.4459-.9113,1.0504-2.0463,1.0504-1.2945,0-2.1261-.893-2.1261-1.8902,0-1.1284.8316-1.7589,1.9286-1.9163l-.0024-.0024ZM51.909,18.9328v-.2887l-1.9416.2887c-.5283.0793-.9245.3809-.9245.9451,0,.4732.3961.9191,1.0303.9191,1.0172,0,1.8358-.4861,1.8358-1.8642Z" fill="#fff" stroke-width="0"/><path d="M56.7428,16.4382v5.1986h-1.2813v-5.1986h-1.1755v-1.1155h1.1755v-1.0634c0-1.4053.9375-2.1658,2.0868-2.1658.4224,0,.6865.0922.7401.1312v1.1024c-.0667-.026-.2249-.0792-.5414-.0792-.4354,0-1.0041.2105-1.0041,1.0763v.9984h1.5324v1.1155h-1.5324Z" fill="#fff" stroke-width="0"/><path d="M64.8773,19.8376c-.357,1.1155-1.373,1.9955-2.8518,1.9955-1.7038,0-3.1957-1.2337-3.1957-3.3746,0-1.9825,1.4396-3.3344,3.0374-3.3344,1.9548,0,3.0505,1.339,3.0505,3.3084,0,.1573-.0131.3146-.0261.3939h-4.7804c.0261,1.1284.8447,1.9162,1.9143,1.9162s1.5455-.5642,1.7822-1.2739l1.0696.3679v.0011ZM63.6233,17.8292c-.0262-.9061-.621-1.6146-1.743-1.6146-1.0435,0-1.6776.8007-1.7299,1.6146h3.4729Z" fill="#fff" stroke-width="0"/><path d="M70.0275,16.5694c-.1844-.026-.37-.0391-.5414-.0391-1.0434,0-1.743.5512-1.743,1.9434v3.1641h-1.2409v-6.3152h1.2147v1.1024c.4616-.9711,1.254-1.2077,1.9012-1.2077.1714,0,.3438.026.4093.0391v1.3129Z" fill="#fff" stroke-width="0"/><path d="M78.1488,13.5235v8.1132h-1.2945v-8.1132h-3.129v-1.1947h7.5537v1.1947h-3.1302Z" fill="#fff" stroke-width="0"/><path d="M85.2016,16.5694c-.1845-.026-.37-.0391-.5414-.0391-1.0434,0-1.743.5512-1.743,1.9434v3.1641h-1.2409v-6.3152h1.2147v1.1024c.4616-.9711,1.254-1.2077,1.9012-1.2077.1713,0,.3438.026.4093.0391v1.3129Z" fill="#fff" stroke-width="0"/><path d="M88.0534,18.0267l1.7168-.2496c.3831-.052.489-.2496.489-.4731,0-.6175-.4093-1.1284-1.373-1.1284-.872,0-1.3599.5382-1.4395,1.2739l-1.1886-.2756c.1321-1.2076,1.2279-2.0475,2.602-2.0475,1.9011,0,2.6412,1.0764,2.6412,2.3102v3.1641c0,.5512.0523.88.0798,1.0373h-1.2147c-.0262-.1573-.0655-.3939-.0655-.8528-.2772.4459-.9113,1.0504-2.0464,1.0504-1.2944,0-2.126-.893-2.126-1.8902,0-1.1284.8316-1.7589,1.9286-1.9163l-.0036-.0024ZM90.2592,18.9328v-.2887l-1.9416.2887c-.5283.0793-.9245.3809-.9245.9451,0,.4732.3961.9191,1.0303.9191,1.0172,0,1.8358-.4861,1.8358-1.8642Z" fill="#fff" stroke-width="0"/><path d="M96.3343,21.6369h-1.2542l-2.5746-6.3153h1.3991l1.8099,4.871,1.8222-4.871h1.334l-2.5356,6.3153h-.0009Z" fill="#fff" stroke-width="0"/><path d="M105.3925,19.8376c-.3567,1.1155-1.3728,1.9955-2.8516,1.9955-1.704,0-3.196-1.2337-3.196-3.3746,0-1.9825,1.44-3.3344,3.038-3.3344,1.9547,0,3.0503,1.339,3.0503,3.3084,0,.1573-.0132.3146-.0265.3939h-4.7798c.0255,1.1284.8449,1.9162,1.914,1.9162,1.0701,0,1.546-.5642,1.7825-1.2739l1.0691.3679v.0011ZM104.1389,17.8292c-.0265-.9061-.6216-1.6146-1.7428-1.6146-1.0436,0-1.6775.8007-1.7305,1.6146h3.4732Z" fill="#fff" stroke-width="0"/><path d="M107.018,21.6368v-9.5054h1.2413v9.5054h-1.2413Z" fill="#fff" stroke-width="0"/><path d="M41.8329,29.6578v3.8076h-1.2944v-9.3079h3.4074c1.7299,0,2.8923,1.1947,2.8923,2.7572s-1.1624,2.7442-2.8923,2.7442h-2.113v-.0011ZM43.7079,28.5021c1.122,0,1.8097-.6174,1.8097-1.5756s-.6865-1.6146-1.8097-1.6146h-1.875v3.1902h1.875Z" fill="#fff" stroke-width="0"/><path d="M49.4259,29.8553l1.7168-.2496c.3831-.052.489-.2496.489-.4732,0-.6174-.4093-1.1284-1.3729-1.1284-.8721,0-1.3599.5383-1.4396,1.274l-1.1885-.2756c.1321-1.2077,1.2278-2.0475,2.6019-2.0475,1.9012,0,2.6412,1.0764,2.6412,2.3102v3.1641c0,.5511.0524.88.0798,1.0373h-1.2147c-.0262-.1573-.0666-.3939-.0666-.8528-.2772.4459-.9114,1.0504-2.0464,1.0504-1.2945,0-2.1261-.8931-2.1261-1.8903,0-1.1284.8316-1.7589,1.9286-1.9162l-.0024-.0024ZM51.6317,30.7614v-.2887l-1.9416.2887c-.5282.0792-.9245.3808-.9245.9451,0,.4732.3962.9191,1.0303.9191,1.0173,0,1.8358-.4862,1.8358-1.8642Z" fill="#fff" stroke-width="0"/><path d="M58.3263,28.398c-.1844-.026-.3699-.0391-.5413-.0391-1.0434,0-1.7431.5512-1.7431,1.9434v3.1641h-1.2408v-6.3152h1.2147v1.1024c.4616-.9712,1.254-1.2077,1.9012-1.2077.1712,0,.3438.026.4092.039v1.313Z" fill="#fff" stroke-width="0"/><path d="M61.641,27.1501h1.373v1.1155h-1.373v3.2824c0,.5772.238.867.8852.867.1583,0,.3831-.026.4891-.052v1.0504c-.106.039-.4224.1183-.8448.1183-1.0827,0-1.7692-.6565-1.7692-1.7992v-3.4658h-1.2147v-1.1154h.3439c.6864,0,.9768-.4199.9768-.9711v-1.0244h1.1362v1.9955l-.0025-.0012Z" fill="#fff" stroke-width="0"/><path d="M65.7753,33.4654h-1.2408v-6.3153h1.2147v.9061c.4616-.7877,1.2147-1.0894,1.9547-1.0894,1.5182,0,2.2713,1.0894,2.2713,2.4946v4.004h-1.2409v-3.7946c0-.88-.3699-1.5885-1.4788-1.5885-.9768,0-1.4789.7748-1.4789,1.7328v3.6504h-.0012Z" fill="#fff" stroke-width="0"/><path d="M77.4885,31.6662c-.3569,1.1154-1.3729,1.9955-2.8518,1.9955-1.7037,0-3.1956-1.2338-3.1956-3.3746,0-1.9825,1.4395-3.3345,3.0374-3.3345,1.9547,0,3.0505,1.3391,3.0505,3.3085,0,.1572-.0132.3146-.0262.3939h-4.7804c.0262,1.1285.8447,1.9162,1.9143,1.9162s1.5455-.5642,1.7822-1.274l1.0696.3679v.0011ZM76.2345,29.6578c-.0261-.9061-.621-1.6147-1.743-1.6147-1.0434,0-1.6776.8008-1.7299,1.6147h3.4729Z" fill="#fff" stroke-width="0"/><path d="M82.639,28.398c-.1845-.026-.37-.0391-.5414-.0391-1.0434,0-1.743.5512-1.743,1.9434v3.1641h-1.2409v-6.3152h1.2147v1.1024c.4616-.9712,1.254-1.2077,1.9012-1.2077.1713,0,.3438.026.4093.039v1.313Z" fill="#fff" stroke-width="0"/><path d="M84.4878,31.4296c.0797.6565.5805,1.1817,1.4788,1.1817.6996,0,1.0826-.3939,1.0826-.8399,0-.3939-.2903-.6955-.8185-.8138l-1.0827-.2365c-.9911-.2106-1.5848-.8801-1.5848-1.7719,0-1.0764,1.0172-1.9955,2.2581-1.9955,1.743,0,2.2843,1.1284,2.4164,1.6939l-1.0958.4068c-.0523-.3276-.3165-1.0504-1.3206-1.0504-.6341,0-1.0564.4069-1.0564.8399,0,.3809.238.6564.7257.7617l1.0303.2236c1.1494.2496,1.7561.9451,1.7561,1.8772s-.7531,1.9564-2.3236,1.9564c-1.743,0-2.483-1.1154-2.5878-1.8381l1.122-.3939v-.0012Z" fill="#fff" stroke-width="0"/><path d="M91.1707,33.4654h-1.2409v-9.5054h1.2409v3.9259c.4616-.6695,1.2016-.9191,1.9286-.9191,1.5181,0,2.2709,1.0894,2.2709,2.4947v4.0039h-1.2407v-3.7945c0-.8801-.3699-1.5886-1.4788-1.5886-.9507,0-1.4527.7358-1.4789,1.6678v3.7153h-.0011Z" fill="#fff" stroke-width="0"/><path d="M97.9579,23.8677c.5024,0,.8988.394.8988.893s-.3964.8801-.8988.8801c-.5014,0-.8846-.3939-.8846-.8801s.3964-.893.8846-.893ZM97.3505,33.4654v-6.3152h1.2281v6.3152h-1.2281Z" fill="#fff" stroke-width="0"/><path d="M100.6922,35.96v-8.81h1.2016v.9854c.3444-.6305,1.0956-1.1297,2.126-1.1297,1.9017,0,2.9188,1.4573,2.9188,3.2955s-1.0956,3.3344-2.9576,3.3344c-.9774,0-1.7172-.459-2.0597-1.0244v3.3475h-1.2281l-.0009.0012ZM103.7955,28.0964c-1.1363,0-1.8885.9451-1.8885,2.206s.7531,2.2321,1.8885,2.2321c1.1344,0,1.8743-.9321,1.8743-2.2321s-.7124-2.206-1.8743-2.206Z" fill="#fff" stroke-width="0"/></g></svg>