<svg width="256" height="256" viewBox="0 0 256 256" fill="none" xmlns="http://www.w3.org/2000/svg">
<path fill-rule="evenodd" clip-rule="evenodd" d="M256 206.769C256 217.6 247.138 226.462 236.281 226.462H236.232V250.092C236.232 253.342 233.573 256 230.324 256H212.599C209.349 256 206.691 253.342 206.691 250.092V226.462H49.1863V250.092C49.1863 253.342 46.5029 256 43.278 256H25.5532C22.3037 256 19.645 253.342 19.645 250.092V226.462C8.81315 226.437 0 217.575 0 206.769V137.945C0 127.114 4.38196 113.846 9.72401 108.48C15.0907 103.089 21.2205 90.0185 23.3622 79.4092L35.4496 19.3231C37.5667 8.68923 48.1523 0 58.9595 0H196.844C207.675 0 218.335 8.68923 220.55 19.2985L232.416 79.36C234.459 89.9939 240.589 103.089 246.054 108.48C251.52 113.871 256 127.114 256 137.945V206.769ZM178.159 174.006H79.8108C74.3702 174.006 69.9883 178.486 69.9883 184C69.9883 189.514 74.3949 193.994 79.8108 193.994H178.159C183.599 193.994 187.981 189.514 187.981 184C187.981 178.486 183.575 174.006 178.159 174.006ZM20.9743 141.538C20.9743 133.538 27.498 126.991 35.4742 126.991C43.4503 126.991 49.974 133.538 49.974 141.538C49.974 149.538 43.4503 156.012 35.4742 156.012C27.498 156.012 20.9743 149.538 20.9743 141.538ZM212.648 77.5877L203.318 27.7169C202.333 22.3754 197.114 17.9938 191.723 17.9938H64.2031C58.8118 17.9938 53.6421 22.3754 52.7558 27.7415L43.3519 77.6123C41.284 88.2708 48.4231 97.0092 59.2303 97.0092H196.72C207.528 97.0092 214.691 88.2708 212.673 77.6123L212.648 77.5877ZM206.986 141.538C206.986 133.538 213.51 126.991 221.486 126.991C229.462 126.991 235.986 133.538 235.986 141.538C235.986 149.538 229.487 156.012 221.486 156.012C213.485 156.012 206.986 149.538 206.986 141.538ZM192.486 52.7508L183.525 43.7908C182.811 43.0769 181.851 42.6831 180.842 42.6831H144.728V38.8677C144.728 33.1077 140.075 28.4554 134.314 28.4554H84.4389C78.6783 28.4554 74.0256 33.1077 74.0256 38.8677V72.0246C74.0256 77.7846 78.6783 82.4369 84.4389 82.4369H134.314C140.075 82.4369 144.728 77.7846 144.728 72.0246V68.2092L152.187 68.0123C153.196 68.2092 154.156 67.8154 154.87 67.1015L159.351 62.6215L163.831 67.1015C165.308 68.5785 167.721 68.5785 169.198 67.1015L173.678 62.6215L178.159 67.1015C179.636 68.5785 182.048 68.5785 183.525 67.1015L192.486 58.1415C193.963 56.6646 193.988 54.2523 192.486 52.7754V52.7508ZM101.597 48.7385C100.908 51.9138 98.3479 54.4739 95.1969 55.2123C88.8701 56.6646 83.2572 51.1508 84.6851 44.8C85.399 41.6246 87.9592 39.04 91.1595 38.3262C97.4617 36.8985 103.001 42.4615 101.622 48.7385H101.597Z" fill="#3C1053"/>
</svg>
