<svg width="256" height="256" viewBox="0 0 256 256" fill="none" xmlns="http://www.w3.org/2000/svg">
<path fill-rule="evenodd" clip-rule="evenodd" d="M203.186 216.957C203.186 225.546 196.152 232.574 187.535 232.574H187.496V251.315C187.496 253.892 185.386 256 182.807 256H168.739C166.16 256 164.049 253.892 164.049 251.315V232.574H39.0389V251.315C39.0389 253.892 36.9092 256 34.3496 256H20.2815C17.7023 256 15.5921 253.892 15.5921 251.315V232.574C6.99496 232.554 0 225.527 0 216.957V162.374C0 153.785 3.47794 143.262 7.71791 139.007C11.9774 134.731 16.8426 124.365 18.5425 115.951L28.1557 68.3186C29.8361 59.8852 38.2378 52.9941 46.8154 52.9941H156.253C164.851 52.9941 173.311 59.8852 175.069 68.2991L184.487 115.932C186.109 124.365 190.974 134.751 195.312 139.026C199.65 143.301 203.206 153.804 203.206 162.394V216.976L203.186 216.957ZM141.404 190.973H63.3454C59.0273 190.973 55.5494 194.526 55.5494 198.899C55.5494 203.272 59.0469 206.825 63.3454 206.825H141.404C145.722 206.825 149.2 203.272 149.2 198.899C149.2 194.526 145.702 190.973 141.404 190.973ZM16.6472 165.224C16.6472 158.88 21.8251 153.687 28.1557 153.687C34.4863 153.687 39.6642 158.88 39.6642 165.224C39.6642 171.569 34.4863 176.703 28.1557 176.703C21.8251 176.703 16.6472 171.569 16.6472 165.224ZM168.778 114.507L161.373 74.956C160.591 70.7198 156.449 67.2449 152.17 67.2449H50.9577C46.6787 67.2449 42.5755 70.7198 41.8721 74.9755L34.4082 114.526C32.7669 122.979 38.4332 129.909 47.0108 129.909H156.136C164.714 129.909 170.4 122.979 168.797 114.526L168.778 114.507ZM164.284 165.224C164.284 158.88 169.462 153.687 175.792 153.687C182.123 153.687 187.301 158.88 187.301 165.224C187.301 171.569 182.143 176.703 175.792 176.703C169.442 176.703 164.284 171.569 164.284 165.224ZM204.964 39.2899C209.243 39.2899 213.385 42.7452 214.167 47.0009L221.572 86.5518C223.194 95.0243 217.489 101.935 208.911 101.935H195.664L197.911 113.336C199.22 120.129 203.225 127.625 204.905 129.265C212.76 136.996 216.863 151.774 216.863 162.374V223.34C216.863 225.917 218.974 228.025 221.553 228.025H235.621C238.2 228.025 240.31 225.917 240.31 223.34V204.599H240.349C248.946 204.599 256 197.572 256 188.982V134.399C256 125.81 252.444 115.288 248.106 111.032C243.769 106.757 238.903 96.3712 237.282 87.9379L227.864 40.305C226.105 31.8912 217.645 25 209.048 25H99.6098C91.3839 25 83.3338 31.3445 81.2041 39.2899H204.964ZM232.514 148.728C226.183 148.728 221.006 143.594 221.006 137.25C221.006 130.905 226.183 125.712 232.514 125.712C238.845 125.712 244.023 130.905 244.023 137.25C244.023 143.594 238.864 148.728 232.514 148.728Z" fill="#3C1053"/>
</svg>
