<svg width="256" height="256" viewBox="0 0 256 256" fill="none" xmlns="http://www.w3.org/2000/svg">
<path d="M173.4 84.5693C180.603 84.5693 187.708 90.3804 189.175 97.4879L197.069 137.716C198.422 144.834 202.509 153.608 206.141 157.212C209.773 160.815 212.757 169.688 212.757 176.948V223.032C212.757 230.292 206.854 236.226 199.639 236.226H199.613V252.042C199.613 254.223 197.846 256 195.677 256H183.887C181.718 256 179.955 254.223 179.955 252.042V236.226H75.1007V252.042C75.1007 254.223 73.3226 256 71.1654 256H59.3633C57.1947 256 55.428 254.223 55.428 252.042V236.226C48.2208 236.203 42.3482 230.277 42.3482 223.032V176.948C42.3482 169.688 45.2674 160.815 48.8274 157.212C52.395 153.608 56.4819 144.85 57.9074 137.738L65.9638 97.5146C67.3704 90.3918 74.4145 84.5693 81.6179 84.5693H173.4ZM126.939 0C128.375 0.0517823 129.802 0.234959 131.205 0.546362C132.598 0.855342 133.968 1.29056 135.301 1.84892L228.705 58.9438C236.81 62.7145 242.09 71.5037 242.105 81.2517V235.352C242.105 239.804 238.851 243.413 234.837 243.413H225.233C221.219 243.413 217.965 239.804 217.965 235.352V97.3731C217.965 88.5114 211.338 81.2517 203.162 81.2517H51.7219C43.5459 81.2517 36.9187 88.5114 36.9187 97.3731V235.352C36.9187 239.804 33.6649 243.413 29.6511 243.413H20.2676C16.2538 243.413 13 239.804 13 235.352V81.2517C13.0155 71.5037 18.2949 62.7145 26.3997 58.9438L118.536 1.84892C121.226 0.722934 124.065 0.0981954 126.939 0ZM160.951 201.089H95.4896C91.8744 201.089 88.9443 204.083 88.9443 207.783C88.9443 211.487 91.8744 214.482 95.4896 214.482H160.951C164.566 214.482 167.492 211.487 167.492 207.783C167.492 204.083 164.566 201.089 160.951 201.089ZM65.9809 169.615C60.6685 169.615 56.327 173.994 56.327 179.349C56.327 184.705 60.6685 189.035 65.9809 189.035C71.2896 189.035 75.6311 184.705 75.6311 179.349C75.6311 173.994 71.2896 169.615 65.9809 169.615ZM189.79 169.615C184.481 169.615 180.14 173.994 180.14 179.349C180.14 184.705 184.481 189.035 189.79 189.035C195.113 189.035 199.444 184.705 199.444 179.349C199.444 173.994 195.113 169.615 189.79 169.615ZM169.968 96.623H85.0955C81.5047 96.623 78.0725 99.5601 77.4721 103.152L71.208 136.54C69.8337 143.678 74.5912 149.525 81.7766 149.525H173.287C180.476 149.525 185.257 143.678 183.905 136.529L177.694 103.129C177.033 99.5487 173.563 96.623 169.968 96.623Z" fill="#3C1053"/>
</svg>
