<svg width="256" height="256" viewBox="0 0 256 256" fill="none" xmlns="http://www.w3.org/2000/svg">
<path d="M129.189 0C146.974 0 161.391 14.3115 161.391 31.9657C161.391 44.854 156.868 48.4531 132.498 83.5219C132.199 83.9517 131.835 84.301 131.431 84.5697L174.109 84.5693C181.316 84.5693 188.424 90.3804 189.892 97.4879L197.788 137.716C199.143 144.834 203.231 153.608 206.865 157.212C210.499 160.815 213.484 169.688 213.484 176.948V223.032C213.484 230.292 207.578 236.226 200.36 236.226H200.334V252.042C200.334 254.223 198.566 256 196.397 256H184.601C182.431 256 180.667 254.223 180.667 252.042V236.226H75.7669V252.042C75.7669 254.223 73.988 256 71.8299 256H60.0226C57.853 256 56.0855 254.223 56.0855 252.042V236.226C48.8752 236.203 43 230.277 43 223.032V176.948C43 169.688 45.9205 160.815 49.4821 157.212C53.0512 153.608 57.14 144.85 58.5661 137.738L66.626 97.5146C68.0332 90.3918 75.0804 84.5693 82.2869 84.5693L126.947 84.5696C126.543 84.3009 126.179 83.9517 125.879 83.5219C101.51 48.4531 96.9865 44.854 96.9865 31.9657C96.9865 14.3115 111.404 0 129.189 0ZM161.654 201.089H96.1648C92.548 201.089 89.6166 204.083 89.6166 207.783C89.6166 211.487 92.548 214.482 96.1648 214.482H161.654C165.271 214.482 168.199 211.487 168.199 207.783C168.199 204.083 165.271 201.089 161.654 201.089ZM66.6431 169.615C61.3284 169.615 56.985 173.994 56.985 179.349C56.985 184.705 61.3284 189.035 66.6431 189.035C71.9542 189.035 76.2976 184.705 76.2976 179.349C76.2976 173.994 71.9542 169.615 66.6431 169.615ZM190.506 169.615C185.195 169.615 180.852 173.994 180.852 179.349C180.852 184.705 185.195 189.035 190.506 189.035C195.832 189.035 200.165 184.705 200.165 179.349C200.165 173.994 195.832 169.615 190.506 169.615ZM170.676 96.623H85.7661C82.1737 96.623 78.74 99.5601 78.1394 103.152L71.8726 136.54C70.4976 143.678 75.2572 149.525 82.4457 149.525H173.997C181.189 149.525 185.971 143.678 184.619 136.529L178.405 103.129C177.744 99.5487 174.272 96.623 170.676 96.623Z" fill="#3C1053"/>
</svg>
