<svg width="256" height="256" viewBox="0 0 256 256" fill="none" xmlns="http://www.w3.org/2000/svg">
<path d="M237.798 118.999C232.745 113.958 226.61 101.896 224.806 91.9944L213.799 36.1857C211.814 26.2841 201.89 18.3629 191.785 18.3629H164.359V5.40084C164.359 2.34037 161.832 0 158.945 0H96.6937C93.6262 0 91.2805 2.52039 91.2805 5.40084V18.1828H63.6732C53.5686 18.1828 43.6444 26.2841 41.84 36.1857L30.6528 91.9944C28.6679 101.896 22.8939 113.958 18.022 118.999C12.9697 124.039 9 136.281 9 146.363V210.273C9 220.354 17.3002 228.636 27.2244 228.636V250.599C27.2244 253.66 29.7506 256 32.6376 256H49.0576C52.1251 256 54.4708 253.48 54.4708 250.599V228.636H201.168V250.599C201.168 253.66 203.694 256 206.762 256H223.182C226.249 256 228.595 253.48 228.595 250.599V228.636C238.7 228.636 247 220.354 247 210.273V146.363C247 136.281 242.85 124.039 237.798 118.999ZM40.3965 164.546C32.818 164.546 26.6831 158.425 26.6831 150.864C26.6831 143.302 32.818 137.181 40.3965 137.181C47.975 137.181 54.1099 143.302 54.1099 150.864C54.1099 158.425 47.975 164.546 40.3965 164.546ZM173.381 187.409H81.7172C76.6649 187.409 72.5148 183.269 72.5148 178.228C72.5148 173.187 76.6649 169.046 81.7172 169.046H173.381C178.433 169.046 182.583 173.187 182.583 178.228C182.583 183.269 178.433 187.409 173.381 187.409ZM173.381 160.045H81.7172C76.6649 160.045 72.5148 155.904 72.5148 150.864C72.5148 145.823 76.6649 141.682 81.7172 141.682H173.381C178.433 141.682 182.583 145.823 182.583 150.864C182.583 155.904 178.433 160.045 173.381 160.045ZM63.1319 109.637C53.0273 109.637 46.351 101.536 48.3359 91.6343L57.1774 45.5471C58.0796 40.5063 62.9515 36.5457 67.8234 36.5457H187.094C192.146 36.5457 197.018 40.6864 197.92 45.5471L206.581 91.6343C208.566 101.536 201.71 109.637 191.605 109.637H63.1319ZM214.521 164.546C206.942 164.546 200.807 158.425 200.807 150.864C200.807 143.302 206.942 137.181 214.521 137.181C222.099 137.181 228.234 143.302 228.234 150.864C228.234 158.425 222.099 164.546 214.521 164.546Z" fill="#3C1053"/>
</svg>
