<?xml version="1.0" encoding="UTF-8"?>
<svg xmlns="http://www.w3.org/2000/svg" version="1.1" viewBox="0 0 405.5 246.6">
  <defs>
    <style>
      .cls-1 {
        fill: #fff;
      }
    </style>
  </defs>
  <!-- Generator: Adobe Illustrator 28.6.0, SVG Export Plug-In . SVG Version: 1.2.0 Build 709)  -->
  <g>
    <g id="Layer_1">
      <path class="cls-1" d="M79.5,149.6c-14.6,4.5-20.5,16.4-24,26.3-4.4,12.2-11.4,16.9-20.7,13.9l-.5,1.5c10.6,4.1,19.1-1,24.4-14.6,5-12.8,10.6-21.9,21.5-25.4l-.8-1.8h0ZM79.2,173.2c2.6-6.8,6-13.3,10.2-19.2,8.4-12.3,20.1-19.5,31.1-19.5,7,0,12.1,2.2,15.7,6.5l1.4-1.2c-1.2-2-6.1-8.7-17.1-8.7-11.6,0-23.9,7.3-33.4,21.3-4.2,6.3-7.4,13.1-9.6,20.3l1.8.6h0ZM135.1,83.4c22.7-5.8,27.4-16.3,28.7-25.6,1.7-12.5,5.3-17.3,13.1-21.7,2.8-1.6,5.6-3.7,6.2-6.6.1-.7.1-1.4,0-2.2h-1.6c0,.8,0,1.5-.3,2.2-.6,1.8-2.3,3-5,4.3-9.3,4.7-13.7,9.3-15.9,23.6-1.3,8.9-4.7,18.4-25.6,24.4l.5,1.6h0ZM7.6,184.8c0-.1,0-.2-.1-.3l-.4-1c7.9-2.3,8.9-9.8,8.9-15.9v-4.3c0-22.1,17.6-25.8,26-27.6l3.5-.7c8.2-1.7,15.3-3.1,20.5-8.2,4.8-4.7,7.6-11.1,11.3-21.9,6.1-17.7,19.4-21,37.6-23.7,14.1-2.2,14.6-6.2,16.1-15.9l.6-4.1c1.2-8.8,4-14.6,9.1-19.7,4.3-4,9.6-6.8,15.3-8.3l.6,1.5c-5.3,1.6-10.2,4.5-14.1,8.5-5.7,6-7.3,13.6-8.1,20.3-1.5,12.6-2.9,18.3-20.3,21-10,1.6-18.1,3.2-24.1,7.7-4.6,3.5-8,8.5-9.6,14.1-3.7,11-6.5,17.3-12.1,23s-14.6,7.5-23.4,9.3c-12.2,2.5-26,5.3-26,26.1v.5c0,5.9,0,17-11.2,19.8h0ZM27.6,235.5c-9.3,0-14.8-6.6-14.8-15.1-.2-8.4,6.4-15.3,14.8-15.6h1c2.7,0,5.3.5,7.7,1.7v4.5c-2.3-1.5-4.9-2.2-7.6-2.2-6.9,0-10.7,5.1-10.7,11.2s3.9,11.2,10.4,11.2c2.6,0,5.1-.7,7.3-2l1.4,3.5c-2.8,1.7-6,2.6-9.3,2.6h0ZM49.3,216.8c3.7,0,5.7,3,5.7,7.5s-2,7.5-5.6,7.5-5.6-3-5.6-7.5,1.8-7.5,5.5-7.5ZM49.3,213c-2.7,0-5.4,1-7.3,3-2.1,2.3-3.2,5.3-3.1,8.4-.1,3.2,1,6.2,3.2,8.5,1.9,1.8,4.5,2.8,7.2,2.6,2.8,0,5.5-1,7.5-3,4-4.7,4.1-11.7,0-16.4-2-2.1-4.7-3.2-7.5-3.1h0ZM73.2,235.1h-3.7l-8.8-21.6h4.9l5.8,15.5,5.8-15.5h4.6l-8.7,21.6h.2ZM96.8,221.9h-9c-.2-2.6,1.7-5,4.4-5.2h.1c3,0,4.5,2.7,4.5,5.2ZM101.7,225.4v-1.3c0-6.7-3.5-11.1-9.3-11.1s-9.4,5-9.4,11.1,3.2,11.4,10.5,11.4c2.7,0,5.3-.8,7.5-2.3l-1.2-3.1c-1.7,1-3.6,1.5-5.5,1.5-3.4.2-6.3-2.4-6.4-5.7,0,0,0,0,0,0,0-.2,0-.3,0-.5h13.9ZM119.8,235v-12.8c0-2.3-.4-5-3.4-5-2.2.2-4.2,1.1-5.9,2.6v15.2h-4.7v-21.6h3.9l.6,2.4c2.1-1.9,4.8-2.9,7.6-3,3.2,0,6.5,2.1,6.5,7.7v14.4h-4.7ZM136.4,235.5c-2.5.3-4.7-1.4-5-3.9,0,0,0,0,0,0,0-.3,0-.7,0-1v-13.4h-3.7v-3.7h3.7v-4.9l4.7-1.4v6.3h6.7l-1.5,3.7h-5.2v11.7c0,1.7.7,2.5,2.1,2.5,1.3,0,2.6-.5,3.7-1.3l1.3,3.1c-2,1.4-4.3,2.2-6.7,2.3h0ZM158.3,218c-.8-.4-1.6-.6-2.5-.6-1.6.2-3.2.9-4.3,2.1v15.5h-4.7v-21.4h3.9l.6,2.4c1.5-1.8,3.7-2.8,6-2.9,1,0,1.9.3,2.7.8l-1.8,4.2h0ZM174.7,236.2c-3.3,8.3-6.8,9.5-10.5,9.5-1.6,0-3.2-.3-4.7-1l1.3-3.7c1,.6,2.1.8,3.3.8,2.4,0,4.5-1.7,6.4-6.9l-9.1-21.5h5.1l6.5,16.1,6-16.1h4.7l-9.1,22.7h.2ZM209.4,235.5c-8.9,0-14.4-6.4-14.4-15.1s6.1-15.6,14.9-15.6c2.7,0,5.3.5,7.7,1.8v3.5c-2.3-1.6-5-2.4-7.8-2.3-6.7,0-11.2,5.4-11.2,12.3s4.2,12.3,11.2,12.3c2.5,0,4.9-.7,7-1.9l1,2.7c-2.6,1.4-5.5,2.2-8.4,2.2h0ZM224.3,209c-1.3,0-2.3-1-2.3-2.3s1-2.3,2.3-2.3h0c1.3,0,2.3,1,2.3,2.3s-1,2.3-2.3,2.3ZM222.7,235v-21.5h3.3v21.5h-3.3ZM237.7,235.5c-2.3.2-4.3-1.4-4.6-3.7,0-.3,0-.6,0-.9v-14.6h-3.5v-2.8h3.5v-4.7l3.3-1.1v5.9h6.5l-1.2,2.8h-5.5v13.6c0,1.8.7,2.6,2.1,2.6,1.4,0,2.8-.6,3.8-1.5l1,2.4c-1.6,1.3-3.6,2-5.7,2.1h.1ZM256.6,237c-2.8,7.3-6.3,9.2-9.8,9.2-1.3,0-2.7-.2-3.9-.8l.9-2.6c1,.5,2,.7,3.1.7,2.7,0,5.3-2.6,7.1-8.4l-8.9-21.7h3.4l7.1,17.6h.2l6.5-17.6h3.3l-9,23.6h0ZM291.3,235.5c-8.9,0-14.4-6.4-14.4-15.1s6.1-15.6,14.9-15.6c2.7,0,5.3.5,7.7,1.8v3.5c-2.3-1.6-5-2.4-7.8-2.3-6.7,0-11.2,5.4-11.2,12.3s4.2,12.3,11.2,12.3c2.5,0,4.9-.7,7.1-1.9l1,2.7c-2.6,1.4-5.5,2.2-8.4,2.2h0ZM317.8,224.2c0,5.1-2.4,8.5-6.4,8.5s-6.4-3.4-6.4-8.5,2.3-8.4,6.4-8.4,6.5,3.3,6.5,8.4ZM321.2,224.2c.1-3.1-.9-6.2-3-8.5-1.8-1.8-4.3-2.8-6.8-2.8-2.5,0-5,1-6.7,2.8-4,5-4,12.1,0,17.1,1.8,1.8,4.2,2.7,6.7,2.6,2.5,0,5-.9,6.8-2.7,2.1-2.3,3.2-5.4,3.1-8.5ZM339.6,235l-.7-2.2c-1.9,1.7-4.4,2.6-7,2.7-2.9,0-6.6-1.5-6.6-7.6v-14.4h3.3v14.1c0,3.7,1.5,5,4.2,5,2.2,0,4.3-1.1,5.7-2.9v-16.2h3.3v14.3c-.1,2.4,0,4.8.4,7.2h-2.7ZM361.3,235v-13.2c0-2.7-.5-5.7-3.7-5.7-2.6.3-4.9,1.5-6.7,3.4v15.5h-3.3v-21.5h2.7l.5,2.5c2.1-1.9,4.8-3,7.7-3.1,3.1,0,6.2,2.2,6.2,7.6v14.4h-3.4ZM378.8,235.5c-6.6,0-10-5.1-10-11s3.5-11.6,10.6-11.6c1.9,0,3.8.5,5.5,1.4v3.1c-1.7-1.1-3.6-1.6-5.6-1.6-4.5,0-7.1,3.7-7.1,8.5s2.6,8.3,7.1,8.3c1.9,0,3.8-.5,5.4-1.6l1,2.4c-2,1.3-4.4,2.1-6.8,2.1h0ZM391.4,209c-1.3,0-2.3-1-2.3-2.3,0-1.3,1-2.3,2.3-2.3s2.3,1,2.3,2.3-1,2.3-2.3,2.3h0ZM389.8,235v-21.5h3.3v21.5h-3.3ZM402.5,235.5c-1.9.1-3.6-1.3-3.8-3.2,0-.2,0-.5,0-.7v-28.8h3.3v27.2c0,2,.5,2.4,1.8,2.4.4,0,.8,0,1.1-.1l.4,2.4c-.9.5-1.9.7-2.9.7h0ZM210.1,34.2l1.5-5.5,2.3-.8.7-2.2-16.4,5.6.8,2,7.9,1.4c1.2.3,2.4,0,3.4-.5h0ZM220.4,68.1c1.4-.3,2.8-.9,3.9-1.8.3-.6.3-1.3,0-1.8-.3-1-1.3-4.2-.6-5.6s2-1.7,3.8-2.1c1.5-.1,2.7-1.3,3-2.8,0-1.9-.6-3.7-1.6-5.2-3.6-6.3-6.7-12.9-9.4-19.7-1.5-4.4-1.2-8.2,6.1-11,1.5-.6,3.7-1.2,5.1-1.6,5.5-7.2,11.8-13.2,15.5-15.3C247.2.3,248.6,0,250,0c1.2,0,.9.7.7,1.2-2.2,5.2-5.5,13.6-7.2,19.2,2.8-2.9,5.9-5.4,9.3-7.6,1.2-.8,2.6-1.2,4-1.1,1.1,0,1.1.6.8,1-.6,1-4.8,8.9-6.4,12.8,2.6,2.3,5,4.8,7.1,7.5l4.1,4.9c2.7,3.1,8.1,9.1,14.7,16,7,7.2,14.1,14.9,17.8,18.4,2.1,2.2,2.9,2.9,5.8,5.8,1.9,1.8,9.8,9.6,10.8,10.6s2.3,2.7,2.9,3.4c2.5,3,4.3,6.6,5.3,10.4.6,2.9.7,5.9.3,8.9-.1,1.3-.3,2.6-.6,3.8-.4,2-2,7.1-5.6,9.3-3.9,2.4-13.2,4.4-17.7,3-1.8-.6-3.3-1.8-4.2-3.4-1-1.5-2.4-2.7-3.9-3.7-9.9-5.9-20.7-10.1-32-12.4-5.6,2.2-16.4,1.8-29.9-4.2-6,6.6-10.9,17.7-14,26.8-4,11.5-7.7,28-13.5,43.5-3.8-14.2-13.2-28.2-17.7-34.7-5.8-8.3-7.6-10.4-4.9-19.2,3.4-10,8.8-19.1,15.9-26.8-5.3-2.7-10-6.5-13.9-11l.7-1.3c5.2,4.9,11.6,8.2,18.7,9.5,6.6,1.4,16.2,2.2,22.7-1.2,3.3-1.7,3.7-4.4,2.3-8.4-.8-2.6-1.6-4.9.2-7.9,1.3-2.2,0-4.3-2.2-5.1h0ZM0,186.8c3.1,5.9,9.3,9.4,15.9,9.1,6.3,0,12.2-3.1,15.6-8.5,2.3-4.3,3.9-9,4.7-13.9,2.5-12.2,5.1-25.7,30.2-32.5,6.1-1.5,12.2-3.3,18.1-5.5,12.3-5,18.7-11.6,22.4-22.6,3.7-10.7,5.4-15.1,9.3-19.6,2.9-3.2,6.8-5.3,11.1-6.1l-.4-1.6c-4.8.7-9.3,2.8-13,6-4.2,3.9-6.9,9.3-10.8,20.6-2.3,6.8-6,14.4-19.8,20.1-6,2.2-12.1,4.1-18.3,5.7-26.7,7.3-30,22.7-32.2,34.5-1,5.6-2,9.8-4.1,13.3-2.8,4.6-7.7,7.4-13,7.5-5.9.3-11.4-2.6-14.5-7.7l-1.3,1H0ZM105,130.2c5.2-5.5,11.7-8.6,21.7-13,13.2-5.9,25.6-13.5,24.6-34.9l-1.8.2c0,20.4-12.4,26.1-24.5,31.7-7.7,3.7-15.6,7.1-21.4,14.9l1.4,1.2Z"/>
    </g>
  </g>
</svg>