<?xml version="1.0" encoding="UTF-8"?><svg id="Midlands_Connect" xmlns="http://www.w3.org/2000/svg" xmlns:xlink="http://www.w3.org/1999/xlink" viewBox="0 0 200.0081 36.0041"><defs><clipPath id="clippath"><rect x=".0042" width="200" height="36" fill="none" stroke-width="0"/></clipPath></defs><g clip-path="url(#clippath)"><path d="M197.9281,21.4553c.729,0,1.367-.1993,1.915-.4678l.161-1.6879c-.474.2196-1.055.4148-1.566.4148-.399,0-.692-.1261-.836-.3782-.09-.1627-.128-.3254-.128-.5776v-3.6728h2.423v-1.6513h-2.423v-2.5014l-1.965.8419v1.6554h-1.553v1.6513h1.553v4.047c0,.5044.091.9193.272,1.2406.4.7524,1.183,1.0778,2.147,1.0778M189.9111,21.4471c1.166,0,1.986-.2318,2.842-.7158l.165-1.7612c-1.038.5572-1.874.8257-2.842.8257-1.426,0-2.588-.9518-2.588-2.4648,0-1.7286,1.129-2.4648,2.04-2.4648.787,0,1.277.3416,1.425.5369-.148.1627-.255.4311-.255.667,0,.6467.543,1.1877,1.198,1.1877.713,0,1.273-.5044,1.273-1.3301,0-1.2405-1.437-2.6437-3.621-2.6437-2.373,0-4.045,1.9604-4.045,4.0104,0,2.538,1.891,4.1527,4.408,4.1527ZM180.6051,14.8662c1.165,0,1.874.7199,1.911,1.8018h-3.881c.219-1.2975,1.092-1.8018,1.97-1.8018ZM184.4072,18.0306c.058-.2685.095-.6671.095-.9721,0-2.0866-1.331-3.7786-3.881-3.7786s-4.045,1.871-4.045,4.0999c0,2.4485,1.804,4.0633,4.408,4.0633,1.165,0,2.183-.2319,3.023-.7159l.165-1.7612c-.931.5207-1.928.8257-2.896.8257-1.326,0-2.348-.5409-2.624-1.7652h5.755v.0041ZM169.5231,13.4263h-3.094v1.6514h1.186v4.6042h-1.186v1.6188h4.26v-1.6188h-1.096v-3.7053c.638-.5207,1.368-.9193,2.064-.9193.473,0,.799.179.984.5207.107.1952.165.484.165.8094v3.2904h-1.096v1.6188h4.264v-1.6188h-1.186v-3.7785c0-.6467-.145-1.1877-.421-1.6188-.416-.6305-1.108-1.0087-2.055-1.0087-1.166,0-2.023.667-2.789,1.4032v-1.2568.0081ZM159.3022,13.4263h-3.098v1.6514h1.186v4.6042h-1.186v1.6188h4.264v-1.6188h-1.092v-3.7053c.639-.5207,1.368-.9193,2.06-.9193.474,0,.799.179.985.5207.107.1952.164.484.164.8094v3.2904h-1.096v1.6188h4.264v-1.6188h-1.182v-3.7785c0-.6467-.148-1.1877-.42-1.6188-.416-.6305-1.108-1.0087-2.056-1.0087-1.166,0-2.023.667-2.789,1.4032v-1.2568l-.004.0081ZM150.9601,19.8121c-1.298,0-2.208-1.0087-2.208-2.4486s.91-2.4445,2.208-2.4445c1.297,0,2.204,1.0087,2.204,2.4445s-.911,2.4486-2.204,2.4486ZM150.9601,21.4471c2.603,0,4.243-1.9238,4.243-4.0836s-1.603-4.0836-4.243-4.0836-4.248,1.9239-4.248,4.0836,1.603,4.0836,4.248,4.0836ZM140.9901,21.5203c1.916,0,3.642-.7728,4.808-2.0499l-1.364-1.4032c-.894.9517-2.039,1.5659-3.444,1.5659-2.533,0-4.21-1.8873-4.21-4.2626s1.788-4.23,4.12-4.23c1.091,0,1.787.2725,2.134.5409-.075.1424-.128.3783-.128.6101,0,.7728.564,1.2772,1.384,1.2772.746,0,1.31-.5938,1.31-1.4561,0-1.4195-1.858-2.8553-4.643-2.8553-3.497,0-6.303,2.5706-6.303,6.1336s2.641,6.1335,6.34,6.1335M129.2251,15.1753c0-.3783-.145-.7199-.437-1.0046-.544-.541-1.71-.8989-2.678-.8989-2.241,0-3.259,1.2771-3.259,2.4973,0,1.3504.927,1.871,3.131,2.4445,1.224.3254,1.57.5613,1.57.9558,0,.5735-.655.846-1.458.846-.565,0-1.076-.1057-1.438-.2522.016-.1057.037-.2155.037-.3213,0-.6833-.527-1.0453-1.075-1.0453-.618,0-1.055.4881-1.055,1.0616,0,.4149.124.7362.453,1.0616.528.5206,1.838.9517,3.061.9517,1.805,0,3.37-.8785,3.37-2.5339,0-1.4236-1.108-1.8913-3.024-2.3957-1.219-.3213-1.677-.5572-1.677-1.0087,0-.4149.437-.8094,1.331-.8094.4,0,.803.0732,1.129.1993-.037.1058-.037.2156-.037.3417,0,.5938.436.9721,1.075.9721.585,0,.981-.4312.981-1.0616ZM116.6932,19.7632c-1.166,0-2.114-.8622-2.114-2.3753s1.001-2.4119,2.114-2.4119c.749,0,1.367.2522,1.895.6101v3.384c-.548.4678-1.15.7931-1.895.7931ZM116.2352,21.4512c1.022,0,1.768-.4474,2.353-1.0046v.8622h3.168v-1.6188h-1.183v-11.5471h-3.188v1.6513h1.203v4.2463c-.458-.3783-1.203-.7565-2.225-.7565-2.15,0-3.827,1.8343-3.827,4.1202s1.582,4.047,3.699,4.047ZM105.4831,13.4304h-3.094v1.6513h1.187v4.6043h-1.187v1.6188h4.264v-1.6188h-1.096v-3.7054c.639-.5206,1.368-.9192,2.06-.9192.474,0,.803.179.985.5206.111.1953.164.484.164.8094v3.2905h-1.095v1.6188h4.259v-1.6188h-1.182v-3.7786c0-.6467-.144-1.1876-.42-1.6188-.416-.6304-1.108-1.0087-2.056-1.0087-1.166,0-2.023.6671-2.789,1.4033v-1.2568.0081ZM96.593,20.0317c-.7127,0-1.1865-.3417-1.1865-.9721,0-.7199.585-1.1511,1.549-1.1511.618,0,1.1865.0732,1.6396.179v1.2405c-.6014.4352-1.2935.7037-2.0062.7037M95.9503,21.4512c1.0752,0,2.0434-.4678,2.6819-1.0046v.8622h3.0769v-1.6188h-1.186v-3.3637c0-.7931-.202-1.4764-.6179-1.9807-.5644-.6834-1.4913-1.0616-2.8591-1.0616-2.1669,0-3.168,1.0249-3.168,1.993,0,.6507.4573,1.0615,1.0547,1.0615s1.0752-.4311,1.0752-1.0249c0-.1058-.0371-.2888-.0742-.3946.1813-.0732.4367-.126.7869-.126.7086,0,1.24.1627,1.5696.5775.1977.2522.3089.6101.3089,1.0779v.6304c-.4366-.1098-1.2029-.2156-2.0227-.2156-1.895,0-3.2051.8989-3.2051,2.3754s1.2194,2.2085,2.5872,2.2085M88.1437,21.3048h4.408v-1.6188h-1.1864v-11.5472h-3.2216v1.6513h1.24v9.8959h-1.24v1.6188ZM82.4051,19.7592c-1.1659,0-2.1175-.8623-2.1175-2.3753s1.0052-2.412,2.1175-2.412c.7456,0,1.3677.2522,1.895.6101v3.384c-.5479.4678-1.1494.7932-1.895.7932ZM81.9478,21.4471c1.0217,0,1.7673-.4474,2.3523-1.0046v.8623h3.168v-1.6188h-1.1865v-11.5472h-3.1844v1.6513h1.2029v4.2463c-.4573-.3782-1.2029-.7565-2.2246-.7565-2.1505,0-3.823,1.8344-3.823,4.1202s1.586,4.047,3.6994,4.047M72.8434,21.3048h4.3874v-1.6188h-1.1823v-6.2597h-3.2051v1.6514h1.2194v4.6042h-1.2194v1.6229ZM74.8455,12.2224c.7086,0,1.3471-.5735,1.3471-1.2934s-.6014-1.2934-1.31-1.2934-1.3471.5735-1.3471,1.2934.6015,1.2934,1.31,1.2934ZM57.3205,21.3048h4.8818v-1.8141h-1.4378l.2348-6.101,3.4276,5.9383h.276l3.4275-5.9383.2348,6.101h-1.4377v1.8141h4.9147v-1.8141h-1.4213l-.3831-8.2038h1.4954v-1.814h-3.2586l-3.6788,6.5809-3.683-6.5809h-3.2751v1.814h1.4913l-.3831,8.2038h-1.4213v1.8141h-.0041Z" fill="#fff" stroke-width="0"/><path d="M18.8927,11.8034l.0165-.0203v3.1725s.0041.0163.0041.0203c0,.545.3337,1.0616.8816,1.2731.1648.0651.3378.0935.5067.0935.1154,0,.2101-.0691.3213-.0976.0907-.0244.1813-.0406.2637-.0813.1153-.0529.206-.118.3007-.1993.1071-.0936.1936-.2075.2678-.3295.0371-.061.103-.0895.1277-.1586.0124-.0325.0124-.0651.0247-.0976.721-1.749,1.9404-3.2457,3.5182-4.3317,1.6479-1.1267,3.5841-1.7246,5.5945-1.7246,2.5624,0,4.9888.968,6.8262,2.7251.5479.5247,1.4254.5085,1.9527-.0325.5314-.541.515-1.4032-.033-1.9279-2.3564-2.2493-5.4626-3.4898-8.7459-3.4898-2.5789,0-5.0713.7646-7.1806,2.2086-.6756.4637-1.2647.9884-1.8785,1.5618v-2.5055c0-.0325-.0165-.057-.0165-.0895-.0041-.0935-.0288-.179-.0535-.2684-.0206-.0773-.0371-.1586-.0742-.2278-.0412-.0895-.1071-.1668-.1689-.244-.0453-.0569-.0865-.1139-.1401-.1627-.0288-.0244-.0412-.061-.07-.0813-.0659-.0529-.1442-.0691-.2184-.1098-.0494-.0285-.0988-.0569-.1524-.0773-.1359-.0529-.2719-.0732-.4119-.0813-.0248,0-.0454-.0163-.0701-.0163-.0123,0-.0206.0041-.0329.0081-.1525,0-.2966.0366-.445.0895-.0288.0081-.0535.0163-.0823.0244-.1236.0529-.2307.1342-.3379.2237-.0329.0285-.0741.0529-.1029.0854-.0289.0285-.0618.0447-.0907.0732l-.1071.1383c-.0247.0407-.0165.0895-.0371.1302.0206-.0407.0124-.0936.0371-.1302l-8.2969,10.3676L2.4841,7.0243c-.0206-.0285-.0577-.0407-.0824-.0651-.0742-.0813-.1648-.1424-.2554-.2034-.0412-.0285-.0741-.0732-.1154-.0935.0247.0122.033.0407.0577.0529-.0165-.0122-.033-.0244-.0494-.0325-.0082-.0041-.0124-.0163-.0206-.0203-.0082-.0041-.0165-.0081-.0247-.0163-.0082,0-.0165-.0081-.0247-.0122-.1813-.0854-.3749-.1424-.5891-.1424-.0412,0-.0783.0203-.1195.0244-.0453,0-.0824.0163-.1236.0244-.1977.0366-.3708.1058-.5273.2156-.0247.0163-.0536.0122-.0783.0325-.0165.0122-.0247.0325-.0412.0447-.0824.0732-.1483.1546-.2101.244-.0453.061-.0948.1179-.1277.1871-.033.0691-.0494.1424-.0742.2196-.033.1058-.0577.2074-.0659.3172,0,.0203-.0124.0325-.0124.0529v22.0043c0,.7525.6179,1.3626,1.3801,1.3626s1.3801-.6101,1.3801-1.3626V11.8237l6.9498,8.7611c.2719.3457.6839.5247,1.0917.5247.2966,0,.6015-.0936.8528-.2888.1648-.1261.2925-.2847.3831-.4596h.0041c.0124-.0285.0206-.0488.033-.0732-.0082.0203-.0165.0447-.0288.0691l6.8468-8.5536ZM2.5583,7.1829c-.0165-.0244-.033-.0488-.0494-.0691.0165.0244.0329.0447.0494.0691Z" fill="#fff" stroke-width="0"/><path d="M37.5257,25.9659c-1.8374,1.7368-4.2515,2.6926-6.7933,2.6926-2.0268,0-3.9713-.606-5.6233-1.7449-1.5902-1.0982-2.7972-2.6112-3.5099-4.3805.0371.122.0577.2481.0577.3782v4.6531c.552.5816,1.1905,1.1104,1.8703,1.5822,2.1175,1.4642,4.6099,2.237,7.2052,2.237,3.2587,0,6.3525-1.2243,8.7048-3.4532.552-.5206.5685-1.3829.0412-1.9279-.5273-.545-1.4007-.5613-1.9527-.0407" fill="#fff" stroke-width="0"/><path d="M21.5582,22.4395s-.0083-.0122-.0124-.0203c-.0124-.0244-.033-.0448-.0453-.0692-.3049-.6345-1.0505-.9517-1.7261-.6955-.1854.0692-.3337.1871-.4656.3173,0,0-.0082.004-.0123.0081-.0783.0773-.1236.1708-.1813.2684-.0453.0733-.0947.1465-.1277.2278-.0124.0326-.0371.057-.0494.0895-.0083.0244-.0165.0488-.0206.0773-.0165.0895-.0248.183-.0248.2766v7.1259c0,.7525.618,1.3626,1.3801,1.3626s1.3801-.6101,1.3801-1.3626v-7.13c0-.1302-.0206-.2603-.0577-.3783-.0123-.0325-.0288-.0651-.0412-.0976" fill="#fff" stroke-width="0"/><path d="M20.2728,20.3042c.7745,0,1.3966-.6182,1.3966-1.3788s-.6262-1.3829-1.3966-1.3829-1.4007.6182-1.4007,1.3829.6262,1.3788,1.4007,1.3788Z" fill="#fff" stroke-width="0"/><path d="M50.2267,36h-1.8456c-.2719,0-.4943-.2156-.4943-.4881V.4881c0-.2684.2224-.4881.4943-.4881h1.8456c.2719,0,.4944.2196.4944.4881v35.0279c0,.2684-.2225.4881-.4944.4881" fill="#9ac21b" stroke-width="0"/><path d="M58.7955,30.1918h.824v-4.5554h-1.2277v1.029h-1.0752v-2.0011h5.7427v2.0011h-1.0793v-1.029h-1.2235v4.5554h.8239v1.0006h-2.7849v-1.0006Z" fill="#fff" stroke-width="0"/><path d="M67.2077,27.483c0,.3661-.2925.6752-.655.6752-.3296,0-.552-.1871-.6427-.3864-.313.1098-.6756.4474-.8733.8257v1.7083h.7621v.8948h-2.513v-.8948h.6551v-2.5421h-.6551v-.9152h1.7097v.9843c.3708-.5857.8363-1.0616,1.3965-1.0616s.8157.3295.8157.7159" fill="#fff" stroke-width="0"/><path d="M67.5497,30.0536c0-.8135.7251-1.3097,1.7674-1.3097.4531,0,.8733.061,1.1164.118v-.3458c0-.2562-.0618-.4555-.1731-.5938-.1812-.2278-.4737-.3173-.8651-.3173-.1895,0-.3337.0285-.4325.0692.0206.061.0412.1586.0412.2196,0,.3295-.2596.5654-.5933.5654s-.5808-.2278-.5808-.5857c0-.5369.552-1.1023,1.7467-1.1023.7539,0,1.2647.2075,1.5778.5857.2307.2766.3419.6549.3419,1.0901v1.8547h.6551v.8948h-1.6973v-.4759c-.3502.2969-.8858.5572-1.479.5572-.7539,0-1.4254-.4067-1.4254-1.2202M70.4334,30.1065v-.6834c-.2513-.061-.5644-.0976-.9063-.0976-.5315,0-.8528.2359-.8528.6345,0,.3458.2595.5369.655.5369s.7745-.1505,1.1041-.3864" fill="#fff" stroke-width="0"/><path d="M74.3347,27.5399c.4202-.4067.8939-.7728,1.5366-.7728.5232,0,.9063.2074,1.137.5572.1525.2359.2307.5369.2307.8908v2.0824h.6551v.8949h-2.3524v-.8949h.6015v-1.8181c0-.1789-.0288-.3375-.0906-.4474-.0989-.1871-.2802-.2887-.5438-.2887-.3831,0-.7827.2196-1.137.5084v2.0458h.6014v.8949h-2.3523v-.8949h.655v-2.542h-.655v-.9111h1.7097v.6955h.0041Z" fill="#fff" stroke-width="0"/><path d="M81.5235,28.3941c-.3502,0-.5932-.2075-.5932-.5369,0-.0692,0-.1302.0206-.1871-.1813-.0692-.4038-.1098-.6221-.1098-.4902,0-.7333.2196-.7333.4474,0,.2481.2513.3782.9228.5572,1.0546.2766,1.6684.5369,1.6684,1.3219,0,.9151-.8651,1.3991-1.862,1.3991-.6715,0-1.3966-.2399-1.6891-.5246-.1812-.179-.2513-.358-.2513-.5857,0-.3173.2431-.5857.585-.5857.3007,0,.5932.1993.5932.5775,0,.061-.0123.118-.0206.179.2019.0773.482.1383.7951.1383.4408,0,.8034-.1464.8034-.4678,0-.2196-.1895-.3457-.8652-.5247-1.2152-.3172-1.7302-.606-1.7302-1.3503,0-.6752.5644-1.3788,1.8003-1.3788.5314,0,1.1741.1993,1.4789.4962.1607.1586.2431.3457.2431.5572,0,.3457-.2225.5857-.5438.5857" fill="#fff" stroke-width="0"/><path d="M82.78,32.2458h.655v-4.4863h-.655v-.9111h1.7096v.4963c.3419-.3173.7127-.5776,1.3059-.5776,1.1453,0,2.0104.9233,2.0104,2.233s-.9145,2.2736-2.0804,2.2736c-.4738,0-.8651-.1708-1.1947-.4189v1.391h.7127v.8907h-2.4635v-.8907ZM86.6813,29.0123c0-.8338-.5026-1.3097-1.1247-1.3097-.412,0-.7333.1789-1.0258.4352v1.8669c.2801.1993.6221.3376,1.0258.3376.5809,0,1.1247-.4678,1.1247-1.33Z" fill="#fff" stroke-width="0"/><path d="M88.4898,29.0204c0-1.1917.9063-2.2533,2.34-2.2533s2.3399,1.0412,2.3399,2.2533-.9022,2.2533-2.3399,2.2533-2.34-1.0412-2.34-2.2533ZM92.0491,29.0204c0-.7931-.5026-1.3504-1.2153-1.3504s-1.2153.5573-1.2153,1.3504.5026,1.3504,1.2153,1.3504,1.2153-.5573,1.2153-1.3504Z" fill="#fff" stroke-width="0"/><path d="M97.7466,27.483c0,.3661-.2925.6752-.655.6752-.3337,0-.552-.1871-.6426-.3864-.3131.1098-.6715.4474-.8734.8257v1.7083h.7621v.8948h-2.5129v-.8948h.655v-2.5421h-.655v-.9152h1.7096v.9843c.3708-.5857.8322-1.0616,1.3966-1.0616s.8156.3295.8156.7159" fill="#fff" stroke-width="0"/><path d="M98.9825,30.6758c-.0988-.1789-.1524-.4067-.1524-.6833v-2.2329h-.8528v-.9152h.8528v-.9111l1.0876-.4677v1.3788h1.3345v.9152h-1.3345v2.0255c0,.1383.0206.2278.07.3172.0785.1383.2435.2075.4615.2075.28,0,.601-.1098.865-.2278l-.091.9314c-.3.1505-.655.2563-1.054.2563-.5316,0-.9642-.179-1.1867-.5939Z" fill="#fff" stroke-width="0"/><path d="M105.7062,23.9281h-.944v9.2491h.944v-9.2491Z" fill="#9ac21b" stroke-width="0"/><path d="M109.2441,30.1918h.804v-4.5269h-.804v-1.0006h2.744v1.0006h-.803v4.5269h.803v1.0006h-2.744v-1.0006Z" fill="#fff" stroke-width="0"/><path d="M114.3821,27.5399c.42-.4067.894-.7728,1.536-.7728.523,0,.907.2074,1.137.5572.153.2359.231.5369.231.8908v2.0824h.655v.8949h-2.352v-.8949h.601v-1.8181c0-.1789-.029-.3375-.091-.4474-.098-.1871-.28-.2887-.543-.2887-.383,0-.783.2196-1.137.5084v2.0458h.601v.8949h-2.352v-.8949h.655v-2.542h-.655v-.9111h1.709v.6955h.005Z" fill="#fff" stroke-width="0"/><path d="M118.4852,27.7596h-.515v-.9151h2.253v.8663h-.634l1.054,2.2615,1.055-2.2615h-.663v-.8663h2.241v.9151h-.511l-1.751,3.5142h-.783l-1.746-3.5142Z" fill="#fff" stroke-width="0"/><path d="M124.6761,29.3865c.153.6752.713.9721,1.446.9721.532,0,1.084-.1708,1.599-.4555l-.091.9721c-.461.2684-1.026.3986-1.668.3986-1.438,0-2.435-.8948-2.435-2.2411,0-1.2324.873-2.2615,2.233-2.2615,1.359,0,2.142.9315,2.142,2.0825,0,.1708-.02.3864-.049.5369h-3.177v-.0041ZM124.6642,28.6341h2.142c-.02-.5939-.412-.9925-1.054-.9925-.482,0-.964.2766-1.088.9925Z" fill="#fff" stroke-width="0"/><path d="M131.7502,28.3941c-.35,0-.593-.2075-.593-.5369,0-.0692,0-.1302.02-.1871-.181-.0692-.403-.1098-.622-.1098-.494,0-.733.2196-.733.4474,0,.2481.251.3782.923.5572,1.054.2766,1.668.5369,1.668,1.3219,0,.9151-.865,1.3991-1.858,1.3991-.675,0-1.396-.2399-1.689-.5246-.181-.179-.251-.358-.251-.5857,0-.3173.243-.5857.585-.5857.301,0,.593.1993.593.5775,0,.061-.008.118-.021.179.202.0773.482.1383.796.1383.44,0,.803-.1464.803-.4678,0-.2196-.19-.3457-.865-.5247-1.216-.3172-1.731-.606-1.731-1.3503,0-.6752.565-1.3788,1.801-1.3788.531,0,1.178.1993,1.479.4962.16.1586.243.3457.243.5572,0,.3457-.223.5857-.544.5857" fill="#fff" stroke-width="0"/><path d="M133.9131,30.6758c-.099-.1789-.153-.4067-.153-.6833v-2.2329h-.852v-.9152h.852v-.9111l1.084-.4677v1.3788h1.335v.9152h-1.335v2.0255c0,.1383.02.2278.07.3172.078.1383.243.2075.461.2075.28,0,.602-.1098.865-.2278l-.09.9314c-.301.1505-.655.2563-1.055.2563-.531,0-.964-.179-1.186-.5939" fill="#fff" stroke-width="0"/><path d="M136.8382,30.3016h.655v-2.542h-.655v-.9152h1.709v.6833c.342-.366.824-.7646,1.479-.7646.474,0,.824.1789,1.047.4677.061.0773.098.1586.14.2481.412-.3986.906-.7158,1.466-.7158.614,0,1.034.2196,1.257.6263.119.2197.181.4962.181.8135v2.0947h.655v.8948h-2.34v-.8948h.593v-1.8344c0-.1708-.02-.2969-.07-.4067-.09-.2075-.272-.3091-.523-.3091-.362,0-.746.2074-1.075.484v2.0621h.593v.8948h-2.29v-.8948h.601v-1.8344c0-.1708-.021-.2969-.07-.4067-.091-.2074-.26-.3091-.523-.3091-.363,0-.742.2074-1.075.484v2.0621h.585v.8949h-2.332v-.8949l-.008.0122Z" fill="#fff" stroke-width="0"/><path d="M146.3461,29.3865c.148.6752.712.9721,1.446.9721.531,0,1.083-.1708,1.598-.4555l-.09.9721c-.462.2684-1.026.3986-1.669.3986-1.438,0-2.435-.8948-2.435-2.2411,0-1.2324.874-2.2615,2.233-2.2615,1.36,0,2.142.9315,2.142,2.0825,0,.1708-.02.3864-.049.5369h-3.176v-.0041ZM146.3331,28.6341h2.143c-.021-.5939-.412-.9925-1.055-.9925-.482,0-.964.2766-1.083.9925" fill="#fff" stroke-width="0"/><path d="M151.9032,27.5399c.42-.4067.894-.7728,1.537-.7728.523,0,.906.2074,1.137.5572.152.2359.231.5369.231.8908v2.0824h.655v.8949h-2.353v-.8949h.602v-1.8181c0-.1789-.029-.3375-.091-.4474-.099-.1871-.28-.2887-.544-.2887-.383,0-.782.2196-1.137.5084v2.0458h.602v.8949h-2.353v-.8949h.655v-2.542h-.655v-.9111h1.71v.6955h.004Z" fill="#fff" stroke-width="0"/><path d="M156.7191,30.6758c-.099-.1789-.152-.4067-.152-.6833v-2.2329h-.853v-.9152h.853v-.9111l1.087-.4677v1.3788h1.335v.9152h-1.335v2.0255c0,.1383.021.2278.07.3172.078.1383.243.2075.462.2075.28,0,.601-.1098.865-.2278l-.091.9314c-.301.1505-.655.2563-1.055.2563-.531,0-.964-.179-1.186-.5939Z" fill="#fff" stroke-width="0"/><path d="M163.4422,23.9281h-.943v9.2491h.943v-9.2491Z" fill="#9ac21b" stroke-width="0"/><path d="M167.0721,27.9467c0-2.0133,1.549-3.4043,3.477-3.4043,1.536,0,2.562.7931,2.562,1.5781,0,.4759-.313.8053-.725.8053-.453,0-.762-.2766-.762-.7036,0-.1302.029-.2563.07-.3376-.19-.1505-.573-.2969-1.178-.2969-1.286,0-2.27.9436-2.27,2.3509s1.054,2.3631,2.171,2.3631c.692,0,1.174-.1505,1.598-.4189v-1.1226h-1.648v-.9518h2.765v3.3841h-1.088v-.4881c-.461.3579-1.055.606-1.8.606-1.628,0-3.177-1.269-3.177-3.3637" fill="#fff" stroke-width="0"/><path d="M178.1411,27.483c0,.3661-.292.6752-.655.6752-.334,0-.552-.1871-.643-.3864-.313.1098-.671.4474-.873.8257v1.7083h.762v.8948h-2.513v-.8948h.655v-2.5421h-.655v-.9152h1.71v.9843c.371-.5857.832-1.0616,1.396-1.0616.565,0,.816.3295.816.7159" fill="#fff" stroke-width="0"/><path d="M178.4711,29.0204c0-1.1917.906-2.2533,2.34-2.2533,1.433,0,2.34,1.0412,2.34,2.2533s-.907,2.2533-2.34,2.2533c-1.434,0-2.34-1.0412-2.34-2.2533ZM182.0302,29.0204c0-.7931-.503-1.3504-1.215-1.3504-.713,0-1.216.5573-1.216,1.3504s.503,1.3504,1.216,1.3504c.712,0,1.215-.5573,1.215-1.3504Z" fill="#fff" stroke-width="0"/><path d="M184.1602,27.7596h-.643v-.9151h2.262v.8948h-.622l.601,2.1353,1.038-2.5827h.754l1.026,2.5827.602-2.1353h-.725v-.8948h2.261v.9151h-.642l-1.088,3.6037h-.77l-1.096-2.66-1.096,2.66h-.775l-1.087-3.6037Z" fill="#fff" stroke-width="0"/><path d="M191.8602,30.6758c-.099-.1789-.153-.4067-.153-.6833v-2.2329h-.853v-.9152h.853v-.9111l1.088-.4677v1.3788h1.334v.9152h-1.334v2.0255c0,.1383.02.2278.07.3172.082.1383.243.2075.461.2075.28,0,.602-.1098.865-.2278l-.09.9314c-.301.1505-.655.2563-1.055.2563-.531,0-.964-.179-1.186-.5939Z" fill="#fff" stroke-width="0"/><path d="M194.7352,24.8433v-.911h1.751v3.5711c.412-.3864.873-.7362,1.499-.7362.474,0,.845.1708,1.076.4677.189.2481.292.5857.292.9843v2.0825h.655v.8948h-2.352v-.8948h.601v-1.8181c0-.2359-.049-.4067-.14-.5247-.111-.1383-.28-.2074-.494-.2074-.383,0-.783.2196-1.137.5043v2.0459h.601v.8948h-2.352v-.8948h.655v-5.4584h-.655Z" fill="#fff" stroke-width="0"/></g></svg>