<svg width="200" height="36" viewBox="0 0 200 36" fill="none" xmlns="http://www.w3.org/2000/svg">
<g clip-path="url(#clip0_402_3049)">
<path d="M197.924 21.4553C198.653 21.4553 199.291 21.256 199.839 20.9875L200 19.2996C199.526 19.5192 198.945 19.7144 198.434 19.7144C198.035 19.7144 197.742 19.5883 197.598 19.3362C197.508 19.1735 197.47 19.0108 197.47 18.7586V15.0858H199.893V13.4345H197.47V10.9331L195.505 11.775V13.4304H193.952V15.0817H195.505V19.1287C195.505 19.6331 195.596 20.048 195.777 20.3693C196.177 21.1217 196.96 21.4471 197.924 21.4471M189.907 21.4471C191.073 21.4471 191.893 21.2153 192.749 20.7313L192.914 18.9701C191.876 19.5273 191.04 19.7958 190.072 19.7958C188.646 19.7958 187.484 18.844 187.484 17.331C187.484 15.6024 188.613 14.8662 189.524 14.8662C190.311 14.8662 190.801 15.2078 190.949 15.4031C190.801 15.5658 190.694 15.8342 190.694 16.0701C190.694 16.7168 191.237 17.2578 191.892 17.2578C192.605 17.2578 193.165 16.7534 193.165 15.9277C193.165 14.6872 191.728 13.284 189.544 13.284C187.171 13.284 185.499 15.2444 185.499 17.2944C185.499 19.8324 187.39 21.4471 189.907 21.4471ZM180.601 14.8662C181.766 14.8662 182.475 15.5861 182.512 16.668H178.631C178.85 15.3705 179.723 14.8662 180.601 14.8662ZM184.403 18.0306C184.461 17.7621 184.498 17.3635 184.498 17.0585C184.498 14.9719 183.167 13.2799 180.617 13.2799C178.067 13.2799 176.572 15.1509 176.572 17.3798C176.572 19.8283 178.376 21.4431 180.98 21.4431C182.145 21.4431 183.163 21.2112 184.003 20.7272L184.168 18.966C183.237 19.4867 182.24 19.7917 181.272 19.7917C179.946 19.7917 178.924 19.2508 178.648 18.0265H184.403V18.0306ZM169.519 13.4263H166.425V15.0777H167.611V19.6819H166.425V21.3007H170.685V19.6819H169.589V15.9766C170.227 15.4559 170.957 15.0573 171.653 15.0573C172.126 15.0573 172.452 15.2363 172.637 15.578C172.744 15.7732 172.802 16.062 172.802 16.3874V19.6778H171.706V21.2966H175.97V19.6778H174.784V15.8993C174.784 15.2526 174.639 14.7116 174.363 14.2805C173.947 13.65 173.255 13.2718 172.308 13.2718C171.142 13.2718 170.285 13.9388 169.519 14.675V13.4182V13.4263ZM159.298 13.4263H156.2V15.0777H157.386V19.6819H156.2V21.3007H160.464V19.6819H159.372V15.9766C160.011 15.4559 160.74 15.0573 161.432 15.0573C161.906 15.0573 162.231 15.2363 162.417 15.578C162.524 15.7732 162.581 16.062 162.581 16.3874V19.6778H161.485V21.2966H165.749V19.6778H164.567V15.8993C164.567 15.2526 164.419 14.7116 164.147 14.2805C163.731 13.65 163.039 13.2718 162.091 13.2718C160.925 13.2718 160.068 13.9388 159.302 14.675V13.4182L159.298 13.4263ZM150.956 19.8121C149.658 19.8121 148.748 18.8034 148.748 17.3635C148.748 15.9237 149.658 14.919 150.956 14.919C152.253 14.919 153.16 15.9277 153.16 17.3635C153.16 18.7993 152.249 19.8121 150.956 19.8121ZM150.956 21.4471C153.559 21.4471 155.199 19.5233 155.199 17.3635C155.199 15.2038 153.596 13.2799 150.956 13.2799C148.315 13.2799 146.708 15.2038 146.708 17.3635C146.708 19.5233 148.311 21.4471 150.956 21.4471ZM140.986 21.5203C142.902 21.5203 144.628 20.7475 145.794 19.4704L144.43 18.0672C143.536 19.0189 142.391 19.6331 140.986 19.6331C138.453 19.6331 136.776 17.7458 136.776 15.3705C136.776 12.9952 138.564 11.1405 140.896 11.1405C141.987 11.1405 142.683 11.413 143.03 11.6814C142.955 11.8238 142.902 12.0597 142.902 12.2915C142.902 13.0643 143.466 13.5687 144.286 13.5687C145.032 13.5687 145.596 12.9749 145.596 12.1126C145.596 10.6931 143.738 9.25731 140.953 9.25731C137.456 9.25731 134.65 11.8279 134.65 15.3909C134.65 18.9538 137.291 21.5244 140.99 21.5244M129.221 15.1753C129.221 14.797 129.076 14.4554 128.784 14.1707C128.24 13.6297 127.074 13.2718 126.106 13.2718C123.865 13.2718 122.847 14.5489 122.847 15.7691C122.847 17.1195 123.774 17.6401 125.978 18.2136C127.202 18.539 127.548 18.7749 127.548 19.1694C127.548 19.7429 126.893 20.0154 126.09 20.0154C125.525 20.0154 125.014 19.9097 124.652 19.7632C124.668 19.6575 124.689 19.5477 124.689 19.4419C124.689 18.7586 124.162 18.3966 123.614 18.3966C122.996 18.3966 122.559 18.8847 122.559 19.4582C122.559 19.8731 122.683 20.1944 123.012 20.5198C123.54 21.0404 124.85 21.4715 126.073 21.4715C127.878 21.4715 129.443 20.593 129.443 18.9376C129.443 17.514 128.335 17.0463 126.419 16.5419C125.2 16.2206 124.742 15.9847 124.742 15.5332C124.742 15.1183 125.179 14.7238 126.073 14.7238C126.473 14.7238 126.876 14.797 127.202 14.9231C127.165 15.0289 127.165 15.1387 127.165 15.2648C127.165 15.8586 127.601 16.2369 128.24 16.2369C128.825 16.2369 129.221 15.8057 129.221 15.1753ZM116.689 19.7632C115.523 19.7632 114.575 18.901 114.575 17.3879C114.575 15.8749 115.576 14.976 116.689 14.976C117.438 14.976 118.056 15.2282 118.584 15.5861V18.9701C118.036 19.4379 117.434 19.7632 116.689 19.7632ZM116.231 21.4512C117.253 21.4512 117.999 21.0038 118.584 20.4466V21.3088H121.752V19.69H120.569V8.14286H117.381V9.7942H118.584V14.0405C118.126 13.6622 117.381 13.284 116.359 13.284C114.209 13.284 112.532 15.1183 112.532 17.4042C112.532 19.69 114.114 21.4512 116.231 21.4512ZM105.479 13.4304H102.385V15.0817H103.572V19.686H102.385V21.3048H106.649V19.686H105.553V15.9806C106.192 15.46 106.921 15.0614 107.613 15.0614C108.087 15.0614 108.416 15.2404 108.598 15.582C108.709 15.7773 108.762 16.066 108.762 16.3914V19.6819H107.667V21.3007H111.926V19.6819H110.744V15.9033C110.744 15.2566 110.6 14.7157 110.324 14.2845C109.908 13.6541 109.216 13.2758 108.268 13.2758C107.102 13.2758 106.245 13.9429 105.479 14.6791V13.4223V13.4304ZM96.5889 20.0317C95.8762 20.0317 95.4024 19.69 95.4024 19.0596C95.4024 18.3397 95.9874 17.9085 96.9514 17.9085C97.5694 17.9085 98.1379 17.9817 98.591 18.0875V19.328C97.9896 19.7632 97.2975 20.0317 96.5848 20.0317M95.9462 21.4512C97.0214 21.4512 97.9896 20.9834 98.6281 20.4466V21.3088H101.705V19.69H100.519V16.3263C100.519 15.5332 100.317 14.8499 99.9011 14.3456C99.3367 13.6622 98.4098 13.284 97.042 13.284C94.8751 13.284 93.874 14.3089 93.874 15.277C93.874 15.9277 94.3313 16.3385 94.9287 16.3385C95.526 16.3385 96.0039 15.9074 96.0039 15.3136C96.0039 15.2078 95.9668 15.0248 95.9297 14.919C96.111 14.8458 96.3664 14.793 96.7166 14.793C97.4252 14.793 97.9566 14.9557 98.2862 15.3705C98.4839 15.6227 98.5951 15.9806 98.5951 16.4484V17.0788C98.1585 16.969 97.3922 16.8632 96.5724 16.8632C94.6774 16.8632 93.3673 17.7621 93.3673 19.2386C93.3673 20.715 94.5867 21.4471 95.9545 21.4471M88.1395 21.3048H92.5475V19.686H91.3611V8.13879H88.1395V9.79013H89.3795V19.686H88.1395V21.3048ZM82.4009 19.7592C81.235 19.7592 80.2834 18.8969 80.2834 17.3839C80.2834 15.8708 81.2886 14.9719 82.4009 14.9719C83.1465 14.9719 83.7686 15.2241 84.2959 15.582V18.966C83.748 19.4338 83.1465 19.7592 82.4009 19.7592ZM81.9436 21.4471C82.9653 21.4471 83.7109 20.9997 84.2959 20.4425V21.3048H87.4639V19.686H86.2774V8.13879H83.093V9.79013H84.2959V14.0364C83.8386 13.6582 83.093 13.2799 82.0713 13.2799C79.9208 13.2799 78.2483 15.1143 78.2483 17.4001C78.2483 19.686 79.8343 21.4471 81.9477 21.4471M72.8392 21.3048H77.2266V19.686H76.0443V13.4263H72.8392V15.0777H74.0586V19.6819H72.8392V21.3007V21.3048ZM74.8413 12.2224C75.5499 12.2224 76.1884 11.6489 76.1884 10.929C76.1884 10.2091 75.587 9.63557 74.8784 9.63557C74.1698 9.63557 73.5313 10.2091 73.5313 10.929C73.5313 11.6489 74.1328 12.2224 74.8413 12.2224ZM57.3164 21.3048H62.1982V19.4907H60.7604L60.9952 13.3897L64.4228 19.328H64.6988L68.1263 13.3897L68.3611 19.4907H66.9234V21.3048H71.8381V19.4907H70.4168L70.0337 11.2869H71.5291V9.47288H68.2705L64.5917 16.0538L60.9087 9.47288H57.6336V11.2869H59.1249L58.7418 19.4907H57.3205V21.3048H57.3164Z" fill="white"/>
<path d="M18.8885 11.8034L18.905 11.7831V14.9556C18.905 14.9556 18.9091 14.9719 18.9091 14.9759C18.9091 15.5209 19.2428 16.0375 19.7907 16.249C19.9555 16.3141 20.1285 16.3425 20.2974 16.3425C20.4128 16.3425 20.5075 16.2734 20.6187 16.2449C20.7094 16.2205 20.8 16.2043 20.8824 16.1636C20.9977 16.1107 21.0884 16.0456 21.1831 15.9643C21.2902 15.8707 21.3767 15.7568 21.4509 15.6348C21.488 15.5738 21.5539 15.5453 21.5786 15.4762C21.591 15.4437 21.591 15.4111 21.6033 15.3786C22.3243 13.6296 23.5437 12.1329 25.1215 11.0469C26.7694 9.92022 28.7056 9.32232 30.716 9.32232C33.2784 9.32232 35.7048 10.2903 37.5422 12.0474C38.0901 12.5721 38.9676 12.5559 39.4949 12.0149C40.0263 11.4739 40.0099 10.6117 39.4619 10.087C37.1055 7.83774 33.9993 6.59721 30.716 6.59721C28.1371 6.59721 25.6447 7.36186 23.5354 8.80577C22.8598 9.26945 22.2707 9.79413 21.6569 10.3676V7.86215C21.6569 7.82961 21.6404 7.8052 21.6404 7.77267C21.6363 7.67912 21.6116 7.5937 21.5869 7.50422C21.5663 7.42694 21.5498 7.3456 21.5127 7.27645C21.4715 7.18697 21.4056 7.10969 21.3438 7.03241C21.2985 6.97547 21.2573 6.91853 21.2037 6.86972C21.1749 6.84531 21.1625 6.80871 21.1337 6.78837C21.0678 6.7355 20.9895 6.71923 20.9153 6.67855C20.8659 6.65008 20.8165 6.62161 20.7629 6.60127C20.627 6.5484 20.491 6.52806 20.351 6.51993C20.3262 6.51993 20.3056 6.50366 20.2809 6.50366C20.2686 6.50366 20.2603 6.50772 20.248 6.51179C20.0955 6.51179 19.9514 6.5484 19.803 6.60127C19.7742 6.60941 19.7495 6.61754 19.7207 6.62568C19.5971 6.67855 19.49 6.7599 19.3828 6.84938C19.3499 6.87785 19.3087 6.90226 19.2799 6.93479C19.251 6.96327 19.2181 6.97954 19.1892 7.00801L19.0821 7.1463C19.0574 7.18697 19.0656 7.23578 19.045 7.27645C19.0656 7.23578 19.0574 7.1829 19.0821 7.1463L10.7852 17.5139L2.47999 7.02428C2.45939 6.9958 2.42231 6.9836 2.3976 6.9592C2.32344 6.87785 2.23281 6.81684 2.14218 6.75583C2.10098 6.72736 2.06803 6.68262 2.02683 6.66228C2.05155 6.67448 2.05979 6.70296 2.0845 6.71516C2.06803 6.70296 2.05155 6.69075 2.03507 6.68262C2.02683 6.67855 2.02271 6.66635 2.01447 6.66228C2.00623 6.65822 1.99799 6.65415 1.98975 6.64601C1.98151 6.64601 1.97327 6.63788 1.96503 6.63381C1.78377 6.5484 1.59015 6.49146 1.37593 6.49146C1.33473 6.49146 1.29765 6.51179 1.25646 6.51586C1.21114 6.51586 1.17406 6.53213 1.13287 6.54026C0.935126 6.57687 0.762102 6.64601 0.605555 6.75583C0.580838 6.7721 0.552 6.76803 0.527282 6.78837C0.510804 6.80057 0.502565 6.82091 0.486086 6.83311C0.403693 6.90632 0.337779 6.98767 0.275985 7.07715C0.230669 7.13816 0.181233 7.1951 0.148276 7.26425C0.115319 7.33339 0.0988405 7.40661 0.0741227 7.48389C0.0411656 7.58964 0.0164478 7.69132 0.00820851 7.80114C0.00820851 7.82147 -0.00415039 7.83368 -0.00415039 7.85401V29.8583C-0.00415039 30.6108 0.613795 31.2209 1.37593 31.2209C2.13806 31.2209 2.756 30.6108 2.756 29.8583V11.8237L9.70583 20.5848C9.97772 20.9305 10.3897 21.1095 10.7975 21.1095C11.0941 21.1095 11.399 21.0159 11.6503 20.8207C11.8151 20.6946 11.9428 20.536 12.0334 20.3611H12.0375C12.0499 20.3326 12.0581 20.3123 12.0705 20.2879C12.0623 20.3082 12.054 20.3326 12.0417 20.357L18.8885 11.8034ZM2.55414 7.1829C2.53766 7.1585 2.52119 7.13409 2.50471 7.11376C2.52119 7.13816 2.53766 7.1585 2.55414 7.1829Z" fill="white"/>
<path d="M37.5216 25.9659C35.6842 27.7027 33.2701 28.6585 30.7283 28.6585C28.7015 28.6585 26.757 28.0525 25.105 26.9136C23.5148 25.8154 22.3078 24.3024 21.5951 22.5331C21.6322 22.6551 21.6528 22.7812 21.6528 22.9113V27.5644C22.2048 28.146 22.8433 28.6748 23.5231 29.1466C25.6406 30.6108 28.133 31.3836 30.7283 31.3836C33.987 31.3836 37.0808 30.1593 39.4331 27.9304C39.9851 27.4098 40.0016 26.5475 39.4743 26.0025C38.947 25.4575 38.0736 25.4412 37.5216 25.9618" fill="white"/>
<path d="M21.554 22.4395C21.554 22.4395 21.5457 22.4273 21.5416 22.4192C21.5292 22.3948 21.5086 22.3744 21.4963 22.35C21.1914 21.7155 20.4458 21.3983 19.7702 21.6545C19.5848 21.7237 19.4365 21.8416 19.3046 21.9718C19.3046 21.9718 19.2964 21.9758 19.2923 21.9799C19.214 22.0572 19.1687 22.1507 19.111 22.2483C19.0657 22.3216 19.0163 22.3948 18.9833 22.4761C18.9709 22.5087 18.9462 22.5331 18.9339 22.5656C18.9256 22.59 18.9174 22.6144 18.9133 22.6429C18.8968 22.7324 18.8885 22.8259 18.8885 22.9195V22.9357C18.8885 22.9357 18.8885 22.9439 18.8885 22.9479V30.0454C18.8885 30.7979 19.5065 31.408 20.2686 31.408C21.0308 31.408 21.6487 30.7979 21.6487 30.0454V27.5684V22.9154C21.6487 22.7852 21.6281 22.6551 21.591 22.5371C21.5787 22.5046 21.5622 22.472 21.5498 22.4395" fill="white"/>
<path d="M20.2686 20.3042C21.0431 20.3042 21.6652 19.686 21.6652 18.9254C21.6652 18.1648 21.039 17.5425 20.2686 17.5425C19.4982 17.5425 18.8679 18.1607 18.8679 18.9254C18.8679 19.69 19.4941 20.3042 20.2686 20.3042Z" fill="white"/>
<path d="M50.2225 36H48.3769C48.105 36 47.8826 35.7844 47.8826 35.5119V0.48808C47.8826 0.219636 48.105 0 48.3769 0H50.2225C50.4944 0 50.7169 0.219636 50.7169 0.48808V35.516C50.7169 35.7844 50.4944 36.0041 50.2225 36.0041" fill="#9AC21B"/>
<path d="M58.7913 30.1918H59.6153V25.6364H58.3876V26.6654H57.3124V24.6643H63.0551V26.6654H61.9758V25.6364H60.7523V30.1918H61.5762V31.1924H58.7913V30.1918Z" fill="white"/>
<path d="M67.2036 27.483C67.2036 27.8491 66.9111 28.1582 66.5486 28.1582C66.219 28.1582 65.9966 27.9711 65.9059 27.7718C65.5929 27.8816 65.2303 28.2192 65.0326 28.5975V30.3058H65.7947V31.2006H63.2817V30.3058H63.9368V27.7637H63.2817V26.8485H64.9914V27.8328C65.3622 27.2471 65.8277 26.7712 66.3879 26.7712C66.9482 26.7712 67.2036 27.1007 67.2036 27.4871" fill="white"/>
<path d="M67.5455 30.0536C67.5455 29.2401 68.2706 28.7439 69.3129 28.7439C69.766 28.7439 70.1862 28.8049 70.4293 28.8619V28.5161C70.4293 28.2599 70.3675 28.0606 70.2562 27.9223C70.075 27.6945 69.7825 27.605 69.3911 27.605C69.2016 27.605 69.0574 27.6335 68.9586 27.6742C68.9792 27.7352 68.9998 27.8328 68.9998 27.8938C68.9998 28.2233 68.7402 28.4592 68.4065 28.4592C68.0728 28.4592 67.8257 28.2314 67.8257 27.8735C67.8257 27.3366 68.3777 26.7712 69.5724 26.7712C70.3263 26.7712 70.8371 26.9787 71.1502 27.3569C71.3809 27.6335 71.4921 28.0118 71.4921 28.447V30.3017H72.1472V31.1965H70.4499V30.7206C70.0997 31.0175 69.5641 31.2778 68.9709 31.2778C68.217 31.2778 67.5455 30.8711 67.5455 30.0576M70.4293 30.1065V29.4231C70.178 29.3621 69.8649 29.3255 69.523 29.3255C68.9915 29.3255 68.6702 29.5614 68.6702 29.96C68.6702 30.3058 68.9297 30.4969 69.3252 30.4969C69.7207 30.4969 70.0997 30.3464 70.4293 30.1105" fill="white"/>
<path d="M74.3306 27.5399C74.7508 27.1332 75.2245 26.7671 75.8672 26.7671C76.3904 26.7671 76.7735 26.9745 77.0042 27.3243C77.1567 27.5602 77.2349 27.8612 77.2349 28.2151V30.2975H77.89V31.1924H75.5376V30.2975H76.1391V28.4794C76.1391 28.3005 76.1103 28.1419 76.0485 28.032C75.9496 27.8449 75.7683 27.7433 75.5047 27.7433C75.1216 27.7433 74.722 27.9629 74.3677 28.2517V30.2975H74.9691V31.1924H72.6168V30.2975H73.2718V27.7555H72.6168V26.8444H74.3265V27.5399H74.3306Z" fill="white"/>
<path d="M81.5193 28.3941C81.1691 28.3941 80.9261 28.1866 80.9261 27.8572C80.9261 27.788 80.9261 27.727 80.9467 27.6701C80.7654 27.6009 80.5429 27.5603 80.3246 27.5603C79.8344 27.5603 79.5913 27.7799 79.5913 28.0077C79.5913 28.2558 79.8426 28.3859 80.5141 28.5649C81.5687 28.8415 82.1825 29.1018 82.1825 29.8868C82.1825 30.8019 81.3174 31.2859 80.3205 31.2859C79.649 31.2859 78.9239 31.046 78.6314 30.7613C78.4502 30.5823 78.3801 30.4033 78.3801 30.1756C78.3801 29.8583 78.6232 29.5899 78.9651 29.5899C79.2658 29.5899 79.5583 29.7892 79.5583 30.1674C79.5583 30.2284 79.546 30.2854 79.5377 30.3464C79.7396 30.4237 80.0197 30.4847 80.3328 30.4847C80.7736 30.4847 81.1362 30.3383 81.1362 30.0169C81.1362 29.7973 80.9467 29.6712 80.271 29.4922C79.0558 29.175 78.5408 28.8862 78.5408 28.1419C78.5408 27.4667 79.1052 26.7631 80.3411 26.7631C80.8725 26.7631 81.5152 26.9624 81.82 27.2593C81.9807 27.4179 82.0631 27.605 82.0631 27.8165C82.0631 28.1622 81.8406 28.4022 81.5193 28.4022" fill="white"/>
<path d="M82.7758 32.2458H83.4308V27.7595H82.7758V26.8484H84.4854V27.3447C84.8273 27.0274 85.1981 26.7671 85.7913 26.7671C86.9366 26.7671 87.8017 27.6904 87.8017 29.0001C87.8017 30.3097 86.8872 31.2737 85.7213 31.2737C85.2475 31.2737 84.8562 31.1029 84.5266 30.8548V32.2458H85.2393V33.1365H82.7758V32.2458ZM86.6771 29.0123C86.6771 28.1785 86.1745 27.7026 85.5524 27.7026C85.1404 27.7026 84.8191 27.8815 84.5266 28.1378V30.0047C84.8067 30.204 85.1487 30.3423 85.5524 30.3423C86.1333 30.3423 86.6771 29.8745 86.6771 29.0123Z" fill="white"/>
<path d="M88.4856 29.0204C88.4856 27.8287 89.3919 26.7671 90.8256 26.7671C92.2592 26.7671 93.1655 27.8083 93.1655 29.0204C93.1655 30.2325 92.2633 31.2737 90.8256 31.2737C89.3878 31.2737 88.4856 30.2325 88.4856 29.0204ZM92.045 29.0204C92.045 28.2273 91.5424 27.67 90.8297 27.67C90.117 27.67 89.6144 28.2273 89.6144 29.0204C89.6144 29.8135 90.117 30.3708 90.8297 30.3708C91.5424 30.3708 92.045 29.8135 92.045 29.0204Z" fill="white"/>
<path d="M97.7424 27.483C97.7424 27.8491 97.4499 28.1582 97.0874 28.1582C96.7537 28.1582 96.5354 27.9711 96.4448 27.7718C96.1317 27.8816 95.7733 28.2192 95.5714 28.5975V30.3058H96.3335V31.2006H93.8206V30.3058H94.4756V27.7637H93.8206V26.8485H95.5302V27.8328C95.901 27.2471 96.3624 26.7712 96.9268 26.7712C97.4911 26.7712 97.7424 27.1007 97.7424 27.4871" fill="white"/>
<path d="M98.9783 30.6758C98.8795 30.4969 98.8259 30.2691 98.8259 29.9925V27.7596H97.9731V26.8444H98.8259V25.9333L99.9135 25.4656V26.8444H101.248V27.7596H99.9135V29.7851C99.9135 29.9234 99.9341 30.0129 99.9835 30.1023C100.062 30.2406 100.227 30.3098 100.445 30.3098C100.725 30.3098 101.046 30.2 101.31 30.082L101.219 31.0134C100.919 31.1639 100.564 31.2697 100.165 31.2697C99.6334 31.2697 99.2008 31.0907 98.9783 30.6758Z" fill="white"/>
<path d="M105.702 23.9281H104.758V33.1772H105.702V23.9281Z" fill="#9AC21B"/>
<path d="M109.24 30.1918H110.044V25.6649H109.24V24.6643H111.984V25.6649H111.181V30.1918H111.984V31.1924H109.24V30.1918Z" fill="white"/>
<path d="M114.378 27.5399C114.798 27.1332 115.272 26.7671 115.914 26.7671C116.437 26.7671 116.821 26.9745 117.051 27.3243C117.204 27.5602 117.282 27.8612 117.282 28.2151V30.2975H117.937V31.1924H115.585V30.2975H116.186V28.4794C116.186 28.3005 116.157 28.1419 116.095 28.032C115.997 27.8449 115.815 27.7433 115.552 27.7433C115.169 27.7433 114.769 27.9629 114.415 28.2517V30.2975H115.016V31.1924H112.664V30.2975H113.319V27.7555H112.664V26.8444H114.373V27.5399H114.378Z" fill="white"/>
<path d="M118.481 27.7596H117.966V26.8445H120.219V27.7108H119.585L120.639 29.9723L121.694 27.7108H121.031V26.8445H123.272V27.7596H122.761L121.01 31.2738H120.227L118.481 27.7596Z" fill="white"/>
<path d="M124.672 29.3865C124.825 30.0617 125.385 30.3586 126.118 30.3586C126.65 30.3586 127.202 30.1878 127.717 29.9031L127.626 30.8752C127.165 31.1436 126.6 31.2738 125.958 31.2738C124.52 31.2738 123.523 30.379 123.523 29.0327C123.523 27.8003 124.396 26.7712 125.756 26.7712C127.115 26.7712 127.898 27.7027 127.898 28.8537C127.898 29.0245 127.878 29.2401 127.849 29.3906H124.672V29.3865ZM124.66 28.6341H126.802C126.782 28.0402 126.39 27.6416 125.748 27.6416C125.266 27.6416 124.784 27.9182 124.66 28.6341Z" fill="white"/>
<path d="M131.746 28.3941C131.396 28.3941 131.153 28.1866 131.153 27.8572C131.153 27.788 131.153 27.727 131.173 27.6701C130.992 27.6009 130.77 27.5603 130.551 27.5603C130.057 27.5603 129.818 27.7799 129.818 28.0077C129.818 28.2558 130.069 28.3859 130.741 28.5649C131.795 28.8415 132.409 29.1018 132.409 29.8868C132.409 30.8019 131.544 31.2859 130.551 31.2859C129.876 31.2859 129.155 31.046 128.862 30.7613C128.681 30.5823 128.611 30.4033 128.611 30.1756C128.611 29.8583 128.854 29.5899 129.196 29.5899C129.497 29.5899 129.789 29.7892 129.789 30.1674C129.789 30.2284 129.781 30.2854 129.768 30.3464C129.97 30.4237 130.25 30.4847 130.564 30.4847C131.004 30.4847 131.367 30.3383 131.367 30.0169C131.367 29.7973 131.177 29.6712 130.502 29.4922C129.286 29.175 128.771 28.8862 128.771 28.1419C128.771 27.4667 129.336 26.7631 130.572 26.7631C131.103 26.7631 131.75 26.9624 132.051 27.2593C132.211 27.4179 132.294 27.605 132.294 27.8165C132.294 28.1622 132.071 28.4022 131.75 28.4022" fill="white"/>
<path d="M133.909 30.6758C133.81 30.4969 133.756 30.2691 133.756 29.9925V27.7596H132.904V26.8444H133.756V25.9333L134.84 25.4656V26.8444H136.175V27.7596H134.84V29.7851C134.84 29.9234 134.86 30.0129 134.91 30.1023C134.988 30.2406 135.153 30.3098 135.371 30.3098C135.651 30.3098 135.973 30.2 136.236 30.082L136.146 31.0134C135.845 31.1639 135.491 31.2697 135.091 31.2697C134.56 31.2697 134.127 31.0907 133.905 30.6758" fill="white"/>
<path d="M136.834 30.3016H137.489V27.7596H136.834V26.8444H138.543V27.5277C138.885 27.1617 139.367 26.7631 140.022 26.7631C140.496 26.7631 140.846 26.942 141.069 27.2308C141.13 27.3081 141.167 27.3894 141.209 27.4789C141.621 27.0803 142.115 26.7631 142.675 26.7631C143.289 26.7631 143.709 26.9827 143.932 27.3894C144.051 27.6091 144.113 27.8856 144.113 28.2029V30.2976H144.768V31.1924H142.428V30.2976H143.021V28.4632C143.021 28.2924 143.001 28.1663 142.951 28.0565C142.861 27.849 142.679 27.7474 142.428 27.7474C142.066 27.7474 141.682 27.9548 141.353 28.2314V30.2935H141.946V31.1883H139.656V30.2935H140.257V28.4591C140.257 28.2883 140.236 28.1622 140.187 28.0524C140.096 27.845 139.927 27.7433 139.664 27.7433C139.301 27.7433 138.922 27.9507 138.589 28.2273V30.2894H139.174V31.1843H136.842V30.2894L136.834 30.3016Z" fill="white"/>
<path d="M146.342 29.3865C146.49 30.0617 147.054 30.3586 147.788 30.3586C148.319 30.3586 148.871 30.1878 149.386 29.9031L149.296 30.8752C148.834 31.1436 148.27 31.2738 147.627 31.2738C146.189 31.2738 145.192 30.379 145.192 29.0327C145.192 27.8003 146.066 26.7712 147.425 26.7712C148.785 26.7712 149.567 27.7027 149.567 28.8537C149.567 29.0245 149.547 29.2401 149.518 29.3906H146.342V29.3865ZM146.329 28.6341H148.472C148.451 28.0402 148.06 27.6416 147.417 27.6416C146.935 27.6416 146.453 27.9182 146.334 28.6341" fill="white"/>
<path d="M151.899 27.5399C152.319 27.1332 152.793 26.7671 153.436 26.7671C153.959 26.7671 154.342 26.9745 154.573 27.3243C154.725 27.5602 154.804 27.8612 154.804 28.2151V30.2975H155.459V31.1924H153.106V30.2975H153.708V28.4794C153.708 28.3005 153.679 28.1419 153.617 28.032C153.518 27.8449 153.337 27.7433 153.073 27.7433C152.69 27.7433 152.291 27.9629 151.936 28.2517V30.2975H152.538V31.1924H150.185V30.2975H150.84V27.7555H150.185V26.8444H151.895V27.5399H151.899Z" fill="white"/>
<path d="M156.715 30.6758C156.616 30.4969 156.563 30.2691 156.563 29.9925V27.7596H155.71V26.8444H156.563V25.9333L157.65 25.4656V26.8444H158.985V27.7596H157.65V29.7851C157.65 29.9234 157.671 30.0129 157.72 30.1023C157.798 30.2406 157.963 30.3098 158.182 30.3098C158.462 30.3098 158.783 30.2 159.047 30.082L158.956 31.0134C158.655 31.1639 158.301 31.2697 157.901 31.2697C157.37 31.2697 156.937 31.0907 156.715 30.6758Z" fill="white"/>
<path d="M163.438 23.9281H162.495V33.1772H163.438V23.9281Z" fill="#9AC21B"/>
<path d="M167.068 27.9467C167.068 25.9334 168.617 24.5424 170.545 24.5424C172.081 24.5424 173.107 25.3355 173.107 26.1205C173.107 26.5964 172.794 26.9258 172.382 26.9258C171.929 26.9258 171.62 26.6492 171.62 26.2222C171.62 26.092 171.649 25.9659 171.69 25.8846C171.5 25.7341 171.117 25.5877 170.512 25.5877C169.226 25.5877 168.242 26.5313 168.242 27.9386C168.242 29.3459 169.296 30.3017 170.413 30.3017C171.105 30.3017 171.587 30.1512 172.011 29.8828V28.7602H170.363V27.8084H173.128V31.1925H172.04V30.7044C171.579 31.0623 170.985 31.3104 170.24 31.3104C168.612 31.3104 167.063 30.0414 167.063 27.9467" fill="white"/>
<path d="M178.137 27.483C178.137 27.8491 177.845 28.1582 177.482 28.1582C177.148 28.1582 176.93 27.9711 176.839 27.7718C176.526 27.8816 176.168 28.2192 175.966 28.5975V30.3058H176.728V31.2006H174.215V30.3058H174.87V27.7637H174.215V26.8485H175.925V27.8328C176.296 27.2471 176.757 26.7712 177.321 26.7712C177.886 26.7712 178.137 27.1007 178.137 27.4871" fill="white"/>
<path d="M178.467 29.0204C178.467 27.8287 179.373 26.7671 180.807 26.7671C182.24 26.7671 183.147 27.8083 183.147 29.0204C183.147 30.2325 182.24 31.2737 180.807 31.2737C179.373 31.2737 178.467 30.2325 178.467 29.0204ZM182.026 29.0204C182.026 28.2273 181.523 27.67 180.811 27.67C180.098 27.67 179.595 28.2273 179.595 29.0204C179.595 29.8135 180.098 30.3708 180.811 30.3708C181.523 30.3708 182.026 29.8135 182.026 29.0204Z" fill="white"/>
<path d="M184.156 27.7596H183.513V26.8445H185.775V27.7393H185.153L185.754 29.8746L186.792 27.2919H187.546L188.572 29.8746L189.174 27.7393H188.449V26.8445H190.71V27.7596H190.068L188.98 31.3633H188.21L187.114 28.7033L186.018 31.3633H185.243L184.156 27.7596Z" fill="white"/>
<path d="M191.856 30.6758C191.757 30.4969 191.703 30.2691 191.703 29.9925V27.7596H190.85V26.8444H191.703V25.9333L192.791 25.4656V26.8444H194.125V27.7596H192.791V29.7851C192.791 29.9234 192.811 30.0129 192.861 30.1023C192.943 30.2406 193.104 30.3098 193.322 30.3098C193.602 30.3098 193.924 30.2 194.187 30.082L194.097 31.0134C193.796 31.1639 193.442 31.2697 193.042 31.2697C192.511 31.2697 192.078 31.0907 191.856 30.6758Z" fill="white"/>
<path d="M194.731 24.8433V23.9323H196.482V27.5034C196.894 27.117 197.355 26.7672 197.981 26.7672C198.455 26.7672 198.826 26.938 199.057 27.2349C199.246 27.483 199.349 27.8206 199.349 28.2192V30.3017H200.004V31.1965H197.652V30.3017H198.253V28.4836C198.253 28.2477 198.204 28.0769 198.113 27.9589C198.002 27.8206 197.833 27.7515 197.619 27.7515C197.236 27.7515 196.836 27.9711 196.482 28.2558V30.3017H197.083V31.1965H194.731V30.3017H195.386V24.8433H194.731Z" fill="white"/>
</g>
<defs>
<clipPath id="clip0_402_3049">
<rect width="200" height="36" fill="white"/>
</clipPath>
</defs>
</svg>
