<?xml version="1.0" encoding="UTF-8"?><svg id="Layer_5" xmlns="http://www.w3.org/2000/svg" xmlns:xlink="http://www.w3.org/1999/xlink" viewBox="0 0 200.0081 36.0457"><defs><clipPath id="clippath"><rect x=".1526" width="88.569" height="35.792" fill="none"/></clipPath></defs><g clip-path="url(#clippath)"><path d="M4.1308,34.0524c-.953-.5123-1.7022-1.223-2.2475-2.1322-.5453-.9088-.818-1.9366-.818-3.0827s.2727-2.1734.818-3.0822c.5453-.9092,1.2945-1.62,2.2475-2.1322.953-.5124,2.0249-.7684,3.2148-.7684,1.0026,0,1.9087.1761,2.7186.5287.81.3531,1.4903.8597,2.041,1.5208l-1.7187,1.5869c-.7822-.9034-1.7518-1.3553-2.909-1.3553-.7165,0-1.3548.1574-1.9172.4712-.5619.3142-.9999.7523-1.3137,1.3142-.3138.5619-.4711,1.2011-.4711,1.9168s.1573,1.3553.4711,1.9173c.3142.5624.7523,1.0004,1.3137,1.3138.5623.3143,1.2011.4716,1.9172.4716,1.1568,0,2.1264-.4573,2.909-1.3724l1.7187,1.587c-.5512.6722-1.2338,1.1846-2.0495,1.5373-.8158.3526-1.7245.5287-2.7271.5287-1.1792,0-2.2448-.2561-3.1983-.7689h.0005Z" fill="#fff"/><path d="M15.9477,34.1684c-.7438-.3912-1.3254-.9338-1.7437-1.6277-.4189-.6941-.6281-1.4823-.6281-2.3638s.2092-1.6692.6281-2.3635c.4183-.6941.9999-1.2369,1.7437-1.628.7433-.3911,1.5836-.5864,2.5201-.5864s1.7742.1958,2.5122.5864c.738.3915,1.3164.9338,1.7357,1.628.4183.6943.628,1.4823.628,2.3635s-.2097,1.6696-.628,2.3638c-.4189.6938-.9973,1.2369-1.7357,1.6277-.738.3915-1.5757.5869-2.5122.5869s-1.7768-.1958-2.5201-.5869ZM20.0958,31.9703c.4242-.4461.6366-1.0437.6366-1.7934s-.2124-1.3469-.6366-1.7931c-.4242-.4465-.9668-.6696-1.628-.6696s-1.2064.2231-1.6359.6696c-.43.4462-.6446,1.0443-.6446,1.7931s.2145,1.3473.6446,1.7934c.4299.4461.9748.6696,1.6359.6696s1.2038-.223,1.628-.6696Z" fill="#fff"/><path d="M33.9632,26.5899c.6777.6612,1.0165,1.6419,1.0165,2.9423v5.0906h-2.5787v-4.6941c0-.705-.1542-1.2311-.4627-1.5784-.3089-.3474-.755-.5208-1.3387-.5208-.6504,0-1.1684.2012-1.5538.603-.3857.4027-.5784,1.0004-.5784,1.7934v4.3965h-2.5782v-8.8922h2.4625v1.0411c.3415-.3741.7657-.6633,1.2726-.8671.5069-.2039,1.063-.3057,1.6691-.3057,1.1019,0,1.9919.3308,2.6694.9914h.0004Z" fill="#fff"/><path d="M46.2102,26.5899c.6776.6612,1.0164,1.6419,1.0164,2.9423v5.0906h-2.5787v-4.6941c0-.705-.1542-1.2311-.4627-1.5784-.3089-.3474-.755-.5208-1.3387-.5208-.6503,0-1.1684.2012-1.5538.603-.3857.4027-.5783,1.0004-.5783,1.7934v4.3965h-2.5783v-8.8922h2.4625v1.0411c.3415-.3741.7657-.6633,1.2726-.8671.5069-.2039,1.063-.3057,1.6691-.3057,1.1019,0,1.9919.3308,2.6694.9914h.0005Z" fill="#fff"/><path d="M59.143,30.9043h-6.7268c.121.5512.4076.9861.8596,1.3058.4514.3201,1.0134.4796,1.686.4796.4627,0,.873-.0688,1.231-.2065.358-.1376.6911-.3558.9999-.653l1.3719,1.4876c-.8378.9589-2.0606,1.4381-3.669,1.4381-1.0026,0-1.8898-.1958-2.661-.587-.7715-.3911-1.3664-.9337-1.7848-1.6276-.4189-.6943-.628-1.4823-.628-2.3638s.2065-1.6553.6195-2.3554c.4135-.6991.9807-1.2449,1.7026-1.636.7214-.3912,1.5286-.5866,2.4214-.5866s1.6584.1877,2.3632.5619c.7049.3751,1.2587.9119,1.661,1.6119.4024.6996.6035,1.5123.6035,2.4377,0,.0335-.0165.2646-.0496.6941l-.0004-.0009ZM53.1103,28.0447c-.397.3308-.6393.7823-.7272,1.3553h4.3796c-.0881-.5623-.3304-1.0111-.7268-1.3473-.397-.3357-.882-.5038-1.4546-.5038s-1.0741.1654-1.4711.4958Z" fill="#fff"/><path d="M63.4815,34.1684c-.755-.3912-1.3446-.9338-1.7688-1.6277-.4242-.6941-.6366-1.4823-.6366-2.3638s.2119-1.6692.6366-2.3635c.4242-.6941,1.0138-1.2369,1.7688-1.628.7546-.3911,1.6057-.5864,2.5533-.5864s1.7545.1958,2.4545.5864c.699.3915,1.2091.9503,1.5286,1.6777l-1.9998,1.0742c-.4627-.8154-1.1296-1.2231-1.9995-1.2231-.6722,0-1.2288.2204-1.6691.6612-.4411.4408-.6611,1.0411-.6611,1.8015s.2204,1.3612.6611,1.8014c.4404.4412.9973.6612,1.6691.6612.8815,0,1.548-.4077,1.9995-1.223l1.9998,1.0907c-.3195.7054-.8292,1.2562-1.5286,1.6531-.7.397-1.518.5954-2.4545.5954s-1.7987-.1958-2.5533-.5869v-.0004Z" fill="#fff"/><path d="M76.1001,34.7557c-1.058,0-1.876-.2704-2.4545-.81-.5779-.5396-.8671-1.3335-.8671-2.3804v-3.6526h-1.3718v-1.9834h1.3718v-2.1653h2.5783v2.1653h2.2149v1.9834h-2.2149v3.6196c0,.3746.0961.6638.2892.8677.1926.2038.4653.3058.818.3058h1.0818v2.0496h-1.4452l-.0004.0004Z" fill="#fff"/><path d="M10.6811,20.1137l-.0165-6.9418-3.4048,5.7188h-1.2064l-3.3882-5.5699v6.7933H.1526v-11.5702h2.2149l4.3305,7.1899,4.2639-7.1899h2.1983l.0331,11.5698h-2.5121Z" fill="#fff"/><path d="M19.1588,11.2216h-2.5782v8.8922h2.5782v-8.8922Z" fill="#fff"/><path d="M31.4391,7.8491v12.2645h-2.4629v-1.0246c-.6393.7716-1.565,1.157-2.7768,1.157-.8376,0-1.5948-.1879-2.2725-.5624-.6777-.3742-1.2096-.9088-1.5949-1.6035-.3858-.6943-.5784-1.4984-.5784-2.413s.1926-1.7188.5784-2.413c.3858-.6941.9177-1.2284,1.5949-1.6035.6777-.3741,1.4348-.5618,2.2725-.5618,1.1345,0,2.0218.3585,2.661,1.0742v-4.3138h2.5788ZM28.2659,17.4604c.43-.4461.6446-1.0437.6446-1.7934s-.2145-1.3469-.6446-1.793c-.43-.4466-.97-.6696-1.62-.6696s-1.2064.223-1.6359.6696c-.43.4461-.6446,1.0443-.6446,1.793s.2145,1.3473.6446,1.7934c.4299.4462.9753.6696,1.6359.6696s1.1899-.223,1.62-.6696Z" fill="#fff"/><path d="M34.6454,7.8491h2.5783v12.2645h-2.5783V7.8491Z" fill="#fff"/><path d="M47.2058,12.0727c.738.6558,1.1073,1.6445,1.1073,2.9668v5.0741h-2.4129v-1.1073c-.485.8261-1.3884,1.24-2.7105,1.24-.6835,0-1.2753-.1157-1.7768-.3473-.5015-.2316-.8842-.5512-1.1484-.9589-.2646-.4077-.397-.8703-.397-1.3884,0-.8261.3112-1.476.9338-1.9503.6222-.4739,1.5836-.7109,2.884-.7109h2.0495c0-.5623-.1707-.9946-.5123-1.2976-.3414-.3031-.8542-.4542-1.5372-.4542-.4738,0-.9396.0742-1.3964.2231-.4573.1488-.8457.35-1.1653.6035l-.9257-1.8015c.485-.3415,1.0661-.6056,1.7437-.7934.6777-.1873,1.3745-.2812,2.091-.2812,1.3772,0,2.4348.3281,3.1732.9835ZM45.0076,18.2044c.3415-.2034.5837-.5038.7272-.9003v-.9092h-1.7683c-1.058,0-1.5868.3474-1.5868,1.0415,0,.3304.1292.5927.3884.785.2589.1931.6138.2892,1.0656.2892s.8319-.1018,1.1734-.3058l.0004-.0004Z" fill="#fff"/><path d="M59.5444,12.0807c.6777.6612,1.0165,1.642,1.0165,2.9423v5.0907h-2.5787v-4.6942c0-.705-.1542-1.2311-.4627-1.5784-.3089-.3473-.755-.5208-1.3387-.5208-.6504,0-1.1684.2012-1.5538.603-.3857.4028-.5784,1.0004-.5784,1.7935v4.3965h-2.5782v-8.8917h2.4625v1.0411c.3415-.3742.7657-.6633,1.2726-.8673.5069-.2038,1.063-.3058,1.6691-.3058,1.1019,0,1.9918.3308,2.6694.9915l.0004-.0005Z" fill="#fff"/><path d="M72.8734,7.8491v12.2645h-2.4629v-1.0246c-.6392.7716-1.5649,1.157-2.7767,1.157-.8376,0-1.5949-.1879-2.2726-.5624-.6777-.3742-1.2096-.9088-1.5948-1.6035-.3858-.6943-.5784-1.4984-.5784-2.413s.1926-1.7188.5784-2.413c.3857-.6941.9177-1.2284,1.5948-1.6035.6777-.3741,1.4349-.5618,2.2726-.5618,1.1345,0,2.0217.3585,2.661,1.0742v-4.3138h2.5787ZM69.7002,17.4604c.43-.4461.6446-1.0437.6446-1.7934s-.2145-1.3469-.6446-1.793c-.4299-.4466-.97-.6696-1.6199-.6696s-1.2064.223-1.636.6696c-.43.4461-.6446,1.0443-.6446,1.793s.2145,1.3473.6446,1.7934c.43.4462.9754.6696,1.636.6696s1.1899-.223,1.6199-.6696Z" fill="#fff"/><path d="M76.9061,19.9727c-.7049-.1819-1.2668-.4104-1.686-.6857l.8596-1.8516c.3964.2535.8761.46,1.438.6196.5624.16,1.1126.24,1.6529.24,1.0907,0,1.636-.27,1.636-.81,0-.2535-.1488-.4355-.4461-.5453-.2972-.11-.755-.2039-1.3718-.2812-.7272-.11-1.328-.2369-1.8014-.3799-.4742-.1431-.8841-.3965-1.231-.7604-.3473-.3635-.5207-.8815-.5207-1.5534,0-.5619.1623-1.0603.4872-1.4957.325-.4355.7992-.7743,1.4215-1.0166s1.3579-.3639,2.2064-.3639c.628,0,1.2534.0693,1.8755.2065.6222.1377,1.1376.3282,1.5453.5704l-.8592,1.8346c-.7822-.4408-1.6359-.6612-2.5616-.6612-.5512,0-.9646.0773-1.24.2316-.2754.1547-.413.3531-.413.5954,0,.2754.1488.4686.4465.578.2973.1104.771.2151,1.421.3143.7272.1216,1.3227.2508,1.7853.3884.4627.1382.8645.3885,1.2064.7524.3415.3639.5127.8703.5127,1.5207,0,.5512-.1653,1.0411-.4957,1.4707-.3308.43-.8126.763-1.4464,1-.6338.2369-1.3857.3558-2.256.3558-.7385,0-1.4604-.0911-2.1653-.2731v-.0004Z" fill="#fff"/><path d="M83.1193,3.8109H22.6815c-.4809-2.1757-2.4558-3.8109-4.815-3.8109-2.7177,0-4.929,2.1694-4.929,4.8363s2.2109,4.8363,4.929,4.8363c2.3579,0,4.3322-1.6339,4.8141-3.8082h60.4387c1.957,0,3.5486,1.5918,3.5486,3.5485v19.7445c0,1.9566-1.5917,3.5484-3.5486,3.5484h-.067c-.3647-.6178-1.0407-1.0388-1.8238-1.0388-1.1667,0-2.1125.9231-2.1125,2.0621s.9458,2.0622,2.1125,2.0622c.7805,0,1.454-.4176,1.8196-1.0322h.0711c3.0892,0,5.6017-2.5131,5.6017-5.602V9.4134c0-3.0889-2.5129-5.6021-5.6017-5.6021v-.0004ZM17.8665,7.619c-1.5855,0-2.8755-1.2481-2.8755-2.7827s1.29-2.7827,2.8755-2.7827,2.8755,1.2485,2.8755,2.7827-1.29,2.7827-2.8755,2.7827Z" fill="#fff"/></g></svg>