<svg width="160" height="46" viewBox="0 0 160 46" fill="none" xmlns="http://www.w3.org/2000/svg">
<g clip-path="url(#clip0_2_1237)">
<path d="M40.763 21.3293H38.9551L41.4676 12.2422H43.2874L45.3643 18.7145L47.44 12.2422H49.2872L51.8116 21.3293H49.9406L48.2743 15.0749L46.2617 21.3293H44.4276L42.4031 15.0487L40.763 21.3293Z" fill="white"/>
<path d="M54.0355 11.9023C54.2429 11.9021 54.4456 11.9632 54.6184 12.0778C54.7911 12.1925 54.9261 12.3556 55.0065 12.5467C55.0868 12.7379 55.1089 12.9485 55.07 13.1521C55.031 13.3557 54.9328 13.5433 54.7876 13.6913C54.6424 13.8393 54.4567 13.9411 54.2538 13.9839C54.051 14.0267 53.84 14.0087 53.6474 13.932C53.4548 13.8553 53.2891 13.7234 53.1712 13.5529C53.0532 13.3824 52.9883 13.1808 52.9846 12.9735C52.9819 12.8338 53.0071 12.695 53.0587 12.5651C53.1103 12.4353 53.1873 12.317 53.2851 12.2173C53.383 12.1175 53.4998 12.0383 53.6286 11.9842C53.7575 11.9302 53.8958 11.9023 54.0355 11.9023ZM53.1893 15.0314H54.8937V21.3394H53.1893V15.0314Z" fill="white"/>
<path d="M62.8616 20.1983C62.8616 20.6209 62.8866 21.0827 62.9128 21.3385H61.2846C61.2429 21.0972 61.2214 20.8527 61.2203 20.6078C60.9382 21.1076 60.2979 21.4921 59.4517 21.4921C57.6568 21.4921 56.375 20.0829 56.375 18.1726C56.375 16.3266 57.6188 14.8782 59.4005 14.8782C60.4895 14.8782 61.0025 15.3269 61.1858 15.6601V12.0586H62.8652L62.8616 20.1983ZM59.6564 19.9674C60.5288 19.9674 61.2036 19.3009 61.2036 18.1595C61.2036 17.0181 60.5252 16.404 59.6564 16.404C58.7875 16.404 58.0936 17.0443 58.0936 18.1726C58.0936 19.3009 58.7602 19.9674 59.6564 19.9674Z" fill="white"/>
<path d="M66.5063 12.0586H64.8008V21.3386H66.5063V12.0586Z" fill="white"/>
<path d="M69.9169 17.7106L71.4641 17.4809C71.8212 17.4285 71.9402 17.25 71.9402 17.0322C71.9402 16.5823 71.5938 16.2109 70.8762 16.2109C70.1323 16.2109 69.7229 16.687 69.6717 17.2369L68.1589 16.9155C68.2613 15.9289 69.1718 14.8398 70.8631 14.8398C72.8626 14.8398 73.6065 15.9681 73.6065 17.2369V20.3385C73.6081 20.6732 73.6339 21.0074 73.6838 21.3383H72.1247C72.0805 21.0888 72.059 20.8359 72.0604 20.5825C71.7391 21.0824 71.1368 21.518 70.2013 21.518C68.8552 21.518 68.0352 20.6075 68.0352 19.6209C68.0352 18.4926 68.8683 17.8641 69.9192 17.7106H69.9169ZM71.9426 18.7877V18.5056L70.5143 18.7234C70.0775 18.7877 69.7324 19.0317 69.7324 19.5185C69.7324 19.8898 70.0014 20.2493 70.5524 20.2493C71.2665 20.2493 71.9366 19.9029 71.9366 18.7877" fill="white"/>
<path d="M77.1598 21.3376H75.459V15.0296H77.1122V15.8115C77.4966 15.1581 78.2524 14.8594 78.9332 14.8594C80.4959 14.8594 81.2136 15.9746 81.2136 17.3588V21.3328H79.5056V17.6587C79.5056 16.9541 79.1593 16.4031 78.3393 16.4031C77.5954 16.4031 77.1598 16.9791 77.1598 17.7123V21.3376Z" fill="white"/>
<path d="M89.2249 20.1983C89.2249 20.6209 89.2498 21.0827 89.276 21.3385H87.6478C87.6056 21.0972 87.5841 20.8527 87.5836 20.6078C87.3015 21.1076 86.6612 21.4921 85.8149 21.4921C84.0201 21.4921 82.7383 20.0829 82.7383 18.1726C82.7383 16.3266 83.982 14.8782 85.7638 14.8782C86.8528 14.8782 87.3658 15.3269 87.5491 15.6601V12.0586H89.2284L89.2249 20.1983ZM86.0197 19.9674C86.8909 19.9674 87.5669 19.3009 87.5669 18.1595C87.5669 17.0181 86.8873 16.404 86.0197 16.404C85.152 16.404 84.4557 17.0443 84.4557 18.1726C84.4557 19.3009 85.1222 19.9674 86.0197 19.9674Z" fill="white"/>
<path d="M92.2671 19.2614C92.3064 19.7613 92.6777 20.2231 93.4216 20.2231C93.9845 20.2231 94.2547 19.9279 94.2547 19.5947C94.2547 19.3138 94.0619 19.0829 93.5751 18.9793L92.742 18.7877C91.5244 18.5187 90.9722 17.788 90.9722 16.9036C90.9722 15.7753 91.9731 14.8398 93.3311 14.8398C95.1259 14.8398 95.7282 15.98 95.8056 16.6597L94.3773 16.9798C94.3261 16.6085 94.0572 16.1348 93.3395 16.1348C92.8908 16.1348 92.5325 16.4038 92.5325 16.762C92.5325 17.0703 92.7634 17.2619 93.1086 17.3262L94.006 17.519C95.2497 17.7749 95.877 18.5318 95.877 19.4542C95.877 20.479 95.0819 21.5311 93.4287 21.5311C91.5327 21.5311 90.8781 20.3005 90.8008 19.5828L92.2671 19.2614Z" fill="white"/>
<path d="M50.0037 0H51.8116L49.2991 9.08834H47.4793L45.4024 2.61486L43.3255 9.08834H41.4795L38.9551 0H40.8261L42.4923 6.25567L44.505 0H46.3379L48.3636 6.28066L50.0037 0Z" fill="white"/>
<path d="M58.2228 7.28193C57.9026 8.37096 56.9029 9.28384 55.3521 9.28384C53.6215 9.28384 52.0957 8.04128 52.0957 5.91321C52.0957 3.90058 53.5834 2.59375 55.1973 2.59375C57.1469 2.59375 58.3121 3.83631 58.3121 5.86203C58.3121 6.10602 58.2871 6.36191 58.2871 6.38809H53.7751C53.8143 7.22123 54.5189 7.82347 55.364 7.82347C56.159 7.82347 56.5946 7.42594 56.8005 6.86179L58.2228 7.28193ZM56.6339 5.21694C56.6077 4.58971 56.1971 3.97438 55.2235 3.97438C54.8741 3.96142 54.5331 4.08312 54.2709 4.31435C54.0086 4.54558 53.8452 4.86868 53.8143 5.21694H56.6339Z" fill="white"/>
<path d="M60.7007 7.01142C60.7388 7.5113 61.1113 7.9731 61.854 7.9731C62.4181 7.9731 62.6871 7.67793 62.6871 7.34468C62.6871 7.06379 62.4955 6.83289 62.0075 6.72934L61.1744 6.53772C59.958 6.26755 59.4058 5.53796 59.4058 4.65245C59.4058 3.52534 60.4055 2.58984 61.7647 2.58984C63.5595 2.58984 64.1618 3.73005 64.2391 4.40965L62.8109 4.72982C62.7597 4.35847 62.4907 3.88359 61.7719 3.88359C61.3244 3.88359 60.9649 4.15257 60.9649 4.51201C60.9649 4.82027 61.1958 5.01189 61.5422 5.07616L62.4396 5.26897C63.6821 5.52487 64.3106 6.28183 64.3106 7.20423C64.3106 8.22899 63.5155 9.28112 61.8623 9.28112C59.9652 9.28112 59.3117 8.05046 59.2344 7.33277L60.7007 7.01142Z" fill="white"/>
<path d="M67.9276 2.78252H69.1963V4.29526H67.9276V6.93511C67.9276 7.48736 68.1835 7.66589 68.6703 7.66589C68.847 7.66783 69.0233 7.65067 69.1963 7.61471V9.02509C68.8888 9.13812 68.5621 9.19026 68.2347 9.17863C67.004 9.17863 66.2351 8.44785 66.2351 7.23028V4.29526H65.0938V2.78252H65.4139C66.0816 2.78252 66.3887 2.34691 66.3887 1.78275V0.898438H67.9276V2.78252Z" fill="white"/>
<path d="M5.19519 27.7302C5.14587 27.8693 5.05468 27.9897 4.93416 28.0748C4.81363 28.16 4.66969 28.2057 4.52213 28.2057C4.37457 28.2057 4.23063 28.16 4.1101 28.0748C3.98958 27.9897 3.89839 27.8693 3.84907 27.7302L0.143996 17.8326C-0.0479986 17.2265 -0.0479986 16.576 0.143996 15.9699L3.84907 6.07702C3.89839 5.93794 3.98958 5.81755 4.1101 5.73241C4.23063 5.64728 4.37457 5.60156 4.52213 5.60156C4.66969 5.60156 4.81363 5.64728 4.93416 5.73241C5.05468 5.81755 5.14587 5.93794 5.19519 6.07702L8.90265 15.9699C9.0931 16.5762 9.0931 17.2263 8.90265 17.8326L5.19519 27.7302Z" fill="white"/>
<path d="M11.4136 11.0081C11.3619 11.1453 11.2696 11.2634 11.1491 11.3468C11.0285 11.4302 10.8854 11.4748 10.7388 11.4748C10.5922 11.4748 10.4491 11.4302 10.3286 11.3468C10.208 11.2634 10.1157 11.1453 10.064 11.0081L6.35888 1.11521C6.34222 1.07118 6.32913 1.02357 6.31603 0.97477C6.285 0.860448 6.28068 0.74052 6.30341 0.624262C6.32613 0.508003 6.37529 0.398528 6.44708 0.304302C6.51887 0.210076 6.61137 0.133624 6.71743 0.0808585C6.82349 0.0280927 6.94026 0.000426784 7.05872 0L14.4189 0C14.6226 0.000315341 14.8179 0.0814599 14.9618 0.225616C15.1057 0.369772 15.1866 0.565156 15.1866 0.768866C15.1874 0.837523 15.179 0.905983 15.1616 0.97239C15.1485 1.02119 15.1354 1.0688 15.1187 1.11283L11.4136 11.0081Z" fill="white"/>
<path d="M23.8562 11.0081C23.8047 11.1431 23.7144 11.2599 23.5967 11.3438C23.4743 11.4285 23.329 11.4739 23.1802 11.4739C23.0313 11.4739 22.886 11.4285 22.7636 11.3438C22.6459 11.2599 22.5556 11.1431 22.5041 11.0081L18.8062 1.11521C18.7907 1.07118 18.7776 1.02357 18.7633 0.97477C18.7459 0.908363 18.7375 0.839904 18.7383 0.771247C18.7377 0.567946 18.8176 0.372668 18.9606 0.228133C19.1036 0.0835983 19.298 0.00157255 19.5013 0L26.8602 0C27.0641 0 27.2597 0.0810053 27.4039 0.225196C27.5481 0.369386 27.6291 0.56495 27.6291 0.768866C27.63 0.837523 27.6216 0.905983 27.6041 0.97239C27.5898 1.02119 27.5767 1.0688 27.5613 1.11283L23.8562 11.0081Z" fill="white"/>
<path d="M17.6444 27.731C17.5951 27.8701 17.5039 27.9905 17.3834 28.0756C17.2629 28.1607 17.1189 28.2065 16.9714 28.2065C16.8238 28.2065 16.6798 28.1607 16.5593 28.0756C16.4388 27.9905 16.3476 27.8701 16.2983 27.731L12.5932 17.8369C12.4012 17.2309 12.4012 16.5803 12.5932 15.9742L16.2983 6.08134C16.3502 5.94485 16.4424 5.82737 16.5626 5.74448C16.6828 5.66158 16.8253 5.61719 16.9714 5.61719C17.1174 5.61719 17.2599 5.66158 17.3801 5.74448C17.5003 5.82737 17.5925 5.94485 17.6444 6.08134L21.3507 15.9754C21.5427 16.5815 21.5427 17.232 21.3507 17.8381L17.6444 27.731Z" fill="white"/>
<path d="M30.0936 27.7311C30.0546 27.8335 29.9927 27.9256 29.9127 28.0005C29.8327 28.0754 29.7366 28.1311 29.6319 28.1634C29.5271 28.1956 29.4164 28.2035 29.3081 28.1866C29.1999 28.1696 29.0969 28.1282 29.007 28.0655C28.8887 27.9828 28.7982 27.8662 28.7475 27.7311L25.0424 17.837C24.8504 17.2309 24.8504 16.5804 25.0424 15.9743L28.7475 6.08141C28.7866 5.979 28.8485 5.88684 28.9285 5.81194C29.0085 5.73703 29.1045 5.68134 29.2093 5.6491C29.314 5.61686 29.4247 5.60892 29.533 5.62587C29.6413 5.64283 29.7443 5.68424 29.8342 5.74696C29.9518 5.82983 30.0421 5.94584 30.0936 6.08022L33.8011 15.9707C33.9931 16.5768 33.9931 17.2274 33.8011 17.8334L30.0936 27.7311Z" fill="white"/>
<path d="M11.4129 22.6229C11.3611 22.4858 11.2688 22.3677 11.1483 22.2843C11.0277 22.2009 10.8846 22.1563 10.738 22.1562C10.5914 22.1563 10.4483 22.2009 10.3278 22.2843C10.2072 22.3677 10.1149 22.4858 10.0632 22.6229L6.35811 32.517C6.34144 32.5611 6.32835 32.6087 6.31526 32.6563C6.29748 32.7231 6.28868 32.7919 6.28908 32.861C6.28939 33.0647 6.37054 33.26 6.51469 33.4039C6.65885 33.5478 6.85423 33.6287 7.05794 33.6287H14.4181C14.6217 33.6287 14.817 33.5478 14.9609 33.4038C15.1049 33.2599 15.1858 33.0646 15.1858 32.861C15.1866 32.792 15.1782 32.7231 15.1608 32.6563C15.1477 32.6087 15.1346 32.5611 15.1179 32.517L11.4129 22.6229Z" fill="white"/>
<path d="M23.8562 22.6223C23.8042 22.4853 23.7117 22.3673 23.5911 22.2841C23.4704 22.2008 23.3273 22.1563 23.1807 22.1562C23.0342 22.1563 22.8911 22.2008 22.7704 22.2841C22.6498 22.3673 22.5573 22.4853 22.5053 22.6223L18.8062 32.5164C18.7907 32.5605 18.7776 32.6081 18.7633 32.6557C18.746 32.7225 18.7375 32.7914 18.7383 32.8604C18.7386 33.0641 18.8198 33.2594 18.9639 33.4033C19.1081 33.5472 19.3035 33.6281 19.5072 33.6281H26.8662C27.0699 33.6281 27.2653 33.5472 27.4094 33.4033C27.5536 33.2594 27.6347 33.0641 27.635 32.8604C27.6358 32.7914 27.6274 32.7225 27.61 32.6557C27.5958 32.6081 27.5827 32.5605 27.5672 32.5164L23.8562 22.6223Z" fill="white"/>
<path d="M42.6785 23.957C44.4638 23.957 45.5052 25.0139 45.5052 26.4933C45.5178 26.9357 45.3888 27.3705 45.137 27.7344C44.8853 28.0983 44.5239 28.3724 44.1056 28.5167C45.1767 28.7809 45.7956 29.7318 45.7956 30.778C45.7956 32.2574 44.6197 33.3274 42.9035 33.3274H39.6328V23.957H42.6785ZM42.5333 28.0525C43.5771 28.0525 44.1996 27.4312 44.1996 26.56C44.1996 25.6888 43.5521 25.0937 42.4821 25.0937H40.9218V28.0525H42.5333ZM42.7178 32.1872C43.7616 32.1872 44.4745 31.6064 44.4745 30.6947C44.4745 29.783 43.9068 29.1582 42.7714 29.1582H40.9218V32.1836L42.7178 32.1872Z" fill="white"/>
<path d="M49.4976 33.5247C48.017 33.5247 47.1172 32.4154 47.1172 30.9753V26.9727H48.3586V30.7896C48.3586 31.662 48.7549 32.4285 49.7987 32.4285C50.802 32.4285 51.3043 31.768 51.3043 30.8027V26.9727H52.548V32.1512C52.5487 32.5437 52.5709 32.9359 52.6147 33.3259H51.4245C51.3897 33.0723 51.3723 32.8166 51.3721 32.5606C51.0294 33.2212 50.2367 33.5247 49.4976 33.5247Z" fill="white"/>
<path d="M55.1904 31.2756C55.2689 31.9362 55.7712 32.4658 56.6698 32.4658C57.3696 32.4658 57.7529 32.0695 57.7529 31.6208C57.7529 31.2244 57.4625 30.9197 56.934 30.8007L55.8509 30.5627C54.8595 30.3508 54.2656 29.6772 54.2656 28.7774C54.2656 27.6943 55.282 26.7695 56.527 26.7695C58.2706 26.7695 58.8121 27.9062 58.9443 28.4739L57.8433 28.8845C57.7898 28.5548 57.5255 27.8276 56.5222 27.8276C55.8878 27.8276 55.4653 28.237 55.4653 28.6727C55.4653 29.0559 55.7034 29.3332 56.1913 29.4391L57.222 29.6641C58.3706 29.9152 58.9788 30.6162 58.9788 31.5529C58.9788 32.4515 58.2254 33.5215 56.6543 33.5215C54.9107 33.5215 54.1704 32.398 54.0645 31.6719L55.1904 31.2756Z" fill="white"/>
<path d="M61.464 41.1203L61.7294 40.9239C61.9782 40.743 62.0686 40.555 62.0686 40.3586C62.0682 40.2886 62.0537 40.2195 62.0258 40.1553C61.998 40.0912 61.9574 40.0333 61.9066 39.9852C61.8557 39.9372 61.7957 39.8999 61.7301 39.8757C61.6644 39.8515 61.5946 39.8409 61.5247 39.8444C61.4546 39.843 61.3849 39.8561 61.3201 39.8828C61.2553 39.9095 61.1966 39.9492 61.1478 39.9996C61.099 40.05 61.0611 40.1098 61.0365 40.1755C61.0118 40.2411 61.001 40.3112 61.0046 40.3812C61.0046 40.6073 61.1855 40.8263 61.3212 40.962L61.464 41.1203Z" fill="white"/>
<path d="M61.1992 42.3793C60.9433 42.5674 60.7695 42.7721 60.7695 43.0934C60.7705 43.1764 60.7878 43.2583 60.8207 43.3345C60.8535 43.4106 60.9012 43.4795 60.9609 43.5371C61.0206 43.5946 61.0911 43.6398 61.1684 43.6699C61.2457 43.7 61.3281 43.7144 61.4111 43.7124C61.736 43.7124 61.9705 43.5386 62.2264 43.2672L61.3135 42.3008L61.1992 42.3793Z" fill="white"/>
<path d="M41.5228 40.0391H40.6777V41.5268H41.5228C42.0512 41.5268 42.3559 41.2245 42.3559 40.7865C42.3559 40.3485 42.0512 40.0391 41.5228 40.0391Z" fill="white"/>
<path d="M68.7493 40.0391H67.9043V41.5268H68.7493C69.2778 41.5268 69.5825 41.2245 69.5825 40.7865C69.5825 40.3485 69.2778 40.0391 68.7493 40.0391Z" fill="white"/>
<path d="M39.6565 37.1523C39.3012 37.1523 38.9494 37.2223 38.6212 37.3583C38.293 37.4942 37.9948 37.6935 37.7435 37.9447C37.4923 38.1959 37.2931 38.4942 37.1571 38.8224C37.0211 39.1506 36.9512 39.5024 36.9512 39.8577V46.4632H86.9287C92.0703 46.4632 96.0004 42.2976 96.0004 37.1523H39.6565ZM42.2749 44.4887L41.2264 42.4273H40.6824V44.4887H39.6339V39.1328H41.725C42.7677 39.1328 43.4318 39.8469 43.4318 40.7789C43.4424 41.1237 43.3352 41.4619 43.128 41.7377C42.9207 42.0135 42.6257 42.2105 42.2916 42.2964L43.4389 44.4863L42.2749 44.4887ZM45.4087 44.4887H44.3471V39.1328H45.4039L45.4087 44.4887ZM51.2002 44.4887H50.1052L47.6736 40.6908V44.4887H46.6322V39.1328H47.9307L50.1576 42.6737V39.1352H51.2002V44.4887ZM54.8541 43.6556C55.8432 43.6556 56.2288 42.9903 56.2895 42.613H54.5934V41.7072H57.2654V44.4935H56.4156L56.3478 43.8817C56.1098 44.2388 55.5777 44.6065 54.7696 44.6065C53.3271 44.6065 52.0964 43.5496 52.0964 41.8203C52.0964 40.0909 53.3878 39.0269 54.8339 39.0269C56.2383 39.0269 57.0155 39.8493 57.2797 40.6729L56.2835 41.03C56.1478 40.5539 55.7015 40.0029 54.8339 40.0029C54.0257 40.0029 53.1497 40.5539 53.1497 41.8227C53.1581 43.0236 53.9507 43.6508 54.8493 43.6508L54.8541 43.6556ZM63.3866 44.4887L62.8356 43.9067C62.4356 44.3149 61.975 44.5863 61.4002 44.5863C60.3516 44.5863 59.7768 43.8722 59.7768 43.1521C59.7768 42.488 60.1338 42.1024 60.6908 41.687L60.7289 41.6644L60.6456 41.5739C60.3885 41.3026 60.0564 40.8943 60.0564 40.4111C60.0564 39.5125 60.8122 39.0138 61.5371 39.0138C62.3892 39.0138 63.0236 39.5661 63.0236 40.3659C63.0236 40.9098 62.6535 41.3026 62.269 41.5894L62.0655 41.7405L62.8725 42.5927L64.2198 41.1823V42.4356L63.4723 43.2212L64.6804 44.4899L63.3866 44.4887ZM69.5018 44.4887L68.4533 42.4273H67.9094V44.4887H66.8596V39.1328H68.9508C69.9934 39.1328 70.6575 39.8469 70.6575 40.7789C70.6681 41.1254 70.5599 41.4651 70.3507 41.7416C70.1416 42.0181 69.8441 42.2147 69.5078 42.2988L70.6551 44.4887H69.5018ZM72.6356 44.4887H71.5787V39.1328H72.6356V44.4887ZM75.7694 44.4887H73.8544V39.1328H75.7718C77.2976 39.1328 78.4152 40.1219 78.4152 41.8131C78.4152 43.5044 77.2893 44.4887 75.7647 44.4887H75.7694ZM82.6726 40.1171H80.3624V41.3395H82.4548V42.269H80.3624V43.5068H82.6737V44.4887H79.321V39.1328H82.6737L82.6726 40.1171Z" fill="white"/>
<path d="M75.7335 40.1016H74.9004V43.5222H75.7335C76.6095 43.5222 77.3415 42.9783 77.3415 41.8154C77.3415 40.6526 76.6095 40.1016 75.7335 40.1016Z" fill="white"/>
</g>
<defs>
<clipPath id="clip0_2_1237">
<rect width="160" height="46" fill="white"/>
</clipPath>
</defs>
</svg>
