<?xml version="1.0" encoding="UTF-8"?><svg id="RAR" xmlns="http://www.w3.org/2000/svg" xmlns:xlink="http://www.w3.org/1999/xlink" viewBox="0 0 200.0158 36.0277"><defs><clipPath id="clippath"><rect width="123.2468" height="35.4335" fill="none"/></clipPath></defs><g clip-path="url(#clippath)"><path d="M31.3994,16.4298h-1.3926l1.9354-6.9997h1.4018l1.5998,4.9856,1.5989-4.9856h1.4229l1.9445,6.9997h-1.4412l-1.2835-4.8177-1.5503,4.8177h-1.4128l-1.5595-4.8379-1.2634,4.8379Z" fill="#fff"/><path d="M41.6231,9.1683c.1598-.0002.3159.0469.449.1352.133.0884.237.214.299.3612.0619.1473.0789.3095.0489.4663-.03.1568-.1057.3013-.2175.4153-.1118.114-.2549.1924-.4112.2254-.1562.033-.3187.0191-.4671-.04s-.276-.1607-.3668-.292c-.0909-.1313-.1409-.2866-.1437-.4463-.0021-.1076.0173-.2145.0571-.3146.0397-.1.0991-.1911.1744-.2679.0754-.0769.1654-.1379.2646-.1796.0993-.0416.2058-.0631.3134-.0631ZM40.9713,11.5786h1.3129v4.859h-1.3129v-4.859Z" fill="#fff"/><path d="M48.4218,15.5586c0,.3255.0193.6812.0394.8783h-1.2542c-.0321-.1859-.0487-.3742-.0495-.5629-.2173.385-.7105.6812-1.3623.6812-1.3826,0-2.37-1.0855-2.37-2.557,0-1.422.9581-2.5377,2.3305-2.5377.8388,0,1.234.3456,1.3752.6023v-2.7742h1.2936l-.0028,6.2699ZM45.9529,15.3807c.672,0,1.1918-.5134,1.1918-1.3926s-.5226-1.3522-1.1918-1.3522-1.2038.4932-1.2038,1.3623.5135,1.3825,1.2038,1.3825Z" fill="#fff"/><path d="M51.2293,9.2887h-1.3137v7.1483h1.3137v-7.1483Z" fill="#fff"/><path d="M53.8565,13.6423l1.1918-.1769c.2751-.0404.3667-.1779.3667-.3456,0-.3466-.2668-.6326-.8196-.6326-.573,0-.8884.3667-.9278.7903l-1.1653-.2476c.0789-.76.7802-1.5989,2.083-1.5989,1.5402,0,2.1132.8691,2.1132,1.8465v2.3891c.0012.2578.0211.5152.0595.7701h-1.201c-.0341-.1922-.0506-.387-.0495-.5822-.2475.3851-.7114.7206-1.4321.7206-1.0369,0-1.6685-.7014-1.6685-1.4613,0-.8691.6417-1.3532,1.4512-1.4715h-.0018ZM55.4168,14.472v-.2173l-1.1002.1678c-.3365.0495-.6023.2375-.6023.6125,0,.286.2072.5629.6316.5629.5501,0,1.0662-.2668,1.0662-1.1259" fill="#fff"/><path d="M59.4356,16.4362h-1.3101v-4.859h1.2734v.6023c.2961-.5033.8783-.7334,1.4027-.7334,1.2037,0,1.7566.859,1.7566,1.9253v3.0611h-1.3157v-2.8301c0-.5427-.2668-.9672-.8984-.9672-.573,0-.9086.4437-.9086,1.0085v2.7925Z" fill="#fff"/><path d="M68.7293,15.5586c0,.3255.0192.6812.0394.8783h-1.2542c-.0325-.1859-.0491-.3742-.0494-.5629-.2173.385-.7105.6812-1.3624.6812-1.3825,0-2.3699-1.0855-2.3699-2.557,0-1.422.958-2.5377,2.3305-2.5377.8388,0,1.234.3456,1.3752.6023v-2.7742h1.2936l-.0027,6.2699ZM66.2603,15.3807c.6711,0,1.1918-.5134,1.1918-1.3926s-.5235-1.3522-1.1918-1.3522-1.2047.4932-1.2047,1.3623.5134,1.3825,1.2047,1.3825Z" fill="#fff"/><path d="M71.0727,14.8369c.0303.3851.3163.7408.8893.7408.4336,0,.6417-.2274.6417-.4841,0-.2164-.1485-.3942-.5235-.474l-.6417-.1476c-.9379-.2072-1.3633-.7701-1.3633-1.4513,0-.8691.771-1.5897,1.817-1.5897,1.3825,0,1.8465.8783,1.9061,1.4019l-1.1002.2466c-.0394-.286-.2466-.6509-.7994-.6509-.3456,0-.6216.2072-.6216.4831,0,.2375.1779.3851.4438.4346l.6913.1485c.958.1971,1.4412.7802,1.4412,1.4907,0,.7894-.6125,1.5998-1.8859,1.5998-1.4605,0-1.9647-.9479-2.0243-1.5008l1.1295-.2476Z" fill="#fff"/><path d="M38.5175,0h1.3926l-1.9354,7.0007h-1.4018l-1.5998-4.9865-1.5998,4.9865h-1.422l-1.9445-7.0007h1.4412l1.2835,4.8187,1.5504-4.8187h1.4119l1.5604,4.8379,1.2634-4.8379Z" fill="#fff"/><path d="M44.8486,5.6092c-.2466.8389-1.0167,1.5421-2.2113,1.5421-1.3331,0-2.5084-.9571-2.5084-2.5964,0-1.5503,1.146-2.557,2.3891-2.557,1.5018,0,2.3993.9571,2.3993,2.5175,0,.1879-.0193.3851-.0193.4052h-3.4756c.0302.6418.5729,1.1057,1.2239,1.1057.6124,0,.9479-.3062,1.1065-.7408l1.0956.3236ZM43.6247,4.0186c-.0202-.4832-.3365-.9571-1.0864-.9571-.2691-.01-.5318.0838-.7338.2619-.202.1781-.3279.427-.3517.6953h2.1719Z" fill="#fff"/><path d="M46.7573,5.4008c.0293.3851.3163.7408.8884.7408.4345,0,.6417-.2274.6417-.4841,0-.2164-.1476-.3942-.5235-.474l-.6417-.1476c-.937-.2081-1.3623-.7701-1.3623-1.4522,0-.8682.7701-1.5888,1.817-1.5888,1.3825,0,1.8465.8783,1.906,1.4018l-1.1001.2466c-.0394-.286-.2466-.6518-.8003-.6518-.3447,0-.6216.2072-.6216.4841,0,.2375.1779.3851.4447.4346l.6913.1485c.9571.1971,1.4412.7802,1.4412,1.4907,0,.7894-.6125,1.5998-1.8859,1.5998-1.4613,0-1.9647-.948-2.0243-1.5008l1.1295-.2475Z" fill="#fff"/><path d="M52.3241,2.1434h.9773v1.1653h-.9773v2.0335c0,.4254.1971.5629.5721.5629.1361.0015.2719-.0117.4052-.0394v1.0864c-.2369.0871-.4885.1272-.7407.1183-.948,0-1.5403-.5629-1.5403-1.5008v-2.2608h-.8791v-1.1653h.2466c.5143,0,.7509-.3355.7509-.7701v-.6812h1.1854v1.4513Z" fill="#fff"/><path d="M4.0018,21.3604c-.038.1071-.1082.1999-.2011.2654-.0928.0656-.2037.1008-.3174.1008s-.2245-.0352-.3174-.1008c-.0928-.0656-.1631-.1583-.2011-.2654L.1109,13.7363c-.1479-.4669-.1479-.9679,0-1.4348l2.854-7.6204c.038-.1071.1082-.1999.2011-.2655.0928-.0656.2037-.1008.3174-.1008s.2245.0352.3174.1008c.0928.0656.1631.1583.2011.2655l2.8558,7.6204c.1467.467.1467.9678,0,1.4348l-2.8558,7.624Z" fill="#fff"/><path d="M8.7918,8.4795c-.0398.1057-.1109.1967-.2037.2609-.0929.0642-.2031.0986-.3161.0986s-.2232-.0344-.316-.0986c-.0929-.0642-.164-.1552-.2038-.2609L4.8982.859c-.0128-.0339-.0229-.0706-.033-.1082-.0239-.0881-.0272-.1804-.0097-.27.0175-.0896.0554-.1739.1107-.2465.0553-.0726.1266-.1315.2082-.1721.0817-.0406.1716-.062.2629-.0623h5.6695c.1569.0002.3073.0627.4182.1738.1108.111.1732.2615.1732.4185.0006.0529-.0059.1056-.0193.1568-.0101.0376-.0202.0743-.033.1082l-2.854,7.6223Z" fill="#fff"/><path d="M18.3763,8.4795c-.0397.104-.1092.194-.1999.2586-.0943.0652-.2062.1002-.3208.1002-.1147,0-.2266-.035-.3209-.1002-.0907-.0646-.1602-.1546-.1999-.2586L14.4863.859c-.0119-.0339-.022-.0706-.033-.1082-.0134-.0512-.0199-.1039-.0193-.1568-.0005-.1566.0611-.307.1712-.4184.1102-.1113.2599-.1745.4165-.1757h5.6685c.1571,0,.3077.0624.4188.1735.1111.1111.1735.2617.1735.4188.0007.0529-.0058.1056-.0193.1568-.011.0376-.0211.0743-.033.1082l-2.854,7.6223Z" fill="#fff"/><path d="M13.5913,21.361c-.038.1071-.1082.1999-.201.2654s-.2037.1008-.3174.1008c-.1137,0-.2246-.0353-.3174-.1008-.0928-.0656-.1631-.1583-.201-.2654l-2.854-7.6214c-.1479-.4668-.1479-.968,0-1.4348l2.854-7.6204c.04-.1051.111-.1956.2036-.2595.0926-.0639.2024-.0981.3149-.0981.1125,0,.2222.0342.3148.0981.0926.0638.1636.1543.2036.2595l2.8549,7.6213c.1479.4669.1479.9679,0,1.4348l-2.8549,7.6204Z" fill="#fff"/><path d="M23.1809,21.3611c-.03.0789-.0777.1498-.1393.2075s-.1356.1006-.2163.1255c-.0807.0248-.166.0309-.2494.0179-.0833-.0131-.1627-.045-.2319-.0933-.0911-.0637-.1608-.1535-.1999-.2576l-2.854-7.6214c-.1479-.4669-.1479-.9679,0-1.4348l2.854-7.6204c.0301-.0789.0778-.1499.1394-.2076.0616-.0577.1356-.1006.2163-.1254.0806-.0248.1659-.031.2493-.0179.0834.0131.1628.045.232.0933.0906.0638.1601.1532.1998.2567l2.8559,7.6186c.1479.4669.1479.968,0,1.4348l-2.8559,7.6241Z" fill="#fff"/><path d="M8.7913,17.4263c-.0399-.1056-.111-.1966-.2038-.2608-.0929-.0642-.2031-.0986-.3161-.0987-.1129,0-.2232.0344-.316.0987-.0929.0642-.164.1552-.2038.2608l-2.854,7.6214c-.0128.034-.0229.0706-.033.1073-.0137.0515-.0205.1045-.0202.1577.0002.1569.0627.3073.1738.4182.111.1108.2615.1732.4185.1732h5.6695c.1568,0,.3073-.0623.4181-.1732.1109-.1108.1732-.2613.1732-.4181.0006-.0532-.0059-.1062-.0193-.1577-.0101-.0367-.0202-.0733-.033-.1073l-2.8539-7.6214Z" fill="#fff"/><path d="M18.3763,17.4258c-.0401-.1055-.1113-.1964-.2042-.2605-.093-.0642-.2032-.0984-.3161-.0985-.1128,0-.2231.0344-.3161.0985-.0929.0641-.1641.155-.2042.2605l-2.8494,7.6214c-.0119.034-.022.0706-.033.1073-.0133.0515-.0199.1045-.0193.1577.0002.1569.0628.3073.1738.4182.1111.1108.2616.1732.4185.1732h5.6686c.1569,0,.3074-.0623.4184-.1732.1111-.1108.1735-.2613.1738-.4182.0006-.0532-.0059-.1062-.0193-.1577-.0109-.0367-.021-.0733-.033-.1073l-2.8586-7.6214Z" fill="#fff"/><path d="M32.8749,18.4539c1.3752,0,2.1774.8141,2.1774,1.9537.0097.3408-.0897.6757-.2836.956-.1939.2803-.4723.4914-.7945.6026.8251.2035,1.3018.936,1.3018,1.7419,0,1.1396-.9058,1.9638-2.2278,1.9638h-2.5194v-7.2179h2.3461ZM32.7631,21.6086c.804,0,1.2835-.4786,1.2835-1.1497s-.4988-1.1295-1.323-1.1295h-1.2019v2.2791h1.2413ZM32.9052,24.7936c.804,0,1.3532-.4474,1.3532-1.1497s-.4373-1.1836-1.3119-1.1836h-1.4247v2.3304l1.3834.0028Z" fill="#fff"/><path d="M38.1276,25.8238c-1.1405,0-1.8336-.8545-1.8336-1.9638v-3.0832h.9562v2.9401c0,.672.3053,1.2624,1.1093,1.2624.7728,0,1.1598-.5088,1.1598-1.2523v-2.9502h.958v3.989c.0005.3023.0176.6045.0514.9049h-.9168c-.0268-.1953-.0402-.3923-.0404-.5895-.264.5089-.8746.7426-1.4439.7426Z" fill="#fff"/><path d="M42.5128,24.0914c.0605.5089.4474.9168,1.1396.9168.539,0,.8343-.3053.8343-.6509,0-.3053-.2237-.5401-.6308-.6317l-.8343-.1833c-.7637-.1632-1.2211-.6821-1.2211-1.3752,0-.8343.7829-1.5467,1.7419-1.5467,1.3431,0,1.7602.8756,1.862,1.3129l-.8481.3163c-.0412-.254-.2448-.8141-1.0176-.8141-.4887,0-.8141.3154-.8141.651,0,.2952.1834.5088.5592.5904l.7939.1733c.8848.1934,1.3533.7334,1.3533,1.4549,0,.6922-.5803,1.5164-1.7905,1.5164-1.3431,0-1.9133-.8654-1.9949-1.4247l.8673-.3053Z" fill="#fff"/><path d="M47.3453,31.6747l.2044-.1513c.1916-.1393.2613-.2842.2613-.4354-.0003-.0539-.0115-.1071-.033-.1566-.0214-.0494-.0527-.094-.0918-.131-.0392-.037-.0854-.0657-.136-.0843-.0506-.0186-.1044-.0268-.1582-.0241-.054-.0011-.1077.009-.1576.0296-.0499.0206-.0951.0511-.1327.09s-.0668.0849-.0857.1355c-.019.0505-.0273.1045-.0246.1584,0,.1742.1393.3429.2439.4474l.11.1219Z" fill="#fff"/><path d="M47.1413,32.6445c-.1971.1449-.331.3026-.331.5501.0008.0639.0141.127.0394.1857.0253.0586.062.1117.108.1561.046.0443.1003.0791.1598.1023.0595.0232.123.0343.1869.0327.2503,0,.4309-.1339.628-.3429l-.7032-.7444-.088.0605Z" fill="#fff"/><path d="M31.9847,30.8418h-.651v1.146h.651c.407,0,.6417-.2329.6417-.5702s-.2347-.5757-.6417-.5757Z" fill="#fff"/><path d="M52.9571,30.8418h-.6509v1.146h.6509c.4071,0,.6418-.2329.6418-.5702s-.2347-.5757-.6418-.5757Z" fill="#fff"/><path d="M30.5471,28.6181c-.2737,0-.5447.0539-.7975.1587-.2528.1047-.4825.2582-.6761.4517-.1935.1935-.3469.4233-.4517.6761-.1048.2528-.1586.5238-.1586.7975v5.0882h38.4973c3.9605,0,6.9879-3.2087,6.9879-7.1721H30.5471ZM32.564,34.2693l-.8077-1.5879h-.419v1.5879h-.8077v-4.1256h1.6108c.8032,0,1.3147.5501,1.3147,1.268.0082.2656-.0744.5261-.234.7386-.1597.2124-.3869.3642-.6443.4304l.8838,1.6869-.8966.0018ZM34.978,34.2693h-.8177v-4.1256h.814l.0037,4.1256ZM39.4391,34.2693h-.8435l-1.873-2.9255v2.9255h-.8022v-4.1256h1.0002l1.7154,2.7275v-2.7257h.8031v4.1238ZM42.2537,33.6276c.7619,0,1.0589-.5125,1.1057-.8031h-1.3065v-.6977h2.0582v2.1463h-.6546l-.0522-.4713c-.1833.2751-.5932.5583-1.2157.5583-1.1111,0-2.0591-.8141-2.0591-2.1462s.9948-2.1517,2.1087-2.1517c1.0818,0,1.6805.6335,1.884,1.2679l-.7674.2751c-.1045-.3667-.4483-.7912-1.1166-.7912-.6226,0-1.2973.4244-1.2973,1.4018.0065.925.617,1.4082,1.3092,1.4082l.0037.0037ZM48.8262,34.2693l-.4244-.4483c-.3081.3144-.6629.5235-1.1057.5235-.8077,0-1.2505-.5501-1.2505-1.1048,0-.5116.275-.8086.704-1.1286l.0293-.0174-.0642-.0697c-.198-.209-.4539-.5235-.4539-.8957,0-.6922.5822-1.0763,1.1406-1.0763.6564,0,1.145.4254,1.145,1.0415,0,.419-.2851.7215-.5813.9425l-.1568.1164.6216.6564,1.0378-1.0864v.9654l-.5758.6051.9306.9773-.9966-.0009ZM53.5367,34.2693l-.8077-1.5879h-.419v1.5879h-.8087v-4.1256h1.6108c.8031,0,1.3147.5501,1.3147,1.268.0082.2669-.0752.5286-.2363.7416-.1611.213-.3902.3644-.6493.4292l.8838,1.6869h-.8884ZM55.9507,34.2693h-.8141v-4.1256h.8141v4.1256ZM58.3646,34.2693h-1.4751v-4.1256h1.477c1.1753,0,2.0362.7619,2.0362,2.0646s-.8673,2.061-2.0417,2.061h.0036ZM63.6821,30.9019h-1.7795v.9416h1.6118v.716h-1.6118v.9535h1.7804v.7563h-2.5826v-4.1256h2.5826l-.0008.7582Z" fill="#fff"/><path d="M58.337,30.89h-.6417v2.6349h.6417c.6748,0,1.2386-.419,1.2386-1.3147s-.5639-1.3201-1.2386-1.3201Z" fill="#fff"/></g></svg>