<svg width="133" height="38" viewBox="0 0 133 38" fill="none" xmlns="http://www.w3.org/2000/svg">
<g clip-path="url(#clip0_92_10474)">
<path d="M5.48896 29.4837C5.43488 29.6262 5.33806 29.7475 5.21357 29.8337C5.09033 29.92 4.93943 29.97 4.77722 29.97C4.615 29.97 4.4641 29.92 4.34087 29.8337C4.21763 29.7475 4.1208 29.6249 4.06673 29.4824L0.152157 19.0907C0.0502997 18.8219 0 18.4669 0 18.1131C0 17.7592 0.0502997 17.4042 0.152157 17.1354L4.06673 6.74368C4.1208 6.59991 4.21763 6.47864 4.34087 6.39238C4.4641 6.30611 4.615 6.2561 4.77722 6.2561C4.93943 6.2561 5.09033 6.30611 5.21357 6.39238C5.33806 6.47864 5.43488 6.60116 5.48896 6.74243L9.40479 17.1354C9.50539 17.4042 9.55695 17.7592 9.55695 18.1131C9.55695 18.4669 9.50665 18.8219 9.40479 19.0907L5.48896 29.4837Z" fill="white"/>
<path d="M12.058 11.9208C12.0039 12.0645 11.9071 12.1858 11.7839 12.2721C11.6594 12.3583 11.5072 12.4083 11.345 12.4083C11.1828 12.4083 11.0294 12.3583 10.9061 12.2721C10.7829 12.1858 10.6861 12.0633 10.632 11.9208L6.71743 1.52905C6.69982 1.48279 6.68599 1.43278 6.67216 1.38153C6.6533 1.31276 6.64575 1.2415 6.64575 1.16774C6.64575 0.722667 7.00917 0.360107 7.45809 0.360107H15.2332C15.6808 0.360107 16.0455 0.721417 16.0455 1.16774C16.0455 1.2415 16.038 1.31401 16.0191 1.38153C16.004 1.43278 15.9902 1.48279 15.9738 1.52905L12.0593 11.9208H12.058Z" fill="white"/>
<path d="M25.204 11.9208C25.15 12.0645 25.0531 12.1858 24.9299 12.2721C24.8054 12.3583 24.6533 12.4083 24.491 12.4083C24.3288 12.4083 24.1754 12.3583 24.0509 12.2721C23.9277 12.1858 23.8321 12.0633 23.7768 11.9208L19.8622 1.52905C19.8446 1.48279 19.832 1.43278 19.8169 1.38153C19.7981 1.31276 19.7905 1.2415 19.7905 1.16774C19.7905 0.722667 20.1539 0.360107 20.6029 0.360107H28.3779C28.8256 0.360107 29.1903 0.721417 29.1903 1.16774C29.1903 1.2415 29.1827 1.31401 29.1639 1.38153C29.1488 1.43278 29.135 1.48279 29.1186 1.52905L25.204 11.9208Z" fill="white"/>
<path d="M18.6423 29.4837C18.5882 29.6262 18.4914 29.7475 18.3669 29.8337C18.2437 29.92 18.0928 29.97 17.9306 29.97C17.7684 29.97 17.6162 29.92 17.493 29.8337C17.3697 29.7475 17.2729 29.6249 17.2188 29.4824L13.3043 19.0907C13.2037 18.8219 13.1521 18.4669 13.1521 18.1131C13.1521 17.7592 13.2024 17.4042 13.3043 17.1354L17.2188 6.74368C17.2729 6.59991 17.3697 6.47864 17.493 6.39238C17.6162 6.30611 17.7671 6.2561 17.9306 6.2561C18.094 6.2561 18.2437 6.30611 18.3669 6.39238C18.4914 6.47864 18.5882 6.60116 18.6423 6.74243L22.5581 17.1354C22.6587 17.4042 22.7103 17.7592 22.7103 18.1131C22.7103 18.4669 22.6587 18.8219 22.5581 19.0907L18.6423 29.4837Z" fill="white"/>
<path d="M31.7956 29.4837C31.7415 29.6262 31.6447 29.7475 31.5215 29.8337C31.397 29.92 31.2473 29.97 31.0851 29.97C30.9229 29.97 30.772 29.92 30.6475 29.8337C30.5243 29.7475 30.4274 29.6249 30.3734 29.4824L26.4588 19.0907C26.3569 18.8219 26.3066 18.4669 26.3066 18.1131C26.3066 17.7592 26.3569 17.4042 26.4588 17.1354L30.3734 6.74368C30.4274 6.59991 30.5243 6.47864 30.6475 6.39238C30.772 6.30611 30.9216 6.2561 31.0851 6.2561C31.2486 6.2561 31.3982 6.30611 31.5215 6.39238C31.6447 6.47864 31.7415 6.60116 31.7956 6.74243L35.7114 17.1354C35.812 17.4042 35.8636 17.7592 35.8636 18.1131C35.8636 18.4669 35.812 18.8219 35.7114 19.0907L31.7956 29.4837Z" fill="white"/>
<path d="M12.058 24.1203C12.0039 23.9765 11.9071 23.8552 11.7839 23.769C11.6594 23.6827 11.5072 23.6327 11.345 23.6327C11.1828 23.6327 11.0294 23.6827 10.9061 23.769C10.7829 23.8552 10.6861 23.9777 10.632 24.1203L6.71743 34.5132C6.69982 34.5595 6.68599 34.6095 6.67216 34.6608C6.6533 34.7283 6.64575 34.8008 6.64575 34.8745C6.64575 35.3196 7.00917 35.6822 7.45809 35.6822H15.2332C15.6808 35.6822 16.0455 35.3209 16.0455 34.8745C16.0455 34.8008 16.038 34.7283 16.0191 34.6608C16.004 34.6095 15.9902 34.5595 15.9738 34.5132L12.0593 24.1203H12.058Z" fill="white"/>
<path d="M25.204 24.1203C25.15 23.9765 25.0531 23.8552 24.9299 23.769C24.8054 23.6827 24.6533 23.6327 24.491 23.6327C24.3288 23.6327 24.1754 23.6827 24.0509 23.769C23.9277 23.8552 23.8321 23.9777 23.7768 24.1203L19.8622 34.5132C19.8446 34.5595 19.832 34.6095 19.8169 34.6608C19.7981 34.7283 19.7905 34.8008 19.7905 34.8745C19.7905 35.3196 20.1539 35.6822 20.6029 35.6822H28.3779C28.8256 35.6822 29.1903 35.3209 29.1903 34.8745C29.1903 34.8008 29.1827 34.7283 29.1639 34.6608C29.1488 34.6095 29.135 34.5595 29.1186 34.5132L25.204 24.1203Z" fill="white"/>
<path d="M45.6295 9.92666L47.8263 3.11554L50.0244 9.92666H51.9509L54.6092 0.363839H52.6966L50.96 6.97243L48.8172 0.363839H46.8769L44.748 6.94492L42.9849 0.363839H41.0044L43.6766 9.92541H45.6307L45.6295 9.92666ZM60.9319 8.0251L59.4267 7.58003C59.2091 8.17387 58.7476 8.59144 57.9064 8.59144C57.011 8.59144 56.2653 7.95759 56.2251 7.08119H60.9998C60.9998 7.05494 61.0275 6.78489 61.0275 6.52735C61.0275 4.397 59.7926 3.08804 57.7316 3.08804C56.0214 3.08804 54.4483 4.46326 54.4483 6.58111C54.4483 8.82023 56.0629 10.1279 57.8938 10.1279C59.5348 10.1279 60.5936 9.17029 60.9319 8.02385V8.0251ZM57.758 4.54578C58.7891 4.54578 59.223 5.19338 59.2506 5.85349H56.2666C56.3068 5.24714 56.8224 4.54578 57.7592 4.54578H57.758ZM72.0016 9.85915V8.37516C71.906 8.40266 71.6621 8.42892 71.4458 8.42892C70.9302 8.42892 70.6586 8.24013 70.6586 7.66004V4.88208H72.0016V3.29057H70.6586V1.30774H69.0301V2.2379C69.0301 2.83174 68.7057 3.29057 68.0003 3.29057H67.6607V4.88208H68.8679V7.97009C68.8679 9.25155 69.6815 10.0204 70.9843 10.0204C71.5137 10.0204 71.8381 9.92666 72.0016 9.8579V9.85915ZM64.5145 8.75397C63.7273 8.75397 63.3337 8.26889 63.2935 7.74255L61.7467 8.07886C61.8285 8.83398 62.5201 10.1292 64.5283 10.1292C66.2775 10.1292 67.1188 9.02276 67.1188 7.94384C67.1188 6.97243 66.4548 6.17729 65.1382 5.90725L64.1888 5.70472C63.8229 5.63721 63.5777 5.43467 63.5777 5.11087C63.5777 4.73331 63.9574 4.44951 64.4328 4.44951C65.1923 4.44951 65.4777 4.94834 65.5318 5.33966L67.037 5.00335C66.9565 4.28823 66.3177 3.08804 64.4189 3.08804C62.9803 3.08804 61.9228 4.07195 61.9228 5.25964C61.9228 6.1898 62.5063 6.95867 63.7952 7.24247L64.6767 7.445C65.1923 7.55377 65.396 7.79631 65.396 8.09261C65.396 8.44392 65.1118 8.75397 64.5145 8.75397ZM84.11 0.356338L81.9119 7.16746L79.7151 0.356338H77.7886L75.1302 9.91791H77.0429L78.7782 3.30932L80.9223 9.91791H82.8613L84.9915 3.33683L86.7545 9.91791H88.7351L86.0629 0.356338H84.11ZM90.6213 2.21039C91.245 2.21039 91.7329 1.71156 91.7329 1.11771C91.7329 0.523866 91.245 -0.0012207 90.6213 -0.0012207C89.9976 -0.0012207 89.5084 0.497611 89.5084 1.11771C89.5084 1.73782 90.0102 2.21039 90.6213 2.21039ZM89.726 9.92541H91.5305V3.29057H89.726V9.92666V9.92541ZM97.9462 9.15653C97.9462 9.46659 97.9864 9.79039 98.0141 9.92541H99.7369C99.7105 9.65537 99.6828 9.17029 99.6828 8.72521V0.162556H97.906V3.95193C97.7161 3.60187 97.1741 3.12929 96.021 3.12929C94.136 3.12929 92.8194 4.65329 92.8194 6.59611C92.8194 8.53893 94.1762 10.0892 96.0751 10.0892C96.9704 10.0892 97.6482 9.68412 97.9474 9.15904L97.9462 9.15653ZM96.2913 8.48267C95.3419 8.48267 94.6365 7.78131 94.6365 6.59486C94.6365 5.40842 95.3683 4.73331 96.2913 4.73331C97.2143 4.73331 97.9336 5.39467 97.9336 6.58111C97.9336 7.76756 97.2143 8.48267 96.2913 8.48267ZM101.5 9.92541H103.304V0.162556H101.5V9.92666V9.92541ZM133 7.94384C133 6.97243 132.335 6.17729 131.02 5.90725L130.07 5.70472C129.704 5.63721 129.46 5.43467 129.46 5.11087C129.46 4.73331 129.84 4.44951 130.315 4.44951C131.075 4.44951 131.36 4.94834 131.414 5.33966L132.92 5.00335C132.839 4.28823 132.202 3.08804 130.301 3.08804C128.863 3.08804 127.805 4.07195 127.805 5.25964C127.805 6.1898 128.389 6.95867 129.677 7.24247L130.558 7.445C131.074 7.55377 131.277 7.79631 131.277 8.09261C131.277 8.44392 130.993 8.75397 130.396 8.75397C129.609 8.75397 129.216 8.26889 129.175 7.74255L127.628 8.07886C127.71 8.83398 128.401 10.1292 130.408 10.1292C132.159 10.1292 133 9.02276 133 7.94384ZM114.036 6.10978C114.036 5.34216 114.497 4.73456 115.283 4.73456C116.151 4.73456 116.518 5.31465 116.518 6.05602V9.92666H118.323V5.74597C118.323 4.28948 117.563 3.11554 115.908 3.11554C115.189 3.11554 114.389 3.42559 113.982 4.11446V3.29182H112.231V9.92791H114.036V6.11103V6.10978ZM108.908 9.13153C108.908 9.38782 108.934 9.75163 108.976 9.92791H110.631C110.59 9.69912 110.55 9.22655 110.55 8.87524V5.61095C110.55 4.27573 109.763 3.08929 107.646 3.08929C105.856 3.08929 104.893 4.23573 104.784 5.27465L106.385 5.6122C106.439 5.03211 106.873 4.53327 107.66 4.53327C108.448 4.53327 108.786 4.92459 108.786 5.39592C108.786 5.6247 108.664 5.81348 108.284 5.86849L106.643 6.11103C105.53 6.27356 104.649 6.93367 104.649 8.12011C104.649 9.15903 105.516 10.1167 106.941 10.1167C107.932 10.1167 108.569 9.65787 108.908 9.13278V9.13153ZM106.452 8.0126C106.452 7.50001 106.819 7.24372 107.279 7.17621L108.785 6.94742V7.24372C108.785 8.41641 108.079 8.78147 107.32 8.78147C106.736 8.78147 106.451 8.40391 106.451 8.0126H106.452ZM124.643 9.15904C124.643 9.46909 124.683 9.79289 124.711 9.92791H126.433C126.407 9.65787 126.379 9.17279 126.379 8.72771V0.162556H124.603V3.95193C124.413 3.60187 123.871 3.12929 122.718 3.12929C120.833 3.12929 119.516 4.65329 119.516 6.59611C119.516 8.53893 120.873 10.0892 122.772 10.0892C123.667 10.0892 124.345 9.68412 124.644 9.15904H124.643ZM122.988 8.48518C122.038 8.48518 121.333 7.78381 121.333 6.59736C121.333 5.41092 122.065 4.73581 122.988 4.73581C123.911 4.73581 124.63 5.39717 124.63 6.58361C124.63 7.77006 123.911 8.48518 122.988 8.48518Z" fill="white"/>
<path d="M47.1874 15.6876C47.0755 14.98 46.4757 14.0086 45.0937 14.0086C43.9771 14.0086 43.1811 14.73 43.1811 15.6464C43.1811 16.354 43.6136 16.8953 44.4511 17.0754L45.9312 17.3942C47.5785 17.7555 48.499 18.7819 48.499 20.1559C48.499 21.6824 47.1874 23.0701 45.0799 23.0701C42.6932 23.0701 41.5627 21.5436 41.3816 20.1421L42.6932 19.7258C42.7912 20.8222 43.5721 21.8349 45.066 21.8349C46.4342 21.8349 47.1044 21.1273 47.1044 20.2671C47.1044 19.5595 46.6165 18.9494 45.6244 18.7406L44.2147 18.4356C42.8051 18.1305 41.8003 17.2141 41.8003 15.7439C41.8003 14.2737 43.2377 12.8159 45.066 12.8159C47.2994 12.8159 48.1922 14.1899 48.416 15.2576L47.1874 15.6876Z" fill="white"/>
<path d="M51.7937 19.0457L53.6083 18.7819C54.0132 18.7269 54.1251 18.5181 54.1251 18.2819C54.1251 17.6292 53.6925 17.0892 52.6739 17.0892C51.7522 17.0892 51.2366 17.658 51.1524 18.4356L49.8961 18.1443C50.0357 16.8679 51.1939 15.9802 52.6463 15.9802C54.6557 15.9802 55.4379 17.1179 55.4379 18.4219V21.7662C55.4379 22.3488 55.4932 22.6963 55.5222 22.8626H54.2383C54.2106 22.6963 54.1678 22.4463 54.1678 21.9612C53.8748 22.4325 53.2046 23.0714 52.005 23.0714C50.6368 23.0714 49.7578 22.1275 49.7578 21.0736C49.7578 19.8809 50.6368 19.2145 51.7962 19.0482L51.7937 19.0457ZM54.1251 20.0034V19.6983L52.0729 20.0034C51.5145 20.0872 51.0958 20.406 51.0958 21.0023C51.0958 21.5024 51.5145 21.9737 52.1848 21.9737C53.2599 21.9737 54.1251 21.4599 54.1251 20.0034Z" fill="white"/>
<path d="M59.2342 17.3667V22.8613H57.8799V17.3667H56.6375V16.1877H57.8799V15.0638C57.8799 13.5785 58.8708 12.7747 60.0855 12.7747C60.5319 12.7747 60.8111 12.8722 60.8677 12.9134V14.0786C60.7972 14.0511 60.63 13.9949 60.2955 13.9949C59.8353 13.9949 59.2342 14.2174 59.2342 15.1325V16.1877H60.8538V17.3667H59.2342Z" fill="white"/>
<path d="M67.8318 20.9597C67.4545 22.1387 66.3806 23.0688 64.8176 23.0688C63.0168 23.0688 61.4399 21.7649 61.4399 19.502C61.4399 17.4066 62.9615 15.9777 64.6503 15.9777C66.7164 15.9777 67.8745 17.3929 67.8745 19.4745C67.8745 19.6408 67.8607 19.807 67.8469 19.8908H62.7943C62.8219 21.0835 63.6871 21.9161 64.8176 21.9161C65.9481 21.9161 66.4511 21.3198 66.7013 20.5697L67.8318 20.9585V20.9597ZM66.5064 18.8369C66.4787 17.8792 65.85 17.1304 64.6642 17.1304C63.5613 17.1304 62.8911 17.9767 62.8358 18.8369H66.5064Z" fill="white"/>
<path d="M73.2753 17.5054C73.0804 17.4779 72.8842 17.4641 72.7031 17.4641C71.6003 17.4641 70.8609 18.0467 70.8609 19.5182V22.8625H69.5493V16.1877H70.8332V17.3529C71.3211 16.3265 72.1586 16.0764 72.8427 16.0764C73.0238 16.0764 73.2061 16.1039 73.2753 16.1177V17.5054Z" fill="white"/>
<path d="M81.859 14.2861V22.8613H80.4908V14.2861H77.1836V13.0234H85.1674V14.2861H81.859Z" fill="white"/>
<path d="M89.3134 17.5054C89.1184 17.4779 88.9223 17.4641 88.7412 17.4641C87.6384 17.4641 86.899 18.0467 86.899 19.5182V22.8625H85.5874V16.1877H86.8713V17.3529C87.3592 16.3265 88.1967 16.0764 88.8808 16.0764C89.0619 16.0764 89.2442 16.1039 89.3134 16.1177V17.5054Z" fill="white"/>
<path d="M92.3276 19.0457L94.1422 18.7819C94.5471 18.7269 94.659 18.5181 94.659 18.2819C94.659 17.6292 94.2264 17.0892 93.2078 17.0892C92.2861 17.0892 91.7705 17.658 91.6863 18.4356L90.43 18.1443C90.5696 16.8679 91.7278 15.9802 93.1802 15.9802C95.1896 15.9802 95.9718 17.1179 95.9718 18.4219V21.7662C95.9718 22.3488 96.0271 22.6963 96.0561 22.8626H94.7722C94.7445 22.6963 94.703 22.4463 94.703 21.9612C94.41 22.4325 93.7398 23.0714 92.5401 23.0714C91.172 23.0714 90.293 22.1275 90.293 21.0736C90.293 19.8809 91.172 19.2145 92.3314 19.0482L92.3276 19.0457ZM94.659 20.0034V19.6983L92.6068 20.0034C92.0484 20.0872 91.6297 20.406 91.6297 21.0023C91.6297 21.5024 92.0484 21.9737 92.7187 21.9737C93.7938 21.9737 94.659 21.4599 94.659 20.0034Z" fill="white"/>
<path d="M101.08 22.8614H99.7544L97.0332 16.1865H98.512L100.425 21.3349L102.351 16.1865H103.761L101.081 22.8614H101.08Z" fill="white"/>
<path d="M110.654 20.9597C110.277 22.1387 109.203 23.0688 107.64 23.0688C105.839 23.0688 104.262 21.7649 104.262 19.502C104.262 17.4066 105.784 15.9777 107.473 15.9777C109.539 15.9777 110.697 17.3929 110.697 19.4745C110.697 19.6408 110.683 19.807 110.669 19.8908H105.617C105.644 21.0835 106.51 21.9161 107.64 21.9161C108.771 21.9161 109.274 21.3198 109.524 20.5697L110.654 20.9585V20.9597ZM109.329 18.8369C109.301 17.8792 108.672 17.1304 107.487 17.1304C106.384 17.1304 105.714 17.9767 105.658 18.8369H109.329Z" fill="white"/>
<path d="M112.372 22.8613V12.8147H113.684V22.8613H112.372Z" fill="white"/>
<path d="M43.4753 31.339V35.3634H42.1072V25.5255H45.7086C47.537 25.5255 48.7656 26.7882 48.7656 28.4397C48.7656 30.0913 47.537 31.3402 45.7086 31.3402H43.4753V31.339ZM45.4571 30.1175C46.643 30.1175 47.3698 29.4649 47.3698 28.4522C47.3698 27.4396 46.6442 26.7457 45.4571 26.7457H43.4753V30.1175H45.4571Z" fill="white"/>
<path d="M51.5007 31.5478L53.3153 31.284C53.7202 31.229 53.8321 31.0202 53.8321 30.7839C53.8321 30.1313 53.3995 29.5912 52.381 29.5912C51.4592 29.5912 50.9437 30.1601 50.8594 30.9377L49.6032 30.6464C49.7428 29.3699 50.9009 28.4823 52.3533 28.4823C54.3628 28.4823 55.1449 29.62 55.1449 30.924V34.2683C55.1449 34.8508 55.2003 35.1984 55.2292 35.3647H53.9453C53.9176 35.1984 53.8749 34.9484 53.8749 34.4633C53.5819 34.9346 52.9116 35.5735 51.712 35.5735C50.3438 35.5735 49.4648 34.6296 49.4648 33.5756C49.4648 32.3829 50.3438 31.7166 51.5032 31.5503L51.5007 31.5478ZM53.8321 32.5055V32.2004L51.7799 32.5055C51.2216 32.5892 50.8028 32.908 50.8028 33.5044C50.8028 34.0045 51.2216 34.4758 51.8918 34.4758C52.967 34.4758 53.8321 33.9619 53.8321 32.5055Z" fill="white"/>
<path d="M60.9078 30.0075C60.7129 29.98 60.5168 29.9662 60.3357 29.9662C59.2329 29.9662 58.4934 30.5488 58.4934 32.0203V35.3646H57.1819V28.6898H58.4658V29.855C58.9537 28.8285 59.7912 28.5785 60.4753 28.5785C60.6563 28.5785 60.8387 28.606 60.9078 28.6197V30.0075Z" fill="white"/>
<path d="M64.4113 28.6885H65.8625V29.8675H64.4113V33.3368C64.4113 33.9469 64.6628 34.2532 65.3469 34.2532C65.5142 34.2532 65.7518 34.2257 65.8638 34.1982V35.3084C65.7518 35.3496 65.4173 35.4334 64.9709 35.4334C63.8266 35.4334 63.101 34.7395 63.101 33.5318V29.8687H61.8171V28.6898H62.1806C62.9061 28.6898 63.213 28.246 63.213 27.6634V26.5807H64.4139V28.6898L64.4113 28.6885Z" fill="white"/>
<path d="M68.781 35.3634H67.4695V28.6885H68.7534V29.6462C69.2413 28.8136 70.0373 28.4948 70.8194 28.4948C72.424 28.4948 73.22 29.6462 73.22 31.1314V35.3634H71.9084V31.3527C71.9084 30.4226 71.5174 29.6737 70.3454 29.6737C69.313 29.6737 68.7823 30.4926 68.7823 31.5052V35.3634H68.781Z" fill="white"/>
<path d="M81.1611 33.4618C80.7839 34.6407 79.71 35.5709 78.1469 35.5709C76.3462 35.5709 74.7693 34.2669 74.7693 32.0041C74.7693 29.9087 76.2908 28.4797 77.9797 28.4797C80.0457 28.4797 81.2039 29.895 81.2039 31.9766C81.2039 32.1428 81.19 32.3091 81.1762 32.3929H76.1236C76.1513 33.5856 77.0164 34.4182 78.1469 34.4182C79.2774 34.4182 79.7804 33.8219 80.0306 33.0717L81.1611 33.4606V33.4618ZM79.8357 31.339C79.8081 30.3813 79.1793 29.6324 77.9935 29.6324C76.8907 29.6324 76.2204 30.4788 76.1651 31.339H79.8357Z" fill="white"/>
<path d="M86.6049 30.0075C86.4099 29.98 86.2138 29.9662 86.0327 29.9662C84.9299 29.9662 84.1905 30.5488 84.1905 32.0203V35.3646H82.8789V28.6898H84.1628V29.855C84.6507 28.8285 85.4882 28.5785 86.1723 28.5785C86.3534 28.5785 86.5357 28.606 86.6049 28.6197V30.0075Z" fill="white"/>
<path d="M88.5589 33.2117C88.6431 33.9056 89.1725 34.4607 90.1219 34.4607C90.8613 34.4607 91.2662 34.0444 91.2662 33.573C91.2662 33.1567 90.9594 32.8379 90.4011 32.7129L89.2568 32.4629C88.2093 32.2403 87.5818 31.5327 87.5818 30.5901C87.5818 29.4524 88.6569 28.481 89.9685 28.481C91.8107 28.481 92.3829 29.6737 92.5225 30.2713L91.3643 30.7013C91.309 30.355 91.0298 29.5911 89.9685 29.5911C89.2983 29.5911 88.8519 30.0212 88.8519 30.4788C88.8519 30.8814 89.1034 31.1726 89.6189 31.2839L90.7079 31.5202C91.9227 31.784 92.564 32.5191 92.564 33.5043C92.564 34.4894 91.768 35.5721 90.1081 35.5721C88.2659 35.5721 87.4837 34.3932 87.373 33.6293L88.5589 33.213V33.2117Z" fill="white"/>
<path d="M95.6224 35.3634H94.3108V25.3168H95.6224V29.4662C96.1103 28.7586 96.8924 28.4948 97.6608 28.4948C99.2653 28.4948 100.061 29.6462 100.061 31.1315V35.3634H98.7497V31.3528C98.7497 30.4226 98.3587 29.6737 97.1867 29.6737C96.1819 29.6737 95.6513 30.4514 95.6236 31.4365V35.3634H95.6224Z" fill="white"/>
<path d="M102.796 25.2192C103.327 25.2192 103.746 25.6356 103.746 26.1631C103.746 26.6907 103.327 27.0933 102.796 27.0933C102.266 27.0933 101.861 26.677 101.861 26.1631C101.861 25.6493 102.28 25.2192 102.796 25.2192ZM102.154 35.3634V28.6886H103.452V35.3634H102.154Z" fill="white"/>
<path d="M105.686 38.0001V28.6885H106.956V29.73C107.32 29.0636 108.114 28.536 109.203 28.536C111.213 28.536 112.288 30.0763 112.288 32.0191C112.288 33.9619 111.13 35.5434 109.162 35.5434C108.129 35.5434 107.347 35.0583 106.985 34.4607V37.9988H105.687L105.686 38.0001ZM108.966 29.6887C107.765 29.6887 106.97 30.6876 106.97 32.0203C106.97 33.3531 107.766 34.3795 108.966 34.3795C110.165 34.3795 110.947 33.3943 110.947 32.0203C110.947 30.6464 110.194 29.6887 108.966 29.6887Z" fill="white"/>
</g>
<defs>
<clipPath id="clip0_92_10474">
<rect width="133" height="38" fill="white"/>
</clipPath>
</defs>
</svg>
