<?xml version="1.0" encoding="UTF-8"?><svg id="Transport_For_West_Midlands" xmlns="http://www.w3.org/2000/svg" xmlns:xlink="http://www.w3.org/1999/xlink" viewBox="0 0 200.0081 36.0041"><defs><clipPath id="clippath"><rect x=".0584" y=".1012" width="137.7523" height="35.8483" fill="none" stroke-width="0"/></clipPath></defs><g clip-path="url(#clippath)"><path d="M5.5975,29.6595c-.0551.1458-.1534.2713-.2817.36-.1283.0886-.2805.1359-.4364.1358-.1559-.0001-.308-.0477-.4362-.1364-.1282-.0887-.2262-.2144-.2812-.3604L.212,19.1113c-.2048-.646-.2048-1.3394,0-1.9854l3.95-10.5472c.0553-.1456.1535-.2709.2816-.3593.1281-.0885.2801-.1359.4358-.136.1557-.0001.3077.0471.436.1354.1282.0883.2266.2135.2821.3589l3.9514,10.5481c.2042.646.2042,1.3393,0,1.9854l-3.9514,10.5481Z" fill="#fff" stroke-width="0"/><path d="M12.2255,11.8347c-.0552.1462-.1536.2721-.2821.3609-.1285.0889-.2811.1365-.4373.1365s-.3088-.0476-.4373-.1365c-.1285-.0889-.2269-.2148-.2821-.3609L6.8367,1.2876c-.0176-.0472-.0315-.0978-.0463-.1498-.0186-.071-.0276-.1442-.0267-.2175,0-.2173.0864-.4257.2401-.5793.1537-.1536.3621-.2399.5794-.2398h7.8456c.2172,0,.4256.0864.5791.24.1537.1536.2399.3619.2399.5791.0009.0734-.008.1465-.0263.2175-.0147.052-.0286.1026-.0462.1498l-3.95,10.5471Z" fill="#fff" stroke-width="0"/><path d="M25.4896,11.8347c-.0552.1462-.1537.2721-.2822.361-.1285.0889-.2812.1365-.4374.1365-.1563,0-.309-.0476-.4375-.1365-.1285-.0889-.227-.2148-.2822-.361l-3.95-10.5471c-.0171-.0472-.031-.0978-.0458-.1498-.0187-.071-.0277-.1442-.0266-.2175,0-.2173.0864-.4257.2401-.5793.1538-.1536.3621-.2399.5795-.2398h7.8456c.2172,0,.4254.0864.5791.24.1535.1536.2399.3619.2399.5791.0009.0734-.0081.1466-.0268.2175-.0147.052-.0286.1026-.0457.1498l-3.9501,10.5471Z" fill="#fff" stroke-width="0"/><path d="M18.8695,29.6595c-.0551.1458-.1534.2713-.2817.36-.1283.0886-.2804.1359-.4364.1358-.1559-.0001-.3081-.0477-.4362-.1364-.1282-.0887-.2262-.2144-.2812-.3604l-3.95-10.5471c-.2042-.646-.2042-1.3394,0-1.9854l3.95-10.5472c.0553-.1456.1535-.2709.2816-.3593.1282-.0885.2802-.1359.4359-.136s.3077.0471.436.1354c.1283.0883.2266.2135.2821.3589l3.9515,10.5481c.2048.646.2048,1.3394,0,1.9854l-3.9515,10.5481Z" fill="#fff" stroke-width="0"/><path d="M32.1418,29.6595c-.0555.1455-.1537.2708-.2819.3592-.1283.0883-.2803.1355-.4361.1355-.1558.0004-.3081-.0468-.4364-.1355-.1283-.0886-.2264-.2143-.2811-.3602l-3.95-10.5471c-.2049-.646-.2049-1.3394,0-1.9854l3.95-10.5472c.0552-.1456.1534-.2711.2814-.3596.1282-.0885.2802-.136.436-.1361.1557-.0001.3078.0472.4361.1355.1282.0884.2265.2136.2819.3592l3.9514,10.5481c.2048.646.2048,1.3394,0,1.9854l-3.9514,10.5481Z" fill="#fff" stroke-width="0"/><path d="M12.2255,24.2158c-.0552-.1462-.1536-.272-.2821-.3609-.1285-.0889-.2811-.1365-.4373-.1365s-.3088.0476-.4373.1365c-.1285.0888-.2269.2147-.2821.3609l-3.95,10.5476c-.0176.0468-.0315.0973-.0463.1493-.0317.1217-.0353.2491-.0104.3724.0249.1233.0775.2394.154.3393.0764.1.1746.1812.2871.2374.1125.0563.2364.0863.3622.0875h7.8456c.2172-.0001.4256-.0864.5791-.2399.1537-.1537.2399-.362.2399-.5792.0009-.0733-.0079-.1464-.0261-.2175-.0148-.052-.0287-.1025-.0463-.1493l-3.95-10.5476Z" fill="#fff" stroke-width="0"/><path d="M25.4896,24.2158c-.0552-.1462-.1537-.272-.2822-.361-.1285-.0888-.2811-.1364-.4374-.1364s-.3088.0476-.4375.1364c-.1285.0889-.227.2148-.2822.361l-3.95,10.5476c-.0171.0468-.031.0973-.0458.1493-.0317.1217-.0353.2491-.0104.3724.0249.1233.0775.2394.1539.3393.0765.1.1747.1812.2871.2374.1125.0563.2364.0863.3623.0875h7.8456c.1257-.0014.2496-.0313.362-.0877s.2106-.1375.2869-.2374c.0764-.1.129-.216.1539-.3393.0249-.1232.0212-.2506-.0105-.3723-.0147-.052-.0286-.1025-.0457-.1493l-3.9501-10.5476Z" fill="#fff" stroke-width="0"/><path d="M44.3716,29.8667l-2.7953-10.0608h2.0717l1.8447,6.9245,2.2276-6.9245h2.0297l2.2416,6.9531,1.8166-6.9531h2.0005l-2.7812,10.0608h-2.0151l-2.2988-7.1663-2.2984,7.1663h-2.0435ZM62.4927,26.7727h-4.9947c.0426.9226.8232,1.5894,1.7593,1.5894.88,0,1.3624-.4402,1.5899-1.0644l1.5749.4683c-.355,1.2058-1.4616,2.2136-3.1787,2.2136-1.9153,0-3.6039-1.3763-3.6039-3.7318,0-2.2281,1.6456-3.6756,3.4339-3.6756,2.1569,0,3.448,1.3768,3.448,3.6185,0,.2696-.0286.554-.0286.582ZM60.6621,25.4811c-.028-.695-.4823-1.3763-1.5608-1.3763-.3869-.0143-.7646.1204-1.0552.3766-.2904.2561-.4714.614-.5055.9997h3.1215ZM74.0016,29.6958v-1.5608c-.1915.0397-.3866.0586-.582.0567-.539,0-.8229-.1986-.8229-.8088v-2.9231h1.4049v-1.6746h-1.4049v-2.0857h-1.7032v.9788c0,.6247-.3399,1.107-1.078,1.107h-.3544v1.6746h1.2625v3.2494c0,1.3483.8513,2.1569,2.214,2.1569.3624.0128.7238-.045,1.0639-.1704ZM66.169,28.5323c-.8232,0-1.2349-.5108-1.2775-1.0643l-1.6179.3544c.0853.7947.8088,2.1574,2.9095,2.1574,1.8301,0,2.7099-1.1637,2.7099-2.2988,0-1.0218-.6948-1.8591-2.0722-2.143l-.9928-.213c-.3831-.0707-.6387-.2837-.6387-.6242,0-.3972.3972-.6955.894-.6955.7947,0,1.0925.5254,1.1492.9365l1.5753-.3545c-.0848-.7521-.7521-2.0149-2.7386-2.0149-1.5041,0-2.6112,1.0358-2.6112,2.2843,0,.9792.6102,1.7878,1.9584,2.0861l.9221.2127c.5395.1138.7521.369.7521.6814,0,.369-.2978.6953-.9216.6953h0ZM86.6682,19.7917l-2.2988,7.1661-2.2984-7.1661h-2.0151l-2.7811,10.0606h2.0005l1.816-6.9527,2.2422,6.9527h2.0292l2.2281-6.9245,1.8445,6.9245h2.0718l-2.7958-10.0606h-2.0431ZM93.4796,21.7351c.3085,0,.6045-.1226.8226-.3408.2182-.2181.3408-.5141.3408-.8227s-.1226-.6045-.3408-.8226c-.2181-.2182-.5141-.3408-.8226-.3408s-.6046.1226-.8227.3408c-.2182.2181-.3408.5141-.3408.8226s.1226.6046.3408.8227c.2181.2182.5141.3408.8227.3408ZM92.5429,29.8523h1.8873v-6.9816h-1.8873v6.9816ZM103.0154,29.8733h-1.8025c-.0461-.2671-.0697-.5376-.0707-.8088-.3123.5535-1.0218.9792-1.9583.9792-1.9865,0-3.4054-1.5608-3.4054-3.6751,0-2.0436,1.3762-3.647,3.3486-3.647,1.2063,0,1.7739.4968,1.9724.8654v-3.987h1.8591v9.0103c0,.4683.0285.9792.0567,1.263h0ZM101.1281,26.3541c0-1.2484-.7524-1.9439-1.7171-1.9439-.9652,0-1.7312.7094-1.7312,1.9584s.738,1.9865,1.7312,1.9865c.9647,0,1.7171-.7381,1.7171-2.001ZM104.8597,29.8634h1.8877v-10.2733h-1.8877v10.2733ZM137.8107,27.7435c0-1.0218-.6953-1.8591-2.072-2.1428l-.9935-.213c-.3832-.0708-.6382-.2838-.6382-.6243,0-.3972.3972-.6953.8946-.6953.7943,0,1.0925.5253,1.1483.9365l1.5746-.3545c-.0837-.7521-.7512-2.0151-2.7369-2.0151-1.5049,0-2.6113,1.0359-2.6113,2.2843,0,.9792.609,1.7879,1.9578,2.0863l.9225.2125c.5393.1138.7512.3691.7512.6814,0,.369-.2969.6955-.9212.6955-.8235,0-1.2346-.511-1.2777-1.0644l-1.6178.3545c.085.7947.8095,2.1574,2.9095,2.1574,1.8297,0,2.7103-1.1638,2.7103-2.2989h0ZM117.9724,25.8431c0-.8083.4823-1.447,1.3055-1.447.908,0,1.2911.6102,1.2911,1.3903v4.0728h1.8872v-4.3991c0-1.5323-.7947-2.7671-2.5259-2.7671-.7521,0-1.5894.3269-2.0146,1.0504v-.8659h-1.831v6.9818h1.8877v-4.0161ZM114.4103,29.8808h-1.7314c-.0483-.2765-.0721-.5566-.0707-.8373-.3545.5535-1.0213,1.0359-2.0577,1.0359-1.49,0-2.3976-1.0079-2.3976-2.1003,0-1.2484.9221-1.9439,2.0857-2.1143l1.7168-.2552c.3977-.0572.5249-.2557.5249-.4969,0-.4964-.3826-.908-1.1778-.908-.8227,0-1.277.5249-1.3337,1.1351l-1.674-.355c.1133-1.0925,1.1205-2.2988,2.9937-2.2988,2.2135,0,3.0369,1.2489,3.0369,2.6538v3.4339c.0019.3706.0302.7405.0848,1.1071ZM112.4804,26.7446l-1.5748.2411c-.4824.0712-.8659.3406-.8659.88,0,.4116.2983.8088.9085.8088.7947,0,1.5321-.3831,1.5321-1.6175v-.3123ZM130.9424,29.8877h-1.803c-.0457-.2671-.0698-.5376-.0698-.8088-.3134.5536-1.0227.9792-1.9591.9792-1.9863,0-3.4052-1.5608-3.4052-3.6751,0-2.0436,1.3763-3.647,3.3481-3.647,1.2067,0,1.7751.4968,1.9731.8654v-3.987h1.8589v9.0103c0,.4683.0292.9792.0571,1.263ZM129.0543,26.3686c0-1.2484-.7524-1.9439-1.7168-1.9439s-1.7306.7094-1.7306,1.9584.738,1.9865,1.7306,1.9865c.9643,0,1.7168-.738,1.7168-2.001ZM49.7916,7.5129v-1.2869h-8.0901v1.2869h3.3519v8.7406h1.3862V7.5129h3.3519ZM53.8498,9.3799c-.1446-.0272-.2913-.0414-.4384-.0426-.6929,0-1.5417.2547-2.0365,1.3012v-1.1879h-1.3012v6.8029h1.3294v-3.4085c0-1.4993.7496-2.0931,1.867-2.0931.194.0005.3878.0147.5797.0424v-1.4143ZM54.6979,14.4289c0,1.0748.8911,2.0368,2.2771,2.0368,1.2162,0,1.8953-.6505,2.1921-1.1316-.0049.308.0188.6158.0709.9194h1.301c-.0609-.3692-.0892-.7432-.0848-1.1175v-3.4083c0-1.3295-.792-2.4894-2.8288-2.4894-1.4706,0-2.6446.9052-2.7862,2.2064l1.2729.297c.0849-.7919.608-1.3719,1.5415-1.3719,1.0326,0,1.471.5517,1.471,1.2165,0,.2404-.1131.4525-.5231.5091l-1.8387.2687c-1.1738.1697-2.0649.8485-2.0649,2.0647ZM57.1587,15.3484c-.6788,0-1.103-.4812-1.103-.9902,0-.6082.4242-.9335.99-1.0183l2.079-.311v.311c0,1.4851-.8769,2.0085-1.966,2.0085ZM63.7062,12.3215c0-1.0323.5374-1.8668,1.5842-1.8668,1.1879,0,1.584.7638,1.584,1.7113v4.0874h1.3295v-4.3137c0-1.5133-.8061-2.6872-2.4328-2.6872-.4225-.0127-.8406.0899-1.2093.2967s-.6741.51-.8838.8772v-.9759h-1.3012v6.8029h1.3294v-3.932ZM69.5467,14.4856c.1131.7778.9051,1.9801,2.7718,1.9801,1.6833,0,2.4895-1.1457,2.4895-2.1074,0-1.0042-.6508-1.7537-1.8811-2.0224l-1.1031-.2404c-.5234-.1133-.7781-.4103-.7781-.8204,0-.4667.4526-.9052,1.1314-.9052,1.0749,0,1.3579.7778,1.4143,1.1315l1.1739-.4384c-.1414-.6081-.7212-1.8246-2.5882-1.8246-1.3293,0-2.4184.9901-2.4184,2.15,0,.9616.6365,1.6831,1.6972,1.9093l1.1596.2545c.5658.1273.8769.4527.8769.8768,0,.481-.4101.9052-1.1596.9052-.9618,0-1.4993-.5658-1.584-1.2729l-1.2021.4244ZM77.7491,18.9407v-3.6066c.3677.6082,1.1599,1.1031,2.2064,1.1031,1.9941,0,3.168-1.5698,3.168-3.5923,0-1.9801-1.0889-3.55-3.1256-3.55-1.1033,0-1.9094.5374-2.2771,1.2163v-1.0606h-1.287v9.4901h1.3153ZM81.7658,12.8449c0,1.4002-.7778,2.4044-2.0083,2.4044-1.2162,0-2.0224-1.0042-2.0224-2.4044,0-1.3577.8062-2.3761,2.0224-2.3761,1.2446,0,2.0083,1.0185,2.0083,2.3761h0ZM87.592,9.2383c-2.0368,0-3.4793,1.5416-3.4793,3.6067,0,2.079,1.4426,3.6207,3.4793,3.6207s3.4791-1.5417,3.4791-3.6207c0-2.0651-1.4427-3.6067-3.4791-3.6067h0ZM87.592,15.2776c-1.1316,0-2.1217-.8487-2.1217-2.4327,0-1.57.9901-2.4185,2.1217-2.4185s2.1214.8485,2.1214,2.4185c0,1.5839-.9901,2.4327-2.1214,2.4327h0ZM96.402,9.3799c-.1445-.0272-.2913-.0414-.4384-.0426-.6928,0-1.5417.2547-2.0365,1.3012v-1.1879h-1.3012v6.8029h1.3294v-3.4085c0-1.4993.7498-2.0931,1.867-2.0931.194.0005.3878.0147.5797.0424v-1.4143ZM99.8099,7.3008h-1.2162v1.1032c0,.5939-.3114,1.0466-1.0468,1.0466h-.3677v1.2022h1.3012v3.7337c0,1.2305.7354,1.9377,1.8953,1.9377.3066.0055.6121-.0374.9052-.1273v-1.1316c-.1722.036-.3475.0549-.5234.0567-.6929,0-.9476-.3111-.9476-.9335v-3.5357h1.471v-1.2022h-1.471v-2.1497ZM109.7235,10.6528v-1.2022h-1.6406v-1.0749c0-.9335.6082-1.1598,1.0749-1.1598.1969-.0092.3939.0196.5799.085v-1.1882c-.0565-.0424-.3394-.1414-.7919-.1414-1.2305,0-2.2347.8204-2.2347,2.3337v1.1456h-1.2588v1.2022h1.2588v5.6007h1.3719v-5.6007h1.6406ZM113.6407,9.2383c-2.0366,0-3.4792,1.5416-3.4792,3.6067,0,2.079,1.4426,3.6207,3.4792,3.6207s3.4791-1.5417,3.4791-3.6207c0-2.0651-1.4426-3.6067-3.4791-3.6067h0ZM113.6407,15.2776c-1.1314,0-2.1217-.8487-2.1217-2.4327,0-1.57.9902-2.4185,2.1217-2.4185s2.1214.8485,2.1214,2.4185c0,1.5839-.9901,2.4327-2.1214,2.4327h0ZM122.4509,9.3799c-.1447-.0272-.2913-.0414-.4384-.0426-.6929,0-1.5417.2547-2.0365,1.3012v-1.1879h-1.3012v6.8029h1.3293v-3.4085c0-1.4993.7498-2.0931,1.867-2.0931.194.0005.3878.0147.5799.0424v-1.4143Z" fill="#fff" stroke-width="0"/></g></svg>