<svg width="1086" height="283" viewBox="0 0 1086 283" fill="none" xmlns="http://www.w3.org/2000/svg">
<g clip-path="url(#clip0_1637_3881)">
<path d="M43.6538 232.952C43.2192 234.101 42.4449 235.09 41.4339 235.789C40.423 236.487 39.2233 236.86 37.9947 236.859C36.7662 236.858 35.567 236.483 34.5569 235.784C33.5469 235.085 32.7739 234.094 32.3409 232.944L1.21064 149.821C-0.403547 144.73 -0.403547 139.265 1.21064 134.174L32.3409 51.0506C32.7764 49.9035 33.5504 48.9158 34.5602 48.2187C35.5699 47.5215 36.7677 47.1478 37.9947 47.147C39.2218 47.1462 40.4201 47.5183 41.4307 48.2142C42.4414 48.91 43.2167 49.8966 43.6538 51.0431L74.7952 134.174C76.4043 139.265 76.4043 144.729 74.7952 149.821L43.6538 232.952Z" fill="white"/>
<path d="M95.8896 92.4732C95.4548 93.6253 94.6793 94.6175 93.6664 95.3178C92.6536 96.0182 91.4514 96.3933 90.22 96.3933C88.9886 96.3933 87.7864 96.0182 86.7735 95.3178C85.7607 94.6175 84.9852 93.6253 84.5503 92.4732L53.4201 9.35034C53.2811 8.97814 53.172 8.57954 53.0555 8.16982C52.9086 7.61038 52.8378 7.03368 52.845 6.45531C52.8455 4.74277 53.5263 3.10059 54.7376 1.89C55.9489 0.679403 57.5915 -0.000445415 59.304 2.18943e-07H121.136C122.848 0.000336924 124.49 0.680556 125.7 1.89109C126.911 3.10162 127.591 4.74336 127.591 6.45531C127.598 7.03341 127.528 7.60986 127.384 8.16982C127.268 8.57954 127.159 8.97814 127.02 9.35034L95.8896 92.4732Z" fill="white"/>
<path d="M200.426 92.4732C199.991 93.6255 199.215 94.618 198.202 95.3185C197.189 96.0189 195.986 96.3941 194.755 96.3941C193.523 96.3941 192.32 96.0189 191.307 95.3185C190.294 94.618 189.518 93.6255 189.083 92.4732L157.953 9.35034C157.818 8.97814 157.709 8.57954 157.592 8.16982C157.445 7.61038 157.374 7.03368 157.382 6.45531C157.382 4.74277 158.063 3.10058 159.274 1.88999C160.486 0.679391 162.128 -0.000453365 163.841 2.26831e-07H225.673C227.385 0.000328979 229.026 0.680545 230.237 1.89108C231.447 3.10161 232.128 4.74335 232.128 6.45531C232.135 7.03368 232.064 7.61038 231.917 8.16982C231.801 8.57954 231.692 8.97814 231.557 9.35034L200.426 92.4732Z" fill="white"/>
<path d="M148.252 232.952C147.818 234.101 147.043 235.09 146.032 235.789C145.021 236.487 143.822 236.86 142.593 236.859C141.364 236.858 140.165 236.483 139.155 235.784C138.145 235.085 137.372 234.094 136.939 232.944L105.809 149.821C104.2 144.73 104.2 139.265 105.809 134.174L136.939 51.0506C137.375 49.9035 138.149 48.9158 139.158 48.2187C140.168 47.5215 141.366 47.1478 142.593 47.147C143.82 47.1462 145.018 47.5183 146.029 48.2142C147.04 48.91 147.815 49.8966 148.252 51.0431L179.394 134.174C181.008 139.265 181.008 144.73 179.394 149.821L148.252 232.952Z" fill="white"/>
<path d="M252.852 232.952C252.415 234.099 251.641 235.086 250.63 235.783C249.619 236.479 248.421 236.851 247.193 236.851C245.965 236.854 244.765 236.482 243.754 235.783C242.743 235.085 241.97 234.094 241.539 232.944L210.409 149.821C208.794 144.73 208.794 139.265 210.409 134.174L241.539 51.0506C241.974 49.9028 242.748 48.9144 243.757 48.2167C244.767 47.519 245.965 47.1449 247.193 47.144C248.42 47.1432 249.619 47.5158 250.63 48.2122C251.64 48.9086 252.415 49.8959 252.852 51.0431L283.993 134.174C285.607 139.265 285.607 144.73 283.993 149.821L252.852 232.952Z" fill="white"/>
<path d="M95.8898 190.05C95.4549 188.898 94.6794 187.906 93.6665 187.206C92.6537 186.505 91.4515 186.13 90.2201 186.13C88.9887 186.13 87.7866 186.505 86.7737 187.206C85.7608 187.906 84.9853 188.898 84.5505 190.05L53.4203 273.177C53.2812 273.546 53.1721 273.944 53.0556 274.354C52.8056 275.313 52.7775 276.317 52.9735 277.289C53.1695 278.261 53.5844 279.176 54.1868 279.963C54.7892 280.751 55.5631 281.391 56.4498 281.834C57.3365 282.278 58.3127 282.514 59.3042 282.524H121.136C122.848 282.523 124.49 281.843 125.7 280.633C126.911 279.422 127.591 277.78 127.591 276.068C127.598 275.49 127.529 274.914 127.385 274.354C127.268 273.944 127.159 273.546 127.02 273.177L95.8898 190.05Z" fill="white"/>
<path d="M200.426 190.05C199.991 188.898 199.215 187.906 198.202 187.205C197.189 186.505 195.987 186.13 194.755 186.13C193.523 186.13 192.321 186.505 191.307 187.205C190.294 187.906 189.518 188.898 189.083 190.05L157.953 273.177C157.818 273.546 157.709 273.944 157.592 274.354C157.342 275.313 157.314 276.317 157.51 277.289C157.706 278.261 158.121 279.176 158.723 279.963C159.326 280.751 160.1 281.391 160.986 281.834C161.873 282.278 162.849 282.514 163.841 282.524H225.673C226.664 282.513 227.64 282.277 228.526 281.833C229.412 281.389 230.186 280.749 230.787 279.962C231.389 279.174 231.804 278.26 232 277.288C232.196 276.317 232.167 275.313 231.917 274.354C231.801 273.944 231.692 273.546 231.557 273.177L200.426 190.05Z" fill="white"/>
<path d="M349.237 234.585L327.207 155.295H343.534L358.072 209.868L375.628 155.295H391.624L409.29 210.093L423.607 155.295H439.373L417.454 234.585H401.573L383.456 178.107L365.342 234.585H349.237ZM492.051 210.201H452.687C453.023 217.472 459.175 222.727 466.552 222.727C473.487 222.727 477.289 219.258 479.082 214.338L491.494 218.029C488.696 227.532 479.975 235.475 466.442 235.475C451.347 235.475 438.039 224.628 438.039 206.064C438.039 188.504 451.008 177.096 465.102 177.096C482.101 177.096 492.276 187.947 492.276 205.614C492.276 207.739 492.051 209.98 492.051 210.201ZM477.624 200.022C477.403 194.545 473.823 189.175 465.323 189.175C462.274 189.062 459.297 190.124 457.007 192.143C454.718 194.161 453.292 196.982 453.023 200.022H477.624ZM582.754 233.238V220.937C581.245 221.25 579.707 221.399 578.167 221.384C573.919 221.384 571.682 219.819 571.682 215.01V191.973H582.754V178.775H571.682V162.337H558.259V170.051C558.259 174.974 555.58 178.775 549.763 178.775H546.97V191.973H556.92V217.582C556.92 228.208 563.629 234.581 574.369 234.581C577.225 234.682 580.073 234.226 582.754 233.238ZM521.024 224.069C514.536 224.069 511.292 220.043 510.956 215.681L498.205 218.474C498.877 224.737 504.579 235.477 521.135 235.477C535.558 235.477 542.492 226.306 542.492 217.36C542.492 209.307 537.016 202.708 526.161 200.471L518.337 198.792C515.318 198.235 513.303 196.556 513.303 193.873C513.303 190.743 516.433 188.392 520.349 188.392C526.612 188.392 528.959 192.533 529.406 195.773L541.821 192.979C541.153 187.052 535.894 177.099 520.238 177.099C508.384 177.099 499.659 185.262 499.659 195.102C499.659 202.819 504.468 209.192 515.093 211.543L522.36 213.219C526.612 214.116 528.287 216.127 528.287 218.589C528.287 221.497 525.94 224.069 521.024 224.069H521.024ZM682.581 155.183L664.464 211.66L646.35 155.183H630.469L608.551 234.472H624.317L638.629 179.677L656.3 234.472H672.292L689.852 179.899L704.389 234.472H720.717L698.683 155.183H682.581ZM736.262 170.499C738.693 170.499 741.026 169.533 742.745 167.813C744.465 166.094 745.431 163.761 745.431 161.329C745.431 158.898 744.465 156.565 742.745 154.846C741.026 153.126 738.693 152.16 736.262 152.16C733.83 152.16 731.497 153.126 729.778 154.846C728.058 156.565 727.092 158.898 727.092 161.329C727.092 163.761 728.058 166.094 729.778 167.813C731.497 169.533 733.83 170.499 736.262 170.499ZM728.88 234.472H743.754V179.449H728.88V234.472ZM811.415 234.637H797.209C796.846 232.532 796.66 230.4 796.652 228.263C794.191 232.625 788.599 235.98 781.218 235.98C765.562 235.98 754.38 223.679 754.38 207.016C754.38 190.91 765.226 178.274 780.771 178.274C790.278 178.274 794.751 182.189 796.316 185.094V153.672H810.968V224.683C810.968 228.374 811.193 232.4 811.415 234.637H811.415ZM796.541 206.902C796.541 197.063 790.611 191.582 783.008 191.582C775.401 191.582 769.364 197.173 769.364 207.016C769.364 216.855 775.18 222.672 783.008 222.672C790.611 222.672 796.541 216.855 796.541 206.902ZM825.95 234.559H840.827V153.594H825.95V234.559ZM1085.64 217.852C1085.64 209.799 1080.16 203.2 1069.31 200.964L1061.48 199.285C1058.46 198.727 1056.45 197.048 1056.45 194.365C1056.45 191.235 1059.58 188.885 1063.5 188.885C1069.76 188.885 1072.11 193.025 1072.55 196.266L1084.96 193.472C1084.3 187.545 1079.04 177.591 1063.39 177.591C1051.53 177.591 1042.81 185.755 1042.81 195.594C1042.81 203.311 1047.61 209.685 1058.24 212.036L1065.51 213.711C1069.76 214.608 1071.43 216.62 1071.43 219.081C1071.43 221.989 1069.09 224.562 1064.17 224.562C1057.68 224.562 1054.44 220.535 1054.1 216.173L1041.35 218.967C1042.02 225.23 1047.73 235.97 1064.28 235.97C1078.7 235.97 1085.64 226.798 1085.64 217.852V217.852ZM929.292 202.875C929.292 196.505 933.093 191.471 939.581 191.471C946.737 191.471 949.756 196.28 949.756 202.428V234.526H964.629V199.856C964.629 187.78 958.366 178.048 944.722 178.048C938.795 178.048 932.196 180.624 928.845 186.326V179.502H914.415V234.526H929.292L929.292 202.875ZM901.219 234.696H887.574C887.193 232.517 887.006 230.309 887.017 228.097C884.223 232.459 878.968 236.261 870.8 236.261C859.057 236.261 851.904 228.318 851.904 219.708C851.904 209.869 859.171 204.388 868.342 203.045L881.872 201.034C885.006 200.583 886.009 199.019 886.009 197.118C886.009 193.206 882.994 189.962 876.727 189.962C870.243 189.962 866.663 194.099 866.216 198.908L853.023 196.11C853.916 187.5 861.854 177.993 876.617 177.993C894.062 177.993 900.551 187.836 900.551 198.908V225.971C900.566 228.892 900.789 231.807 901.219 234.696ZM886.009 209.98L873.598 211.88C869.796 212.441 866.774 214.564 866.774 218.815C866.774 222.059 869.125 225.189 873.934 225.189C880.197 225.189 886.009 222.17 886.009 212.441V209.98ZM1031.51 234.751H1017.3C1016.94 232.646 1016.75 230.514 1016.75 228.377C1014.28 232.74 1008.69 236.094 1001.31 236.094C985.656 236.094 974.473 223.793 974.473 207.13C974.473 191.024 985.32 178.388 1000.86 178.388C1010.37 178.388 1014.85 182.303 1016.41 185.208V153.786H1031.06V224.797C1031.06 228.488 1031.29 232.514 1031.51 234.751ZM1016.63 207.016C1016.63 197.177 1010.7 191.696 1003.1 191.696C995.499 191.696 989.461 197.287 989.461 207.13C989.461 216.97 995.277 222.786 1003.1 222.786C1010.7 222.786 1016.63 216.97 1016.63 207.016ZM391.952 58.4126V48.2701H328.193V58.4126H354.61V127.298H365.535V58.4126H391.952ZM423.935 73.1265C422.795 72.9124 421.639 72.8001 420.48 72.7908C415.019 72.7908 408.33 74.7979 404.43 83.0458V73.6836H394.175V127.298H404.652V100.435C404.652 88.6189 410.56 83.9387 419.366 83.9387C420.895 83.9428 422.422 84.0544 423.935 84.2726V73.1265ZM430.619 112.918C430.619 121.389 437.642 128.97 448.565 128.97C458.15 128.97 463.502 123.843 465.841 120.052C465.802 122.479 465.989 124.905 466.4 127.298H476.653C476.173 124.388 475.95 121.441 475.985 118.491V91.6296C475.985 81.1513 469.743 72.0104 453.691 72.0104C442.101 72.0104 432.849 79.1442 431.733 89.3992L441.765 91.7402C442.434 85.4994 446.557 80.928 453.914 80.928C462.052 80.928 465.507 85.2762 465.507 90.5153C465.507 92.4099 464.616 94.0812 461.384 94.5277L446.893 96.6455C437.642 97.983 430.619 103.333 430.619 112.918ZM450.013 120.165C444.663 120.165 441.32 116.373 441.32 112.361C441.32 107.568 444.663 105.004 449.122 104.336L465.507 101.885V104.336C465.507 116.04 458.596 120.165 450.013 120.165ZM501.615 96.3098C501.615 88.1743 505.85 81.5977 514.1 81.5977C523.462 81.5977 526.584 87.6172 526.584 95.0848V127.298H537.062V93.3009C537.062 81.3745 530.709 72.1229 517.889 72.1229C514.559 72.0231 511.264 72.8313 508.358 74.4611C505.452 76.0909 503.045 78.4807 501.393 81.3745V73.6836H491.138V127.298H501.615L501.615 96.3098ZM547.644 113.365C548.535 119.495 554.777 128.97 569.489 128.97C582.755 128.97 589.109 119.941 589.109 112.361C589.109 104.447 583.98 98.5401 574.284 96.4223L565.59 94.5277C561.465 93.6348 559.458 91.2938 559.458 88.0618C559.458 84.3833 563.025 80.9281 568.375 80.9281C576.846 80.9281 579.077 87.0582 579.521 89.8457L588.773 86.3904C587.659 81.5977 583.089 72.0104 568.375 72.0104C557.899 72.0104 549.315 79.8138 549.315 88.9546C549.315 96.533 554.331 102.219 562.691 104.002L571.83 106.008C576.289 107.011 578.741 109.576 578.741 112.918C578.741 116.709 575.509 120.052 569.602 120.052C562.022 120.052 557.786 115.593 557.118 110.02L547.644 113.365ZM612.288 148.476V120.052C615.186 124.845 621.429 128.746 629.677 128.746C645.393 128.746 654.644 116.374 654.644 100.435C654.644 84.8297 646.062 72.4569 630.011 72.4569C621.316 72.4569 614.963 76.6924 612.065 82.0423V73.6836H601.922V148.476H612.288ZM643.944 100.435C643.944 111.47 637.814 119.384 628.116 119.384C618.531 119.384 612.177 111.47 612.177 100.435C612.177 89.735 618.531 81.7084 628.116 81.7084C637.925 81.7084 643.944 89.735 643.944 100.435H643.944ZM689.861 72.0104C673.809 72.0104 662.44 84.1601 662.44 100.435C662.44 116.82 673.809 128.97 689.861 128.97C705.91 128.97 717.28 116.82 717.28 100.435C717.28 84.1601 705.91 72.0104 689.861 72.0104H689.861ZM689.861 119.607C680.943 119.607 673.14 112.918 673.14 100.435C673.14 88.0618 680.943 81.3745 689.861 81.3745C698.777 81.3745 706.58 88.0618 706.58 100.435C706.58 112.918 698.777 119.607 689.861 119.607L689.861 119.607ZM759.294 73.1266C758.155 72.9125 756.998 72.8001 755.839 72.7908C750.379 72.7908 743.689 74.7979 739.789 83.0459V73.6836H729.534V127.298H740.011V100.435C740.011 88.6189 745.92 83.9387 754.725 83.9387C756.254 83.9428 757.781 84.0544 759.294 84.2726L759.294 73.1266ZM786.152 56.7413H776.567V65.4356C776.567 70.1158 774.113 73.6837 768.317 73.6837H765.419V83.1584H775.674V112.584C775.674 122.282 781.47 127.855 790.611 127.855C793.027 127.898 795.435 127.56 797.745 126.852V117.934C796.388 118.218 795.006 118.367 793.62 118.381C788.159 118.381 786.152 115.929 786.152 111.024V83.1584H797.745V73.6836H786.152V56.7413ZM864.282 83.1584V73.6836H851.352V65.2124C851.352 57.8555 856.145 56.0716 859.823 56.0716C861.375 55.9988 862.927 56.2262 864.393 56.7412V47.3772C863.948 47.0433 861.718 46.2629 858.152 46.2629C848.454 46.2629 840.54 52.7289 840.54 64.6553V73.6836H830.619V83.1584H840.54V127.298H851.352V83.1584L864.282 83.1584ZM895.154 72.0104C879.103 72.0104 867.734 84.1601 867.734 100.435C867.734 116.82 879.103 128.97 895.154 128.97C911.204 128.97 922.573 116.82 922.573 100.435C922.573 84.1601 911.204 72.0104 895.154 72.0104H895.154ZM895.154 119.607C886.237 119.607 878.433 112.918 878.433 100.435C878.433 88.0618 886.237 81.3745 895.154 81.3745C904.07 81.3745 911.873 88.0618 911.873 100.435C911.873 112.918 904.07 119.607 895.154 119.607L895.154 119.607ZM964.588 73.1266C963.448 72.9125 962.292 72.8001 961.133 72.7908C955.672 72.7908 948.983 74.7979 945.083 83.0459V73.6836H934.828V127.298H945.304V100.435C945.304 88.6189 951.213 83.9387 960.018 83.9387C961.547 83.9428 963.074 84.0544 964.588 84.2726V73.1266Z" fill="white"/>
</g>
<defs>
<clipPath id="clip0_1637_3881">
<rect width="1085.64" height="282.524" fill="white"/>
</clipPath>
</defs>
</svg>
