<svg width="1077" height="223" viewBox="0 0 1077 223" fill="none" xmlns="http://www.w3.org/2000/svg">
<g id="Orientation=Landscape, Colourway=White">
<path id="Fill 1" fill-rule="evenodd" clip-rule="evenodd" d="M1068.09 144.903L1055.39 174.165L1042.16 144.903H1032.65L1050.9 182.623L1040.33 205H1049.41L1077 144.903H1068.09ZM813.182 144.903H804.893V170.462C804.893 176.901 801.548 181.298 794.845 181.298C787.871 181.298 785.231 176.184 785.231 170.375V144.903H776.943V171.602C776.943 181.211 782.939 188.616 792.814 188.616C797.746 188.616 803.047 186.586 805.339 182.177C805.339 183.947 805.513 186.325 805.686 187.291H813.616C813.453 185.793 813.182 182.807 813.182 179.452V144.903ZM1019.08 131.505H1011.49V138.378C1011.49 142.08 1009.55 144.903 1004.97 144.903H1002.66V152.395H1010.78V175.652C1010.78 183.317 1015.36 187.736 1022.6 187.736C1025.41 187.736 1027.53 187.204 1028.24 186.933V179.886C1027.53 180.071 1026.03 180.234 1024.97 180.234C1020.65 180.234 1019.08 178.301 1019.08 174.425V152.395H1028.24V144.903H1019.08V131.505ZM986.522 187.291H994.724V144.903H986.522V187.291ZM990.585 122.873C987.337 122.873 984.676 125.512 984.676 128.867C984.676 132.124 987.337 134.773 990.585 134.773C993.942 134.773 996.581 132.124 996.581 128.867C996.581 125.512 993.942 122.873 990.585 122.873ZM963.167 152.308V144.903H955.052V187.302H963.352V166.054C963.352 156.716 968.012 153.003 974.986 153.003C976.126 153.003 977.365 153.101 978.592 153.275V144.458C978.158 144.382 977.006 144.198 975.866 144.198C971.553 144.198 966.252 145.783 963.167 152.308ZM837.526 131.505H829.933V138.378C829.933 142.08 827.999 144.903 823.415 144.903H821.123V152.395H829.237V175.652C829.237 183.317 833.821 187.736 841.045 187.736C843.87 187.736 845.988 187.204 846.683 186.933V179.886C845.988 180.071 844.489 180.234 843.435 180.234C839.112 180.234 837.526 178.301 837.526 174.425V152.395H846.683V144.903H837.526V131.505ZM923.658 181.211C916.608 181.211 910.449 175.923 910.449 166.054C910.449 156.271 916.608 150.984 923.658 150.984C930.719 150.984 936.889 156.271 936.889 166.054C936.889 175.923 930.719 181.211 923.658 181.211ZM923.658 143.579C910.97 143.579 901.976 153.188 901.976 166.054C901.976 179.007 910.97 188.616 923.658 188.616C936.357 188.616 945.352 179.007 945.352 166.054C945.352 153.188 936.357 143.579 923.658 143.579ZM877.99 143.666C873.145 143.666 868.203 145.338 865.118 149.844V123.492H856.829V187.291H865.118V162.352C865.292 156.098 868.648 151.157 874.992 151.157C882.39 151.157 884.867 155.913 884.867 161.82V187.291H893.166V160.419C893.166 150.984 888.136 143.666 877.99 143.666ZM731.796 161.82L742.475 133.796L753.316 161.82H731.796ZM737.706 124.806L712.841 187.302H722.107L728.711 169.843H756.401L763.19 187.302H772.533L747.667 124.806H737.706ZM821.872 93.4278C815.702 93.4278 811.118 88.8459 811.118 81.0936C811.118 73.3413 815.876 68.9332 821.872 68.9332C827.869 68.9332 832.551 73.2545 832.551 81.0068C832.551 88.8459 827.869 93.4278 821.872 93.4278ZM832.627 97.836C832.627 99.8663 832.898 101.973 833.061 102.863H844.272C844.098 101.093 843.913 97.9228 843.913 95.013V39.0532H832.366V63.8193C831.138 61.5283 827.608 58.4448 820.112 58.4448C807.848 58.4448 799.299 68.4011 799.299 81.0936C799.299 94.2204 808.12 103.916 820.46 103.916C826.283 103.916 830.693 101.278 832.627 97.836ZM609.588 161.733C609.936 156.271 614.172 150.897 621.146 150.897C628.631 150.897 632.596 155.652 632.78 161.733H609.588ZM621.059 143.579C610.381 143.579 600.778 152.656 600.778 165.967C600.778 180.332 610.74 188.616 622.113 188.616C631.987 188.616 638.777 182.709 641.145 175.218L634.008 172.753C632.422 177.509 628.978 181.298 622.113 181.298C614.965 181.298 609.501 176.021 609.327 168.432H641.243C641.33 167.9 641.417 166.847 641.417 165.783C641.417 152.569 634.095 143.579 621.059 143.579ZM714.394 90.3443C714.394 87.0001 716.773 85.3281 719.771 84.8829L729.559 83.3846V85.3281C729.559 92.9935 724.975 95.3713 720.032 95.3713C716.252 95.3713 714.394 92.9066 714.394 90.3443ZM730.352 97.6622C730.352 99.3343 730.526 101.712 730.786 102.863H741.551C741.28 101.365 741.019 98.2703 741.019 95.9793V74.6551C741.019 65.9365 735.903 58.1842 722.161 58.1842C710.505 58.1842 704.248 65.665 703.553 72.451L713.959 74.6551C714.307 70.8767 717.131 67.6085 722.237 67.6085C727.18 67.6085 729.559 70.1709 729.559 73.2436C729.559 74.742 728.766 75.9797 726.289 76.3272L715.632 77.9124C708.398 78.9764 702.673 83.2977 702.673 91.05C702.673 97.836 708.311 104.101 717.566 104.101C723.997 104.101 728.147 101.104 730.352 97.6622ZM576.706 143.666C571.763 143.666 566.734 145.696 563.649 150.984V144.903H555.545V187.291H563.822V162.797C563.822 156.358 567.179 151.157 573.697 151.157C581.105 151.157 583.582 155.913 583.582 161.82V187.291H591.86V160.419C591.86 150.984 586.83 143.666 576.706 143.666ZM763.679 77.9124C763.679 72.8962 766.677 68.9332 771.794 68.9332C777.432 68.9332 779.811 72.7225 779.811 77.5649V102.863H791.543V75.5454C791.543 66.0233 786.6 58.3579 775.846 58.3579C771.175 58.3579 765.971 60.3883 763.332 64.8724V59.498H751.958V102.863H763.679V77.9124ZM668.487 181.124C660.557 181.124 656.06 174.686 656.06 165.967C656.06 157.248 661.002 151.071 668.574 151.071C676.156 151.071 680.751 157.064 680.751 165.783C680.751 174.512 676.069 181.124 668.487 181.124ZM688.855 123.492H680.654V150.897C679.241 147.455 675.19 143.753 667.694 143.753C655.701 143.753 647.587 153.98 647.587 165.967C647.587 178.573 655.256 188.431 667.694 188.431C674.31 188.431 678.807 184.914 680.838 180.864V181.559C680.838 184.121 681.099 186.325 681.273 187.291H689.301C689.203 186.586 688.855 183.502 688.855 179.452V123.492ZM503.435 181.027C496.113 181.027 490.823 175.044 490.823 165.88C490.823 156.716 496.113 150.984 503.435 150.984C511.104 150.984 515.949 156.716 515.949 165.88C515.949 175.044 511.017 181.027 503.435 181.027ZM504.923 143.666C497.873 143.666 492.941 147.108 490.899 150.897V123.492H482.719V187.291H490.899V181.124C493.561 185.706 498.406 188.431 504.663 188.431C517.274 188.431 524.411 178.475 524.411 165.88C524.411 153.535 517.796 143.666 504.923 143.666ZM322.925 180.679C311.562 180.679 300.721 172.308 300.721 156.011C300.721 139.703 311.562 131.418 322.925 131.418C333.158 131.418 340.045 136.706 342.413 146.141L350.441 143.318C347.269 131.245 337.221 123.492 322.925 123.492C307.424 123.492 291.9 135.121 291.9 156.011C291.9 176.901 306.794 188.616 322.925 188.616C337.308 188.616 347.182 180.245 350.539 168.519L342.859 165.696C340.306 174.241 333.603 180.679 322.925 180.679ZM886.941 89.8991C886.941 83.5583 882.629 78.3575 874.069 76.5986L867.899 75.274C865.52 74.8397 863.934 73.5151 863.934 71.3978C863.934 68.9332 866.4 67.0765 869.485 67.0765C874.427 67.0765 876.274 70.3446 876.632 72.8962L886.42 70.6921C885.899 66.0233 881.749 58.1842 869.398 58.1842C860.056 58.1842 853.179 64.6119 853.179 72.3642C853.179 78.4444 856.97 83.4714 865.346 85.3281L871.071 86.6418C874.427 87.3476 875.742 88.9328 875.742 90.8763C875.742 93.1672 873.895 95.1976 870.017 95.1976C864.9 95.1976 862.348 92.0163 862.076 88.5853L852.039 90.7786C852.56 95.7187 857.047 104.177 870.115 104.177C881.477 104.177 886.941 96.9565 886.941 89.8991ZM538.164 122.873C534.905 122.873 532.265 125.512 532.265 128.867C532.265 132.124 534.905 134.773 538.164 134.773C541.521 134.773 544.171 132.124 544.171 128.867C544.171 125.512 541.521 122.873 538.164 122.873ZM455.725 143.666C450.348 143.666 444.873 145.609 441.527 151.689C439.246 146.217 434.118 143.666 428.839 143.666C423.886 143.666 418.606 145.87 415.966 150.539V144.903H408.026V187.291H416.216V161.733C416.216 155.392 420.192 150.984 426.091 150.984C432.456 150.984 435.096 155.218 435.096 160.679V187.291H443.374V161.646C443.374 155.566 447.35 150.984 453.172 150.984C459.429 150.984 462.156 155.131 462.156 160.679V187.291H470.357V159.789C470.357 148.693 463.133 143.666 455.725 143.666ZM534.112 187.291H542.314V144.903H534.112V187.291ZM376.632 181.211C369.571 181.211 363.411 175.923 363.411 166.054C363.411 156.271 369.571 150.984 376.632 150.984C383.682 150.984 389.863 156.271 389.863 166.054C389.863 175.923 383.682 181.211 376.632 181.211ZM376.632 143.579C363.944 143.579 354.949 153.188 354.949 166.054C354.949 179.007 363.944 188.616 376.632 188.616C389.33 188.616 398.325 179.007 398.325 166.054C398.325 153.188 389.33 143.579 376.632 143.579ZM682.207 102.863H693.939V39.064H682.207V102.863ZM648.358 93.4278C642.177 93.4278 637.593 88.8459 637.593 81.0936C637.593 73.3413 642.351 68.9332 648.358 68.9332C654.343 68.9332 659.015 73.2545 659.015 81.0068C659.015 88.8459 654.343 93.4278 648.358 93.4278ZM659.112 97.836C659.112 99.8663 659.373 101.973 659.547 102.863H670.747C670.562 101.093 670.399 97.9228 670.399 95.013V39.0532H658.841V63.8193C657.602 61.5283 654.083 58.4448 646.576 58.4448C634.334 58.4448 625.774 68.4011 625.774 81.0936C625.774 94.2204 634.595 103.916 646.946 103.916C652.757 103.916 657.168 101.278 659.112 97.836ZM605.677 102.863H617.399V59.5088H605.677V102.863ZM611.489 52.4514C615.552 52.4514 618.724 49.1833 618.724 45.3071C618.724 41.2573 615.552 38 611.489 38C607.535 38 604.265 41.2573 604.265 45.3071C604.265 49.1833 607.535 52.4514 611.489 52.4514ZM569.167 40.3344L554.882 84.8395L540.608 40.3344H528.083L510.8 102.809H523.238L534.514 59.6282L548.451 102.809H561.052L574.903 59.802L586.374 102.809H599.236L581.866 40.3344H569.167ZM441.799 95.1976C436.682 95.1976 434.129 92.0163 433.858 88.5853L423.809 90.7786C424.331 95.7187 428.839 104.177 441.885 104.177C453.248 104.177 458.734 96.9565 458.734 89.8991C458.734 83.5583 454.4 78.3575 445.85 76.5986L439.68 75.274C437.301 74.8397 435.704 73.5151 435.704 71.3978C435.704 68.9332 438.181 67.0765 441.266 67.0765C446.198 67.0765 448.056 70.3446 448.403 72.8962L458.202 70.6921C457.669 66.0233 453.52 58.1842 441.179 58.1842C431.837 58.1842 424.95 64.6119 424.95 72.3642C424.95 78.4444 428.752 83.4714 437.117 85.3281L442.841 86.6418C446.198 87.3476 447.523 88.9328 447.523 90.8763C447.523 93.1672 445.666 95.1976 441.799 95.1976ZM490.465 102.418V92.7221C489.845 92.9066 488.259 93.0804 486.847 93.0804C483.502 93.0804 481.742 91.8426 481.742 88.0533V69.8995H490.465V59.498H481.742V46.5449H471.15V52.6251C471.15 56.5013 469.043 59.498 464.459 59.498H462.254V69.8995H470.097V90.0837C470.097 98.4548 475.387 103.471 483.86 103.471C487.293 103.471 489.411 102.863 490.465 102.418ZM397.88 67.6954C404.582 67.6954 407.406 71.9298 407.58 76.2403H388.179C388.451 72.2773 391.796 67.6954 397.88 67.6954ZM418.508 90.4311L408.732 87.5213C407.319 91.4083 404.321 94.1335 398.857 94.1335C393.035 94.1335 388.179 89.9968 387.918 84.264H418.954C418.954 84.0903 419.128 82.3314 419.128 80.6485C419.128 66.7291 411.111 58.1842 397.706 58.1842C386.593 58.1842 376.371 67.1634 376.371 81.0068C376.371 95.6319 386.865 104.177 398.759 104.177C409.427 104.177 416.303 97.9228 418.508 90.4311ZM319.058 102.863L333.332 58.3579L347.617 102.863H360.142L377.425 40.3778H364.986L353.711 83.5583L339.774 40.3778H327.162L313.322 83.3846L301.862 40.3778H289L306.359 102.863H319.058Z" fill="#FFFFFE"/>
<path id="Fill 3" fill-rule="evenodd" clip-rule="evenodd" d="M48 204.802C54.5022 216.071 66.5281 223 79.5217 223L122.874 197.949L48.0217 154.776V204.791L48 204.802ZM241.131 93.2856L241.099 93.2421L197.78 68.2564V154.733L241.099 129.747L241.131 129.704C247.623 118.434 247.623 104.555 241.131 93.2856ZM79.5978 1.27683e-05C66.5933 -0.0108647 54.5783 6.92899 48.0761 18.1872L48.0217 18.2742V68.2564L122.906 25.0618L79.5326 0.0435228L79.5978 1.27683e-05Z" fill="white" fill-opacity="0.5"/>
<path id="Fill 4" fill-rule="evenodd" clip-rule="evenodd" d="M4.87028 129.704L48.1544 204.791V18.1981L4.87028 93.2856C-1.62343 104.555 -1.62343 118.434 4.87028 129.704ZM166.181 223C179.169 223 191.179 216.071 197.662 204.802L241 129.747L79.6239 222.946L166.181 223ZM197.662 18.1872C191.179 6.92899 179.169 -0.0108647 166.181 1.27683e-05L79.6239 0.0435228L241 93.253L197.662 18.1872Z" fill="white"/>
</g>
</svg>
