<?xml version="1.0" encoding="UTF-8"?><svg id="West_Midlands_Combined_Authority" xmlns="http://www.w3.org/2000/svg" viewBox="0 0 200.0081 36.0041"><g id="Orientation_Landscape_Colourway_White"><path id="Fill_1" d="M172.9722,23.3853l-2.0477,4.7182-2.1332-4.7182h-1.5334l2.9426,6.082-1.7043,3.6081h1.4641l4.4486-9.6901h-1.4367ZM131.8706,23.3853h-1.3365v4.1212c0,1.0382-.5394,1.7472-1.6202,1.7472-1.1245,0-1.5502-.8246-1.5502-1.7612v-4.1071h-1.3364v4.305c0,1.5494.9668,2.7433,2.5591,2.7433.7952,0,1.65-.3273,2.0195-1.0382,0,.2854.0281.6688.0559.8246h1.2786c-.0263-.2415-.07-.723-.07-1.264v-5.5707ZM165.0698,21.225h-1.2238v1.1082c0,.5969-.3128,1.0521-1.0513,1.0521h-.3725v1.208h1.3093v3.75c0,1.2359.7385,1.9484,1.9059,1.9484.4531,0,.7949-.0858.9094-.1295v-1.1363c-.1145.0298-.3563.0561-.5273.0561-.6966,0-.9497-.3117-.9497-.9366v-3.5521h1.477v-1.208h-1.477v-2.1603ZM159.8201,30.22h1.3225v-6.8347h-1.3225v6.8347ZM160.4752,19.8332c-.5237,0-.9528.4255-.9528.9665,0,.5252.4291.9523.9528.9523.5413,0,.9668-.4271.9668-.9523,0-.541-.4255-.9665-.9668-.9665ZM156.0543,24.5793v-1.194h-1.3085v6.8364h1.3383v-3.426c0-1.5057.7514-2.1044,1.8759-2.1044.1838,0,.3836.0158.5814.0439v-1.4217c-.07-.0123-.2557-.0419-.4395-.0419-.6954,0-1.5502.2556-2.0476,1.3077ZM135.7959,21.225h-1.2243v1.1082c0,.5969-.3118,1.0521-1.051,1.0521h-.3696v1.208h1.3083v3.75c0,1.2359.7391,1.9484,1.9039,1.9484.4555,0,.797-.0858.9091-.1295v-1.1363c-.1121.0298-.3538.0561-.5237.0561-.697,0-.9528-.3117-.9528-.9366v-3.5521h1.4765v-1.208h-1.4765v-2.1603ZM149.6838,29.2396c-1.1368,0-2.1298-.8526-2.1298-2.4439,0-1.5774.9931-2.4299,2.1298-2.4299,1.1385,0,2.1334.8525,2.1334,2.4299,0,1.5913-.9949,2.4439-2.1334,2.4439ZM149.6838,23.1718c-2.0458,0-3.496,1.5494-3.496,3.6239,0,2.0886,1.4502,3.6379,3.496,3.6379,2.0476,0,3.498-1.5494,3.498-3.6379,0-2.0745-1.4504-3.6239-3.498-3.6239ZM142.3203,23.1858c-.7812,0-1.5781.2696-2.0755.9961v-4.249h-1.3365v10.287h1.3365v-4.0212c.0281-1.0084.5692-1.8051,1.5921-1.8051,1.1929,0,1.5923.7669,1.5923,1.7193v4.107h1.3381v-4.3329c0-1.5213-.811-2.7013-2.447-2.7013ZM118.7479,26.113l1.7219-4.5186,1.748,4.5186h-3.4699ZM119.7008,20.1448l-4.0092,10.0769h1.4941l1.0648-2.8151h4.4648l1.0947,2.8151h1.5065l-4.0094-10.0769h-1.6061ZM133.2718,15.0854c-.9949,0-1.734-.7388-1.734-1.9888s.7672-1.9608,1.734-1.9608,1.7219.6968,1.7219,1.9468c0,1.264-.7549,2.0028-1.7219,2.0028ZM135.0059,15.7962c0,.3274.0437.6671.07.8106h1.8077c-.028-.2854-.0579-.7966-.0579-1.2657V6.318h-1.8618v3.9933c-.198-.3694-.7672-.8666-1.9758-.8666-1.9775,0-3.3559,1.6054-3.3559,3.6519,0,2.1166,1.4223,3.6799,3.412,3.6799.9389,0,1.65-.4254,1.9618-.9803ZM99.043,26.099c.0561-.8807.7391-1.7472,1.8636-1.7472,1.2069,0,1.8462.7667,1.8759,1.7472h-3.7395ZM100.8926,23.1718c-1.7217,0-3.2701,1.4636-3.2701,3.6099,0,2.3162,1.6063,3.6519,3.4401,3.6519,1.5921,0,2.6869-.9524,3.0687-2.1603l-1.1508-.3975c-.2557.7669-.811,1.3778-1.918,1.3778-1.1525,0-2.0336-.8509-2.0616-2.0745h5.1462c.014-.0858.0281-.2556.0281-.4271,0-2.1306-1.1806-3.5802-3.2825-3.5802ZM115.942,14.5882c0-.5392.3836-.8088.867-.8806l1.5782-.2416v.3134c0,1.236-.7391,1.6194-1.5361,1.6194-.6095,0-.9091-.3974-.9091-.8106ZM118.515,15.7682c0,.2696.0281.653.07.8386h1.7358c-.0437-.2415-.0858-.7405-.0858-1.1099v-3.4383c0-1.4058-.8249-2.6558-3.0407-2.6558-1.8794,0-2.8883,1.2062-3.0004,2.3004l1.6779.3554c.0561-.6092.5115-1.1362,1.3348-1.1362.797,0,1.1806.4132,1.1806.9086,0,.2416-.1279.4412-.5273.4972l-1.7183.2556c-1.1664.1716-2.0895.8683-2.0895,2.1183,0,1.0942.9091,2.1044,2.4014,2.1044,1.0369,0,1.7061-.4832,2.0616-1.0382ZM93.741,23.1858c-.797,0-1.6079.3273-2.1053,1.18v-.9805h-1.3067v6.8347h1.3346v-3.9494c0-1.0382.5413-1.8768,1.5923-1.8768,1.1945,0,1.5939.7669,1.5939,1.7193v4.107h1.3348v-4.3329c0-1.5213-.811-2.7013-2.4434-2.7013ZM123.8887,12.5837c0-.8088.4834-1.4478,1.3085-1.4478.9091,0,1.2927.611,1.2927,1.3918v4.0791h1.8917v-4.4047c0-1.5354-.797-2.7713-2.531-2.7713-.7532,0-1.5923.3274-2.0178,1.0504v-.8666h-1.8339v6.9922h1.8899v-4.0231ZM108.5399,29.2256c-1.2786,0-2.0037-1.0381-2.0037-2.4439s.7969-2.4018,2.0178-2.4018c1.2225,0,1.9634.9663,1.9634,2.3722,0,1.4075-.7549,2.4736-1.9775,2.4736ZM111.824,19.933h-1.3223v4.4188c-.2278-.555-.881-1.1519-2.0897-1.1519-1.9338,0-3.2421,1.649-3.2421,3.5818,0,2.0326,1.2366,3.6221,3.2421,3.6221,1.0668,0,1.7919-.5671,2.1194-1.2201v.1121c0,.4131.0421.7685.0701.9242h1.2944c-.0158-.1137-.0719-.6109-.0719-1.264v-9.023ZM81.9268,29.21c-1.1806,0-2.0336-.9647-2.0336-2.4423s.853-2.4018,2.0336-2.4018c1.2366,0,2.0178.9242,2.0178,2.4018s-.7952,2.4423-2.0178,2.4423ZM82.1667,23.1858c-1.1368,0-1.932.555-2.2612,1.1659v-4.4188h-1.3189v10.287h1.3189v-.9944c.4292.7388,1.2104,1.1782,2.2193,1.1782,2.0334,0,3.1842-1.6053,3.1842-3.6361,0-1.9905-1.0666-3.5818-3.1423-3.5818ZM52.8212,29.1538c-1.8322,0-3.5802-1.3497-3.5802-3.9775,0-2.6295,1.748-3.9654,3.5802-3.9654,1.65,0,2.7604.8526,3.1423,2.3739l1.2944-.4552c-.5115-1.9467-2.1316-3.1968-4.4367-3.1968-2.4994,0-5.0025,1.8751-5.0025,5.2434s2.4015,5.2573,5.0025,5.2573c2.3191,0,3.9112-1.3497,4.4525-3.2405l-1.2383-.4552c-.4116,1.3778-1.4924,2.4159-3.2142,2.4159ZM143.7636,14.5164c0-1.0224-.6953-1.861-2.0755-2.1446l-.9949-.2136c-.3836-.07-.6393-.2836-.6393-.625,0-.3974.3976-.6968.895-.6968.7969,0,1.0947.527,1.1524.9384l1.5782-.3554c-.084-.7528-.7531-2.0168-2.7446-2.0168-1.5063,0-2.6152,1.0364-2.6152,2.2864,0,.9804.6113,1.7909,1.9618,2.0903l.9231.2118c.5411.1138.7532.3694.7532.6828,0,.3694-.2978.6968-.9231.6968-.8251,0-1.2366-.513-1.2804-1.0662l-1.6184.3537c.084.7965.8075,2.1604,2.9146,2.1604,1.832,0,2.713-1.1642,2.713-2.3022ZM87.5265,19.8332c-.5255,0-.9512.4255-.9512.9665,0,.5252.4257.9523.9512.9523.5413,0,.9686-.4271.9686-.9523,0-.541-.4273-.9665-.9686-.9665ZM74.234,23.1858c-.867,0-1.7498.3133-2.2893,1.2936-.3678-.8823-1.1946-1.2936-2.0458-1.2936-.7986,0-1.65.3554-2.0756,1.1082v-.9088h-1.2803v6.8347h1.3206v-4.121c0-1.0224.6411-1.7332,1.5923-1.7332,1.0263,0,1.452.6827,1.452,1.5632v4.2909h1.3347v-4.135c0-.9803.6411-1.7191,1.5798-1.7191,1.0089,0,1.4486.6687,1.4486,1.5632v4.2909h1.3223v-4.4344c0-1.7891-1.1648-2.5997-2.3593-2.5997ZM86.8732,30.22h1.3225v-6.8347h-1.3225v6.8347ZM61.481,29.2396c-1.1385,0-2.1318-.8526-2.1318-2.4439,0-1.5774.9932-2.4299,2.1318-2.4299,1.1368,0,2.1334.8525,2.1334,2.4299,0,1.5913-.9966,2.4439-2.1334,2.4439ZM61.481,23.1718c-2.0458,0-3.4962,1.5494-3.4962,3.6239,0,2.0886,1.4504,3.6379,3.4962,3.6379,2.0474,0,3.4978-1.5494,3.4978-3.6379,0-2.0745-1.4504-3.6239-3.4978-3.6239ZM110.7521,16.6067h1.8917V6.3197h-1.8917v10.287ZM105.2943,15.0854c-.9966,0-1.7357-.7388-1.7357-1.9888s.7672-1.9608,1.7357-1.9608c.965,0,1.7183.6968,1.7183,1.9468,0,1.264-.7533,2.0028-1.7183,2.0028ZM107.0283,15.7962c0,.3274.0421.6671.0701.8106h1.8059c-.0298-.2854-.0561-.7966-.0561-1.2657V6.318h-1.8636v3.9933c-.1998-.3694-.7672-.8666-1.9776-.8666-1.9739,0-3.3541,1.6054-3.3541,3.6519,0,2.1166,1.4223,3.6799,3.4138,3.6799.937,0,1.6482-.4254,1.9617-.9803ZM98.4124,16.6067h1.8901v-6.9905h-1.8901v6.9905ZM99.3495,8.4783c.6551,0,1.1666-.527,1.1666-1.152,0-.653-.5115-1.1782-1.1666-1.1782-.6376,0-1.1648.5252-1.1648,1.1782,0,.625.5273,1.152,1.1648,1.152ZM92.5255,6.5246l-2.3033,7.176-2.3016-7.176h-2.0195l-2.7867,10.0734h2.0055l1.8182-6.9625,2.2472,6.9625h2.0318l2.2333-6.9345,1.8496,6.9345h2.0739l-2.8008-10.0734h-2.0476ZM71.9885,15.3708c-.8251,0-1.2367-.513-1.2804-1.0662l-1.6203.3537c.0842.7965.811,2.1604,2.9146,2.1604,1.8322,0,2.7167-1.1642,2.7167-2.3022,0-1.0224-.6988-1.861-2.0774-2.1446l-.9949-.2136c-.3836-.07-.6411-.2836-.6411-.625,0-.3974.3994-.6968.8968-.6968.7952,0,1.0948.527,1.1508.9384l1.58-.3554c-.0859-.7528-.7549-2.0168-2.7448-2.0168-1.5063,0-2.6168,1.0364-2.6168,2.2864,0,.9804.613,1.7909,1.9618,2.0903l.9229.2118c.5413.1138.7549.3694.7549.6828,0,.3694-.2994.6968-.9229.6968ZM79.8355,16.535v-1.5634c-.1.0297-.3557.0578-.5834.0578-.5393,0-.8231-.1996-.8231-.8106v-2.9271h1.4065v-1.6771h-1.4065v-2.0886h-1.7079v.9804c0,.625-.3397,1.1082-1.0789,1.1082h-.3555v1.6771h1.2646v3.2545c0,1.3498.853,2.1586,2.2192,2.1586.5535,0,.8951-.098,1.065-.1698ZM64.907,10.9363c1.0806,0,1.536.6828,1.564,1.3778h-3.1282c.0439-.639.5832-1.3778,1.5642-1.3778ZM68.2331,14.6022l-1.5763-.4692c-.2278.6267-.7112,1.0662-1.5923,1.0662-.9387,0-1.7217-.667-1.7638-1.5914h5.0043c0-.028.0281-.3116.0281-.583,0-2.2444-1.2927-3.6222-3.4541-3.6222-1.7919,0-3.4401,1.4478-3.4401,3.6799,0,2.3582,1.6921,3.736,3.6099,3.736,1.7201,0,2.8288-1.0084,3.1843-2.2164ZM52.1977,16.6067l2.3015-7.176,2.3033,7.176h2.0195l2.7867-10.0752h-2.0057l-1.818,6.9625-2.2472-6.9625h-2.0336l-2.2316,6.9344-1.8478-6.9344h-2.0739l2.799,10.0752h2.0476Z" fill="#fffffe" fill-rule="evenodd" stroke-width="0"/><path id="Fill_3" d="M8.4921,33.0435c1.0484,1.817,2.9875,2.9343,5.0826,2.9343l6.9902-4.0392-12.0692-6.9612v8.0645l-.0035.0018ZM39.6327,15.0625l-.0052-.007-6.9848-4.0287v13.9435l6.9848-4.0288.0052-.0069c1.0468-1.8172,1.0468-4.055,0-5.8721ZM13.587.021c-2.0969-.0018-4.0342,1.1172-5.0826,2.9325l-.0088.014v8.0592l12.0744-6.9647L13.5764.028l.0105-.007Z" fill="rgba(255,255,255,.5)" fill-rule="evenodd" stroke-width="0"/><path id="Fill_4" d="M1.5378,20.9346l6.9792,12.1071V2.9553L1.5378,15.0625c-1.0471,1.8171-1.0471,4.0549,0,5.8721ZM27.5477,35.9777c2.0942,0,4.0307-1.1172,5.076-2.9343l6.9879-12.1019-26.0204,15.0275,13.9565.0087ZM32.6237,2.9535C31.5784,1.1383,29.6419.0193,27.5477.021l-13.9565.007,26.0204,15.0292-6.9879-12.1037Z" fill="#fff" fill-rule="evenodd" stroke-width="0"/></g></svg>