<svg width="393" height="45" viewBox="0 0 393 45" fill="none" xmlns="http://www.w3.org/2000/svg">
<path fill-rule="evenodd" clip-rule="evenodd" d="M215.534 29.2406L212.972 35.1453L210.302 29.2406H208.382L212.064 36.8521L209.931 41.3677H211.764L217.332 29.2406H215.534ZM164.095 29.2406H162.422V34.3982C162.422 35.6974 161.747 36.5848 160.395 36.5848C158.987 36.5848 158.455 35.5528 158.455 34.3807V29.2406H156.782V34.6282C156.782 36.5673 157.992 38.0615 159.985 38.0615C160.98 38.0615 162.05 37.6518 162.512 36.7623C162.512 37.1194 162.547 37.5992 162.582 37.7942H164.183C164.15 37.4919 164.095 36.8893 164.095 36.2123V29.2406ZM205.644 26.537H204.111V27.9239C204.111 28.671 203.721 29.2406 202.796 29.2406H202.331V30.7524H203.969V35.4455C203.969 36.9923 204.894 37.8841 206.354 37.8841C206.922 37.8841 207.349 37.7767 207.492 37.7219V36.3C207.349 36.3372 207.047 36.3701 206.832 36.3701C205.961 36.3701 205.644 35.9801 205.644 35.1979V30.7524H207.492V29.2406H205.644V26.537ZM199.074 37.7942H200.729V29.2406H199.074V37.7942ZM199.894 24.7951C199.238 24.7951 198.701 25.3275 198.701 26.0046C198.701 26.6619 199.238 27.1965 199.894 27.1965C200.571 27.1965 201.104 26.6619 201.104 26.0046C201.104 25.3275 200.571 24.7951 199.894 24.7951ZM194.361 30.7349V29.2406H192.724V37.7964H194.398V33.5086C194.398 31.6244 195.339 30.8751 196.746 30.8751C196.976 30.8751 197.226 30.8948 197.474 30.9299V29.1508C197.386 29.1354 197.154 29.0982 196.924 29.0982C196.053 29.0982 194.984 29.4181 194.361 30.7349ZM169.007 26.537H167.475V27.9239C167.475 28.671 167.085 29.2406 166.16 29.2406H165.697V30.7524H167.335V35.4455C167.335 36.9923 168.26 37.8841 169.718 37.8841C170.288 37.8841 170.715 37.7767 170.855 37.7219V36.3C170.715 36.3372 170.413 36.3701 170.2 36.3701C169.327 36.3701 169.007 35.9801 169.007 35.1979V30.7524H170.855V29.2406H169.007V26.537ZM186.388 36.5673C184.966 36.5673 183.723 35.5003 183.723 33.5087C183.723 31.5346 184.966 30.4676 186.388 30.4676C187.813 30.4676 189.058 31.5346 189.058 33.5087C189.058 35.5003 187.813 36.5673 186.388 36.5673ZM186.388 28.9733C183.828 28.9733 182.013 30.9123 182.013 33.5087C182.013 36.1225 183.828 38.0615 186.388 38.0615C188.951 38.0615 190.766 36.1225 190.766 33.5087C190.766 30.9123 188.951 28.9733 186.388 28.9733ZM177.173 28.9909C176.195 28.9909 175.198 29.3283 174.575 30.2375V24.92H172.903V37.7942H174.575V32.7616C174.61 31.4995 175.288 30.5026 176.568 30.5026C178.061 30.5026 178.561 31.4623 178.561 32.6542V37.7942H180.235V32.3716C180.235 30.4676 179.22 28.9909 177.173 28.9909ZM147.672 32.6542L149.827 26.9992L152.014 32.6542H147.672ZM148.864 25.1851L143.847 37.7964H145.717L147.049 34.2733H152.637L154.007 37.7964H155.892L150.874 25.1851H148.864ZM165.849 18.8532C164.604 18.8532 163.678 17.9286 163.678 16.3642C163.678 14.7998 164.639 13.9103 165.849 13.9103C167.059 13.9103 168.003 14.7823 168.003 16.3467C168.003 17.9286 167.059 18.8532 165.849 18.8532ZM168.019 19.7427C168.019 20.1524 168.074 20.5775 168.106 20.7571H170.369C170.334 20.4 170.296 19.7602 170.296 19.173V7.88071H167.966V12.8783C167.718 12.416 167.006 11.7938 165.493 11.7938C163.019 11.7938 161.293 13.8029 161.293 16.3642C161.293 19.0131 163.073 20.9697 165.564 20.9697C166.739 20.9697 167.629 20.4372 168.019 19.7427ZM123.011 32.6366C123.081 31.5346 123.936 30.45 125.343 30.45C126.854 30.45 127.654 31.4097 127.691 32.6366H123.011ZM125.326 28.9733C123.171 28.9733 121.233 30.805 121.233 33.4911C121.233 36.3898 123.243 38.0615 125.538 38.0615C127.531 38.0615 128.901 36.8696 129.379 35.3579L127.939 34.8605C127.619 35.8201 126.924 36.5848 125.538 36.5848C124.096 36.5848 122.993 35.52 122.958 33.9885H129.399C129.416 33.8811 129.434 33.6686 129.434 33.4539C129.434 30.7875 127.956 28.9733 125.326 28.9733ZM144.16 18.2309C144.16 17.5561 144.64 17.2187 145.245 17.1289L147.22 16.8265V17.2187C147.22 18.7655 146.295 19.2454 145.298 19.2454C144.535 19.2454 144.16 18.748 144.16 18.2309ZM147.38 19.7076C147.38 20.0451 147.415 20.5249 147.468 20.7571H149.64C149.586 20.4548 149.533 19.8303 149.533 19.368V15.0649C149.533 13.3056 148.5 11.7412 145.728 11.7412C143.375 11.7412 142.113 13.2508 141.972 14.6202L144.072 15.0649C144.143 14.3025 144.713 13.643 145.743 13.643C146.74 13.643 147.22 14.1601 147.22 14.7801C147.22 15.0825 147.06 15.3322 146.561 15.4024L144.41 15.7222C142.95 15.937 141.795 16.809 141.795 18.3733C141.795 19.7427 142.933 21.0069 144.8 21.0069C146.098 21.0069 146.935 20.4022 147.38 19.7076ZM116.376 28.9909C115.378 28.9909 114.363 29.4006 113.741 30.4676V29.2406H112.105V37.7942H113.776V32.8514C113.776 31.5521 114.453 30.5026 115.768 30.5026C117.263 30.5026 117.763 31.4623 117.763 32.6542V37.7942H119.434V32.3715C119.434 30.4676 118.419 28.9909 116.376 28.9909ZM154.106 15.7223C154.106 14.71 154.711 13.9103 155.743 13.9103C156.881 13.9103 157.361 14.675 157.361 15.6522V20.7571H159.728V15.2446C159.728 13.3231 158.731 11.7763 156.561 11.7763C155.618 11.7763 154.568 12.186 154.036 13.0909V12.0063H151.74V20.7571H154.106V15.7223ZM134.896 36.5498C133.296 36.5498 132.389 35.2505 132.389 33.4911C132.389 31.7318 133.386 30.4851 134.914 30.4851C136.444 30.4851 137.371 31.6945 137.371 33.4539C137.371 35.2155 136.427 36.5498 134.896 36.5498ZM139.007 24.92H137.352V30.4501C137.067 29.7555 136.249 29.0084 134.736 29.0084C132.316 29.0084 130.679 31.0723 130.679 33.4911C130.679 36.0349 132.226 38.0243 134.736 38.0243C136.071 38.0243 136.979 37.3144 137.389 36.4972V36.6374C137.389 37.1545 137.441 37.5992 137.477 37.7942H139.096C139.077 37.6518 139.007 37.0296 139.007 36.2124V24.92ZM101.59 36.53C100.113 36.53 99.045 35.3228 99.045 33.4736C99.045 31.6244 100.113 30.4676 101.59 30.4676C103.138 30.4676 104.115 31.6244 104.115 33.4736C104.115 35.3228 103.12 36.53 101.59 36.53ZM101.89 28.9909C100.468 28.9909 99.4724 29.6854 99.0603 30.4501V24.92H97.4097V37.7942H99.0603V36.5498C99.5974 37.4744 100.575 38.0243 101.838 38.0243C104.383 38.0243 105.823 36.0152 105.823 33.4736C105.823 30.9825 104.488 28.9909 101.89 28.9909ZM65.1642 36.4599C62.8713 36.4599 60.6836 34.7707 60.6836 31.482C60.6836 28.1912 62.8713 26.5194 65.1642 26.5194C67.2292 26.5194 68.6189 27.5864 69.0968 29.4904L70.7168 28.9208C70.0767 26.4844 68.049 24.92 65.1642 24.92C62.0361 24.92 58.9036 27.2666 58.9036 31.482C58.9036 35.6975 61.909 38.0615 65.1642 38.0615C68.0665 38.0615 70.0591 36.3723 70.7365 34.006L69.1867 33.4364C68.6715 35.1607 67.319 36.4599 65.1642 36.4599ZM178.979 18.1411C178.979 16.8616 178.109 15.8121 176.382 15.4571L175.136 15.1898C174.656 15.1022 174.336 14.8349 174.336 14.4077C174.336 13.9103 174.834 13.5356 175.457 13.5356C176.454 13.5356 176.827 14.1951 176.899 14.71L178.874 14.2652C178.769 13.3231 177.931 11.7412 175.439 11.7412C173.554 11.7412 172.166 13.0383 172.166 14.6026C172.166 15.8296 172.931 16.844 174.621 17.2187L175.777 17.4838C176.454 17.6262 176.719 17.9461 176.719 18.3383C176.719 18.8006 176.347 19.2103 175.564 19.2103C174.531 19.2103 174.016 18.5683 173.962 17.876L171.936 18.3186C172.041 19.3155 172.947 21.0222 175.584 21.0222C177.877 21.0222 178.979 19.5652 178.979 18.1411ZM108.598 24.7951C107.94 24.7951 107.408 25.3275 107.408 26.0046C107.408 26.6619 107.94 27.1965 108.598 27.1965C109.275 27.1965 109.81 26.6619 109.81 26.0046C109.81 25.3275 109.275 24.7951 108.598 24.7951ZM91.9624 28.9909C90.8773 28.9909 89.7725 29.383 89.0974 30.61C88.637 29.5057 87.6024 28.9909 86.537 28.9909C85.5374 28.9909 84.4721 29.4356 83.9394 30.3777V29.2406H82.337V37.7942H83.9898V32.6367C83.9898 31.3571 84.7921 30.4676 85.9824 30.4676C87.267 30.4676 87.7997 31.3221 87.7997 32.4241V37.7942H89.47V32.6191C89.47 31.3922 90.2723 30.4676 91.4473 30.4676C92.7099 30.4676 93.2601 31.3045 93.2601 32.4241V37.7942H94.9152V32.2445C94.9152 30.0053 93.4574 28.9909 91.9624 28.9909ZM107.78 37.7942H109.435V29.2406H107.78V37.7942ZM76.0018 36.5673C74.577 36.5673 73.3341 35.5003 73.3341 33.5087C73.3341 31.5346 74.577 30.4676 76.0018 30.4676C77.4245 30.4676 78.6718 31.5346 78.6718 33.5087C78.6718 35.5003 77.4245 36.5673 76.0018 36.5673ZM76.0019 28.9733C73.4415 28.9733 71.6265 30.9123 71.6265 33.5087C71.6265 36.1225 73.4415 38.0615 76.0019 38.0615C78.5644 38.0615 80.3794 36.1225 80.3794 33.5087C80.3794 30.9123 78.5644 28.9733 76.0019 28.9733ZM137.665 20.7571H140.032V7.8829H137.665V20.7571ZM130.835 18.8532C129.587 18.8532 128.662 17.9286 128.662 16.3642C128.662 14.7998 129.622 13.9103 130.835 13.9103C132.042 13.9103 132.985 14.7823 132.985 16.3467C132.985 17.9286 132.042 18.8532 130.835 18.8532ZM133.005 19.7427C133.005 20.1524 133.057 20.5775 133.092 20.7571H135.352C135.315 20.4 135.282 19.7602 135.282 19.173V7.88071H132.95V12.8783C132.7 12.416 131.99 11.7938 130.475 11.7938C128.005 11.7938 126.277 13.8029 126.277 16.3642C126.277 19.0131 128.057 20.9697 130.55 20.9697C131.722 20.9697 132.612 20.4372 133.005 19.7427ZM122.222 20.7571H124.587V12.0085H122.222V20.7571ZM123.395 10.5844C124.214 10.5844 124.855 9.9249 124.855 9.14272C124.855 8.32548 124.214 7.66818 123.395 7.66818C122.597 7.66818 121.937 8.32548 121.937 9.14272C121.937 9.9249 122.597 10.5844 123.395 10.5844ZM114.854 8.13925L111.972 17.1201L109.091 8.13925H106.564L103.076 20.7462H105.586L107.862 12.0326L110.674 20.7462H113.217L116.012 12.0677L118.327 20.7462H120.922L117.417 8.13925H114.854ZM89.1521 19.2103C88.1197 19.2103 87.6045 18.5683 87.5497 17.876L85.5221 18.3186C85.6273 19.3155 86.537 21.0222 89.1697 21.0222C91.4626 21.0222 92.5696 19.5652 92.5696 18.1411C92.5696 16.8616 91.695 15.8121 89.9698 15.4571L88.7247 15.1898C88.2446 15.1022 87.9224 14.8349 87.9224 14.4077C87.9224 13.9103 88.4222 13.5356 89.0447 13.5356C90.0399 13.5356 90.4148 14.1951 90.4849 14.71L92.4622 14.2652C92.3548 13.3231 91.5174 11.7412 89.0272 11.7412C87.142 11.7412 85.7522 13.0383 85.7522 14.6026C85.7522 15.8296 86.5195 16.844 88.2074 17.2187L89.3626 17.4838C90.0399 17.6262 90.3074 17.9461 90.3074 18.3383C90.3074 18.8006 89.9325 19.2103 89.1521 19.2103ZM98.9727 20.6673V18.7108C98.8477 18.748 98.5277 18.7831 98.2427 18.7831C97.5676 18.7831 97.2125 18.5333 97.2125 17.7686V14.1053H98.9727V12.0064H97.2125V9.39251H95.0752V10.6195C95.0752 11.4016 94.6499 12.0064 93.7249 12.0064H93.2799V14.1053H94.8625V18.1784C94.8625 19.8676 95.9301 20.8798 97.6399 20.8798C98.3326 20.8798 98.7601 20.7571 98.9727 20.6673ZM80.2896 13.6605C81.6421 13.6605 82.212 14.515 82.2471 15.3848H78.332C78.3868 14.5851 79.062 13.6605 80.2896 13.6605ZM84.4523 18.2485L82.4794 17.6613C82.1945 18.4456 81.5894 18.9956 80.4868 18.9956C79.3119 18.9956 78.332 18.1608 78.2794 17.004H84.5422C84.5422 16.9689 84.5772 16.614 84.5772 16.2744C84.5772 13.4655 82.9595 11.7412 80.2545 11.7412C78.012 11.7412 75.9492 13.5532 75.9492 16.3467C75.9492 19.2979 78.0668 21.0222 80.4671 21.0222C82.6197 21.0222 84.0073 19.7602 84.4523 18.2485ZM64.3838 20.7571L67.2642 11.7763L70.1468 20.7571H72.6743L76.1619 8.148H73.652L71.3766 16.8615L68.5641 8.148H66.0191L63.2264 16.8265L60.9138 8.148H58.3184L61.8213 20.7571H64.3838Z" fill="#FFFFFE"/>
<path fill-rule="evenodd" clip-rule="evenodd" d="M9.68613 41.3277C10.9982 43.6018 13.425 45 16.047 45L24.7951 39.9449L9.69052 31.2329V41.3255L9.68613 41.3277ZM48.6589 18.8245L48.6523 18.8157L39.9107 13.7737V31.2241L48.6523 26.1821L48.6589 26.1734C49.9688 23.8993 49.9688 21.0985 48.6589 18.8245ZM16.0624 2.57656e-06C13.4382 -0.00219244 11.0136 1.39823 9.70149 3.67007L9.69052 3.68763V13.7737L24.8017 5.05732L16.0492 0.00878264L16.0624 2.57656e-06Z" fill="white" fill-opacity="0.5"/>
<path fill-rule="evenodd" clip-rule="evenodd" d="M0.982791 26.1734L9.71725 41.3256V3.67228L0.982791 18.8245C-0.327597 21.0985 -0.327597 23.8993 0.982791 26.1734ZM33.5344 45C36.1551 45 38.5787 43.6018 39.8869 41.3277L48.6323 26.1821L16.0676 44.989L33.5344 45ZM39.8869 3.67007C38.5787 1.39823 36.1551 -0.00219244 33.5344 2.57656e-06L16.0676 0.00878264L48.6323 18.8179L39.8869 3.67007Z" fill="white"/>
<line x1="241.707" y1="1.63918e-08" x2="241.707" y2="45" stroke="white" stroke-width="0.75"/>
<path fill-rule="evenodd" clip-rule="evenodd" d="M350.347 13.5171V20.3217H347.543V13.5171H346.087V11.1569H347.543V10.3636C347.543 8.26154 348.816 6.82275 351.047 6.82275C351.619 6.82275 352.117 6.89705 352.375 7.02592V9.31257C352.228 9.27542 351.988 9.22047 351.545 9.22047C351.047 9.22047 350.347 9.44182 350.347 10.4557V11.1569H352.338V13.5171H350.347ZM275.347 20.3105H278.335L280.456 11.92L283.167 20.3105H286.154L288.865 11.9382L291.023 20.3105H294.121L290.562 7.23604H287.5L284.697 15.9032L281.913 7.23604H278.906L275.347 20.3105ZM300.355 16.32V16.7256C300.355 18.1458 299.507 18.5513 298.677 18.5513C297.902 18.5513 297.589 18.0905 297.589 17.611C297.589 16.9655 298.031 16.6892 298.622 16.5967L300.355 16.32ZM299.691 14.6974L297.533 15.0294C296.021 15.2507 294.822 16.1725 294.822 17.7955C294.822 19.2525 295.984 20.5798 297.994 20.5798C299.211 20.5798 300.096 20.0636 300.576 19.2889C300.576 19.9158 300.65 20.2482 300.668 20.3217H303.195C303.176 20.2296 303.084 19.6209 303.084 18.9015V14.4207C303.084 12.5396 301.996 10.8802 299.027 10.8802C296.335 10.8802 295.117 12.6135 295.006 13.9226L297.441 14.4207C297.496 13.7384 298.031 13.0748 299.008 13.0748C299.894 13.0748 300.355 13.5357 300.355 14.0705C300.355 14.3839 300.189 14.6238 299.691 14.6974ZM305.629 23.844L307.713 19.0861L303.858 11.1569H306.994L309.225 16.0618L311.253 11.1569H314.223L308.58 23.844H305.629ZM319.202 13.4618C320.271 13.4618 321.267 14.1808 321.267 15.7299C321.267 17.279 320.271 18.0166 319.202 18.0166C318.151 18.0166 317.136 17.2604 317.136 15.7299C317.136 14.1808 318.151 13.4618 319.202 13.4618ZM319.202 20.5984C321.95 20.5984 324.071 18.5698 324.071 15.7298C324.071 12.8902 321.95 10.8802 319.202 10.8802C316.472 10.8802 314.333 12.8902 314.333 15.7298C314.333 18.5698 316.472 20.5984 319.202 20.5984ZM331.521 13.9226C331.208 13.8491 330.913 13.8305 330.636 13.8305C329.511 13.8305 328.497 14.4946 328.497 16.32V20.3217H325.694V11.1569H328.405V12.3921C328.884 11.3593 330.046 11.0644 330.783 11.0644C331.06 11.0644 331.337 11.1012 331.521 11.1569V13.9226ZM340.628 13.4618C341.697 13.4618 342.693 14.1808 342.693 15.7299C342.693 17.279 341.697 18.0166 340.628 18.0166C339.577 18.0166 338.562 17.2604 338.562 15.7299C338.562 14.1808 339.577 13.4618 340.628 13.4618ZM340.627 20.5984C343.376 20.5984 345.496 18.5698 345.496 15.7298C345.496 12.8902 343.376 10.8802 340.627 10.8802C337.898 10.8802 335.759 12.8902 335.759 15.7298C335.759 18.5698 337.898 20.5984 340.627 20.5984ZM362.256 11.1569H360.467V8.4825H357.959V9.66279C357.959 10.5114 357.498 11.1569 356.539 11.1569H356.078V13.6096H357.701V17.537C357.701 19.3628 358.863 20.4877 360.762 20.4877C361.647 20.4877 362.108 20.2846 362.219 20.2296V17.9058C362.053 17.943 361.777 17.9979 361.481 17.9979C360.873 17.9979 360.467 17.7955 360.467 17.0394V13.6096H362.256V11.1569ZM366.184 20.3217H363.38V6.97058H366.184V11.7467C366.755 11.1755 367.715 10.917 368.526 10.917C370.924 10.917 371.993 12.5582 371.993 14.5681V20.3217H369.19V15.0476C369.19 14.144 368.711 13.4617 367.696 13.4617C366.811 13.4617 366.239 14.0887 366.184 14.9369V20.3217ZM378.116 13.093C379.443 13.093 379.923 13.9413 379.96 14.6421H376.29C376.345 13.9598 376.936 13.093 378.116 13.093ZM378.281 20.5984C380.605 20.5984 382.062 19.2703 382.505 17.6848L380.163 17.0208C379.905 17.7398 379.333 18.2196 378.319 18.2196C377.23 18.2196 376.29 17.4817 376.235 16.4488H382.616C382.634 16.3939 382.671 15.9697 382.671 15.5824C382.671 12.6317 380.919 10.8802 378.079 10.8802C375.7 10.8802 373.505 12.7609 373.505 15.7116C373.505 18.7912 375.755 20.5984 378.281 20.5984ZM281.118 24.7441H284.106L280.547 37.8189H277.54L274.756 29.1514L271.953 37.8189H268.891L265.332 24.7441H268.43L270.588 33.1164L273.299 24.7441H276.286L278.997 33.1349L281.118 24.7441ZM288.55 30.5898C289.878 30.5898 290.357 31.4381 290.394 32.1393H286.724C286.779 31.4567 287.37 30.5898 288.55 30.5898ZM288.716 38.0952C291.04 38.0952 292.497 36.7679 292.939 35.1817L290.597 34.5176C290.339 35.237 289.767 35.7165 288.753 35.7165C287.665 35.7165 286.724 34.9789 286.669 33.9464H293.05C293.068 33.8907 293.105 33.4666 293.105 33.0792C293.105 30.1285 291.353 28.377 288.513 28.377C286.134 28.377 283.939 30.2577 283.939 33.2085C283.939 36.288 286.19 38.0952 288.716 38.0952ZM296.351 34.7943C296.388 35.4212 296.83 36.0303 297.789 36.0303C298.509 36.0303 298.859 35.6425 298.859 35.237C298.859 34.905 298.638 34.6283 297.955 34.4812L296.904 34.2409C294.949 33.8172 294.175 32.7104 294.175 31.4195C294.175 29.7415 295.65 28.377 297.697 28.377C300.353 28.377 301.275 30.0364 301.367 31.1064L299.044 31.5305C298.97 30.9218 298.582 30.4052 297.734 30.4052C297.199 30.4052 296.738 30.719 296.738 31.1985C296.738 31.5855 297.052 31.8068 297.457 31.8807L298.675 32.1207C300.574 32.5076 301.496 33.6512 301.496 34.9975C301.496 36.5647 300.298 38.0952 297.845 38.0952C294.968 38.0952 294.046 36.2327 293.972 35.2188L296.351 34.7943ZM308.283 28.6537H306.494V25.9797H303.986V27.16C303.986 28.0082 303.525 28.6537 302.566 28.6537H302.105V31.1064H303.728V35.0342C303.728 36.86 304.89 37.9845 306.789 37.9845C307.674 37.9845 308.135 37.7817 308.246 37.7264V35.403C308.08 35.4398 307.803 35.4955 307.508 35.4955C306.9 35.4955 306.494 35.2923 306.494 34.5362V31.1064H308.283V28.6537ZM315.415 37.8073H312.428L315.987 24.7329H318.993L321.778 33.4004L324.581 24.7329H327.642L331.201 37.8073H328.103L325.945 29.4354L323.234 37.8073H320.247L317.536 29.4172L315.415 37.8073ZM335.259 37.8189H332.455V28.6537H335.259V37.8189ZM335.498 25.8508C335.498 24.9473 334.761 24.2097 333.838 24.2097C332.953 24.2097 332.216 24.9473 332.216 25.8508C332.216 26.7544 332.953 27.492 333.838 27.492C334.761 27.492 335.498 26.7544 335.498 25.8508ZM341.751 35.5137C342.839 35.5137 343.816 34.7393 343.816 33.227C343.816 31.6961 342.839 30.9585 341.751 30.9585C340.662 30.9585 339.685 31.6961 339.685 33.227C339.685 34.7393 340.662 35.5137 341.751 35.5137ZM346.545 36.1773C346.545 37.0074 346.6 37.6157 346.619 37.8189H343.927C343.908 37.7078 343.853 37.3027 343.853 36.9335C343.429 37.5608 342.507 38.0217 341.4 38.0217C338.818 38.0217 336.863 36.0303 336.863 33.2084C336.863 30.4795 338.707 28.4324 341.308 28.4324C342.875 28.4324 343.558 29.0225 343.779 29.3727V24.4678H346.545V36.1773ZM351.69 37.8189H348.887V24.4678H351.69V37.8189ZM358.864 34.2232V33.8173L357.131 34.094C356.541 34.1861 356.098 34.4627 356.098 35.1082C356.098 35.5877 356.412 36.0486 357.186 36.0486C358.016 36.0486 358.864 35.6426 358.864 34.2232ZM356.043 32.5262L358.201 32.1942C358.698 32.1207 358.864 31.8807 358.864 31.5673C358.864 31.0325 358.403 30.5716 357.518 30.5716C356.541 30.5716 356.006 31.2353 355.951 31.9179L353.516 31.4195C353.627 30.1107 354.844 28.377 357.536 28.377C360.506 28.377 361.593 30.0364 361.593 31.9179V36.3991C361.593 37.1181 361.686 37.7264 361.704 37.8189H359.178C359.159 37.745 359.086 37.413 359.086 36.7861C358.606 37.5608 357.721 38.077 356.504 38.077C354.493 38.077 353.332 36.7493 353.332 35.2923C353.332 33.6697 354.53 32.7476 356.043 32.5262ZM363.769 37.8189H366.573V32.5633C366.573 31.6412 367.163 30.9585 368.085 30.9585C369.099 30.9585 369.579 31.6412 369.579 32.5448V37.8189H372.382V32.0649C372.382 30.055 371.349 28.4138 369.044 28.4138C368.103 28.4138 366.978 28.8383 366.481 29.7047V28.6537H363.769V37.8189ZM378.781 35.5137C379.869 35.5137 380.846 34.7393 380.846 33.227C380.846 31.6961 379.869 30.9585 378.781 30.9585C377.693 30.9585 376.715 31.6961 376.715 33.227C376.715 34.7393 377.693 35.5137 378.781 35.5137ZM383.576 36.1773C383.576 36.9981 383.63 37.602 383.649 37.8119L383.65 37.8189H380.957C380.939 37.7078 380.884 37.3027 380.884 36.9335C380.459 37.5608 379.537 38.0217 378.431 38.0217C375.849 38.0217 373.894 36.0303 373.894 33.2084C373.894 30.4795 375.738 28.4324 378.339 28.4324C379.906 28.4324 380.588 29.0225 380.81 29.3727V24.4678H383.576V36.1773ZM388.979 36.0303C388.02 36.0303 387.578 35.4212 387.541 34.7943L385.162 35.2188C385.236 36.2327 386.158 38.0952 389.034 38.0952C391.487 38.0952 392.686 36.5647 392.686 34.9975C392.686 33.6512 391.764 32.5076 389.865 32.1207L388.647 31.8807C388.242 31.8068 387.928 31.5855 387.928 31.1985C387.928 30.719 388.389 30.4052 388.924 30.4052C389.772 30.4052 390.16 30.9218 390.233 31.5305L392.557 31.1064C392.465 30.0364 391.543 28.377 388.887 28.377C386.84 28.377 385.364 29.7415 385.364 31.4195C385.364 32.7104 386.139 33.8172 388.094 34.2409L389.145 34.4812C389.827 34.6283 390.049 34.905 390.049 35.237C390.049 35.6425 389.698 36.0303 388.979 36.0303Z" fill="white"/>
</svg>
