<?xml version="1.0" encoding="UTF-8"?><svg id="WMRE" xmlns="http://www.w3.org/2000/svg" viewBox="0 0 200.0081 36.0041"><polygon points="43.5709 22.8486 41.6446 22.8486 44.3218 13.1641 46.2615 13.1641 48.4745 20.0617 50.6869 13.1641 52.6543 13.1641 55.345 22.8486 53.3509 22.8486 51.5751 16.1824 49.4304 22.8486 47.477 22.8486 45.319 16.1553 43.5709 22.8486" fill="#fff"/><path d="M57.7138,12.8035c.6186,0,1.1202.5013,1.1203,1.1199,0,.6186-.5013,1.1202-1.1199,1.1203-.6132,0-1.1124-.4928-1.1202-1.1059-.0082-.6182.4863-1.1259,1.1045-1.1341.0051,0,.0102-.0001.0154,0M56.8123,16.1368h1.8169v6.7205h-1.8169v-6.7205Z" fill="#fff"/><path d="M67.1211,21.6414c0,.4505.0267.9426.0545,1.2153h-1.7352c-.0441-.2573-.0668-.5177-.0678-.7787-.3005.5332-.9837.9426-1.8852.9426-1.9119,0-3.2778-1.5025-3.2778-3.5377,0-1.9669,1.3243-3.51,3.2234-3.51,1.1609,0,1.707.4777,1.8986.8332v-3.8388h1.7897v8.6741ZM63.7061,21.3954c.9287,0,1.6525-.7104,1.6525-1.9258,0-1.202-.7238-1.8714-1.6525-1.8714-.9293,0-1.6664.6827-1.6664,1.8847s.7104,1.9124,1.6664,1.9124" fill="#fff"/><rect x="69.1855" y="12.9674" width="1.8169" height="9.8894" fill="#fff"/><path d="M74.6399,18.9914l1.6525-.2455c.3827-.055.5055-.2461.5055-.4782,0-.4782-.3683-.8743-1.1337-.8743-.7921,0-1.2292.5055-1.2837,1.0926l-1.6119-.3416c.1094-1.0515,1.0793-2.2124,2.8823-2.2124,2.1308,0,2.9234,1.202,2.9234,2.554v3.3055c.0019.3566.0292.7126.0817,1.0654h-1.6664c-.0469-.2659-.0699-.5354-.0689-.8054-.3416.5327-.9832.9971-1.9802.9971-1.4342,0-2.3085-.9704-2.3085-2.0219,0-1.202.8876-1.8714,2.008-2.0352M76.7979,20.1389v-.3005l-1.5159.2322c-.4644.0683-.8332.3277-.8332.8465,0,.3961.2866.7788.8738.7788.7649,0,1.4753-.3688,1.4753-1.557" fill="#fff"/><path d="M82.356,22.857h-1.8169v-6.7205h1.7619v.8332c.4099-.6965,1.2159-1.0109,1.9402-1.0109,1.6664,0,2.4313,1.1887,2.4313,2.6634v4.2348h-1.8169v-3.9204c0-.751-.3688-1.3381-1.2426-1.3381-.7926,0-1.257.6144-1.257,1.3931v3.8654Z" fill="#fff"/><path d="M95.2135,21.6414c0,.4505.0272.9426.0545,1.2153h-1.7347c-.0446-.2572-.0675-.5177-.0683-.7787-.3005.5332-.9832.9426-1.8852.9426-1.9125,0-3.2778-1.5025-3.2778-3.5377,0-1.9669,1.3248-3.51,3.2234-3.51,1.1609,0,1.7075.4777,1.8986.8332v-3.8388h1.7897v8.6741ZM91.7986,21.3954c.9282,0,1.6525-.7104,1.6525-1.9258,0-1.202-.7243-1.8714-1.6525-1.8714-.9293,0-1.6664.6827-1.6664,1.8847s.7099,1.9124,1.6664,1.9124" fill="#fff"/><path d="M98.4545,20.644c.0411.5327.4371,1.0248,1.2298,1.0248.6005,0,.8876-.3144.8876-.6699,0-.3-.205-.546-.7243-.6555l-.8871-.2044c-1.2981-.2872-1.8858-1.0654-1.8858-2.008,0-1.202,1.0659-2.1991,2.514-2.1991,1.9124,0,2.554,1.2153,2.6362,1.9397l-1.5164.3411c-.0545-.3961-.3416-.9015-1.1065-.9015-.4777,0-.8604.2872-.8604.6693,0,.3283.2461.5327.6149.601l.956.205c1.3248.2733,1.9941,1.0793,1.9941,2.0624,0,1.0926-.8471,2.213-2.609,2.213-2.0213,0-2.7179-1.3114-2.8001-2.0763l1.557-.3416Z" fill="#fff"/><polygon points="53.4187 .1175 55.3444 .1175 52.6677 9.802 50.7285 9.802 48.5151 2.9042 46.3021 9.802 44.3353 9.802 41.6446 .1175 43.6387 .1175 45.4145 6.7836 47.5591 .1175 49.5121 .1175 51.6706 6.8108 53.4187 .1175" fill="#fff"/><path d="M62.1771,7.8767c-.3411,1.1609-1.4064,2.1302-3.0595,2.1302-1.8441,0-3.4694-1.3248-3.4694-3.5922,0-2.1446,1.5847-3.5377,3.3055-3.5377,2.0763,0,3.3189,1.3248,3.3189,3.4828,0,.2599-.0267.5332-.0267.5604h-4.8086c.0416.8876.7926,1.5297,1.6936,1.5297.8476,0,1.3114-.4238,1.5303-1.0248l1.5159.4515ZM60.4836,5.677c-.0272-.6693-.4644-1.3248-1.5025-1.3248-.7737-.0291-1.4343.5535-1.502,1.3248h3.0045Z" fill="#fff"/><path d="M64.8104,7.5893c.0411.5327.4371,1.0243,1.2292,1.0243.601,0,.8876-.3138.8876-.6693,0-.3-.205-.546-.7238-.6555l-.8882-.205c-1.297-.2872-1.8847-1.0654-1.8847-2.008,0-1.2015,1.0654-2.1991,2.5135-2.1991,1.9124,0,2.554,1.2159,2.6362,1.9402l-1.5164.3411c-.0544-.396-.3416-.9015-1.1065-.9015-.4777,0-.8604.2866-.8604.6693,0,.3277.2461.5327.6149.601l.9565.205c1.3242.2727,1.9936,1.0793,1.9936,2.0624,0,1.0926-.8465,2.213-2.609,2.213-2.0213,0-2.7179-1.3114-2.7995-2.0763l1.557-.3416Z" fill="#fff"/><path d="M72.5184,3.0818h1.3525v1.612h-1.3525v2.8134c0,.5877.2733.7787.7921.7787.1883.0019.3762-.0165.5605-.055v1.5031c-.3278.1205-.6758.1761-1.0248.1639-1.3109,0-2.1313-.7788-2.1313-2.0763v-3.1278h-1.2153v-1.612h.3411c.711,0,1.0387-.4644,1.0387-1.0654v-.9426h1.6392v2.008Z" fill="#fff"/><path d="M5.6701,29.6654c-.1498.3961-.5923.5958-.9884.446-.2061-.0779-.3687-.2408-.4464-.447L.2871,19.122c-.2047-.6457-.2047-1.3389,0-1.9846l3.9482-10.5425c.1505-.3963.5938-.5956.9901-.4451.2048.0778.3667.2394.4447.4442l3.9497,10.5434c.2041.6458.2041,1.3388,0,1.9846l-3.9497,10.5434Z" fill="#fff"/><path d="M12.2952,11.8486c-.1499.3971-.5934.5976-.9905.4477-.2066-.078-.3697-.2411-.4477-.4477L6.9088,1.3061c-.0176-.0472-.0315-.0978-.0462-.1497-.0186-.071-.0276-.1441-.0267-.2175.0001-.4523.3669-.8188.8192-.8187h7.8421c.4521,0,.8186.3666.8187.8187.0008.0733-.008.1464-.0262.2175-.0148.052-.0286.1025-.0462.1497l-3.9482,10.5424Z" fill="#fff"/><path d="M25.5535,11.8486c-.15.3973-.5936.5977-.9909.4477-.2066-.078-.3697-.2411-.4477-.4477l-3.9482-10.5424c-.0172-.0472-.031-.0978-.0458-.1497-.0186-.071-.0276-.1441-.0267-.2175.0001-.4523.3669-.8188.8192-.8187h7.8421c.4521,0,.8186.3666.8187.8187.0009.0734-.0081.1465-.0267.2175-.0148.052-.0286.1025-.0458.1497l-3.9482,10.5424Z" fill="#fff"/><path d="M18.9362,29.6654c-.1498.3961-.5923.5958-.9884.446-.2061-.0779-.3687-.2408-.4464-.447l-3.9482-10.5425c-.2041-.6458-.2041-1.3388,0-1.9846l3.9482-10.5425c.1505-.3963.5938-.5956.9901-.4451.2048.0778.3667.2394.4447.4442l3.9497,10.5434c.2047.6457.2047,1.3389,0,1.9846l-3.9497,10.5434Z" fill="#fff"/><path d="M32.2026,29.6654c-.1133.2979-.399.4947-.7176.4945-.3191.0009-.6051-.1967-.7172-.4954l-3.9482-10.5425c-.2047-.6457-.2047-1.3389,0-1.9846l3.9482-10.5425c.1502-.3963.5932-.5958.9895-.4457.2052.0778.3673.2396.4453.4447l3.9497,10.5434c.2047.6457.2047,1.3389,0,1.9846l-3.9497,10.5434Z" fill="#fff"/><path d="M12.2952,24.2242c-.1499-.3971-.5934-.5976-.9905-.4476-.2066.078-.3697.2411-.4476.4476l-3.9482,10.5429c-.0176.0467-.0315.0973-.0462.1492-.1153.4423.1498.8942.5921,1.0095.0655.0171.1328.026.2004.0267h7.8421c.4521,0,.8186-.3666.8187-.8187.0009-.0733-.008-.1464-.0262-.2175-.0148-.052-.0286-.1025-.0462-.1492l-3.9482-10.5429Z" fill="#fff"/><path d="M25.5535,24.2242c-.15-.3973-.5937-.5977-.9909-.4477-.2066.078-.3697.2411-.4477.4477l-3.9482,10.5429c-.0172.0467-.031.0973-.0458.1492-.1153.4423.1498.8942.5921,1.0095.0655.0171.1328.026.2004.0267h7.8421c.457-.0048.8236-.3792.8187-.8362-.0007-.0675-.0097-.1346-.0267-.1999-.0148-.052-.0286-.1025-.0458-.1492l-3.9482-10.5429Z" fill="#fff"/><path d="M45.2472,31.5467h-1.4922v4.0823h-1.3936v-9.9806h3.7587c1.8862,0,3.0547,1.3232,3.0547,2.9702,0,1.4359-.9151,2.548-2.4213,2.8295l2.379,4.1809h-1.6048l-2.2805-4.0823ZM45.8667,30.3079c1.1261,0,1.8863-.6616,1.8863-1.6893,0-1.0558-.7602-1.7315-1.8863-1.7315h-2.1116v3.4208h2.1116Z" fill="#fff"/><path d="M52.4975,31.7579l1.8301-.2675c.4082-.0564.5208-.2674.5208-.5068,0-.6615-.4363-1.2106-1.464-1.2106-.9292,0-1.45.5772-1.5345,1.3655l-1.2669-.2956c.1408-1.295,1.3092-2.196,2.7732-2.196,2.0272,0,2.8155,1.1542,2.8155,2.4775v3.3926c-.0045.3725.0238.7446.0845,1.1121h-1.2952c-.0517-.3022-.0752-.6085-.0704-.9151-.2956.4787-.9713,1.1262-2.182,1.1262-1.3795,0-2.2663-.9573-2.2663-2.0272,0-1.2106.8868-1.8863,2.0552-2.0552ZM54.8484,32.7292v-.3098l-2.0694.3098c-.5631.0845-.9853.4082-.9853,1.0135,0,.5068.4222.9854,1.098.9854,1.0839,0,1.9567-.5208,1.9567-1.9989Z" fill="#fff"/><path d="M58.8749,25.3386c.5248-.0039.9534.4184.9573.9432.0039.5248-.4184.9534-.9432.9573-.5248.0039-.9534-.4184-.9573-.9432-.0044-.5243.4172-.9529.9415-.9573.0006,0,.0011,0,.0017,0ZM58.2273,35.629v-6.7711h1.3092v6.7711h-1.3092Z" fill="#fff"/><path d="M61.789,35.629v-10.1918h1.3232v10.1918h-1.3232Z" fill="#fff"/><path d="M69.0249,35.629v-9.9806h6.0673v1.2809h-4.6877v3.0688h4.2514v1.2952h-4.2514v3.0547h4.6877v1.2811h-6.0673Z" fill="#fff"/><path d="M78.5978,32.1801l-2.4354-3.3222h1.6048l1.6612,2.379,1.6329-2.379h1.5626l-2.4072,3.3222c.4082.5491,2.0834,2.8999,2.4916,3.4489h-1.5907l-1.7456-2.4916-1.7174,2.4916h-1.5766l2.5197-3.4489Z" fill="#fff"/><path d="M89.7333,33.7005c-.38,1.1966-1.464,2.1398-3.0406,2.1398-1.816,0-3.4067-1.3233-3.4067-3.6179,0-2.1256,1.5343-3.5755,3.2377-3.5755,2.0834,0,3.2517,1.4358,3.2517,3.5474.0007.1413-.0087.2824-.0281.4224h-5.0958c.0281,1.2106.9009,2.0552,2.0412,2.0552,1.098,0,1.6471-.6053,1.9003-1.3654l1.1402.3941ZM88.396,31.5467c-.0281-.9714-.6616-1.7315-1.8581-1.7315-.9806-.0135-1.7958.752-1.8441,1.7315h3.7022Z" fill="#fff"/><path d="M92.2536,32.2365c0,1.5485.9714,2.379,2.0694,2.379,1.2669,0,1.7314-.8587,1.8863-1.3936l1.1683.5067c-.3238.9714-1.295,2.1116-3.0547,2.1116-1.9708,0-3.4208-1.5485-3.4208-3.6037,0-2.1116,1.4781-3.5896,3.4067-3.5896,1.8019,0,2.7309,1.1261,3.0126,2.1537l-1.1966.5068c-.1689-.6616-.6616-1.4359-1.816-1.4359-1.0699,0-2.0553.7882-2.0553,2.3649Z" fill="#fff"/><path d="M101.3199,35.8402c-1.5766,0-2.5339-1.1825-2.5339-2.7169v-4.2654h1.3233v4.0683c0,.9291.4224,1.7455,1.5343,1.7455,1.0699,0,1.6048-.7038,1.6048-1.7314v-4.0825h1.3233v5.5183c.0004.4186.0239.8368.0704,1.2528h-1.2669c-.0373-.2706-.0561-.5433-.0562-.8165-.3661.7039-1.2107,1.0276-1.999,1.0276Z" fill="#fff"/><path d="M108.5982,28.8579h1.464v1.1966h-1.464v3.5193c0,.6194.2534.9291.9432.9291.175-.0017.3495-.0205.5208-.0562v1.1261c-.2918.0894-.5958.1322-.9009.1267-1.1542,0-1.8862-.7039-1.8862-1.9286v-3.7163h-1.2952v-1.1966h.366c.732,0,1.0418-.4505,1.0418-1.0416v-1.098h1.2106v2.1396Z" fill="#fff"/><path d="M112.4698,25.3386c.5248-.0039.9534.4184.9573.9432s-.4184.9534-.9432.9573c-.5248.0039-.9534-.4184-.9573-.9432-.0044-.5243.417-.9529.9413-.9573.0006,0,.0013,0,.0019,0ZM111.8221,35.629v-6.7711h1.3093v6.7711h-1.3093Z" fill="#fff"/><path d="M118.4808,35.629h-1.3373l-2.745-6.7711h1.4921l1.9286,5.2227,1.9427-5.2227h1.4218l-2.7028,6.7711Z" fill="#fff"/><path d="M128.138,33.7005c-.38,1.1966-1.464,2.1398-3.0406,2.1398-1.816,0-3.4067-1.3233-3.4067-3.6179,0-2.1256,1.5343-3.5755,3.2377-3.5755,2.0834,0,3.2517,1.4358,3.2517,3.5474.0007.1413-.0087.2824-.0281.4224h-5.0958c.0281,1.2106.9009,2.0552,2.0412,2.0552,1.098,0,1.6469-.6053,1.9003-1.3654l1.1402.3941ZM126.8008,31.5467c-.0281-.9714-.6616-1.7315-1.8582-1.7315-.9806-.0134-1.7957.752-1.844,1.7315h3.7022Z" fill="#fff"/></svg>