<svg xmlns="http://www.w3.org/2000/svg" width="256" height="256" viewBox="0 0 256 256">
    <g fill="none" fill-rule="evenodd">
        <g fill="#FFF" fill-rule="nonzero">
            <path d="M176 124v-8c0-2.21-1.79-4-4-4H84c-2.21 0-4 1.79-4 4v8c0 2.21 1.79 4 4 4h88c2.21 0 4-1.79 4-4zM84 96h88c2.21 0 4-1.79 4-4v-8c0-2.21-1.79-4-4-4H84c-2.21 0-4 1.79-4 4v8c0 2.21 1.79 4 4 4zm163.295-13.74L224 63.495V48c0-8.835-7.165-16-16-16h-23.235l-5.1-4.07C168.615 19.095 149.72 0 128 0c-20.334 0-38.108 16.706-49.591 26.234L71.23 32H48c-8.835 0-16 7.165-16 16v15.49L8.76 82.205C3.926 86.18 0 94.482 0 100.74V232c0 13.255 10.745 24 24 24h208c13.255 0 24-10.745 24-24V100.755c0-7.155-3.19-13.94-8.705-18.495zM128.523 16c10.853 0 22.254 8.36 31.477 16H97.067c9.237-7.635 20.649-16 31.456-16zM48 48h160v86.674l-43.295 34.67c-8.425 6.715-25.095 22.84-36.705 22.654-11.605.19-28.28-15.94-36.705-22.66L48 134.668V48zm-32 52.791c0-1.897.682-3.703 1.904-5.121l1.016-.987c.62-.504 5.81-4.635 13.08-10.416V121.6l-16-12.74v-8.069zm224 131.181c0 4.426-3.59 8.028-8 8.028H24c-4.41 0-8-3.602-8-8.028v-102.9l65.34 52.592c10.245 8.208 28.37 26.355 46.66 26.22 18.225.13 36.135-17.791 46.655-26.22l19.17-15.356c14.61-11.745 31.922-25.722 46.175-37.241v102.905zm0-131.174v8.056L224 121.6V84.267l13.1 10.438c1.845 1.507 2.9 3.726 2.9 6.093z"/>
        </g>
    </g>
</svg>
