<?xml version="1.0" encoding="utf-8"?>
<!-- Generator: Adobe Illustrator 25.3.1, SVG Export Plug-In . SVG Version: 6.00 Build 0)  -->
<svg version="1.1" id="Layer_1" xmlns="http://www.w3.org/2000/svg" xmlns:xlink="http://www.w3.org/1999/xlink" x="0px" y="0px"
	 viewBox="0 0 52.3 46.8" enable-background="new 0 0 52.3 46.8" xml:space="preserve">
<g>
	<g>
		<g>
			<g>
				<path fill-rule="evenodd" clip-rule="evenodd" fill="#FFFFFF" d="M50.8,24.9l-7.2,18.9c-0.4,1-1.3,1.6-2.4,1.6H11.2
					c-1.1-0.1-2-0.7-2.4-1.6L1.6,24.9c-0.3-1-0.3-2.1,0-3.1L8.8,2.9c0.4-1,1.3-1.6,2.4-1.6h29.9c1,0,2,0.7,2.4,1.7l7.2,18.9
					C51.1,22.8,51.1,23.9,50.8,24.9z M52,21.4L44.7,2.5l0,0C44.1,1,42.7,0,41.1,0H11.2c-1.6,0-3,1-3.6,2.5l-7.2,19
					c-0.4,1.3-0.4,2.6,0,3.9l0,0l7.2,18.9c0.6,1.4,2,2.4,3.6,2.5l0,0h29.9c1.6,0,3-1,3.6-2.5l7.3-19l0,0C52.4,24,52.4,22.7,52,21.4
					l-0.6,0.2C51.4,21.6,52,21.4,52,21.4z"/>
				<g>
					<path fill="#FFFFFF" d="M23.6,35.2H28V24.5h3.6l0.6-4.2H28v-2.7c0-1.2,0.3-2,2.1-2h2.2V12c-0.4-0.1-1.7-0.2-3.3-0.2
						c-3.2,0-5.4,2-5.4,5.5v3.1H20v4.2h3.6V35.2z"/>
				</g>
			</g>
		</g>
	</g>
</g>
</svg>
