<svg xmlns="http://www.w3.org/2000/svg" width="256" height="256" viewBox="0 0 256 256">
    <g fill="none" fill-rule="evenodd">
        <g fill="#FFF" fill-rule="nonzero">
            <path d="M180.799 255.1c20.503-.97 38.664-5.655 53.628-20.678 14.535-14.54 19.37-32.097 20.576-51.888l.097-1.752c1.2-21.136 1.2-84.429 0-105.564-.97-20.508-5.653-38.673-20.673-53.64C219.89 7.04 202.337 2.204 182.55.998L180.799.9C159.668-.3 96.332-.3 75.201.9c-20.446.97-38.607 5.655-53.627 20.621C6.554 36.488 1.927 54.653.899 75.161-.3 96.297-.3 159.646.9 180.782c.971 20.508 5.655 38.673 20.675 53.64 15.02 14.966 33.124 19.65 53.627 20.678 21.13 1.2 84.467 1.2 105.598 0zm-52.8-22.254c-18.605 0-58.615 1.485-75.395-5.136-11.186-4.452-19.805-13.07-24.314-24.314-6.677-16.837-5.136-56.79-5.136-75.396s-1.485-58.616 5.136-75.396C32.742 41.418 41.36 32.8 52.604 28.29c16.837-6.677 56.79-5.136 75.396-5.136s58.616-1.485 75.396 5.136c11.186 4.452 19.805 13.07 24.314 24.314 6.677 16.837 5.136 56.79 5.136 75.396s1.541 58.616-5.136 75.396c-4.452 11.186-13.07 19.805-24.314 24.314-16.837 6.677-56.79 5.136-75.396 5.136zM196.5 75c8.56 0 15.5-6.882 15.5-15.5 0-8.56-6.94-15.5-15.5-15.5-8.56 0-15.5 6.94-15.5 15.5 0 8.56 6.882 15.5 15.5 15.5zm-68 118c36.256 0 65.5-29.244 65.5-65.5S164.756 62 128.5 62 63 91.244 63 127.5 92.244 193 128.5 193zm0-23c-23.384 0-42.5-19.06-42.5-42.5S105.06 85 128.5 85s42.5 19.06 42.5 42.5-19.116 42.5-42.5 42.5z"/>
        </g>
    </g>
</svg>
