<?xml version="1.0" encoding="utf-8"?>
<!-- Generator: Adobe Illustrator 25.3.1, SVG Export Plug-In . SVG Version: 6.00 Build 0)  -->
<svg version="1.1" id="Layer_1" xmlns="http://www.w3.org/2000/svg" xmlns:xlink="http://www.w3.org/1999/xlink" x="0px" y="0px"
	 viewBox="0 0 51 50" enable-background="new 0 0 51 50" xml:space="preserve">
<g>
	<g>
		<g>
			<g>
				<g>
					<path fill-rule="evenodd" clip-rule="evenodd" fill="#FFFFFF" d="M50.1,26.4l-7.2,18.9c-0.4,1-1.3,1.6-2.4,1.6H10.6
						c-1.1-0.1-2-0.7-2.4-1.6L0.9,26.4c-0.3-1-0.3-2.1,0-3.1L8.1,4.4c0.4-1,1.3-1.6,2.4-1.6h29.9c1,0,2,0.7,2.4,1.7l7.2,18.9
						C50.4,24.3,50.4,25.4,50.1,26.4z M51.3,22.9L44.1,4l0,0c-0.6-1.5-2-2.4-3.6-2.4H10.5c-1.6,0-3,1-3.6,2.5l-7.2,19
						c-0.4,1.3-0.4,2.6,0,3.9l0,0l7.2,18.9c0.6,1.4,2,2.4,3.6,2.5l0,0h29.9c1.6,0,3-1,3.6-2.5l7.3-19l0,0
						C51.8,25.5,51.8,24.2,51.3,22.9l-0.6,0.2C50.7,23.2,51.3,22.9,51.3,22.9z"/>
					<g>
						<path fill="#FFFFFF" d="M30.4,36.6c1.9-0.1,3.6-0.5,5-1.9c1.4-1.3,1.8-2.9,1.9-4.8l0-0.2c0.1-1.9,0.1-7.7,0-9.7
							c-0.1-1.9-0.5-3.5-1.9-4.9c-1.4-1.3-3-1.8-4.8-1.9l-0.2,0c-2-0.1-7.9-0.1-9.9,0c-1.9,0.1-3.6,0.5-5,1.9
							c-1.4,1.4-1.8,3-1.9,4.9c-0.1,1.9-0.1,7.7,0,9.7c0.1,1.9,0.5,3.5,1.9,4.9c1.4,1.4,3.1,1.8,5,1.9
							C22.5,36.7,28.5,36.7,30.4,36.6L30.4,36.6z M25.5,34.6c-1.7,0-5.5,0.1-7-0.5c-1-0.4-1.8-1.2-2.3-2.2c-0.6-1.5-0.5-5.2-0.5-6.9
							c0-1.7-0.1-5.4,0.5-6.9c0.4-1,1.2-1.8,2.3-2.2c1.6-0.6,5.3-0.5,7-0.5c1.7,0,5.5-0.1,7,0.5c1,0.4,1.8,1.2,2.3,2.2
							c0.6,1.5,0.5,5.2,0.5,6.9s0.1,5.4-0.5,6.9c-0.4,1-1.2,1.8-2.3,2.2C31,34.7,27.2,34.6,25.5,34.6L25.5,34.6z M31.9,20.1
							c0.8,0,1.4-0.6,1.4-1.4c0-0.8-0.6-1.4-1.4-1.4c-0.8,0-1.4,0.6-1.4,1.4C30.4,19.5,31.1,20.1,31.9,20.1z M25.5,31
							c3.4,0,6.1-2.7,6.1-6c0-3.3-2.7-6-6.1-6s-6.1,2.7-6.1,6C19.4,28.3,22.2,31,25.5,31z M25.5,28.8c-2.2,0-4-1.7-4-3.9
							s1.8-3.9,4-3.9s4,1.7,4,3.9S27.7,28.8,25.5,28.8L25.5,28.8z"/>
					</g>
				</g>
			</g>
		</g>
	</g>
</g>
</svg>
