<svg xmlns="http://www.w3.org/2000/svg" width="256" height="256" viewBox="0 0 256 256">
    <g fill="none" fill-rule="evenodd">
        <g fill="#FFF" fill-rule="nonzero">
            <path d="M228.02 212.618c11.013-2.962 19.688-11.33 22.632-22.416 4.973-18.68 5.323-56.224 5.348-61.419v-1.203c-.025-5.195-.375-42.738-5.348-61.418-2.944-11.086-11.619-19.818-22.633-22.78-18.367-4.954-87.594-5.35-98.553-5.382h-2.93c-10.96.032-80.186.428-98.553 5.382-11.015 2.963-19.69 11.694-22.634 22.78C.151 85.691.004 125.837 0 128.083v.197c.004 2.246.15 42.393 5.35 61.922 2.944 11.086 11.618 19.454 22.633 22.416 18.367 4.954 87.594 5.35 98.553 5.382h2.93c10.959-.032 80.186-.428 98.553-5.382zM102 166V90l67 38-67 38z"/>
        </g>
    </g>
</svg>
