<?xml version="1.0" encoding="utf-8"?>
<!-- Generator: Adobe Illustrator 25.3.1, SVG Export Plug-In . SVG Version: 6.00 Build 0)  -->
<svg version="1.1" id="Layer_1" xmlns="http://www.w3.org/2000/svg" xmlns:xlink="http://www.w3.org/1999/xlink" x="0px" y="0px"
	 viewBox="0 0 51 50" enable-background="new 0 0 51 50" xml:space="preserve">
<g>
	<g>
		<g>
			<g>
				<g>
					<path fill-rule="evenodd" clip-rule="evenodd" fill="#FFFFFF" d="M50.1,26.4l-7.2,18.9c-0.4,1-1.3,1.6-2.4,1.6H10.6
						c-1.1-0.1-2-0.7-2.4-1.6L0.9,26.4c-0.3-1-0.3-2.1,0-3.1L8.1,4.4c0.4-1,1.3-1.6,2.4-1.6h29.9c1,0,2,0.7,2.4,1.7l7.2,18.9
						C50.4,24.3,50.4,25.4,50.1,26.4z M51.3,22.9L44.1,4l0,0c-0.6-1.5-2-2.4-3.6-2.4H10.5c-1.6,0-3,1-3.6,2.5l-7.2,19
						c-0.4,1.3-0.4,2.6,0,3.9l0,0l7.2,18.9c0.6,1.4,2,2.4,3.6,2.5l0,0h29.9c1.6,0,3-1,3.6-2.5l7.3-19l0,0
						C51.8,25.5,51.8,24.2,51.3,22.9l-0.6,0.2C50.7,23.2,51.3,22.9,51.3,22.9z"/>
					<g>
						<path fill="#FFFFFF" d="M34.8,32.7c1-0.3,1.8-1,2.1-2.1c0.5-1.7,0.5-5.1,0.5-5.6V25c0-0.5,0-3.9-0.5-5.6
							c-0.3-1-1.1-1.8-2.1-2.1c-1.7-0.5-8.2-0.5-9.2-0.5h-0.3c-1,0-7.5,0-9.2,0.5c-1,0.3-1.8,1.1-2.1,2.1c-0.5,1.8-0.5,5.5-0.5,5.7
							v0c0,0.2,0,3.9,0.5,5.7c0.3,1,1.1,1.8,2.1,2.1c1.7,0.5,8.2,0.5,9.2,0.5h0.3C26.7,33.2,33.1,33.2,34.8,32.7z M23.1,28.5v-7
							l6.3,3.5L23.1,28.5z"/>
					</g>
				</g>
			</g>
		</g>
	</g>
</g>
</svg>
