<?xml version="1.0" encoding="UTF-8"?><!DOCTYPE svg PUBLIC "-//W3C//DTD SVG 1.1//EN" "http://www.w3.org/Graphics/SVG/1.1/DTD/svg11.dtd"><svg xmlns="http://www.w3.org/2000/svg" xmlns:xlink="http://www.w3.org/1999/xlink"><symbol id="wmcads-general-icon-action-download" viewBox="0 0 256 256"><path d="M217.973 112.783c2.703-2.693 2.703-7.047 0-9.682l-4.081-4.068a6.924 6.924 0 00-9.774 0l-66.345 66.397L138 27.875c0-3.781-3.105-6.875-6.899-6.875h-5.749c-3.794 0-6.899 3.094-6.899 6.875l-.226 137.555-66.345-66.454a6.924 6.924 0 00-9.774 0l-4.081 4.068a6.862 6.862 0 000 9.739l85.086 85.072a6.922 6.922 0 009.774 0l85.086-85.072zM238 229.125c0 3.712-3.094 6.75-6.875 6.75H24.875c-3.781 0-6.875-3.038-6.875-6.75v-4.5c0-3.713 3.094-6.75 6.875-6.75h206.25c3.781 0 6.875 3.037 6.875 6.75v4.5z" fill-rule="nonzero"/></symbol><symbol id="wmcads-general-icon-action-expand" viewBox="0 0 256 256"><path d="M245.333 106.667h-96v-96C149.333 4.773 144.56 0 138.667 0h-21.334c-5.893 0-10.666 4.773-10.666 10.667v96h-96C4.773 106.667 0 111.44 0 117.333v21.334c0 5.893 4.773 10.666 10.667 10.666h96v96c0 5.894 4.773 10.667 10.666 10.667h21.334c5.893 0 10.666-4.773 10.666-10.667v-96h96c5.894 0 10.667-4.773 10.667-10.666v-21.334c0-5.893-4.773-10.666-10.667-10.666z" fill-rule="nonzero"/></symbol><symbol id="wmcads-general-icon-action-favourite" viewBox="0 0 256 256"><path d="M128.305 64.402l14.477-14.107c23.884-23.274 62.04-23.027 85.62.554.161.16.321.322.48.485 22.957 23.49 22.525 61.141-.964 84.098l-86.249 85.273c-6.154 6.085-16.03 6.173-22.292.2l-90.175-86.002c-23.48-22.393-24.36-59.58-1.967-83.059.32-.336.644-.667.972-.995 23.581-23.581 61.736-23.828 85.62-.554l14.478 14.107z" fill-rule="evenodd"/></symbol><symbol id="wmcads-general-icon-action-filter" viewBox="0 0 256 256"><path d="M243.988 0H12.014C1.354 0-4.024 12.933 3.529 20.485l92.47 92.485V216c0 3.915 1.911 7.585 5.12 9.83l40 27.99c7.89 5.525 18.88-.074 18.88-9.83V112.97l92.474-92.485C260.01 12.948 254.67 0 243.988 0z" fill-rule="nonzero"/></symbol><symbol id="wmcads-general-icon-action-minimise" viewBox="0 0 256 256"><path d="M245.333 106.667H10.667C4.773 106.667 0 111.44 0 117.333v21.334c0 5.893 4.773 10.666 10.667 10.666h234.666c5.894 0 10.667-4.773 10.667-10.666v-21.334c0-5.893-4.773-10.666-10.667-10.666z" fill-rule="nonzero"/></symbol><symbol id="wmcads-general-icon-action-search" viewBox="0 0 233 234"><path d="M99.874 0c55.16 0 99.874 44.742 99.874 99.934 0 21.939-7.065 42.226-19.043 58.709l47.528 47.557c6.357 6.36 6.357 16.67 0 23.03-6.352 6.356-16.654 6.36-23.01.007l-.006-.007-47.67-47.698c-16.29 11.548-36.19 18.336-57.673 18.336C44.715 199.868 0 155.126 0 99.934S44.715 0 99.874 0zm0 31.979c-37.508 0-67.914 30.424-67.914 67.955 0 37.53 30.406 67.955 67.914 67.955s67.915-30.425 67.915-67.955-30.407-67.955-67.915-67.955z" fill-rule="nonzero"/></symbol><symbol id="wmcads-general-icon-action-swap" viewBox="0 0 256 256"><path d="M113.946 197.714H91.07v-183C91.071 9.902 87.347 6 82.753 6h-8.318c-4.594 0-8.318 3.902-8.318 8.714v183H43.242c-2.492-.001-4.745 1.55-5.732 3.948-.986 2.396-.517 5.178 1.193 7.076l35.352 39.214c1.179 1.306 2.818 2.046 4.534 2.046 1.715 0 3.355-.74 4.533-2.046l35.352-39.214c1.71-1.896 2.18-4.676 1.195-7.071-.984-2.396-3.233-3.95-5.723-3.953zm104.35-150.452l-35.35-39.214c-1.18-1.306-2.819-2.046-4.536-2.046-1.715 0-3.355.74-4.533 2.046l-35.352 39.214c-1.71 1.897-2.18 4.678-1.194 7.074.985 2.396 3.237 3.949 5.727 3.95h22.875v183c0 4.812 3.724 8.714 8.318 8.714h8.318c4.594 0 8.318-3.902 8.318-8.714v-183h22.875c2.49-.001 4.742-1.554 5.728-3.95.985-2.396.516-5.177-1.194-7.074z" fill-rule="nonzero"/></symbol><symbol id="wmcads-general-icon-action-trash" viewBox="0 0 256 256"><path d="M211.571 38h-48.214l-3.777-7.597c-1.632-3.313-4.978-5.406-8.638-5.403h-45.924c-3.654-.014-6.993 2.085-8.598 5.403L92.643 38H44.429C40.879 38 38 40.91 38 44.5v13c0 3.59 2.878 6.5 6.429 6.5H211.57c3.55 0 6.429-2.91 6.429-6.5v-13c0-3.59-2.878-6.5-6.429-6.5zM59.502 212.953C60.137 223.097 68.55 231 78.712 231h98.576c10.163 0 18.575-7.903 19.21-18.047L205 77H51l8.502 135.953z" fill-rule="nonzero"/></symbol><symbol id="wmcads-general-icon-arrow" viewBox="0 0 256 256"><path d="M125.258 8.921c2.665-2.561 6.986-2.561 9.651 0l119.092 114.442c2.665 2.561 2.665 6.714 0 9.274L134.91 247.08c-2.665 2.561-6.986 2.561-9.65 0L114 236.26c-2.665-2.56-2.665-6.713 0-9.274L201.187 143H5a5 5 0 01-5-5v-20a5 5 0 015-5h196.189l-87.19-83.985c-2.603-2.502-2.664-6.522-.182-9.093l.182-.182z" fill-rule="nonzero"/></symbol><symbol id="wmcads-general-icon-cancel" viewBox="0 0 256 256"><path d="M40.707 19.494l86.973 86.973 86.975-86.973a5 5 0 016.89-.172l.181.172 14.143 14.142a5.001 5.001 0 010 7.071l-86.975 86.973 86.975 86.975a5.001 5.001 0 010 7.071l-14.143 14.143a5 5 0 01-7.07 0l-86.976-86.975-86.973 86.975a5.001 5.001 0 01-6.89.172l-.181-.172-14.142-14.143a4.998 4.998 0 010-7.07l86.973-86.976-86.973-86.973a5 5 0 010-7.071l14.142-14.142a5 5 0 017.071 0z" fill-rule="nonzero"/></symbol><symbol id="wmcads-general-icon-caret-down" viewBox="0 0 256 256"><path d="M40.525 71h173.95c12.034 0 18.051 14.533 9.533 23.05l-86.942 86.996c-5.273 5.272-13.859 5.272-19.132 0L30.992 94.05C22.474 85.533 28.491 71 40.525 71z" fill-rule="nonzero"/></symbol><symbol id="wmcads-general-icon-caret-left" viewBox="0 0 256 256"><path d="M185.5 41.025v173.95c0 12.034-14.533 18.051-23.05 9.533l-86.996-86.942c-5.272-5.273-5.272-13.859 0-19.132l86.996-86.942c8.517-8.518 23.05-2.501 23.05 9.533z" fill-rule="nonzero"/></symbol><symbol id="wmcads-general-icon-caret-right" viewBox="0 0 256 256"><path d="M71.5 214.975V41.025c0-12.034 14.533-18.051 23.05-9.533l86.996 86.942c5.272 5.273 5.272 13.859 0 19.132L94.55 224.508c-8.517 8.518-23.05 2.501-23.05-9.533z" fill-rule="nonzero"/></symbol><symbol id="wmcads-general-icon-caret-up" viewBox="0 0 256 256"><path d="M214.475 185H40.525c-12.034 0-18.051-14.533-9.533-23.05l86.942-86.996c5.273-5.272 13.859-5.272 19.132 0l86.942 86.996c8.518 8.517 2.501 23.05-9.533 23.05z" fill-rule="nonzero"/></symbol><symbol id="wmcads-general-icon-chat" viewBox="0 0 256 256"><path d="M245.753 227.097c4.088 0 7.775-2.444 9.42-6.22 1.6-3.777.844-8.131-1.955-11.108-.223-.178-10.042-10.752-16.84-24.393 12.219-12.041 19.55-27.148 19.55-43.632 0-35.545-33.99-64.914-78.288-70.157C163.688 45.995 130.764 28 92.42 28 41.368 28 .003 59.813.003 99.09c0 16.44 7.331 31.547 19.55 43.632-6.798 13.64-16.573 24.215-16.751 24.393-2.8 2.977-3.599 7.33-1.955 11.107 1.6 3.777 5.332 6.22 9.42 6.22 23.77 0 42.965-8.974 55.628-17.239a111.38 111.38 0 0012.44 2.133c13.996 25.548 46.876 43.543 85.22 43.543 9.242 0 18.128-1.066 26.57-3.021 12.663 8.22 31.813 17.239 55.628 17.239zm-226.6-57.405c3.91-5.021 8.975-12.263 13.107-20.616l4.621-9.242-7.331-7.242c-7.02-6.887-15.329-18.306-15.329-33.502 0-31.368 35.1-56.872 78.2-56.872 43.098 0 78.198 25.504 78.198 56.872 0 31.369-35.1 56.872-78.199 56.872-7.864 0-15.729-.888-23.37-2.665l-5.866-1.333-5.065 3.288c-8.93 5.82-22.438 12.529-38.966 14.44zm217.58 42.61c-16.484-1.867-29.99-8.62-38.921-14.396l-5.066-3.288-5.865 1.377a103.324 103.324 0 01-23.37 2.666c-28.925 0-54.207-11.508-67.714-28.57 49.452-1.421 89.04-32.612 89.04-71 0-4.222-.577-8.31-1.466-12.308 33.501 6.442 58.339 28.614 58.339 54.961 0 15.196-8.309 26.615-15.33 33.502l-7.33 7.242 4.576 9.197c4.177 8.398 9.242 15.64 13.107 20.616z" fill-rule="nonzero"/></symbol><symbol id="wmcads-general-icon-checkmark" viewBox="0 0 256 256"><path d="M92.722 206.779l-71.5-71.475c-4.296-4.294-4.296-11.257 0-15.551l15.556-15.551c4.295-4.295 11.26-4.295 15.556 0L100.5 152.35 203.666 49.22c4.295-4.294 11.26-4.294 15.556 0l15.556 15.552c4.296 4.294 4.296 11.256 0 15.55l-126.5 126.457c-4.296 4.295-11.26 4.295-15.556 0z" fill-rule="nonzero"/></symbol><symbol id="wmcads-general-icon-chevron-down" viewBox="0 0 256 256"><path d="M8.921 69.258l10.82-11.26c2.56-2.664 6.712-2.664 9.274 0L128 160.762l98.985-102.763c2.56-2.665 6.713-2.665 9.274 0l10.82 11.26c2.561 2.664 2.561 6.985 0 9.65L132.637 198.001c-2.56 2.665-6.713 2.665-9.274 0L8.921 78.91c-2.561-2.665-2.561-6.986 0-9.65z" fill-rule="nonzero"/></symbol><symbol id="wmcads-general-icon-chevron-left" viewBox="0 0 256 256"><path d="M186.742 8.921l11.26 10.82c2.664 2.56 2.664 6.712 0 9.274L95.238 128l102.763 98.985c2.665 2.56 2.665 6.713 0 9.274l-11.26 10.82c-2.664 2.561-6.985 2.561-9.65 0L57.999 132.637c-2.665-2.56-2.665-6.713 0-9.274L177.09 8.921c2.665-2.561 6.986-2.561 9.65 0z" fill-rule="nonzero"/></symbol><symbol id="wmcads-general-icon-chevron-right" viewBox="0 0 256 256"><path d="M69.258 8.921l-11.26 10.82c-2.664 2.56-2.664 6.712 0 9.274L160.762 128 57.999 226.985c-2.665 2.56-2.665 6.713 0 9.274l11.26 10.82c2.664 2.561 6.985 2.561 9.65 0l119.092-114.442c2.665-2.56 2.665-6.713 0-9.274L78.91 8.921c-2.665-2.561-6.986-2.561-9.65 0z" fill-rule="nonzero"/></symbol><symbol id="wmcads-general-icon-chevron-up" viewBox="0 0 256 256"><path d="M8.921 186.742l10.82 11.26c2.56 2.664 6.712 2.664 9.274 0L128 95.238l98.985 102.763c2.56 2.665 6.713 2.665 9.274 0l10.82-11.26c2.561-2.664 2.561-6.985 0-9.65L132.637 57.999c-2.56-2.665-6.713-2.665-9.274 0L8.921 177.09c-2.561 2.665-2.561 6.986 0 9.65z" fill-rule="nonzero"/></symbol><symbol id="wmcads-general-icon-container" viewBox="0 0 256 256"><g fill-rule="evenodd"><path d="M251.542 135.404L215.2 232.32c-1.96 4.959-6.708 8.256-12.142 8.389H53.093c-5.454-.302-10.25-3.588-12.17-8.443L4.587 135.364c-1.73-5.222-1.723-10.708.01-15.757l36.186-96.932c1.958-4.954 6.706-8.251 12.14-8.384h150.05c5.182.132 9.94 3.424 12.087 8.454l36.339 96.905c1.7 4.982 1.742 10.464.144 15.754zm6.038-18.022L221.2 20.368l-.05-.123c-3.13-7.428-10.202-12.34-18.096-12.537H52.842c-8.152.197-15.252 5.128-18.207 12.606l-36.238 97.073c-2.241 6.526-2.241 13.516-.038 20.117l.04.114 36.38 97.014c2.921 7.394 10.057 12.256 18.063 12.656l.165.004h150.13c8.152-.197 15.252-5.128 18.206-12.606l36.402-97.068.065-.193c2.032-6.641 1.984-13.595-.199-19.955l-3.114 1.068 3.083-1.156z"/><path d="M111.463 164.928l-33.515-33.504a5.153 5.153 0 010-7.29l7.292-7.29a5.157 5.157 0 017.292 0l22.577 22.57 48.36-48.342a5.156 5.156 0 017.291 0l7.292 7.29a5.153 5.153 0 010 7.29l-59.297 59.275a5.157 5.157 0 01-7.292 0z"/></g></symbol><symbol id="wmcads-general-icon-external-link" viewBox="0 0 256 256"><path d="M228.571 0H27.43C12.28 0 0 12.28 0 27.429V228.57C0 243.72 12.28 256 27.429 256H228.57c15.15 0 27.43-12.28 27.43-27.429V27.43C256 12.28 243.72 0 228.571 0zm8.64 228.061c0 5.045-4.105 9.15-9.15 9.15H26.765c-5.046 0-9.15-4.105-9.15-9.15V26.765c0-5.046 4.104-9.15 9.15-9.15H228.06c5.045 0 9.15 4.104 9.15 9.15V228.06zM57.208 195.55a6.881 6.881 0 010-9.731l111.898-111.9-.405-.405-51.582.196a6.88 6.88 0 01-6.88-6.881v-5.733a6.88 6.88 0 016.88-6.881l77.982-.197c3.8 0 6.88 3.08 6.88 6.881l-.196 77.982c0 3.8-3.08 6.88-6.88 6.88h-5.734a6.88 6.88 0 01-6.88-6.88l.195-51.582-.405-.405L70.182 198.792a6.88 6.88 0 01-9.73 0l-3.244-3.243z" fill-rule="nonzero"/></symbol><symbol id="wmcads-general-icon-file" viewBox="0 0 256 256"><path d="M144 68V0H44c-6.65 0-12 5.35-12 12v232c0 6.65 5.35 12 12 12h168c6.65 0 12-5.35 12-12V80h-68c-6.6 0-12-5.4-12-12zm80-6v3.103h-64V0h3.05c3.2 0 6.25 1.272 8.5 3.56l48.95 49.845a12.277 12.277 0 013.5 8.596z" fill-rule="nonzero"/></symbol><symbol id="wmcads-general-icon-hamburger" viewBox="0 0 256 256"><path d="M243.5 191c6.904 0 12.5 5.596 12.5 12.5s-5.596 12.5-12.5 12.5h-231C5.596 216 0 210.404 0 203.5S5.596 191 12.5 191h231zm0-75c6.904 0 12.5 5.596 12.5 12.5s-5.596 12.5-12.5 12.5h-231C5.596 141 0 135.404 0 128.5S5.596 116 12.5 116h231zm0-75c6.904 0 12.5 5.596 12.5 12.5S250.404 66 243.5 66h-231C5.596 66 0 60.404 0 53.5S5.596 41 12.5 41h231z" fill-rule="nonzero"/></symbol><symbol id="wmcads-general-icon-hollow-circle" viewBox="0 0 256 256"><path d="M128 0C57.29 0 0 57.29 0 128c0 70.71 57.29 128 128 128 70.71 0 128-57.29 128-128C256 57.29 198.71 0 128 0zm0 231c-56.907 0-103-46.093-103-103S71.093 25 128 25s103 46.093 103 103-46.093 103-103 103z" fill-rule="nonzero"/></symbol><symbol id="wmcads-general-icon-home" viewBox="0 0 576 512"><path d="M541 229.16l-232.85-190a32.16 32.16 0 00-40.38 0L35 229.16a8 8 0 00-1.16 11.24l10.1 12.41a8 8 0 0011.2 1.19L96 220.62v243a16 16 0 0016 16h128a16 16 0 0016-16v-128l64 .3V464a16 16 0 0016 16l128-.33a16 16 0 0016-16V220.62L520.86 254a8 8 0 0011.25-1.16l10.1-12.41a8 8 0 00-1.21-11.27zm-93.11 218.59h.1l-96 .3V319.88a16.05 16.05 0 00-15.95-16l-96-.27a16 16 0 00-16.05 16v128.14H128V194.51L288 63.94l160 130.57z"/></symbol><symbol id="wmcads-general-icon-id-card" viewBox="0 0 256 256"><path d="M221.333 41H34.667C24.36 41 16 49.35 16 59.643v136.714C16 206.65 24.361 215 34.667 215h186.666C231.64 215 240 206.65 240 196.357V59.643C240 49.35 231.639 41 221.333 41zM84.444 78.286c13.728 0 24.89 11.147 24.89 24.857C109.333 116.853 98.171 128 84.443 128c-13.727 0-24.888-11.147-24.888-24.857 0-13.71 11.16-24.857 24.888-24.857zM128 170.257c0 4.117-3.889 7.457-8.711 7.457H49.6c-4.822 0-8.711-3.34-8.711-7.457V162.8c0-12.35 11.705-22.371 26.133-22.371h1.945c4.783 1.98 9.994 3.107 15.477 3.107a40.188 40.188 0 0015.478-3.107h1.945c14.427 0 26.133 10.02 26.133 22.371v7.457zm87.111-20.507c0 1.709-1.4 3.107-3.111 3.107h-56a3.118 3.118 0 01-3.111-3.107v-6.214c0-1.71 1.4-3.107 3.111-3.107h56a3.118 3.118 0 013.111 3.107v6.214zm0-24.857c0 1.709-1.4 3.107-3.111 3.107h-56a3.118 3.118 0 01-3.111-3.107v-6.214c0-1.71 1.4-3.108 3.111-3.108h56a3.119 3.119 0 013.111 3.108v6.214zm0-24.857c0 1.709-1.4 3.107-3.111 3.107h-56a3.118 3.118 0 01-3.111-3.107V93.82c0-1.709 1.4-3.107 3.111-3.107h56a3.118 3.118 0 013.111 3.107v6.215z" fill-rule="nonzero"/></symbol><symbol id="wmcads-general-icon-info" viewBox="0 0 256 256"><path d="M128 0C57.313 0 0 57.333 0 128c0 70.708 57.313 128 128 128s128-57.292 128-128C256 57.333 198.687 0 128 0zm0 56.774c11.972 0 21.677 9.705 21.677 21.678 0 11.972-9.705 21.677-21.677 21.677s-21.677-9.705-21.677-21.677c0-11.973 9.705-21.678 21.677-21.678zm28.903 131.097a6.194 6.194 0 01-6.193 6.194h-45.42a6.194 6.194 0 01-6.193-6.194v-12.387a6.194 6.194 0 016.193-6.194h6.194v-33.032h-6.194a6.193 6.193 0 01-6.193-6.193v-12.388a6.193 6.193 0 016.193-6.193h33.033a6.193 6.193 0 016.193 6.193v51.613h6.194a6.194 6.194 0 016.193 6.194v12.387z" fill-rule="nonzero"/></symbol><symbol id="wmcads-general-icon-list" viewBox="0 0 256 256"><path d="M33.574 64.967a8.396 8.396 0 008.393-8.393v-25.18A8.396 8.396 0 0033.574 23H8.394A8.396 8.396 0 000 31.393v25.18a8.396 8.396 0 008.393 8.394h25.18zm218.23-12.59A4.198 4.198 0 00256 48.18v-8.393a4.198 4.198 0 00-4.197-4.197H75.541a4.198 4.198 0 00-4.197 4.197v8.393a4.198 4.198 0 004.197 4.197h176.262zm-218.23 96.525a8.396 8.396 0 008.393-8.394v-25.18c0-4.633-3.76-8.394-8.393-8.394H8.394A8.396 8.396 0 000 115.328v25.18c0 4.633 3.76 8.394 8.393 8.394h25.18zm218.23-12.59a4.198 4.198 0 004.196-4.197v-8.394a4.198 4.198 0 00-4.197-4.196H75.541a4.198 4.198 0 00-4.197 4.196v8.394a4.198 4.198 0 004.197 4.196h176.262zm-218.23 96.524a8.396 8.396 0 008.393-8.393v-25.18a8.396 8.396 0 00-8.393-8.394H8.394A8.396 8.396 0 000 199.262v25.18a8.396 8.396 0 008.393 8.394h25.18zm218.23-12.59a4.198 4.198 0 004.196-4.197v-8.393a4.198 4.198 0 00-4.197-4.197H75.541a4.198 4.198 0 00-4.197 4.197v8.393a4.198 4.198 0 004.197 4.197h176.262z" fill-rule="nonzero"/></symbol><symbol id="wmcads-general-icon-map" viewBox="0 0 256 256"><path d="M170.78 227.111c2.489 0 6.43-.625 8.798-1.395l67.48-23.472c4.936-1.973 8.942-7.888 8.942-13.204V35.12c0-4.084-3.347-7.12-7.102-7.12-.872 0-1.77.164-2.65.516l-75.577 27.928h-.004L94.222 29.458C91.805 28.654 87.774 28 85.227 28c-2.974 0-5.943.467-8.805 1.395L8.942 52.867C4.007 54.84 0 60.757 0 66.07v153.92c0 4.085 3.347 7.12 7.107 7.12.87 0 1.764-.164 2.649-.516l75.577-27.928 76.445 26.982c2.419.807 6.451 1.462 9.001 1.462zM14.181 209.8l-.569-143.498 64.61-22.475v142.306L14.182 209.8zm149.374 1.396l-71.112-25.103V43.911l71.112 25.102v142.183zm14.222.088V68.978l64.04-23.671.569 143.497-64.61 22.48z" fill-rule="nonzero"/></symbol><symbol id="wmcads-general-icon-paperclip" viewBox="0 0 256 256"><path d="M74.484 256c16.56 0 33.12-6.295 45.726-18.886l109.013-108.868a5.996 5.996 0 000-8.486l-2.834-2.83a6.013 6.013 0 00-8.497 0L108.88 225.799c-18.965 18.94-49.825 18.94-68.791 0-18.966-18.942-18.966-49.76 0-68.7L171.294 26.063c13.443-13.424 35.316-13.425 48.76 0 13.444 13.427 13.444 35.272 0 48.697l-111.46 111.313c-7.92 7.91-20.809 7.91-28.729 0-7.921-7.91-7.921-20.782-.001-28.693l85.261-85.148a5.995 5.995 0 000-8.485l-2.834-2.83a6.011 6.011 0 00-8.496 0l-85.262 85.148c-14.168 14.15-14.168 37.174 0 51.325 14.17 14.151 37.226 14.15 51.392 0l111.46-111.313c19.692-19.665 19.692-51.663 0-71.329-19.691-19.665-51.731-19.665-71.423 0L28.757 145.782c-25.214 25.18-25.214 66.152 0 91.332C41.364 249.705 57.924 256 74.484 256z" fill-rule="nonzero"/></symbol><symbol id="wmcads-general-icon-solid-circle" viewBox="0 0 256 256"><path d="M0 128c0 70.708 57.313 128 128 128s128-57.292 128-128C256 57.333 198.687 0 128 0S0 57.333 0 128z" fill-rule="nonzero"/></symbol><symbol id="wmcads-general-icon-success" viewBox="0 0 256 256"><path d="M256 128c0 70.693-57.307 128-128 128S0 198.693 0 128 57.307 0 128 0s128 57.307 128 128zm-142.291 67.585l94.875-94.843a8.246 8.246 0 000-11.663l-11.667-11.663a8.252 8.252 0 00-11.668 0l-77.374 77.347-36.124-36.112a8.254 8.254 0 00-11.668 0l-11.667 11.663a8.246 8.246 0 000 11.663l53.625 53.607a8.252 8.252 0 0011.668 0z" fill-rule="nonzero"/></symbol><symbol id="wmcads-general-icon-toolkit" viewBox="0 0 256 256"><path d="M206.06 256c4.1 0 8.198-1.55 11.298-4.699l33.943-33.943c6.199-6.299 6.199-16.397-.05-22.646l-62.188-62.238c-7.798-7.798-18.046-11.698-28.294-11.698-7.699 0-15.397 2.2-22.046 6.65L95.981 84.683V47.99L31.994 0 0 31.994 47.99 95.98h36.694l42.742 42.742c-10.299 15.547-8.599 36.643 5.098 50.34l62.238 62.238a15.98 15.98 0 0011.298 4.699zm13.248-115.877c5.198-3.1 10.098-6.799 14.497-11.248 18.896-18.896 26.345-45.691 19.846-71.636-1.15-4.75-4.85-8.498-9.548-9.798-4.75-1.3-9.849 0-13.348 3.5l-31.943 31.943-22.096-3.7-3.7-22.095 31.944-31.944c3.45-3.449 4.8-8.548 3.5-13.247-1.3-4.75-5.1-8.399-9.849-9.599-25.845-6.448-52.64.95-71.586 19.847-6.448 6.449-11.447 13.947-15.047 21.995v33.894l11.048 11.048c-4.799-20.196.8-41.092 15.347-55.64 11.348-11.347 26.295-17.446 41.892-17.446 3.45 0 6.899.3 10.348.9L155.97 51.59l6.898 41.492 41.543 6.899 34.643-34.644c3.35 19.097-2.65 38.393-16.547 52.24-4.45 4.45-9.548 7.999-14.997 10.748l11.798 11.798zM79.985 79.984H55.989l-34.843-46.49 12.348-12.348 46.49 34.843v23.995zM37.943 255.95c10.148 0 19.696-3.95 26.844-11.148l50.89-50.84c-3.349-4.599-5.898-9.648-7.748-14.897l-54.44 54.44c-8.297 8.298-22.795 8.298-31.093 0-8.548-8.549-8.548-22.546 0-31.094l73.036-73.036-11.298-11.298-73.036 73.036c-14.797 14.797-14.797 38.892 0 53.74C18.247 252 27.795 255.95 37.943 255.95zm168.067-15.997l-62.188-62.238c-4.55-4.548-7.049-10.547-7.049-16.946 0-6.4 2.5-12.448 7.05-16.947 4.548-4.55 10.547-7.049 16.946-7.049 6.399 0 12.447 2.5 16.947 7.05l62.237 62.187-33.943 33.943zM39.992 223.956c4.4 0 7.999-3.599 7.999-7.998 0-4.4-3.6-7.998-7.999-7.998-4.399 0-7.998 3.599-7.998 7.998s3.6 7.998 7.998 7.998z" fill-rule="nonzero"/></symbol><symbol id="wmcads-general-icon-warning-circle" viewBox="0 0 256 256"><path d="M0 128c0 70.708 57.313 128 128 128s128-57.292 128-128C256 57.333 198.687 0 128 0S0 57.333 0 128zm128 25.806c13.112 0 23.742 10.63 23.742 23.742 0 13.113-10.63 23.742-23.742 23.742s-23.742-10.63-23.742-23.742 10.63-23.742 23.742-23.742zm22.54-85.34l-3.828 70.194a6.193 6.193 0 01-6.184 5.856h-25.056a6.192 6.192 0 01-6.184-5.856l-3.829-70.193a6.195 6.195 0 016.184-6.532h32.714a6.195 6.195 0 016.184 6.532z" fill-rule="nonzero"/></symbol><symbol id="wmcads-general-icon-warning-triangle" viewBox="0 0 256 256"><path d="M252.13 207.787c8.171 13.872-2.086 31.213-18.407 31.213H21.274c-16.352 0-26.562-17.368-18.406-31.213L109.094 27.4c8.175-13.88 28.652-13.854 36.813 0L252.13 207.787zM127.5 170.492c-11.247 0-20.364 8.93-20.364 19.946 0 11.015 9.117 19.945 20.364 19.945s20.365-8.93 20.365-19.946c0-11.015-9.118-19.945-20.365-19.945zM108.166 98.8l3.284 58.969c.153 2.76 2.483 4.92 5.304 4.92h21.492c2.821 0 5.15-2.16 5.304-4.92l3.284-58.969c.167-2.98-2.256-5.486-5.304-5.486h-28.06c-3.048 0-5.47 2.506-5.304 5.486z" fill-rule="nonzero"/></symbol><symbol id="wmcads-social-icon-email" viewBox="0 0 256 256"><path d="M176 124v-8c0-2.21-1.79-4-4-4H84c-2.21 0-4 1.79-4 4v8c0 2.21 1.79 4 4 4h88c2.21 0 4-1.79 4-4zM84 96h88c2.21 0 4-1.79 4-4v-8c0-2.21-1.79-4-4-4H84c-2.21 0-4 1.79-4 4v8c0 2.21 1.79 4 4 4zm163.295-13.74L224 63.495V48c0-8.835-7.165-16-16-16h-23.235l-5.1-4.07C168.615 19.095 149.72 0 128 0c-20.334 0-38.108 16.706-49.591 26.234L71.23 32H48c-8.835 0-16 7.165-16 16v15.49L8.76 82.205C3.926 86.18 0 94.482 0 100.74V232c0 13.255 10.745 24 24 24h208c13.255 0 24-10.745 24-24V100.755c0-7.155-3.19-13.94-8.705-18.495zM128.523 16c10.853 0 22.254 8.36 31.477 16H97.067c9.237-7.635 20.649-16 31.456-16zM48 48h160v86.674l-43.295 34.67c-8.425 6.715-25.095 22.84-36.705 22.654-11.605.19-28.28-15.94-36.705-22.66L48 134.668V48zm-32 52.791c0-1.897.682-3.703 1.904-5.121l1.016-.987c.62-.504 5.81-4.635 13.08-10.416V121.6l-16-12.74v-8.069zm224 131.181c0 4.426-3.59 8.028-8 8.028H24c-4.41 0-8-3.602-8-8.028v-102.9l65.34 52.592c10.245 8.208 28.37 26.355 46.66 26.22 18.225.13 36.135-17.791 46.655-26.22l19.17-15.356A24333.896 24333.896 0 00240 129.067v102.905zm0-131.174v8.056L224 121.6V84.267l13.1 10.438a7.838 7.838 0 012.9 6.093z" fill-rule="nonzero"/></symbol><symbol id="wmcads-social-icon-facebook" viewBox="0 0 256 256"><path d="M100.752 256.35h46.881V139.531h38.902l5.985-45.392h-44.887V65.1c0-13.35 3.658-22.362 22.277-22.362h23.94V2.353C189.86 1.685 175.563.35 158.938.35c-34.58 0-58.186 21.361-58.186 60.078v33.71H61.85v45.393h38.902V256.35z" fill-rule="nonzero"/></symbol><symbol id="wmcads-social-icon-instagram" viewBox="0 0 256 256"><path d="M180.799 255.1c20.503-.97 38.664-5.655 53.628-20.678 14.535-14.54 19.37-32.097 20.576-51.888l.097-1.752c1.2-21.136 1.2-84.429 0-105.564-.97-20.508-5.653-38.673-20.673-53.64C219.89 7.04 202.337 2.204 182.55.998L180.799.9C159.668-.3 96.332-.3 75.201.9c-20.446.97-38.607 5.655-53.627 20.621C6.554 36.488 1.927 54.653.899 75.161-.3 96.297-.3 159.646.9 180.782c.971 20.508 5.655 38.673 20.675 53.64 15.02 14.966 33.124 19.65 53.627 20.678 21.13 1.2 84.467 1.2 105.598 0zm-52.8-22.254c-18.605 0-58.615 1.485-75.395-5.136-11.186-4.452-19.805-13.07-24.314-24.314-6.677-16.837-5.136-56.79-5.136-75.396s-1.485-58.616 5.136-75.396C32.742 41.418 41.36 32.8 52.604 28.29c16.837-6.677 56.79-5.136 75.396-5.136s58.616-1.485 75.396 5.136c11.186 4.452 19.805 13.07 24.314 24.314 6.677 16.837 5.136 56.79 5.136 75.396s1.541 58.616-5.136 75.396c-4.452 11.186-13.07 19.805-24.314 24.314-16.837 6.677-56.79 5.136-75.396 5.136zM196.5 75c8.56 0 15.5-6.882 15.5-15.5 0-8.56-6.94-15.5-15.5-15.5-8.56 0-15.5 6.94-15.5 15.5 0 8.56 6.882 15.5 15.5 15.5zm-68 118c36.256 0 65.5-29.244 65.5-65.5S164.756 62 128.5 62 63 91.244 63 127.5 92.244 193 128.5 193zm0-23c-23.384 0-42.5-19.06-42.5-42.5S105.06 85 128.5 85s42.5 19.06 42.5 42.5-19.116 42.5-42.5 42.5z" fill-rule="nonzero"/></symbol><symbol id="wmcads-social-icon-linkedin" viewBox="0 0 256 256"><path d="M237.714 0H18.23C8.17 0 0 8.286 0 18.457v219.086C0 247.714 8.171 256 18.229 256h219.485c10.057 0 18.286-8.286 18.286-18.457V18.457C256 8.286 247.771 0 237.714 0zM77.43 219.429h-38V97.257h38V219.43zM58.4 80.57c-12.171 0-22-9.885-22-22 0-12.114 9.829-22 22-22 12.115 0 22 9.886 22 22 0 12.172-9.829 22-22 22zm161.2 138.86h-37.943l-.01-62.52c-.128-13.591-1.663-29.31-19.704-29.31-19.277 0-22.638 14.668-22.794 30.178l-.006 61.652H101.2V97.257h36.4v16.686h.514c5.086-9.6 17.486-19.714 35.943-19.714 37.76 0 45.296 24.477 45.537 56.589l.006 68.61z" fill-rule="nonzero"/></symbol><symbol id="wmcads-social-icon-twitter" viewBox="0 0 256 256"><path d="M80.68 238c96.341 0 149.448-79.924 149.448-149.306 0-2.38 0-4.42-.34-6.802C240 74.41 249.19 65.227 256 54.684c-9.532 4.081-19.745 7.142-30.298 8.163 10.894-6.462 19.404-17.006 23.15-28.91-10.214 6.123-21.448 10.204-33.363 12.585-19.744-21.087-53.106-22.107-74.212-2.381-13.617 12.584-19.405 31.97-14.98 50.335-42.211-2.04-81.7-22.106-108.253-54.756-13.958 23.807-6.809 54.756 16.34 70.06-8.17-.34-16.68-2.38-23.83-6.461v.68c0 24.828 17.702 46.254 41.873 51.356-7.83 2.04-16 2.38-23.83 1.02 6.808 21.427 26.553 36.051 49.021 36.391-18.723 14.625-41.532 22.447-65.021 22.447-4.085 0-8.17-.34-12.596-1.02C24.17 229.838 52.426 238 80.68 238" fill-rule="nonzero"/></symbol><symbol id="wmcads-social-icon-youtube" viewBox="0 0 256 256"><path d="M228.02 212.618c11.013-2.962 19.688-11.33 22.632-22.416 4.973-18.68 5.323-56.224 5.348-61.419v-1.203c-.025-5.195-.375-42.738-5.348-61.418-2.944-11.086-11.619-19.818-22.633-22.78-18.367-4.954-87.594-5.35-98.553-5.382h-2.93c-10.96.032-80.186.428-98.553 5.382-11.015 2.963-19.69 11.694-22.634 22.78C.151 85.691.004 125.837 0 128.083v.197c.004 2.246.15 42.393 5.35 61.922 2.944 11.086 11.618 19.454 22.633 22.416 18.367 4.954 87.594 5.35 98.553 5.382h2.93c10.959-.032 80.186-.428 98.553-5.382zM102 166V90l67 38-67 38z" fill-rule="nonzero"/></symbol></svg>