<svg id="Layer_1" data-name="Layer 1" xmlns="http://www.w3.org/2000/svg" viewBox="0 0 99.154 20.5006"><title>logo</title><path d="M29.44,9.396l1.3146-4.0991,1.315,4.0991H33.222l1.5908-5.7547H33.6685L32.6294,7.6184,31.3472,3.6413H30.1863L28.9121,7.6021,27.857,3.6413H26.672L28.2708,9.396Zm9.1558-1.1446-.9008-.2678a.8827.8827,0,0,1-.9094.6088.9725.9725,0,0,1-1.0063-.9091h2.857c0-.0161.0163-.1787.0163-.3329a1.8655,1.8655,0,0,0-1.9723-2.07A2.0049,2.0049,0,0,0,34.7159,7.383a2.0227,2.0227,0,0,0,2.0615,2.1346A1.7988,1.7988,0,0,0,38.5956,8.2514ZM36.6962,6.1573a.8031.8031,0,0,1,.8928.7873H35.8034A.8641.8641,0,0,1,36.6962,6.1573Zm8.5229,3.198V8.4625a1.56,1.56,0,0,1-.3329.0324c-.3084,0-.4707-.1136-.4707-.4626V6.36h.8036V5.4025h-.8036V4.2094h-.9742v.56a.575.575,0,0,1-.6166.6332h-.2028V6.36h.7222V8.219a1.156,1.156,0,0,0,1.2664,1.2338A1.5984,1.5984,0,0,0,45.2191,9.3553Zm-4.48-.6655a.6643.6643,0,0,1-.7308-.6088l-.9254.2028a1.5012,1.5012,0,0,0,1.6642,1.234,1.3791,1.3791,0,0,0,1.55-1.3149c0-.5845-.3975-1.0634-1.1853-1.2257l-.5678-.1219c-.2192-.04-.3654-.1623-.3654-.3571A.4591.4591,0,0,1,40.69,6.1a.6085.6085,0,0,1,.6574.5358l.901-.2028a1.569,1.569,0,0,0-3.06.154c0,.56.349,1.0227,1.12,1.1933l.5274.1216c.3086.0651.43.2111.43.39C41.266,8.5031,41.0957,8.69,40.7389,8.69Zm11.7255-5.053-1.315,4.0991L49.8348,3.6368H48.6822L47.0914,9.3915h1.1443l1.0387-3.9769L50.557,9.3915h1.1606l1.2745-3.9608,1.0551,3.9608h1.185L53.633,3.6368ZM56.36,4.753a.6655.6655,0,0,0,0-1.331.6655.6655,0,1,0,0,1.331Zm-.5357,4.6431h1.0794V5.4026H55.8247Zm4.9187-.4628a2.77,2.77,0,0,0,.0405.4625h1.031c-.0161-.1623-.0324-.4545-.0324-.7224V3.52H60.719V5.8a1.1959,1.1959,0,0,0-1.1282-.495,1.9519,1.9519,0,0,0-1.9154,2.0861,1.9631,1.9631,0,0,0,1.9478,2.1021A1.2518,1.2518,0,0,0,60.7434,8.9333Zm-.99-.4059a1.0081,1.0081,0,0,1-.99-1.1362,1.0025,1.0025,0,0,1,.99-1.12.99.99,0,0,1,.9823,1.1119A1.0144,1.0144,0,0,1,59.7531,8.5274Zm3.1167.8684h1.08V3.52H62.87ZM34.74,13.1464a1.9687,1.9687,0,0,0-1.9966,2.07,1.9982,1.9982,0,1,0,3.9932,0A1.9687,1.9687,0,0,0,34.74,13.1464Zm0,3.4658a1.2483,1.2483,0,0,1-1.2174-1.396,1.2279,1.2279,0,1,1,2.4348,0A1.2483,1.2483,0,0,1,34.74,16.6122Zm14.4967.56h.7548v-3.904h-.7548Zm-7.2158-4.0179a1.4015,1.4015,0,0,0-1.3069.7387,1.22,1.22,0,0,0-1.1689-.7387,1.3455,1.3455,0,0,0-1.1847.6332v-.5194H37.63v3.9041h.7549v-2.354a.9056.9056,0,0,1,.9091-.99.7857.7857,0,0,1,.8279.893v2.4512h.7626V14.81a.9107.9107,0,0,1,.9014-.9822.7858.7858,0,0,1,.8274.893v2.4512h.7551V14.64A1.3387,1.3387,0,0,0,42.0211,13.1544ZM49.61,11.239a.5479.5479,0,1,0,.552.552A.5453.5453,0,0,0,49.61,11.239ZM81.7176,8.2029c0-.5845-.3978-1.0634-1.1853-1.2257l-.5681-.1219c-.2191-.04-.3651-.1623-.3651-.3571A.4591.4591,0,0,1,80.11,6.1a.6085.6085,0,0,1,.6574.5358l.9008-.2028a1.5688,1.5688,0,0,0-3.06.154c0,.56.349,1.0227,1.12,1.1933l.5277.1216c.3086.0651.43.2111.43.39,0,.211-.17.3977-.5274.3977a.664.664,0,0,1-.73-.6088l-.9254.2028a1.5011,1.5011,0,0,0,1.6639,1.234A1.3792,1.3792,0,0,0,81.7176,8.2029ZM29.7968,16.5634a2.07,2.07,0,0,1-2.0454-2.2725,2.0629,2.0629,0,0,1,2.0454-2.2648,1.7047,1.7047,0,0,1,1.7938,1.3557l.7385-.26a2.4441,2.4441,0,0,0-2.5323-1.826,2.852,2.852,0,0,0-2.857,2.9949,2.8272,2.8272,0,0,0,2.857,3.0032,2.5123,2.5123,0,0,0,2.54-1.8506l-.7059-.26A1.8294,1.8294,0,0,1,29.7968,16.5634ZM46.55,13.1544A1.4259,1.4259,0,0,0,45.26,13.82V11.296H44.505v5.8763H45.26v-.5681a1.3936,1.3936,0,0,0,1.2665.6736A1.8577,1.8577,0,0,0,48.3442,15.2,1.8114,1.8114,0,0,0,46.55,13.1544Zm-.138,3.4417c-.6739,0-1.1609-.552-1.1609-1.3961a1.2094,1.2094,0,0,1,1.1609-1.3719c.7061,0,1.1526.5276,1.1526,1.3719S47.1105,16.5961,46.4124,16.5961Zm17.07-5.3h-.7551V13.82a1.2,1.2,0,0,0-1.1931-.6576,1.9185,1.9185,0,0,0-1.8509,2.0454,1.8837,1.8837,0,0,0,1.8509,2.07,1.3071,1.3071,0,0,0,1.2094-.698v.0651a3.3,3.3,0,0,0,.04.5274h.7388a6.2213,6.2213,0,0,1-.04-.7224ZM61.607,16.6043c-.73,0-1.1446-.5928-1.1446-1.3963s.4548-1.3717,1.1526-1.3717,1.12.552,1.12,1.3556S62.305,16.6043,61.607,16.6043ZM70.37,7.0988a.7517.7517,0,0,1,.7467-.8277.702.702,0,0,1,.7385.7953V9.3959h1.0795V6.88A1.4057,1.4057,0,0,0,71.49,5.2969a1.3264,1.3264,0,0,0-1.1524.6008V5.4024H69.29V9.3959h1.08ZM53.1574,13.1544a1.3374,1.3374,0,0,0-1.2014.6737v-.56h-.7468v3.9041h.7631V14.9158c0-.5925.3084-1.0714.9092-1.0714.6814,0,.9088.4385.9088.9822v2.3457h.7631V14.6967A1.3706,1.3706,0,0,0,53.1574,13.1544ZM67.3019,8.9171a2.7,2.7,0,0,0,.04.4789h.99a4.4672,4.4672,0,0,1-.0485-.6332V6.7986c0-.8036-.4709-1.518-1.7371-1.518a1.5875,1.5875,0,0,0-1.7124,1.3149l.9576.2031a.7087.7087,0,0,1,.7628-.6493c.4549,0,.6737.2354.6737.5194,0,.1379-.0729.2515-.3.2841l-.9819.1461a1.2305,1.2305,0,0,0-1.1931,1.2093A1.2609,1.2609,0,0,0,66.125,9.51,1.3339,1.3339,0,0,0,67.3019,8.9171Zm-1.4692-.6737A.5043.5043,0,0,1,66.328,7.74l.9008-.138v.1787a.811.811,0,0,1-.8764.9252A.4686.4686,0,0,1,65.8327,8.2434ZM57.24,13.1465a1.9483,1.9483,0,0,0-1.867,2.0617,1.9477,1.9477,0,0,0,1.9642,2.0858A1.7693,1.7693,0,0,0,59.0908,16.06l-.6574-.2271a1.0639,1.0639,0,0,1-1.0958.7872,1.159,1.159,0,0,1-1.1767-1.185h2.9379a1.6848,1.6848,0,0,0,.0163-.2435A1.8219,1.8219,0,0,0,57.24,13.1465ZM56.185,14.8184a1.05,1.05,0,0,1,1.0634-.9983.9835.9835,0,0,1,1.0712.9983ZM76.7174,8.9333a2.7837,2.7837,0,0,0,.04.4625h1.031c-.016-.1623-.0324-.4545-.0324-.7224V3.52H76.693V5.8a1.1959,1.1959,0,0,0-1.1282-.495,1.952,1.952,0,0,0-1.9155,2.0861,1.9632,1.9632,0,0,0,1.9479,2.1021A1.2521,1.2521,0,0,0,76.7174,8.9333Zm-.99-.4059a1.0082,1.0082,0,0,1-.99-1.1362,1.0025,1.0025,0,0,1,.99-1.12.99.99,0,0,1,.9823,1.1119A1.0144,1.0144,0,0,1,75.7271,8.5274Zm-7.7481,2.89L65.69,17.1724h.8521l.6088-1.6071H69.7l.6249,1.6071h.86l-2.2889-5.7547Zm-.5438,3.4088.982-2.5811.9983,2.5811Zm13.4579-1.6721a1.3815,1.3815,0,0,0-1.185.5681V11.296h-.7632v5.8763h.7632V14.8751c.0163-.5761.3246-1.0307.9091-1.0307.6814,0,.9088.4385.9088.9822v2.3457h.7632V14.6967A1.3706,1.3706,0,0,0,80.8931,13.1544Zm4.2044-.008a1.9687,1.9687,0,0,0-1.9966,2.07,1.9982,1.9982,0,1,0,3.9932,0A1.9686,1.9686,0,0,0,85.0975,13.1464Zm0,3.4658a1.2483,1.2483,0,0,1-1.2174-1.396,1.228,1.228,0,1,1,2.4351,0A1.2484,1.2484,0,0,1,85.0975,16.6122Zm-7.93-4.5778H76.47v.633a.5464.5464,0,0,1-.6008.6008h-.2111v.69h.7468v2.1429a1.0135,1.0135,0,0,0,1.0875,1.1121,1.666,1.666,0,0,0,.5194-.0731v-.6493a1.527,1.527,0,0,1-.3.0324c-.3975,0-.5438-.1784-.5438-.5357V13.9579h.8441v-.69h-.8441ZM88.7339,13.95v-.6819h-.7468v3.9043H88.75V15.2162c0-.86.43-1.2013,1.0715-1.2013a2.37,2.37,0,0,1,.3326.0243v-.8116a1.4414,1.4414,0,0,0-.2515-.0244A1.223,1.223,0,0,0,88.7339,13.95Zm2.5243-2.711a.5479.5479,0,1,0,.5521.552A.5455.5455,0,0,0,91.2582,11.239Zm-.3734,5.9333H91.64v-3.904h-.7548ZM93.88,12.0344h-.6978v.633a.5464.5464,0,0,1-.601.6008H92.37v.69h.7468v2.1429a1.0136,1.0136,0,0,0,1.0878,1.1121,1.6652,1.6652,0,0,0,.5193-.0731v-.6493a1.5286,1.5286,0,0,1-.3.0324c-.3978,0-.5438-.1784-.5438-.5357V13.9579h.844v-.69H93.88ZM74.9269,13.2681H74.164v2.354a.8824.8824,0,0,1-.9254.9983c-.641,0-.8842-.4709-.8842-1.0064V13.2681h-.7632v2.46a1.4436,1.4436,0,0,0,1.461,1.5664,1.2737,1.2737,0,0,0,1.1525-.5925,3.4258,3.4258,0,0,0,.0325.4707h.73a6.595,6.595,0,0,1-.0407-.7224Zm23.466,0L97.224,15.9629l-1.2177-2.6946H95.13l1.68,3.4738-.974,2.0617h.836l2.54-5.5355Z" transform="translate(-0.0586 0)" fill="#fff"/><path d="M7.3968,0A3.3471,3.3471,0,0,0,4.4973,1.672L4.4927,1.68V6.2754L11.38,2.3043,7.3911.0044m14.861,8.5724-.0027-.0047L18.2665,6.2754v7.95l3.9829-2.2966.0027-.0047A3.3476,3.3476,0,0,0,22.2521,8.5768ZM7.3911,20.4962m-2.9-1.6676a3.347,3.347,0,0,0,2.8995,1.672l3.9858-2.3025L4.4927,14.2288V18.827" transform="translate(-0.0586 0)" fill="#f9be91"/><path d="M18.2618,1.672A3.347,3.347,0,0,0,15.3623,0L7.3911.0044l14.86,8.5687Zm-2.9,18.8286a3.347,3.347,0,0,0,2.9-1.672l3.9893-6.901-14.86,8.5686ZM.507,11.9238,4.4927,18.827V1.6736L.507,8.5768A3.3469,3.3469,0,0,0,.507,11.9238Z" transform="translate(-0.0586 0)" fill="#ee7622"/></svg>