<svg xmlns="http://www.w3.org/2000/svg" width="50" height="50" viewBox="0 0 50 50">
    <g fill="none" fill-rule="evenodd">
        <g fill="#C05701">
            <g>
                <g>
                    <path d="M27.5 34.956v-2.5H4.993c-1.376-.004-2.493-1.124-2.493-2.5h25v-2.5h-20v-20h30v5H40v-5c0-1.38-1.12-2.5-2.5-2.5h-30c-1.38 0-2.5 1.12-2.5 2.5v20H1.25c-.69 0-1.25.56-1.25 1.25v1.25c.006 2.75 2.243 4.99 4.993 5H27.5zm20 10c1.38 0 2.5-1.12 2.5-2.5v-25c0-1.38-1.12-2.5-2.5-2.5h-15c-1.38 0-2.5 1.12-2.5 2.5v25c0 1.38 1.12 2.5 2.5 2.5h15zm0-2.5h-15v-25h15v25z" transform="translate(-176 -884) translate(175 830) translate(1 54)"/>
                </g>
            </g>
        </g>
    </g>
</svg>
