<svg xmlns="http://www.w3.org/2000/svg" width="50" height="50" viewBox="0 0 50 50">
    <g fill="none" fill-rule="evenodd">
        <g fill="#C05701">
            <g>
                <g>
                    <path d="M17.187 46.79c9.493 0 17.188-3.497 17.188-7.813v-1.602c8.76-.36 15.625-3.7 15.625-7.773v-18.75C50 7.24 43.935 3.04 32.812 3.04c-4.746 0-9.042.879-12.158 2.285-.088.039-5.029 2.05-5.029 5.527v1.631C7.432 12.825 0 15.872 0 20.227v18.75c0 4.316 7.695 7.813 17.187 7.813zm15.625-31.25c-.712 0-1.367-.05-2.04-.088-3.604-2.12-8.301-2.754-11.29-2.93-.615-.518-.986-1.074-.986-1.67 0-2.588 6.416-4.687 14.326-4.687s14.326 2.1 14.326 4.687c0 2.588-6.425 4.688-14.336 4.688zm1.563 9.296v-4.609c0-.547-.166-1.074-.4-1.592 5.332-.166 10-1.416 12.9-3.3v4.892c0 1.28-4.404 4.238-12.5 4.61zm-17.188.079c-7.91 0-14.326-2.1-14.326-4.688 0-2.588 6.416-4.687 14.326-4.687s14.327 2.1 14.327 4.687c0 2.588-6.416 4.688-14.327 4.688zm0 9.375c-9.13 0-14.062-3.33-14.062-4.688V24.71c3.105 2.011 8.242 3.33 14.062 3.33 5.82 0 10.957-1.319 14.063-3.33v4.892c0 1.358-4.932 4.688-14.063 4.688zm17.188-.069v-6.26c5.156-.214 9.678-1.425 12.5-3.251v4.892c0 1.28-4.395 4.258-12.5 4.62zm-17.188 9.444c-9.13 0-14.062-3.33-14.062-4.688v-4.892c3.105 2.011 8.242 3.33 14.062 3.33 5.82 0 10.957-1.319 14.063-3.33v4.892c0 1.358-4.932 4.688-14.063 4.688z" transform="translate(-336 -884) translate(175 830) translate(161 54)"/>
                </g>
            </g>
        </g>
    </g>
</svg>
