<svg xmlns="http://www.w3.org/2000/svg" width="50" height="50" viewBox="0 0 50 50">
    <g fill="none" fill-rule="evenodd">
        <g fill="#C05701">
            <g>
                <g>
                    <path d="M30.653 50.074c1.161 0 1.917-1.222 1.398-2.261l-2.364-4.727v-5.513h10.938c5.17 0 9.375-4.205 9.375-9.375 0-3.561-1.986-6.721-5.084-8.302.263-.866.397-1.747.397-2.635 0-5.17-4.206-9.375-9.376-9.375-.561 0-1.117.052-1.668.152C33.588 3.535 29.69.073 25 .073s-8.588 3.462-9.269 7.965c-.456-.084-1.204-.152-1.668-.152-5.17 0-9.376 4.205-9.376 9.375 0 .888.135 1.77.397 2.635C1.986 21.476 0 24.636 0 28.198c0 5.17 4.205 9.375 9.375 9.375h10.938v5.513l-2.364 4.727c-.52 1.039.237 2.261 1.398 2.261h11.306zm9.972-15.626H9.375c-3.445 0-6.25-2.802-6.25-6.25 0-2.746 1.785-5.135 4.44-5.945l1.774-.54-.833-1.657c-.458-.915-.694-1.857-.694-2.795 0-3.447 2.805-6.25 6.25-6.25 1.4 0 1.949.287 4.997 1.658-.213-2.322-.232-2.557-.264-2.841l-.003-.023-.001-.012-.003-.023-.038-.322c0-3.447 2.805-6.25 6.25-6.25s6.25 2.803 6.226 6.487l-.285 2.984c2.758-1.24 3.444-1.658 4.997-1.658 3.445 0 6.25 2.803 6.25 6.25 0 .938-.236 1.88-.693 2.795l-.833 1.657 1.774.54c2.654.81 4.439 3.2 4.439 5.945 0 3.448-2.805 6.25-6.25 6.25zm-12.5 12.5h-6.25l1.563-3.125v-6.25h3.125v6.25l1.562 3.125z" transform="translate(-496 -884) translate(175 830) translate(321 54)"/>
                </g>
            </g>
        </g>
    </g>
</svg>
