<svg xmlns="http://www.w3.org/2000/svg" width="50" height="50" viewBox="0 0 50 50">
    <g fill="none" fill-rule="evenodd">
        <g fill="#C05701">
            <g>
                <g>
                    <path d="M46.875 50.073V48.12c0-.647-.525-1.172-1.172-1.172H43.75V2.418c0-1.295-1.05-2.345-2.344-2.345H8.594c-1.295 0-2.344 1.05-2.344 2.344v44.531H4.297c-.647 0-1.172.525-1.172 1.172v1.953h43.75zm-25-3.125h-12.5V3.198h31.25v43.75h-12.5v-8.3c0-.648-.525-1.172-1.172-1.172h-3.906c-.647 0-1.172.524-1.172 1.172v8.3zm-1.172-31.347c.647 0 1.172-.525 1.172-1.172v-3.906c0-.648-.525-1.172-1.172-1.172h-3.906c-.647 0-1.172.524-1.172 1.172v3.906c0 .647.525 1.172 1.172 1.172h3.906zm12.5 0c.647 0 1.172-.525 1.172-1.172v-3.906c0-.648-.525-1.172-1.172-1.172h-3.906c-.647 0-1.172.524-1.172 1.172v3.906c0 .647.525 1.172 1.172 1.172h3.906zm-12.5 9.375c.647 0 1.172-.525 1.172-1.172v-3.906c0-.648-.525-1.172-1.172-1.172h-3.906c-.647 0-1.172.524-1.172 1.172v3.906c0 .647.525 1.172 1.172 1.172h3.906zm12.5 0c.647 0 1.172-.525 1.172-1.172v-3.906c0-.648-.525-1.172-1.172-1.172h-3.906c-.647 0-1.172.524-1.172 1.172v3.906c0 .647.525 1.172 1.172 1.172h3.906zm-12.5 9.375c.647 0 1.172-.525 1.172-1.172v-3.906c0-.648-.525-1.172-1.172-1.172h-3.906c-.647 0-1.172.524-1.172 1.172v3.906c0 .647.525 1.172 1.172 1.172h3.906zm12.5 0c.647 0 1.172-.525 1.172-1.172v-3.906c0-.648-.525-1.172-1.172-1.172h-3.906c-.647 0-1.172.524-1.172 1.172v3.906c0 .647.525 1.172 1.172 1.172h3.906z" transform="translate(-656 -884) translate(175 830) translate(481 54)"/>
                </g>
            </g>
        </g>
    </g>
</svg>
