<svg xmlns="http://www.w3.org/2000/svg" width="50" height="50" viewBox="0 0 50 50">
    <g fill="none" fill-rule="evenodd">
        <g fill="#C05701">
            <g>
                <g>
                    <path d="M25 50.083c13.81 0 25-11.19 25-25 0-13.811-11.19-25-25-25s-25 11.189-25 25c0 13.81 11.19 25 25 25zm0-3.226c-12.006 0-21.774-9.768-21.774-21.774C3.226 13.076 12.994 3.308 25 3.308s21.774 9.768 21.774 21.775c0 12.006-9.768 21.774-21.774 21.774zM16.935 23.47c1.785 0 3.226-1.442 3.226-3.226 0-1.785-1.441-3.226-3.226-3.226-1.784 0-3.225 1.441-3.225 3.226 0 1.784 1.441 3.226 3.225 3.226zm16.13 0c1.784 0 3.225-1.442 3.225-3.226 0-1.785-1.441-3.226-3.225-3.226-1.785 0-3.226 1.441-3.226 3.226 0 1.784 1.441 3.226 3.226 3.226zM25 39.599c4.476 0 8.7-1.976 11.573-5.424.574-.685.483-1.703-.202-2.268-.686-.564-1.704-.474-2.278.212-2.258 2.701-5.575 4.254-9.093 4.254s-6.835-1.553-9.093-4.254c-.574-.686-1.592-.776-2.268-.202-.685.575-.776 1.583-.202 2.268C16.3 37.623 20.524 39.6 25 39.6z" transform="translate(-816 -884) translate(175 830) translate(641 54)"/>
                </g>
            </g>
        </g>
    </g>
</svg>
