<svg xmlns="http://www.w3.org/2000/svg" width="50" height="50" viewBox="0 0 50 50">
    <g fill="none" fill-rule="evenodd">
        <g fill="#C05701">
            <g>
                <g>
                    <path d="M45.313 46.79C47.9 46.79 50 44.69 50 42.102v-25c0-2.589-2.099-4.687-4.688-4.687H34.376V5.383c0-1.295-1.049-2.343-2.344-2.343H17.97c-1.295 0-2.344 1.048-2.344 2.343v7.032H4.687C2.1 12.415 0 14.513 0 17.102v25c0 2.589 2.099 4.688 4.688 4.688h40.624zM31.25 12.415h-12.5v-6.25h12.5v6.25zm15.625 12.5H3.125v-7.813c0-.861.701-1.562 1.563-1.562h40.624c.862 0 1.563.7 1.563 1.562v7.813zm-1.563 18.75H4.688c-.862 0-1.563-.701-1.563-1.563V28.04H18.75v3.906c0 1.294 1.05 2.344 2.344 2.344h7.812c1.294 0 2.344-1.05 2.344-2.344V28.04h15.625v14.062c0 .862-.701 1.563-1.563 1.563zm-17.187-12.5h-6.25V28.04h6.25v3.125z" transform="translate(-976 -884) translate(175 830) translate(801 54)"/>
                </g>
            </g>
        </g>
    </g>
</svg>
