<svg xmlns="http://www.w3.org/2000/svg" width="50" height="50" viewBox="0 0 50 50">
    <g fill="none" fill-rule="evenodd">
        <g fill="#C05701">
            <g>
                <g>
                    <path d="M48.006 5.078c.99 0 1.595.753 1.797 1.197.035.077.06.159.074.242.094.558.92 5.485.978 6.644.011.218.02.456.027.698l.01.364c.017.727.02 1.427.02 1.704l.001 2.014c0 .54-.437.977-.977.977h-3.813c-.166.403-.447.746-.804.987 2.076 3.39 2.287 8.292 2.3 9.855v.282l-.003.17c.01.38-.13.746-.398 1.033-.346.37-1.082.86-3.475.86h-6.39c.6.832 1.197 1.865 1.767 3.146 1.132 2.542 1.796 5.308 1.739 6.022-.11 1.354-1.162 2.375-2.45 2.375h-1.932c-.368.775-1.156 1.315-2.07 1.315-.914 0-1.703-.54-2.07-1.315h-.781c-.368.775-1.156 1.315-2.07 1.315-.914 0-1.703-.54-2.07-1.315H13.769c-.367.775-1.156 1.315-2.07 1.315-.914 0-1.703-.54-2.07-1.315h-.78c-.368.775-1.157 1.315-2.07 1.315-.915 0-1.703-.54-2.071-1.315H3.315c-1.408 0-2.51-1.078-2.51-2.453V31.2c0-1.353 1.126-2.453 2.51-2.453l.874.003c.13-2.61.762-7.93 3.701-10.617.241-.289.967-1.042 1.96-1.042l4.36-.017 2.407-2.53-3.115-3.324h-2.29c-.452 0-.819-.366-.819-.818 0-.452.367-.819.82-.819h5.791c.453 0 .82.367.82.819 0 .452-.367.818-.82.818h-1.258l2.594 2.767c.297.317.295.81-.004 1.124l-1.857 1.953 3.283-.013V6.055c0-.54.437-.977.977-.977zm-12.722 38.57H33.53c.233.21.54.338.878.338.337 0 .644-.129.877-.338zm-4.92 0h-1.756c.233.21.54.338.878.338.337 0 .644-.129.877-.338zm-17.787 0H10.82c.233.21.54.338.878.338.337 0 .644-.129.878-.338zm-4.921 0H5.9c.233.21.54.338.878.338.338 0 .645-.129.878-.338zM3.31 30.7c-.325 0-.553.263-.553.5v9.995c0 .343.288.5.557.5h35.094c.305 0 .471-.284.5-.556-.005-.135-.046-.389-.12-.73H6.448c-.194 0-.35-.156-.35-.35 0-.194.156-.351.35-.351h32.168c-.128-.482-.297-1.048-.507-1.66h-9.19c-.269 0-.488-.218-.488-.488v-3.918c0-.27.22-.489.489-.489h6.778c-.825-1.134-1.803-2.024-2.927-2.34zm13.576 2.454c.27 0 .488.218.488.488v3.918c0 .27-.219.488-.488.488H8.14c-.27 0-.488-.218-.488-.488v-3.918c0-.27.219-.488.488-.488zm10.448 0c.27 0 .489.218.489.488v3.918c0 .27-.219.488-.489.488H18.59c-.27 0-.488-.218-.488-.488v-3.918c0-.27.219-.488.488-.488zm-10.937.976H8.63v2.942h7.768V34.13zm10.45 0h-7.77v2.942h7.77V34.13zm9.491 0h-6.93v2.942h8.342c-.38-.976-.852-2.002-1.412-2.942zm-7.303-15.138h-.103v9.853l3.971.016c.078 0 .155.01.23.028.663.164 1.448.5 2.284 1.153V21.02c0-.27.218-.488.488-.488h4.202c.27 0 .489.218.489.488v9.131h3.146c1.134 0 1.684-.122 1.921-.202 0-.428-.019-1.386-.141-2.574-1.005-.053-1.787-.334-2.37-.855-1.12-1.003-1.166-2.635-1.2-3.827l-.004-.182c-.088-1.489.033-2.335.777-2.783-.055-.055-.11-.11-.166-.162 0 0-.522-.522-.636-.522h-.12l-.187-.002-12.581-.051zm10.584 2.517h-3.226v8.643h3.226V21.51zm-12.64-2.347h-2.183v9.668l2.182.008v-9.676zm-4.136-.17l-12.99.053c-.1.006-.347.192-.484.363-.034.043-.077.09-.118.127-.07.062-.138.126-.204.193.745.449.867 1.298.78 2.798l-.006.169c-.033 1.191-.079 2.823-1.2 3.826-.583.522-1.366.803-2.372.855-.05.466-.084.928-.107 1.382l5.036.02V21.02c0-.27.22-.488.489-.488h4.202c.27 0 .488.218.488.488v7.776l6.486.025v-9.83zm-7.462 2.517h-3.226v7.272l3.226.012V21.51zm19.072-.976c.27 0 .489.218.489.488v5.683c0 .27-.219.488-.489.488h-4.34c-.27 0-.489-.219-.489-.488V21.02c0-.27.22-.488.489-.488zm-12.792 0c.27 0 .489.218.489.488v5.683c0 .27-.219.488-.489.488h-4.34c-.27 0-.489-.219-.489-.488V21.02c0-.27.219-.488.489-.488zm21.707-.047c-.462.207-.522.677-.445 1.983l.006.198c.03 1.07.067 2.403.875 3.127.373.334.91.529 1.596.59-.28-1.957-.856-4.266-2.032-5.898zm-34.958.002c-1.072 1.506-1.714 3.688-2.037 5.897.686-.062 1.224-.257 1.597-.591.808-.724.845-2.056.875-3.127l.006-.185c.076-1.31.017-1.785-.44-1.994zm25.555 1.021h-3.364v4.706h3.364V21.51zm-12.792 0H17.81v4.706h3.364V21.51zm22.93-4.622c-.423 0-.794.219-1.01.548.316.206.563.471.792.698.32.293.612.619.88.967.327-.216.543-.586.543-1.007 0-.665-.541-1.206-1.206-1.206zm-18.219-.002c-.53 0-.98.344-1.142.821.033.098.054.2.054.305v.45h2.182v-.42c0-.113.016-.225.05-.332-.16-.478-.612-.824-1.144-.824zM47.978 7.03H21.715v10.012l2.101-.008c.052 0 .101.008.15.016.37-.68 1.092-1.143 1.92-1.143.826 0 1.547.462 1.917 1.142.052-.009.104-.014.157-.015l13.97.056c.08 0 .156.006.23.013.362-.707 1.096-1.193 1.943-1.193.79 0 1.482.424 1.865 1.055l.025-.001h2.967V15.96v-.063l-.001-.17c-.002-.328-.007-.863-.02-1.414-.926-.13-1.621-.539-2.062-.886-.517-.409-.855-1.02-.928-1.675l-.281-2.94c-.016-.138.028-.276.12-.38.093-.104.226-.163.365-.163h2.054c-.046-.277-.187-1.017-.223-1.232l-.006-.006zm-4.235 1.336c.27 0 .488.219.488.488v4.464c0 .27-.219.489-.488.489h-7.27c-.269 0-.487-.219-.487-.489V8.855c0-.27.218-.488.488-.488zm-9.12 0c.27 0 .489.219.489.488v4.464c0 .27-.219.489-.489.489h-9.337c-.27 0-.488-.219-.488-.489V8.855c0-.27.219-.488.488-.488zm13.742.879h-1.667l.222 2.398c.045.404.245.765.563 1.016.313.248.794.533 1.424.656l-.003-.057c-.03-.615-.258-2.266-.539-4.013zm-5.11.098h-6.293v3.487h6.292V9.344zm-9.12 0h-8.36v3.487h8.36V9.344z" transform="translate(-175 -1014) translate(175 830) translate(0 184)"/>
                </g>
            </g>
        </g>
    </g>
</svg>
