<svg xmlns="http://www.w3.org/2000/svg" width="50" height="50" viewBox="0 0 50 50">
    <g fill="none" fill-rule="evenodd">
        <g fill="#C05701">
            <g>
                <g>
                    <path d="M24.99 46.79c.801 0 1.602-.312 2.208-.947L46.094 26.33c5.508-5.664 5.186-15.059-.947-20.293-5.322-4.532-13.282-3.78-18.223 1.318L25 9.348l-1.924-1.982C19.092 3.245 11.055.764 4.854 6.038c-6.133 5.234-6.456 14.629-.967 20.293l18.896 19.512c.606.625 1.407.947 2.207.947zm.05-3.115L6.132 24.163c-3.75-3.867-4.531-11.24.752-15.742 5.351-4.57 11.64-1.26 13.945 1.123L25 13.85l4.17-4.306C31.436 7.2 37.784 3.879 43.116 8.42c5.273 4.492 4.502 11.865.752 15.742L25.039 43.675z" transform="translate(-336 -1014) translate(175 830) translate(161 184)"/>
                </g>
            </g>
        </g>
    </g>
</svg>
